<svg width="34" height="39" viewBox="0 0 34 39" fill="none" xmlns="http://www.w3.org/2000/svg">
<g clip-path="url(#clip0_43_4138)">
<mask id="mask0_43_4138" style="mask-type:luminance" maskUnits="userSpaceOnUse" x="0" y="0" width="34" height="39">
<path d="M33.6413 0.987793H0.348145V38.2785H33.6413V0.987793Z" fill="white"/>
</mask>
<g mask="url(#mask0_43_4138)">
<path d="M11.743 23.6384C13.0285 23.6384 14.0706 24.6805 14.0706 25.966V35.9509C14.0706 37.2364 13.0285 38.2783 11.743 38.2783C10.4577 38.2783 9.41553 37.2364 9.41553 35.9509V25.966C9.41553 24.6807 10.4577 23.6384 11.743 23.6384Z" fill="#A4C639"/>
<path d="M6.42894 11.6338C6.42125 11.7221 6.41455 11.8113 6.41455 11.9015V27.0294C6.41455 28.6564 7.70233 29.967 9.30098 29.967H24.685C26.2839 29.967 27.5716 28.6562 27.5716 27.0294V11.9015C27.5716 11.8113 27.5683 11.7217 27.5609 11.6338H6.42894Z" fill="#A4C639"/>
<path d="M22.2447 23.6386C23.5302 23.6386 24.5723 24.6807 24.5723 25.9662V35.9511C24.5723 37.2366 23.5302 38.2785 22.2447 38.2785C20.9594 38.2785 19.9172 37.2366 19.9172 35.9511V25.9662C19.9172 24.6809 20.9594 23.6386 22.2447 23.6386ZM2.67575 12.9804C3.96109 12.9804 5.00321 14.0226 5.00321 15.308V25.2928C5.00321 26.5783 3.96109 27.6204 2.67575 27.6204C1.39027 27.6204 0.348145 26.5783 0.348145 25.293V15.3081C0.347981 14.0226 1.3901 12.9804 2.67575 12.9804ZM31.3127 12.9804C32.5981 12.9804 33.6402 14.0226 33.6402 15.308V25.2928C33.6402 26.5783 32.5981 27.6204 31.3127 27.6204C30.0272 27.6204 28.9851 26.5783 28.9851 25.293V15.3081C28.9851 14.0226 30.0272 12.9804 31.3127 12.9804ZM6.49791 10.6404C6.56263 5.99363 10.6184 2.18374 15.8243 1.68164H18.1636C23.3699 2.18391 27.4254 5.99396 27.4901 10.6404H6.49791Z" fill="#A4C639"/>
<path d="M26.6846 1.23315L24.2292 5.48598M7.31104 1.23315L9.7663 5.48598" stroke="#A4C639" stroke-width="0.626931" stroke-linecap="round" stroke-linejoin="round"/>
<path d="M13.8707 6.47605C13.8727 7.12558 13.3351 7.65367 12.6699 7.65547C12.005 7.6571 11.4644 7.13212 11.4624 6.48259V6.47605C11.4606 5.82636 11.9982 5.29843 12.6633 5.29664C13.3282 5.29484 13.8688 5.81966 13.8707 6.46951V6.47605ZM22.8596 6.47605C22.8615 7.12558 22.324 7.65367 21.6587 7.65547C20.9938 7.6571 20.4532 7.13212 20.4511 6.48259V6.47605C20.4494 5.82636 20.9869 5.29843 21.652 5.29664C22.3169 5.29484 22.8576 5.81966 22.8596 6.46951V6.47605Z" fill="white"/>
</g>
</g>
<defs>
<clipPath id="clip0_43_4138">
<rect width="33.5616" height="37.2907" fill="white" transform="translate(0.348145 0.987793)"/>
</clipPath>
</defs>
</svg>
