<svg width="32" height="32" viewBox="0 0 32 32" fill="none" xmlns="http://www.w3.org/2000/svg">
<path d="M26 4.85H6C5.16457 4.85 4.36335 5.18187 3.77261 5.77261C3.18187 6.36335 2.85 7.16457 2.85 8V22C2.85 22.8354 3.18187 23.6366 3.77261 24.2274C4.36335 24.8181 5.16457 25.15 6 25.15H14.85V26.85H12C11.695 26.85 11.4025 26.9712 11.1868 27.1868C10.9712 27.4025 10.85 27.695 10.85 28C10.85 28.305 10.9712 28.5975 11.1868 28.8132C11.4025 29.0288 11.695 29.15 12 29.15H20C20.305 29.15 20.5975 29.0288 20.8132 28.8132C21.0288 28.5975 21.15 28.305 21.15 28C21.15 27.695 21.0288 27.4025 20.8132 27.1868C20.5975 26.9712 20.305 26.85 20 26.85H17.15V25.15H26C26.8354 25.15 27.6366 24.8181 28.2274 24.2274C28.8181 23.6366 29.15 22.8354 29.15 22V8C29.15 7.16457 28.8181 6.36335 28.2274 5.77261C27.6366 5.18187 26.8354 4.85 26 4.85ZM6 7.15H26C26.2254 7.15 26.4416 7.23955 26.601 7.39896C26.7604 7.55837 26.85 7.77457 26.85 8V17.85H5.15V8C5.15 7.77457 5.23955 7.55837 5.39896 7.39896C5.55837 7.23955 5.77457 7.15 6 7.15ZM26 22.85H6C5.77457 22.85 5.55837 22.7604 5.39896 22.601C5.23955 22.4416 5.15 22.2254 5.15 22V20.15H26.85V22C26.85 22.2254 26.7604 22.4416 26.601 22.601C26.4416 22.7604 26.2254 22.85 26 22.85Z" fill="#C63031" stroke="#C63031" stroke-width="0.3"/>
</svg>
