<svg width="34" height="32" viewBox="0 0 34 32" fill="none" xmlns="http://www.w3.org/2000/svg">
<path d="M22.6939 5.73561L22.6937 5.73544C22.5003 5.46987 22.2486 5.25217 21.958 5.09904C21.6673 4.94591 21.3454 4.86143 21.017 4.85209C20.6886 4.84275 20.3624 4.90879 20.0635 5.04515C19.7652 5.18123 19.502 5.38374 19.294 5.63717L17.6893 7.49782L17.6889 7.49829L17.6643 7.52657L17.6642 7.52648L17.6601 7.53158C17.5811 7.63085 17.4807 7.71103 17.3664 7.76613C17.2521 7.82124 17.1269 7.84985 17 7.84985C16.8731 7.84985 16.7479 7.82124 16.6336 7.76613C16.5193 7.71103 16.4189 7.63085 16.3399 7.53158L16.34 7.53149L16.3357 7.52657L16.3111 7.49829L16.3107 7.49782L14.7061 5.6372C14.498 5.38375 14.2348 5.18124 13.9365 5.04515C13.6376 4.90879 13.3114 4.84275 12.983 4.85209C12.6546 4.86143 12.3327 4.94591 12.042 5.09904C11.7514 5.25217 11.4997 5.46987 11.3063 5.73544L11.3061 5.73561L5.41355 13.85H2C1.695 13.85 1.40249 13.9712 1.18683 14.1868C0.97116 14.4025 0.85 14.695 0.85 15C0.85 15.305 0.97116 15.5975 1.18683 15.8132C1.40249 16.0288 1.695 16.15 2 16.15H32C32.305 16.15 32.5975 16.0288 32.8132 15.8132C33.0288 15.5975 33.15 15.305 33.15 15C33.15 14.695 33.0288 14.4025 32.8132 14.1868C32.5975 13.9712 32.305 13.85 32 13.85H28.5865L22.6939 5.73561ZM13.0522 7.24202L14.5575 8.98637C14.8527 9.34877 15.2248 9.64096 15.6469 9.84174C16.0696 10.0428 16.5319 10.1472 17 10.1472C17.4681 10.1472 17.9304 10.0428 18.3531 9.84174C18.7752 9.64096 19.1473 9.34877 19.4425 8.98637L20.9465 7.24358L25.7432 13.85H8.25549L13.0522 7.24202ZM23.5 17.85C22.3563 17.8502 21.2529 18.2719 20.4005 19.0344C19.5816 19.767 19.0497 20.7649 18.8965 21.85H15.1034C14.95 20.7659 14.4185 19.769 13.6006 19.0368C12.7492 18.2748 11.647 17.8528 10.5044 17.8516C9.36173 17.8504 8.25864 18.2699 7.40559 19.0301C6.55254 19.7903 6.00926 20.838 5.87941 21.9732C5.74957 23.1084 6.04226 24.2517 6.70163 25.1849C7.361 26.1181 8.34088 26.7759 9.45428 27.0327C10.5677 27.2894 11.7367 27.1273 12.7381 26.5771C13.7085 26.0441 14.4557 25.183 14.8473 24.15H19.1527C19.4422 24.9126 19.9274 25.5864 20.5604 26.1029C21.2209 26.6418 22.0169 26.9888 22.8613 27.1059C23.7058 27.223 24.5661 27.1058 25.3484 26.7669C26.1306 26.4281 26.8047 25.8807 27.2969 25.1846C27.7891 24.4885 28.0804 23.6706 28.1391 22.8201C28.1978 21.9696 28.0215 21.1194 27.6296 20.3623C27.2377 19.6052 26.6452 18.9705 25.9169 18.5274C25.1886 18.0843 24.3525 17.85 23.5 17.85ZM10.5 24.85C10.0352 24.85 9.58087 24.7122 9.19441 24.454C8.80795 24.1957 8.50675 23.8287 8.32888 23.3993C8.15102 22.9699 8.10448 22.4974 8.19515 22.0415C8.28583 21.5857 8.50965 21.167 8.8383 20.8383C9.16695 20.5096 9.58568 20.2858 10.0415 20.1952C10.4974 20.1045 10.9699 20.151 11.3993 20.3289C11.8287 20.5067 12.1957 20.808 12.454 21.1944C12.7122 21.5809 12.85 22.0352 12.85 22.5C12.85 22.8086 12.7892 23.1142 12.6711 23.3993C12.553 23.6844 12.3799 23.9435 12.1617 24.1617C11.9435 24.3799 11.6844 24.553 11.3993 24.6711C11.1142 24.7892 10.8086 24.85 10.5 24.85ZM23.5 24.85C23.0352 24.85 22.5809 24.7122 22.1944 24.454C21.808 24.1957 21.5068 23.8287 21.3289 23.3993C21.151 22.9699 21.1045 22.4974 21.1952 22.0415C21.2858 21.5857 21.5096 21.167 21.8383 20.8383C22.167 20.5096 22.5857 20.2858 23.0415 20.1952C23.4974 20.1045 23.9699 20.151 24.3993 20.3289C24.8287 20.5067 25.1957 20.808 25.454 21.1944C25.7122 21.5809 25.85 22.0352 25.85 22.5C25.85 23.1233 25.6024 23.721 25.1617 24.1617C24.721 24.6024 24.1233 24.85 23.5 24.85Z" fill="#C63031" stroke="#C63031" stroke-width="0.3"/>
</svg>
