<svg width="32" height="32" viewBox="0 0 32 32" fill="none" xmlns="http://www.w3.org/2000/svg">
<path d="M22 1.85H10C9.16457 1.85 8.36335 2.18187 7.77261 2.77261C7.18187 3.36335 6.85 4.16457 6.85 5V27C6.85 27.8354 7.18187 28.6366 7.77261 29.2274C8.36335 29.8181 9.16457 30.15 10 30.15H22C22.8354 30.15 23.6366 29.8181 24.2274 29.2274C24.8181 28.6366 25.15 27.8354 25.15 27V5C25.15 4.16457 24.8181 3.36335 24.2274 2.77261C23.6366 2.18187 22.8354 1.85 22 1.85ZM9.15 8.15H22.85V23.85H9.15V8.15ZM10 4.15H22C22.2254 4.15 22.4416 4.23955 22.601 4.39896C22.7604 4.55837 22.85 4.77457 22.85 5V5.85H9.15V5C9.15 4.77457 9.23955 4.55837 9.39896 4.39896C9.55837 4.23955 9.77457 4.15 10 4.15ZM22 27.85H10C9.77457 27.85 9.55837 27.7604 9.39896 27.601C9.23955 27.4416 9.15 27.2254 9.15 27V26.15H22.85V27C22.85 27.2254 22.7604 27.4416 22.601 27.601C22.4416 27.7604 22.2254 27.85 22 27.85Z" fill="#C63031" stroke="#C63031" stroke-width="0.3"/>
</svg>
