<svg width="31" height="39" viewBox="0 0 31 39" fill="none" xmlns="http://www.w3.org/2000/svg">
<g clip-path="url(#clip0_43_4151)">
<mask id="mask0_43_4151" style="mask-type:luminance" maskUnits="userSpaceOnUse" x="0" y="0" width="31" height="39">
<path d="M30.1613 0.987793H0.0327148V38.2785H30.1613V0.987793Z" fill="white"/>
</mask>
<g mask="url(#mask0_43_4151)">
<path d="M5.77508 25.374L0.0327148 19.6316L18.6781 0.987793H30.1613L5.77508 25.374ZM30.1613 18.1923H18.6781L14.3766 22.4937L20.119 28.2361" fill="#42A5F5" fill-opacity="0.8"/>
<path d="M14.3735 33.9772L18.675 38.2787H30.1582L20.1159 28.2363" fill="#0D47A1"/>
<path d="M8.64893 28.2392L14.3823 22.5044L20.1155 28.2377L14.3823 33.9725L8.64893 28.2392Z" fill="#42A5F5"/>
<path d="M14.3813 33.9724L20.1147 28.239L20.915 29.0394L15.1817 34.7727L14.3813 33.9724Z" fill="url(#paint0_linear_43_4151)"/>
<path d="M14.3735 33.977L22.8936 31.0335L20.1159 28.2346" fill="url(#paint1_linear_43_4151)"/>
</g>
</g>
<defs>
<linearGradient id="paint0_linear_43_4151" x1="17.2491" y1="31.1046" x2="18.0494" y2="31.905" gradientUnits="userSpaceOnUse">
<stop offset="0.2" stop-opacity="0.15"/>
<stop offset="0.85" stop-color="#616161" stop-opacity="0.01"/>
</linearGradient>
<linearGradient id="paint1_linear_43_4151" x1="14.3756" y1="31.106" x2="22.8956" y2="31.106" gradientUnits="userSpaceOnUse">
<stop offset="0.2" stop-opacity="0.55"/>
<stop offset="0.85" stop-color="#616161" stop-opacity="0.01"/>
</linearGradient>
<clipPath id="clip0_43_4151">
<rect width="30.7648" height="37.2907" fill="white" transform="translate(0.0327148 0.987793)"/>
</clipPath>
</defs>
</svg>
