<svg width="32" height="32" viewBox="0 0 32 32" fill="none" xmlns="http://www.w3.org/2000/svg">
<path d="M28.15 8.00014V7.99992C28.1496 7.22382 27.9316 6.46338 27.5207 5.80497C27.1099 5.14655 26.5226 4.61654 25.8256 4.27513C25.1286 3.93372 24.3499 3.79459 23.5778 3.87355C22.8057 3.9525 22.0713 4.24638 21.4578 4.72179C20.8444 5.19721 20.3766 5.83512 20.1075 6.56307C19.8384 7.29103 19.7788 8.07986 19.9355 8.83997C20.0922 9.60009 20.4589 10.301 20.994 10.8632C21.5022 11.3972 22.143 11.7856 22.85 11.9895V13C22.85 13.4906 22.6551 13.9612 22.3082 14.3081C21.9612 14.6551 21.4907 14.85 21 14.85H11C10.5094 14.85 10.0388 14.6551 9.69186 14.3081C9.34492 13.9612 9.15001 13.4906 9.15001 13V11.9895C10.0808 11.7211 10.8897 11.135 11.4348 10.3312C12.0017 9.49518 12.2442 8.48113 12.1169 7.4791C11.9897 6.47707 11.5013 5.55585 10.7434 4.88813C9.9855 4.2204 9.01009 3.85202 8.00001 3.85202C6.98993 3.85202 6.01452 4.2204 5.25662 4.88813C4.49872 5.55585 4.01036 6.47707 3.88309 7.4791C3.75581 8.48113 3.99836 9.49518 4.56526 10.3312C5.11032 11.135 5.91923 11.7211 6.85001 11.9895V13C6.85001 14.1006 7.28724 15.1562 8.06552 15.9345C8.84379 16.7128 9.89936 17.15 11 17.15H14.85V20.0105C13.9192 20.2789 13.1103 20.865 12.5653 21.6688C11.9984 22.5048 11.7558 23.5189 11.8831 24.5209C12.0104 25.5229 12.4987 26.4441 13.2566 27.1119C14.0145 27.7796 14.9899 28.148 16 28.148C17.0101 28.148 17.9855 27.7796 18.7434 27.1119C19.5013 26.4441 19.9897 25.5229 20.1169 24.5209C20.2442 23.5189 20.0017 22.5048 19.4348 21.6688C18.8897 20.865 18.0808 20.2789 17.15 20.0105V17.15H21C22.1007 17.15 23.1562 16.7128 23.9345 15.9345C24.7128 15.1562 25.15 14.1006 25.15 13V11.9893C25.9944 11.7446 26.7405 11.2381 27.2799 10.5413C27.8431 9.81386 28.1491 8.92014 28.15 8.00014ZM6.15001 8C6.15001 7.6341 6.25851 7.27643 6.46179 6.97219C6.66507 6.66796 6.954 6.43084 7.29205 6.29082C7.63009 6.1508 8.00206 6.11416 8.36093 6.18555C8.71979 6.25693 9.04943 6.43312 9.30816 6.69185C9.56688 6.95058 9.74308 7.28022 9.81446 7.63908C9.88585 7.99795 9.84921 8.36992 9.70919 8.70796C9.56916 9.04601 9.33205 9.33494 9.02781 9.53822C8.72358 9.7415 8.3659 9.85 8.00001 9.85C7.50936 9.85 7.0388 9.65509 6.69186 9.30815C6.34492 8.9612 6.15001 8.49065 6.15001 8ZM17.85 24C17.85 24.3659 17.7415 24.7236 17.5382 25.0278C17.3349 25.332 17.046 25.5692 16.708 25.7092C16.3699 25.8492 15.998 25.8858 15.6391 25.8145C15.2802 25.7431 14.9506 25.5669 14.6919 25.3081C14.4331 25.0494 14.2569 24.7198 14.1856 24.3609C14.1142 24.0021 14.1508 23.6301 14.2908 23.292C14.4309 22.954 14.668 22.6651 14.9722 22.4618C15.2764 22.2585 15.6341 22.15 16 22.15C16.4907 22.15 16.9612 22.3449 17.3082 22.6919C17.6551 23.0388 17.85 23.5093 17.85 24ZM24 9.85C23.6341 9.85 23.2764 9.7415 22.9722 9.53822C22.668 9.33494 22.4309 9.04601 22.2908 8.70796C22.1508 8.36992 22.1142 7.99795 22.1856 7.63908C22.2569 7.28022 22.4331 6.95058 22.6919 6.69185C22.9506 6.43312 23.2802 6.25693 23.6391 6.18555C23.998 6.11416 24.3699 6.1508 24.708 6.29082C25.046 6.43084 25.3349 6.66796 25.5382 6.97219C25.7415 7.27643 25.85 7.6341 25.85 8C25.85 8.49065 25.6551 8.9612 25.3082 9.30815C24.9612 9.65509 24.4907 9.85 24 9.85Z" fill="#C63031" stroke="#C63031" stroke-width="0.3"/>
</svg>
