<svg width="47" height="47" viewBox="0 0 47 47" fill="none" xmlns="http://www.w3.org/2000/svg">
<mask id="mask0_43_4129" style="mask-type:luminance" maskUnits="userSpaceOnUse" x="4" y="14" width="39" height="19">
<path d="M42.0109 14.3105H4.72021V32.7992H42.0109V14.3105Z" fill="white"/>
</mask>
<g mask="url(#mask0_43_4129)">
<path d="M5.10299 32.4868H8.15099V19.5115H5.10299V32.4868ZM6.62088 17.81C7.57568 17.81 8.32237 17.0755 8.32237 16.1574C8.32237 15.2271 7.57568 14.4927 6.62088 14.4927C5.67833 14.4927 4.93164 15.2271 4.93164 16.1574C4.93164 17.0755 5.67833 17.81 6.62088 17.81ZM18.2992 14.5293C13.1458 14.5293 9.91409 18.0425 9.91409 23.6611C9.91409 29.2798 13.1455 32.7808 18.2992 32.7808C23.4403 32.7808 26.672 29.2798 26.672 23.6611C26.672 18.0425 23.4405 14.5293 18.2992 14.5293ZM18.2992 17.2224C21.445 17.2224 23.4525 19.7195 23.4525 23.6611C23.4525 27.5904 21.4449 30.0876 18.2992 30.0876C15.141 30.0876 13.1458 27.5905 13.1458 23.6611C13.1458 19.7195 15.1411 17.2224 18.2992 17.2224ZM27.9577 27.5171C28.0924 30.7732 30.7609 32.7807 34.8248 32.7807C39.097 32.7807 41.7901 30.6752 41.7901 27.3212C41.7901 24.6894 40.2722 23.2083 36.6856 22.3882L34.6537 21.923C32.487 21.4089 31.5934 20.7234 31.5934 19.5483C31.5934 18.0794 32.94 17.1001 34.9352 17.1001C36.9549 17.1001 38.338 18.0916 38.485 19.7441H41.4962C41.4229 16.6349 38.8522 14.5294 34.9597 14.5294C31.116 14.5294 28.3862 16.6471 28.3862 19.7808C28.3862 22.3025 29.9286 23.8693 33.1845 24.6161L35.4736 25.1547C37.7014 25.6811 38.6072 26.4155 38.6072 27.6885C38.6072 29.1574 37.126 30.2101 34.9963 30.2101C32.8419 30.2101 31.214 29.1452 31.0181 27.5172L27.9577 27.5171Z" fill="#8A8A8A"/>
</g>
</svg>
