<svg width="57" height="28" viewBox="0 0 57 28" fill="none" xmlns="http://www.w3.org/2000/svg">
<g clip-path="url(#clip0_43_3998)">
<path d="M12.1384 9.06119C13.9092 9.06119 15.0505 9.37681 15.6238 10.0599C16.1969 10.7429 16.3505 11.8501 16.0382 13.423C15.726 14.996 15.1017 16.2637 14.2163 16.9467C13.3309 17.6298 11.9285 17.9816 10.0553 17.9816H7.2507L8.96521 9.04051L12.1384 9.06119ZM0.955566 27.0469H5.53106L6.62119 21.3552H10.5774C12.0197 21.3877 13.4581 21.1922 14.8408 20.7757C15.9826 20.3903 17.0296 19.7622 17.9115 18.9337C18.6526 18.2477 19.2845 17.4501 19.7847 16.5691C20.2636 15.6788 20.6086 14.7214 20.8083 13.7284C21.274 11.2034 20.9107 9.2061 19.7182 7.84009C18.5256 6.47407 16.5449 5.73413 13.8939 5.73413H5.06532L0.955566 27.0469Z" fill="#6082BB"/>
<path d="M24.1922 0.0161133H28.7984L27.7083 5.70779H31.7668C34.3258 5.70779 36.0864 6.17864 37.0742 7.0738C38.062 7.96897 38.323 9.43844 37.9596 11.4409L36.0147 21.3651H31.4086L33.205 11.9531C33.4148 10.9183 33.3585 10.1629 32.9952 9.74376C32.6317 9.32461 31.8692 9.16421 30.7074 9.16421H27.0685L24.704 21.3651H20.1489L24.1922 0.0161133Z" fill="#6082BB"/>
<path d="M48.0309 9.06119C49.8018 9.06119 50.9431 9.37681 51.5162 10.0599C52.0895 10.7429 52.243 11.8501 51.9308 13.423C51.6186 14.996 50.9943 16.2637 50.1088 16.9467C49.2234 17.6298 47.8211 17.9816 45.9479 17.9816H43.1279L44.8424 9.04051L48.0309 9.06119ZM36.8481 27.0469H41.4236L42.5137 21.3552H46.4648C47.9071 21.3877 49.3456 21.1922 50.7281 20.7757C51.87 20.3903 52.9171 19.7622 53.7989 18.9337C54.5401 18.2477 55.172 17.4501 55.6721 16.5691C56.151 15.6788 56.496 14.7214 56.6957 13.7284C57.1614 11.2034 56.7981 9.2061 55.6056 7.84009C54.4131 6.47407 52.4324 5.73413 49.7813 5.73413H40.9579L36.8634 27.0314L36.8481 27.0469Z" fill="#6082BB"/>
</g>
<defs>
<clipPath id="clip0_43_3998">
<rect width="55.936" height="27.0357" fill="white" transform="translate(0.955566 0.0161133)"/>
</clipPath>
</defs>
</svg>
