<svg width="48" height="46" viewBox="0 0 48 46" fill="none" xmlns="http://www.w3.org/2000/svg">
<g style="mix-blend-mode:luminosity">
<path d="M45.5316 22.9173C45.5316 20.1358 42.0322 17.4997 36.6669 15.865C37.905 10.4217 37.3547 6.09112 34.93 4.70463C34.3711 4.37941 33.7177 4.22536 33.004 4.22536V6.13391C33.3995 6.13391 33.7177 6.21094 33.9842 6.35643C35.1535 7.024 35.6609 9.5659 35.2653 12.8353C35.1708 13.6398 35.016 14.4871 34.8269 15.3515C33.1416 14.9407 31.3015 14.624 29.367 14.4186C28.2062 12.8353 27.0024 11.3974 25.79 10.1393C28.5931 7.54607 31.2241 6.12535 33.0126 6.12535V4.2168C30.6481 4.2168 27.5527 5.89427 24.423 8.80419C21.2931 5.91139 18.1978 4.25103 15.8333 4.25103V6.15959C17.6131 6.15959 20.2528 7.57176 23.0558 10.1479C21.852 11.406 20.6483 12.8353 19.5048 14.4186C17.5616 14.624 15.7215 14.9407 14.0363 15.36C13.8385 14.5042 13.6924 13.674 13.5892 12.8781C13.185 9.60868 13.6837 7.06679 14.8445 6.39068C15.1024 6.23662 15.4378 6.16815 15.8333 6.16815V4.25959C15.111 4.25959 14.4576 4.41365 13.8901 4.73887C11.4739 6.12535 10.9323 10.4474 12.179 15.8735C6.83092 17.5168 3.34863 20.1442 3.34863 22.9173C3.34863 25.6988 6.84812 28.3348 12.2134 29.9695C10.9753 35.4127 11.5256 39.7434 13.9502 41.1298C14.5091 41.4551 15.1626 41.6091 15.8849 41.6091C18.2494 41.6091 21.3448 39.9316 24.4745 37.0217C27.6043 39.9145 30.6996 41.5749 33.0642 41.5749C33.7865 41.5749 34.4399 41.4208 35.0074 41.0956C37.4235 39.7092 37.9652 35.3871 36.7184 29.9609C42.0493 28.3263 45.5316 25.6902 45.5316 22.9173ZM34.3367 17.2087C34.0186 18.3127 33.623 19.451 33.176 20.5893C32.8234 19.9046 32.4537 19.22 32.0496 18.5352C31.6541 17.8506 31.2328 17.183 30.8114 16.5325C32.0324 16.7123 33.2103 16.9348 34.3367 17.2087ZM30.3987 26.3236C29.728 27.4789 29.0402 28.5745 28.3265 29.593C27.0454 29.7042 25.7471 29.7641 24.4401 29.7641C23.1418 29.7641 21.8435 29.7042 20.5709 29.6014C19.8573 28.583 19.1608 27.4961 18.4902 26.3492C17.8367 25.2281 17.2434 24.0898 16.7017 22.9429C17.2348 21.796 17.8367 20.6492 18.4815 19.5281C19.1522 18.3727 19.8401 17.2771 20.5538 16.2586C21.8349 16.1474 23.1333 16.0875 24.4401 16.0875C25.7385 16.0875 27.0368 16.1474 28.3094 16.2502C29.023 17.2686 29.7194 18.3555 30.3901 19.5024C31.0436 20.6235 31.6368 21.7618 32.1786 22.9087C31.6368 24.0556 31.0436 25.2023 30.3987 26.3236ZM33.176 25.2109C33.6403 26.3578 34.0358 27.5047 34.3625 28.6172C33.2361 28.8911 32.0496 29.1222 30.8201 29.3019C31.2414 28.6429 31.6627 27.9668 32.0582 27.2736C32.4537 26.5889 32.8234 25.8956 33.176 25.2109ZM24.4574 34.3429C23.6577 33.5213 22.858 32.6056 22.067 31.6041C22.8409 31.6384 23.6319 31.6641 24.4315 31.6641C25.2398 31.6641 26.0394 31.647 26.8219 31.6041C26.048 32.6056 25.2484 33.5213 24.4574 34.3429ZM18.0602 29.3019C16.8393 29.1222 15.6613 28.8997 14.535 28.6258C14.8531 27.5217 15.2486 26.3834 15.6957 25.2451C16.0482 25.9299 16.4179 26.6145 16.8221 27.2992C17.2262 27.984 17.6389 28.6515 18.0602 29.3019ZM24.4144 11.4916C25.214 12.3132 26.0136 13.229 26.8046 14.2303C26.0308 14.1961 25.2398 14.1704 24.4401 14.1704C23.6319 14.1704 22.8322 14.1875 22.0499 14.2303C22.8236 13.229 23.6233 12.3132 24.4144 11.4916ZM18.0517 16.5325C17.6304 17.1916 17.209 17.8677 16.8135 18.561C16.4179 19.2456 16.0482 19.9303 15.6957 20.615C15.2315 19.4682 14.8359 18.3213 14.5091 17.2087C15.6355 16.9434 16.8221 16.7123 18.0517 16.5325ZM10.2702 27.2478C7.22644 25.9555 5.25744 24.2609 5.25744 22.9173C5.25744 21.5736 7.22644 19.8704 10.2702 18.5866C11.0097 18.2699 11.818 17.9875 12.652 17.7222C13.1421 19.3996 13.7869 21.1456 14.5865 22.9343C13.7955 24.7146 13.1592 26.452 12.6777 28.1208C11.8265 27.8555 11.0183 27.5645 10.2702 27.2478ZM14.8961 39.4781C13.7267 38.8105 13.2194 36.2685 13.6149 32.9993C13.7095 32.1947 13.8643 31.3474 14.0534 30.483C15.7387 30.8938 17.5787 31.2105 19.5134 31.4159C20.6741 32.9993 21.8779 34.437 23.0902 35.6952C20.2872 38.2884 17.6561 39.7092 15.8677 39.7092C15.4807 39.7006 15.1541 39.6236 14.8961 39.4781ZM35.2911 32.9564C35.6953 36.2258 35.1965 38.7677 34.0357 39.4438C33.7779 39.5979 33.4425 39.6664 33.047 39.6664C31.2672 39.6664 28.6275 38.2542 25.8244 35.678C27.0282 34.42 28.232 32.9907 29.3755 31.4073C31.3187 31.202 33.1588 30.8853 34.844 30.4659C35.0418 31.3303 35.1965 32.1605 35.2911 32.9564ZM38.6014 27.2478C37.862 27.5645 37.0538 27.847 36.2198 28.1123C35.7297 26.4348 35.0847 24.6889 34.2851 22.9001C35.0762 21.1199 35.7124 19.3826 36.1939 17.7136C37.0452 17.979 37.8534 18.2699 38.6101 18.5866C41.6539 19.8789 43.6228 21.5736 43.6228 22.9173C43.6142 24.2609 41.6453 25.9641 38.6014 27.2478Z" fill="#61DAFB"/>
<path d="M24.4303 26.8283C26.6005 26.8283 28.3597 25.0772 28.3597 22.9171C28.3597 20.757 26.6005 19.0059 24.4303 19.0059C22.2602 19.0059 20.501 20.757 20.501 22.9171C20.501 25.0772 22.2602 26.8283 24.4303 26.8283Z" fill="#61DAFB"/>
</g>
</svg>
