<svg width="38" height="32" viewBox="0 0 38 32" fill="none" xmlns="http://www.w3.org/2000/svg">
<path d="M33.3844 19.5161L33.3845 19.5157C33.4669 19.1918 33.4627 18.8556 33.3723 18.5334C33.282 18.2114 33.1084 17.9133 32.8667 17.6612L32.8663 17.6608L28.7682 13.4163C28.6232 11.8431 28.2018 10.2984 27.5188 8.83554C25.634 4.75614 22.2583 2.20105 20.8973 1.29271C20.4653 1.00373 19.9369 0.848413 19.3952 0.848413C18.8535 0.848413 18.3251 1.00374 17.8931 1.29271C16.5273 2.20134 13.1563 4.7564 11.2716 8.83556C10.5886 10.2985 10.1672 11.8431 10.0223 13.4163L5.92405 17.6608L5.92368 17.6612C5.682 17.9133 5.50841 18.2114 5.41808 18.5334C5.32771 18.8556 5.32353 19.1918 5.40592 19.5157L5.40603 19.5161L7.1955 26.4698C7.19551 26.4698 7.19551 26.4698 7.19551 26.4699C7.28768 26.8283 7.48301 27.1583 7.76055 27.4298C8.03796 27.7011 8.3887 27.9056 8.77896 28.0259C9.16923 28.1462 9.58782 28.179 9.99605 28.1215C10.4038 28.0641 10.7896 27.9183 11.1172 27.6961C11.1176 27.6959 11.118 27.6956 11.1184 27.6953L15.0254 25.15H23.7679L27.672 27.6953C27.6724 27.6956 27.6728 27.6959 27.6732 27.6961C28.0008 27.9183 28.3866 28.0641 28.7943 28.1215C29.2026 28.179 29.6212 28.1462 30.0114 28.0259C30.4017 27.9056 30.7524 27.7011 31.0299 27.4298C31.3074 27.1583 31.5027 26.8283 31.5949 26.4699C31.5949 26.4698 31.5949 26.4698 31.5949 26.4698L33.3844 19.5161ZM25.0951 9.70289L25.0951 9.70291C26.9892 13.8003 26.4479 18.2147 23.4501 22.85H15.3403C12.3425 18.2147 11.8012 13.8002 13.6924 9.70283C15.3306 6.15734 18.3682 3.8745 19.3951 3.18057C20.4196 3.87474 23.457 6.15755 25.0951 9.70289ZM22.6287 28.8206C22.8759 28.6072 23.0199 28.3127 23.0199 28C23.0199 27.6873 22.8759 27.3927 22.6287 27.1793C22.3823 26.9665 22.0521 26.85 21.7117 26.85H17.0787C16.7383 26.85 16.4082 26.9665 16.1617 27.1793C15.9145 27.3927 15.7705 27.6873 15.7705 28C15.7705 28.3127 15.9145 28.6072 16.1617 28.8206C16.4082 29.0334 16.7383 29.15 17.0787 29.15H21.7117C22.0521 29.15 22.3823 29.0334 22.6287 28.8206ZM19.3952 14.15C19.764 14.15 20.1259 14.0556 20.4354 13.8771C20.745 13.6985 20.9899 13.4426 21.1356 13.1389C21.2815 12.8347 21.3202 12.4984 21.2454 12.1737C21.1706 11.8492 20.9869 11.5547 20.7217 11.3258C20.4568 11.097 20.1216 10.9431 19.7595 10.881C19.3975 10.8188 19.022 10.8506 18.6798 10.9729C18.3377 11.0953 18.0419 11.3037 17.832 11.5748C17.6219 11.8463 17.5078 12.1683 17.5078 12.5C17.5078 12.9453 17.7129 13.367 18.0687 13.6742C18.4237 13.9807 18.9012 14.15 19.3952 14.15ZM9.69562 25.7609L7.97893 19.0888L10.1467 16.8425C10.5123 19.0913 11.4255 21.3728 12.8812 23.6863L9.69562 25.7609ZM30.8115 19.0888L29.0948 25.7583L25.9149 23.6863C27.3694 21.3685 28.2808 19.0871 28.644 16.8427L30.8115 19.0888Z" fill="#C63031" stroke="#C63031" stroke-width="0.3"/>
</svg>
