<svg width="551" height="360" viewBox="0 0 551 360" fill="none" xmlns="http://www.w3.org/2000/svg">
<g clip-path="url(#clip0_69_52)">
<path d="M509.141 155.24C506.983 156.546 504.596 157.531 502.005 158.125C495.302 159.678 488.616 158.345 483.238 154.926C477.979 151.591 473.969 146.261 472.448 139.719C469.381 126.472 477.631 113.259 490.884 110.196C504.129 107.124 517.365 115.372 520.441 128.611C522.913 139.269 518.036 149.902 509.141 155.24Z" fill="#EBEBEB"/>
<path d="M503.967 131.436C503.916 135.569 500.526 138.879 496.38 138.836C492.243 138.785 488.93 135.399 488.972 131.258C489.023 127.125 492.413 123.816 496.559 123.858C500.705 123.918 504.018 127.304 503.967 131.436Z" fill="white"/>
<path d="M509.184 152.151L509.15 155.239C506.992 156.546 504.604 157.531 502.013 158.125C495.31 159.678 488.624 158.345 483.246 154.925L483.28 151.845C483.365 144.717 489.227 138.98 496.381 139.065C503.542 139.15 509.269 145.031 509.184 152.151Z" fill="white"/>
<path d="M54.3727 85.7392C52.9624 86.5963 51.3906 87.2413 49.7 87.6316C45.3077 88.6499 40.9324 87.7759 37.4067 85.5356C33.9659 83.3547 31.3322 79.8584 30.3382 75.573C28.3332 66.9003 33.728 58.2446 42.4191 56.2334C51.0933 54.2222 59.7675 59.6193 61.7809 68.3005C63.3866 75.276 60.2007 82.243 54.3727 85.7392Z" fill="#EBEBEB"/>
<path d="M50.9831 70.1505C50.9491 72.8575 48.7232 75.0299 46.0131 74.996C43.3029 74.962 41.128 72.7387 41.162 70.0317C41.196 67.3247 43.4219 65.1522 46.132 65.1862C48.8422 65.2201 51.0171 67.4435 50.9831 70.1505Z" fill="white"/>
<path d="M54.3982 83.7195L54.3727 85.7392C52.9624 86.5963 51.3907 87.2412 49.7001 87.6315C45.3078 88.6499 40.9325 87.7758 37.4067 85.5355L37.4322 83.5158C37.4917 78.8485 41.3318 75.0892 46.0129 75.1402C50.7026 75.1996 54.4492 79.0522 54.3982 83.7195Z" fill="white"/>
<path d="M178.7 13.8967H71.959V86.5708H178.7V13.8967Z" stroke="#EBEBEB" stroke-miterlimit="10"/>
<path d="M79.9449 18.2161C79.9449 19.3957 78.9849 20.3546 77.804 20.3546C76.6231 20.3546 75.6631 19.3957 75.6631 18.2161C75.6631 17.0366 76.6231 16.0776 77.804 16.0776C78.9849 16.0776 79.9449 17.0281 79.9449 18.2161Z" fill="#A6A6A6"/>
<path d="M88.6871 18.2161C88.6871 19.3957 87.7271 20.3546 86.5462 20.3546C85.3653 20.3546 84.4053 19.3957 84.4053 18.2161C84.4053 17.0366 85.3653 16.0776 86.5462 16.0776C87.7356 16.0776 88.6871 17.0281 88.6871 18.2161Z" fill="#EBEBEB"/>
<path d="M97.4376 18.2161C97.4376 19.3957 96.4776 20.3546 95.2967 20.3546C94.1158 20.3546 93.1558 19.3957 93.1558 18.2161C93.1558 17.0366 94.1158 16.0776 95.2967 16.0776C96.4776 16.0776 97.4376 17.0281 97.4376 18.2161Z" fill="#C63031"/>
<path d="M71.959 22.3997H178.7" stroke="#EBEBEB" stroke-miterlimit="10"/>
<path d="M83.4926 121.289L27.4399 128.923L32.287 164.43L88.3397 156.795L83.4926 121.289Z" fill="#EBEBEB"/>
<path d="M83.4964 121.295C81.5254 123.765 79.5034 126.149 77.5154 128.593C75.5019 130.986 73.4799 133.388 71.4495 135.764C69.3255 138.242 67.1931 140.703 65.0607 143.147C64.9927 143.223 64.9332 143.3 64.8738 143.384C62.9792 145.54 61.0847 147.704 59.1816 149.859L58.9012 150.165L58.5529 149.944C56.1401 148.374 53.7443 146.796 51.34 145.217C51.2551 145.167 51.1701 145.116 51.0852 145.056C48.3665 143.274 45.6479 141.475 42.9377 139.642C40.355 137.911 37.7638 136.137 35.1811 134.372C32.6069 132.556 30.0242 130.8 27.4585 128.941C30.1177 130.469 32.7513 132.09 35.3935 133.668C38.0357 135.28 40.6694 136.893 43.2946 138.539C46.2171 140.355 49.1481 142.205 52.0707 144.08C52.0792 144.08 52.0792 144.08 52.0877 144.089C54.2796 145.48 56.463 146.881 58.6549 148.289C60.3795 146.355 62.1126 144.403 63.8458 142.485C63.8543 142.459 63.8543 142.459 63.8628 142.459C66.1736 139.88 68.4929 137.317 70.8293 134.771C72.9192 132.497 75.0177 130.223 77.1331 127.982C79.2401 125.742 81.347 123.476 83.4964 121.295Z" fill="white"/>
<path d="M52.2489 144.861C52.2234 144.878 52.2149 144.912 52.1894 144.929C51.926 145.217 51.6712 145.515 51.4078 145.795C50.1674 147.169 48.8761 148.502 47.5677 149.8C45.9705 151.404 44.3224 152.957 42.6657 154.501C40.992 156.02 39.3184 157.539 37.5852 159.007C35.8606 160.475 34.1105 161.918 32.2754 163.276C33.7706 161.553 35.3509 159.924 36.9481 158.328C38.5537 156.725 40.2019 155.172 41.8501 153.627C43.5238 152.1 45.2059 150.581 46.939 149.113C48.3154 147.941 49.7172 146.779 51.1614 145.676C51.4928 145.413 51.8326 145.167 52.1724 144.912C52.1894 144.904 52.2234 144.878 52.2489 144.861Z" fill="white"/>
<path d="M88.0585 155.681C85.9345 154.866 83.8531 153.941 81.7971 152.99C79.7411 152.04 77.7107 151.03 75.6887 150.012C73.6752 148.968 71.6702 147.916 69.6992 146.796C68.0935 145.896 66.4963 144.963 64.9416 143.97C64.6017 143.758 64.2789 143.546 63.9476 143.333C63.9221 143.316 63.8966 143.299 63.8711 143.282C63.8966 143.299 63.9306 143.308 63.9645 143.316C64.3638 143.478 64.7547 143.63 65.1455 143.792C66.8361 144.471 68.4843 145.209 70.1325 145.973C72.1884 146.923 74.2189 147.933 76.2324 148.96C78.2459 150.003 80.2509 151.056 82.2219 152.176C84.1929 153.279 86.1554 154.425 88.0585 155.681Z" fill="white"/>
<path d="M454.784 167.263L441.695 222.507L528.906 243.123L541.995 187.879L454.784 167.263Z" fill="#EBEBEB"/>
<path d="M542.02 187.885C537.696 190.414 533.346 192.79 529.013 195.259C524.672 197.652 520.313 200.045 515.955 202.396C511.401 204.857 506.848 207.276 502.294 209.677C502.149 209.753 502.022 209.838 501.878 209.915C497.851 212.028 493.807 214.132 489.771 216.245L489.176 216.534L488.786 216.008C486.118 212.316 483.467 208.625 480.817 204.908C480.723 204.789 480.63 204.653 480.536 204.518C477.529 200.325 474.547 196.125 471.582 191.873C468.744 187.834 465.924 183.752 463.12 179.662C460.359 175.512 457.53 171.439 454.803 167.247C457.861 171.015 460.826 174.91 463.834 178.746C466.816 182.624 469.798 186.51 472.737 190.439C476.025 194.784 479.296 199.188 482.541 203.627C482.558 203.627 482.558 203.627 482.567 203.652C485.005 206.953 487.443 210.28 489.882 213.598C493.535 211.714 497.205 209.821 500.867 207.98C500.892 207.946 500.892 207.946 500.901 207.954C505.794 205.46 510.679 202.99 515.581 200.563C519.974 198.382 524.366 196.227 528.767 194.114C533.193 192.043 537.585 189.888 542.02 187.885Z" fill="white"/>
<path d="M482.38 204.933C482.338 204.95 482.295 204.984 482.253 205.001C481.7 205.281 481.148 205.57 480.605 205.841C477.979 207.165 475.32 208.404 472.635 209.584C469.356 211.043 466.034 212.401 462.704 213.742C459.365 215.04 456.018 216.322 452.628 217.51C449.238 218.698 445.823 219.835 442.348 220.802C445.543 219.113 448.805 217.603 452.076 216.152C455.364 214.692 458.694 213.334 462.007 211.994C465.363 210.687 468.71 209.405 472.1 208.217C474.802 207.267 477.538 206.35 480.299 205.544C480.936 205.349 481.573 205.171 482.227 204.993C482.278 204.967 482.329 204.95 482.38 204.933Z" fill="white"/>
<path d="M529.141 241.313C526.464 238.894 523.916 236.348 521.426 233.769C518.929 231.189 516.507 228.541 514.095 225.885C511.716 223.195 509.354 220.497 507.077 217.722C505.217 215.473 503.39 213.19 501.657 210.831C501.275 210.33 500.909 209.83 500.544 209.329C500.51 209.295 500.493 209.244 500.459 209.21C500.493 209.244 500.535 209.287 500.578 209.304C501.079 209.77 501.563 210.212 502.048 210.678C504.155 212.639 506.177 214.684 508.173 216.737C510.671 219.317 513.092 221.965 515.488 224.629C517.867 227.319 520.229 230.018 522.505 232.793C524.799 235.559 527.042 238.368 529.141 241.313Z" fill="white"/>
<path d="M358.257 0.998047H306.765V33.6182H358.257V0.998047Z" fill="#EBEBEB"/>
<path d="M358.249 0.997988C356.167 2.98371 354.052 4.88457 351.953 6.84484C349.846 8.75419 347.722 10.672 345.598 12.5644C343.381 14.5416 341.155 16.4934 338.929 18.4367C338.861 18.4961 338.802 18.564 338.725 18.6234C336.754 20.3376 334.775 22.0517 332.795 23.7659L332.498 24.0035L332.209 23.7659C330.23 22.0517 328.259 20.3376 326.288 18.6149C326.22 18.564 326.152 18.4961 326.075 18.4367C323.841 16.4934 321.615 14.5331 319.398 12.5474C317.282 10.6635 315.158 8.75419 313.051 6.83635C310.953 4.88457 308.837 2.97522 306.756 0.989502C308.965 2.69519 311.14 4.47725 313.332 6.22536C315.515 7.99893 317.69 9.78099 319.856 11.5885C322.269 13.5827 324.682 15.6109 327.086 17.6645C327.095 17.6645 327.095 17.6645 327.103 17.673C328.904 19.2004 330.705 20.7279 332.506 22.2639C334.299 20.7279 336.1 19.1835 337.901 17.673C337.91 17.656 337.91 17.656 337.918 17.656C340.323 15.6194 342.727 13.5912 345.148 11.58C347.315 9.78099 349.489 7.99893 351.664 6.23385C353.865 4.48573 356.04 2.70367 358.249 0.997988Z" fill="white"/>
<path d="M327.171 18.4111C327.145 18.4281 327.128 18.4536 327.111 18.462C326.84 18.6912 326.568 18.9288 326.296 19.1494C325.005 20.2356 323.679 21.2794 322.337 22.2892C320.697 23.5367 319.024 24.7417 317.333 25.9297C315.642 27.0923 313.935 28.2549 312.201 29.3666C310.46 30.4782 308.71 31.5644 306.892 32.5658C308.455 31.1995 310.077 29.9266 311.717 28.6792C313.365 27.4317 315.039 26.2267 316.721 25.0387C318.42 23.8676 320.119 22.705 321.861 21.5934C323.246 20.7024 324.656 19.8283 326.092 19.0136C326.423 18.8185 326.755 18.6318 327.094 18.4536C327.111 18.4451 327.145 18.4281 327.171 18.4111Z" fill="white"/>
<path d="M358.13 32.566C356.312 31.5731 354.553 30.4784 352.82 29.3667C351.078 28.2551 349.379 27.0925 347.68 25.9299C345.998 24.7419 344.316 23.5453 342.676 22.2894C341.342 21.2796 340.017 20.2443 338.734 19.1496C338.454 18.9205 338.182 18.6829 337.918 18.4537C337.893 18.4368 337.876 18.4113 337.859 18.4028C337.884 18.4198 337.91 18.4368 337.935 18.4453C338.275 18.6404 338.607 18.8271 338.938 19.0138C340.374 19.8285 341.775 20.7025 343.169 21.5936C344.91 22.7052 346.61 23.8678 348.3 25.0389C349.982 26.2269 351.664 27.4234 353.304 28.6794C354.944 29.9268 356.567 31.1997 358.13 32.566Z" fill="white"/>
<path d="M135.015 359.998C204.133 359.998 260.165 355.18 260.165 349.238C260.165 343.295 204.133 338.478 135.015 338.478C65.8957 338.478 9.86377 343.295 9.86377 349.238C9.86377 355.18 65.8957 359.998 135.015 359.998Z" fill="#EBEBEB"/>
<path d="M0 270.691L68.875 270.479L137.75 270.403L275.5 270.267L413.25 270.403L482.125 270.479L551 270.691L482.125 270.895L413.25 270.971L275.5 271.107L137.75 270.971L68.875 270.895L0 270.691Z" fill="#263238"/>
<path d="M462.313 29.9099H87.2686V280.493H462.313V29.9099Z" fill="#DBDBDB"/>
<path d="M459.578 32.9648H89.9873V277.438H459.578V32.9648Z" fill="#263238"/>
<path d="M511.155 299.289H38.418V316.49H511.155V299.289Z" fill="#C7C7C7"/>
<path d="M38.418 299.289L87.2685 280.493H462.305L511.155 299.289H38.418Z" fill="#DBDBDB"/>
<path d="M91.627 292.619L123.146 280.493H426.427L457.946 292.619H91.627Z" fill="#263238"/>
<path d="M438.695 51.5408H110.878V258.871H438.695V51.5408Z" fill="white"/>
<path d="M438.695 51.5408H110.598V59.5176H438.695V51.5408Z" fill="#455A64"/>
<path d="M116.953 55.5292C116.953 56.6239 116.069 57.5065 114.973 57.5065C113.877 57.5065 112.994 56.6239 112.994 55.5292C112.994 54.4345 113.877 53.552 114.973 53.552C116.061 53.552 116.953 54.4345 116.953 55.5292Z" fill="#C7C7C7"/>
<path d="M125.041 55.5292C125.041 56.6239 124.157 57.5065 123.061 57.5065C121.965 57.5065 121.082 56.6239 121.082 55.5292C121.082 54.4345 121.965 53.552 123.061 53.552C124.149 53.552 125.041 54.4345 125.041 55.5292Z" fill="white"/>
<path d="M133.128 55.5292C133.128 56.6239 132.245 57.5065 131.149 57.5065C130.053 57.5065 129.169 56.6239 129.169 55.5292C129.169 54.4345 130.053 53.552 131.149 53.552C132.236 53.552 133.128 54.4345 133.128 55.5292Z" fill="#C63031"/>
<path d="M438.695 59.5176H432.875V258.862H438.695V59.5176Z" fill="#DBDBDB"/>
<path d="M435.781 128.628C434.948 128.628 434.277 127.957 434.277 127.126V62.1822C434.277 61.3506 434.948 60.6802 435.781 60.6802C436.613 60.6802 437.284 61.3506 437.284 62.1822V127.126C437.284 127.957 436.613 128.628 435.781 128.628Z" fill="#A6A6A6"/>
<path d="M382.054 72.0601H205.351V78.7725H382.054V72.0601Z" fill="white"/>
<path d="M382.122 78.8401H205.283V71.9919H382.122V78.8401Z" fill="#EBEBEB"/>
<path d="M382.121 71.9919H375.257V78.8486H382.121V71.9919Z" fill="#C63031"/>
<path d="M380.822 77.2956L380.202 77.7623L379.055 76.2433L378.63 75.6917C378.715 75.6578 378.791 75.6154 378.868 75.5559C379.012 75.4456 379.123 75.3014 379.191 75.1401L379.641 75.7257L380.822 77.2956Z" fill="white"/>
<path d="M379.598 73.7231C379.029 72.9848 377.967 72.8405 377.219 73.4091C376.48 73.9777 376.336 75.0384 376.905 75.7852C377.415 76.4556 378.324 76.6338 379.046 76.2519C379.131 76.2095 379.207 76.1586 379.284 76.0992C379.42 75.9888 379.539 75.87 379.632 75.7343C380.057 75.1487 380.066 74.3256 379.598 73.7231ZM378.868 75.5561C378.791 75.6155 378.715 75.6579 378.63 75.6918C378.222 75.8531 377.729 75.7343 377.449 75.3694C377.109 74.9281 377.194 74.2916 377.636 73.9522C378.078 73.6128 378.715 73.6976 379.055 74.1389C379.284 74.4359 379.318 74.8178 379.182 75.1487C379.122 75.3015 379.012 75.4457 378.868 75.5561Z" fill="white"/>
<path d="M207.109 73.3752H206.752V77.4485H207.109V73.3752Z" fill="#C7C7C7"/>
<path d="M421.075 79.0354C420.744 79.2391 420.378 79.4003 419.97 79.4937C418.934 79.7483 417.897 79.5531 417.056 79.0354C416.232 78.5263 415.604 77.7116 415.357 76.7018C414.856 74.6567 416.113 72.5946 418.161 72.0939C420.208 71.5932 422.273 72.8491 422.774 74.8943C423.173 76.5321 422.443 78.1868 421.075 79.0354Z" fill="#C63031"/>
<path d="M420.225 75.3525C420.225 75.9975 419.707 76.5151 419.061 76.5151C418.416 76.5151 417.897 75.9975 417.897 75.3525C417.897 74.7076 418.416 74.1899 419.061 74.1899C419.707 74.1899 420.225 74.7076 420.225 75.3525Z" fill="white"/>
<path d="M421.075 78.5518V79.027C420.743 79.2306 420.378 79.3919 419.97 79.4852C418.934 79.7398 417.897 79.5446 417.056 79.027V78.5518C417.056 77.4486 417.957 76.5491 419.061 76.5491C420.174 76.5491 421.075 77.4486 421.075 78.5518Z" fill="white"/>
<path d="M407.847 79.6039H405.196V78.6619C405.196 78.611 405.162 78.5601 405.111 78.5347C405.009 78.4837 404.916 78.4243 404.822 78.3649C404.771 78.3395 404.72 78.331 404.669 78.3565L403.854 78.8232L402.528 76.532L403.344 76.0652C403.386 76.0398 403.412 75.9889 403.412 75.9295C403.412 75.8785 403.412 75.8191 403.412 75.7682C403.412 75.7173 403.412 75.6579 403.412 75.607C403.412 75.5476 403.386 75.4967 403.344 75.4712L402.528 75.0045L403.854 72.7048L404.669 73.1715C404.72 73.197 404.771 73.197 404.822 73.163C404.916 73.1036 405.009 73.0442 405.111 72.9933C405.162 72.9678 405.187 72.9169 405.187 72.866V71.9241H407.838V72.866C407.838 72.9169 407.872 72.9678 407.923 72.9933C408.025 73.0442 408.119 73.1036 408.212 73.163C408.263 73.197 408.322 73.197 408.365 73.1715L409.181 72.7048L410.506 75.0045L409.69 75.4712C409.648 75.4967 409.622 75.5476 409.622 75.607C409.622 75.6579 409.622 75.7173 409.622 75.7682C409.622 75.8191 409.622 75.8785 409.622 75.9295C409.622 75.9889 409.648 76.0398 409.69 76.0652L410.506 76.5404L409.181 78.8317L408.365 78.3649C408.322 78.3395 408.263 78.3395 408.212 78.3734C408.119 78.4328 408.025 78.4922 407.923 78.5431C407.872 78.5686 407.838 78.6195 407.838 78.6704V79.6039H407.847ZM405.85 78.942H407.184V78.6619C407.184 78.3649 407.354 78.0849 407.626 77.9491C407.702 77.9067 407.779 77.8643 407.855 77.8218C408.11 77.6521 408.433 77.6436 408.696 77.7964L408.943 77.9406L409.605 76.7865L409.359 76.6423C409.096 76.4895 408.951 76.2095 408.968 75.904V75.7767V75.6494C408.951 75.3439 409.104 75.0554 409.367 74.9111L409.614 74.7669L408.951 73.6128L408.713 73.7486C408.45 73.9013 408.127 73.8928 407.872 73.7231C407.796 73.6722 407.719 73.6298 407.643 73.5958C407.371 73.4516 407.201 73.18 407.201 72.883V72.6029H405.867V72.883C405.867 73.1885 405.697 73.46 405.425 73.5958C405.349 73.6382 405.272 73.6807 405.196 73.7231C404.941 73.8928 404.618 73.9013 404.355 73.7486L404.117 73.6128L403.454 74.7669L403.701 74.9027C403.964 75.0554 404.117 75.3354 404.1 75.6409V75.7682V75.8955C404.117 76.201 403.964 76.4895 403.701 76.6338L403.454 76.7781L404.117 77.9322L404.363 77.7879C404.618 77.6351 404.95 77.6436 405.205 77.8133C405.281 77.8643 405.349 77.9067 405.434 77.9406C405.706 78.0764 405.876 78.3565 405.876 78.6535V78.942H405.85ZM406.521 77.7285C405.442 77.7285 404.559 76.8459 404.559 75.7682C404.559 74.6905 405.442 73.808 406.521 73.808C407.6 73.808 408.484 74.6905 408.484 75.7682C408.484 76.8459 407.6 77.7285 406.521 77.7285ZM406.521 74.4699C405.799 74.4699 405.221 75.0554 405.221 75.7682C405.221 76.4811 405.808 77.0666 406.521 77.0666C407.235 77.0666 407.821 76.4811 407.821 75.7682C407.821 75.0469 407.235 74.4699 406.521 74.4699Z" fill="#DBDBDB"/>
<path d="M432.875 106.454H188.113V120.311H432.875V106.454Z" fill="#EBEBEB"/>
<path d="M203.133 111.299H198.97V115.466H203.133V111.299Z" fill="white"/>
<path d="M220.838 115.457H216.675L218.374 113.378L216.675 111.299H220.838L222.537 113.378L220.838 115.457Z" fill="white"/>
<path d="M210.134 111.299L210.805 112.665L212.326 112.886L211.23 113.955L211.485 115.457L210.134 114.744L208.774 115.457L209.038 113.955L207.942 112.886L209.454 112.665L210.134 111.299Z" fill="#C63031"/>
<path d="M258.721 112.53H225.528V114.227H258.721V112.53Z" fill="#263238"/>
<path d="M414.669 112.53H384.534V114.227H414.669V112.53Z" fill="#263238"/>
<path d="M371.876 112.53H268.856V114.227H371.876V112.53Z" fill="#455A64"/>
<path d="M203.133 125.157H198.97V129.315H203.133V125.157Z" fill="white" stroke="#EBEBEB" stroke-width="0.5" stroke-miterlimit="10"/>
<path d="M220.838 129.315H216.675L218.374 127.236L216.675 125.157H220.838L222.537 127.236L220.838 129.315Z" fill="white" stroke="#EBEBEB" stroke-width="0.5" stroke-miterlimit="10"/>
<path d="M210.134 125.157L210.805 126.523L212.326 126.744L211.23 127.813L211.485 129.315L210.134 128.602L208.774 129.315L209.038 127.813L207.942 126.744L209.454 126.523L210.134 125.157Z" fill="#C63031"/>
<path d="M258.721 126.387H225.528V128.084H258.721V126.387Z" fill="#263238"/>
<path d="M414.669 126.387H384.534V128.084H414.669V126.387Z" fill="#263238"/>
<path d="M371.876 126.387H268.856V128.084H371.876V126.387Z" fill="#455A64"/>
<path d="M432.875 134.16H188.113V148.018H432.875V134.16Z" fill="#EBEBEB"/>
<path d="M203.133 139.006H198.97V143.172H203.133V139.006Z" fill="white"/>
<path d="M220.838 143.172H216.675L218.374 141.093L216.675 139.006H220.838L222.537 141.093L220.838 143.172Z" fill="white"/>
<path d="M210.134 139.006L210.805 140.381L212.326 140.601L211.23 141.662L211.485 143.172L210.134 142.46L208.774 143.172L209.038 141.662L207.942 140.601L209.454 140.381L210.134 139.006Z" fill="white"/>
<path d="M258.721 140.245H225.528V141.942H258.721V140.245Z" fill="#DBDBDB"/>
<path d="M414.669 140.245H384.534V141.942H414.669V140.245Z" fill="#DBDBDB"/>
<path d="M371.876 140.245H268.856V141.942H371.876V140.245Z" fill="#C7C7C7"/>
<path d="M203.133 152.864H198.97V157.03H203.133V152.864Z" fill="white" stroke="#EBEBEB" stroke-width="0.5" stroke-miterlimit="10"/>
<path d="M220.838 157.03H216.675L218.374 154.951L216.675 152.864H220.838L222.537 154.951L220.838 157.03Z" fill="white" stroke="#EBEBEB" stroke-width="0.5" stroke-miterlimit="10"/>
<path d="M210.134 152.864L210.805 154.238L212.326 154.459L211.23 155.52L211.485 157.03L210.134 156.317L208.774 157.03L209.038 155.52L207.942 154.459L209.454 154.238L210.134 152.864Z" fill="#C63031"/>
<path d="M258.721 154.103H225.528V155.8H258.721V154.103Z" fill="#DBDBDB"/>
<path d="M414.669 154.103H384.534V155.8H414.669V154.103Z" fill="#DBDBDB"/>
<path d="M371.876 154.103H268.856V155.8H371.876V154.103Z" fill="#C7C7C7"/>
<path d="M432.875 161.876H188.113V175.733H432.875V161.876Z" fill="#EBEBEB"/>
<path d="M203.133 166.721H198.97V170.888H203.133V166.721Z" fill="white"/>
<path d="M220.838 170.888H216.675L218.374 168.8L216.675 166.721H220.838L222.537 168.8L220.838 170.888Z" fill="white"/>
<path d="M210.134 166.721L210.805 168.096L212.326 168.317L211.23 169.377L211.485 170.888L210.134 170.175L208.774 170.888L209.038 169.377L207.942 168.317L209.454 168.096L210.134 166.721Z" fill="#C63031"/>
<path d="M258.721 167.96H225.528V169.657H258.721V167.96Z" fill="#DBDBDB"/>
<path d="M414.669 167.96H384.534V169.657H414.669V167.96Z" fill="#DBDBDB"/>
<path d="M371.876 167.96H268.856V169.657H371.876V167.96Z" fill="#C7C7C7"/>
<path d="M203.133 180.579H198.97V184.745H203.133V180.579Z" fill="white" stroke="#EBEBEB" stroke-width="0.5" stroke-miterlimit="10"/>
<path d="M220.838 184.745H216.675L218.374 182.658L216.675 180.579H220.838L222.537 182.658L220.838 184.745Z" fill="white" stroke="#EBEBEB" stroke-width="0.5" stroke-miterlimit="10"/>
<path d="M210.134 180.579L210.805 181.945L212.326 182.166L211.23 183.235L211.485 184.745L210.134 184.033L208.774 184.745L209.038 183.235L207.942 182.166L209.454 181.945L210.134 180.579Z" fill="white" stroke="#EBEBEB" stroke-width="0.5" stroke-miterlimit="10"/>
<path d="M258.721 181.818H225.528V183.515H258.721V181.818Z" fill="#DBDBDB"/>
<path d="M414.669 181.818H384.534V183.515H414.669V181.818Z" fill="#DBDBDB"/>
<path d="M371.876 181.818H268.856V183.515H371.876V181.818Z" fill="#C7C7C7"/>
<path d="M432.875 189.591H188.113V203.448H432.875V189.591Z" fill="#EBEBEB"/>
<path d="M203.133 194.436H198.97V198.603H203.133V194.436Z" fill="white"/>
<path d="M220.838 198.594H216.675L218.374 196.515L216.675 194.436H220.838L222.537 196.515L220.838 198.594Z" fill="white"/>
<path d="M210.134 194.436L210.805 195.803L212.326 196.023L211.23 197.092L211.485 198.594L210.134 197.89L208.774 198.594L209.038 197.092L207.942 196.023L209.454 195.803L210.134 194.436Z" fill="#C63031"/>
<path d="M258.721 195.667H225.528V197.364H258.721V195.667Z" fill="#DBDBDB"/>
<path d="M414.669 195.667H384.534V197.364H414.669V195.667Z" fill="#DBDBDB"/>
<path d="M371.876 195.667H268.856V197.364H371.876V195.667Z" fill="#C7C7C7"/>
<path d="M203.133 208.294H198.97V212.452H203.133V208.294Z" fill="white" stroke="#EBEBEB" stroke-width="0.5" stroke-miterlimit="10"/>
<path d="M220.838 212.452H216.675L218.374 210.373L216.675 208.294H220.838L222.537 210.373L220.838 212.452Z" fill="white" stroke="#EBEBEB" stroke-width="0.5" stroke-miterlimit="10"/>
<path d="M210.134 208.294L210.805 209.66L212.326 209.881L211.23 210.95L211.485 212.452L210.134 211.739L208.774 212.452L209.038 210.95L207.942 209.881L209.454 209.66L210.134 208.294Z" fill="white" stroke="#EBEBEB" stroke-width="0.5" stroke-miterlimit="10"/>
<path d="M258.721 209.524H225.528V211.222H258.721V209.524Z" fill="#DBDBDB"/>
<path d="M414.669 209.524H384.534V211.222H414.669V209.524Z" fill="#DBDBDB"/>
<path d="M371.876 209.524H268.856V211.222H371.876V209.524Z" fill="#C7C7C7"/>
<path d="M432.875 217.298H188.113V231.155H432.875V217.298Z" fill="#EBEBEB"/>
<path d="M203.133 222.152H198.97V226.318H203.133V222.152Z" fill="white"/>
<path d="M220.838 226.31H216.675L218.374 224.231L216.675 222.152H220.838L222.537 224.231L220.838 226.31Z" fill="white"/>
<path d="M210.134 222.152L210.805 223.518L212.326 223.739L211.23 224.808L211.485 226.31L210.134 225.597L208.774 226.31L209.038 224.808L207.942 223.739L209.454 223.518L210.134 222.152Z" fill="white"/>
<path d="M258.721 223.382H225.528V225.079H258.721V223.382Z" fill="#DBDBDB"/>
<path d="M414.669 223.382H384.534V225.079H414.669V223.382Z" fill="#DBDBDB"/>
<path d="M371.876 223.382H268.856V225.079H371.876V223.382Z" fill="#C7C7C7"/>
<path d="M203.133 236.001H198.97V240.167H203.133V236.001Z" fill="white" stroke="#EBEBEB" stroke-width="0.5" stroke-miterlimit="10"/>
<path d="M220.838 240.167H216.675L218.374 238.088L216.675 236.001H220.838L222.537 238.088L220.838 240.167Z" fill="white" stroke="#EBEBEB" stroke-width="0.5" stroke-miterlimit="10"/>
<path d="M210.134 236.001L210.805 237.375L212.326 237.596L211.23 238.665L211.485 240.167L210.134 239.455L208.774 240.167L209.038 238.665L207.942 237.596L209.454 237.375L210.134 236.001Z" fill="white" stroke="#EBEBEB" stroke-width="0.5" stroke-miterlimit="10"/>
<path d="M258.721 237.24H225.528V238.937H258.721V237.24Z" fill="#DBDBDB"/>
<path d="M414.669 237.24H384.534V238.937H414.669V237.24Z" fill="#DBDBDB"/>
<path d="M371.876 237.24H268.856V238.937H371.876V237.24Z" fill="#C7C7C7"/>
<path d="M432.875 245.013H188.113V258.871H432.875V245.013Z" fill="#EBEBEB"/>
<path d="M203.133 249.858H198.97V254.025H203.133V249.858Z" fill="white"/>
<path d="M220.838 254.025H216.675L218.374 251.946L216.675 249.858H220.838L222.537 251.946L220.838 254.025Z" fill="white"/>
<path d="M210.134 249.858L210.805 251.233L212.326 251.454L211.23 252.515L211.485 254.025L210.134 253.312L208.774 254.025L209.038 252.515L207.942 251.454L209.454 251.233L210.134 249.858Z" fill="#C63031"/>
<path d="M258.721 251.097H225.528V252.795H258.721V251.097Z" fill="#DBDBDB"/>
<path d="M414.669 251.097H384.534V252.795H414.669V251.097Z" fill="#DBDBDB"/>
<path d="M371.876 251.097H268.856V252.795H371.876V251.097Z" fill="#C7C7C7"/>
<path d="M258.729 93.9539H212.394V98.9097H258.729V93.9539Z" fill="#DBDBDB"/>
<path d="M205.283 93.9539H198.97V98.9097H205.283V93.9539Z" fill="#DBDBDB"/>
<path d="M205.291 93.9539C205.036 94.2254 204.773 94.4885 204.518 94.76C204.263 95.0231 204 95.2862 203.736 95.5492C203.464 95.8208 203.193 96.0923 202.921 96.3639C202.912 96.3724 202.904 96.3809 202.895 96.3893C202.657 96.6269 202.411 96.8646 202.165 97.1022L202.131 97.1361L202.097 97.1022C201.85 96.8646 201.612 96.6269 201.366 96.3893C201.358 96.3809 201.349 96.3724 201.341 96.3639C201.069 96.0923 200.797 95.8208 200.525 95.5492C200.262 95.2862 200.007 95.0231 199.743 94.76C199.488 94.4885 199.225 94.2254 198.97 93.9539C199.242 94.1915 199.505 94.4376 199.777 94.6752C200.049 94.9213 200.313 95.1674 200.576 95.4134C200.873 95.6935 201.171 95.9735 201.459 96.2536C201.68 96.4657 201.901 96.6779 202.122 96.89C202.343 96.6779 202.564 96.4657 202.785 96.2536C203.082 95.9735 203.371 95.6935 203.668 95.4134C203.932 95.1674 204.204 94.9213 204.467 94.6752C204.756 94.4291 205.019 94.183 205.291 93.9539Z" fill="white"/>
<path d="M201.477 96.2451L201.468 96.2536C201.434 96.296 201.4 96.3385 201.366 96.3809C201.205 96.5846 201.043 96.7797 200.882 96.9749C200.678 97.2125 200.474 97.4332 200.27 97.6623C200.066 97.8829 199.854 98.1036 199.641 98.3072C199.429 98.5194 199.217 98.723 198.987 98.9097C199.183 98.6551 199.378 98.409 199.582 98.1799C199.786 97.9423 199.99 97.7217 200.194 97.4926C200.406 97.2719 200.61 97.0513 200.822 96.8476C200.992 96.6779 201.162 96.5167 201.341 96.3639C201.383 96.33 201.426 96.296 201.468 96.2621C201.468 96.2536 201.477 96.2451 201.477 96.2451Z" fill="white"/>
<path d="M205.274 98.9097C205.053 98.723 204.832 98.5194 204.62 98.3072C204.407 98.0951 204.195 97.8829 203.991 97.6623C203.787 97.4416 203.575 97.2125 203.379 96.9749C203.218 96.7882 203.057 96.593 202.895 96.3809C202.861 96.3385 202.827 96.296 202.793 96.2536C202.836 96.2875 202.878 96.3215 202.921 96.3639C203.099 96.5167 203.269 96.6864 203.439 96.8476C203.651 97.0598 203.864 97.2719 204.068 97.4926C204.271 97.7132 204.484 97.9423 204.679 98.1799C204.883 98.409 205.087 98.6551 205.274 98.9097Z" fill="white"/>
<path d="M336.703 93.9539H290.368V98.9097H336.703V93.9539Z" fill="#DBDBDB"/>
<path d="M279.799 95.634C279.799 96.2111 279.332 96.6863 278.745 96.6863C278.168 96.6863 277.692 96.2196 277.692 95.634C277.692 95.057 278.159 94.5818 278.745 94.5818C279.332 94.5818 279.799 95.0485 279.799 95.634Z" fill="#DBDBDB"/>
<path d="M280.563 98.5278V98.9097H276.927V98.5278C276.927 97.5264 277.743 96.7203 278.745 96.7203C279.748 96.7118 280.563 97.5264 280.563 98.5278Z" fill="#DBDBDB"/>
<path d="M282.492 94.9976C282.492 95.5746 282.025 96.0498 281.439 96.0498C280.861 96.0498 280.385 95.5831 280.385 94.9976C280.385 94.4205 280.853 93.9453 281.439 93.9453C282.025 93.9538 282.492 94.4205 282.492 94.9976Z" fill="#DBDBDB"/>
<path d="M283.257 97.8913V98.2731H279.621V97.8913C279.621 96.8899 280.436 96.0837 281.439 96.0837C282.441 96.0837 283.257 96.8984 283.257 97.8913Z" fill="#DBDBDB"/>
<path d="M414.678 93.9539H368.342V98.9097H414.678V93.9539Z" fill="#DBDBDB"/>
<path d="M361.231 93.9539H354.918V98.9097H361.231L363.117 96.4318L361.231 93.9539ZM361.282 96.8052C361.078 96.8052 360.908 96.6354 360.908 96.4318C360.908 96.2196 361.078 96.0584 361.282 96.0584C361.494 96.0584 361.656 96.2196 361.656 96.4318C361.656 96.6354 361.494 96.8052 361.282 96.8052Z" fill="#DBDBDB"/>
<path d="M188.113 59.5176H110.598V258.862H188.113V59.5176Z" fill="#C63031"/>
<path d="M177.281 89.032H121.438V103.823H177.281V89.032Z" fill="white"/>
<path d="M129.221 71.9919H121.438V73.2394H129.221V71.9919Z" fill="white"/>
<path d="M129.221 77.5928H121.438V78.8402H129.221V77.5928Z" fill="white"/>
<path d="M129.221 74.8262H121.438V76.0736H129.221V74.8262Z" fill="white"/>
<path d="M147.435 71.9919H136.612V78.8486H147.435V71.9919Z" fill="#EBEBEB"/>
<path d="M147.435 71.9919V78.8486H136.612V71.9919C137.079 72.255 137.529 72.535 137.997 72.7981C138.455 73.0697 138.914 73.3497 139.364 73.6297C139.874 73.9352 140.375 74.2492 140.885 74.5717C141.267 74.8093 141.641 75.0469 142.024 75.2845C142.397 75.0469 142.78 74.8093 143.162 74.5717C143.663 74.2577 144.173 73.9437 144.683 73.6297C145.142 73.3497 145.592 73.0781 146.051 72.8066C146.509 72.5266 146.968 72.2465 147.435 71.9919Z" fill="#EBEBEB"/>
<path d="M147.435 71.9919C147.002 72.2974 146.552 72.5944 146.11 72.8915C145.668 73.1885 145.218 73.4855 144.776 73.774C144.309 74.0795 143.842 74.385 143.374 74.682C143.357 74.6905 143.349 74.699 143.332 74.7075C142.916 74.9705 142.499 75.2336 142.083 75.5051L142.024 75.5391L141.964 75.5051C141.548 75.2421 141.132 74.979 140.715 74.7075C140.698 74.699 140.69 74.6905 140.673 74.682C140.206 74.385 139.738 74.0795 139.271 73.774C138.829 73.4855 138.379 73.1885 137.937 72.8915C137.495 72.586 137.054 72.2974 136.612 71.9919C137.079 72.255 137.529 72.535 137.997 72.7981C138.455 73.0697 138.914 73.3497 139.364 73.6297C139.874 73.9352 140.375 74.2492 140.885 74.5717C141.267 74.8093 141.641 75.0469 142.024 75.2845C142.397 75.0469 142.78 74.8093 143.162 74.5717C143.663 74.2577 144.173 73.9437 144.683 73.6297C145.142 73.3497 145.592 73.0781 146.051 72.8066C146.509 72.5266 146.968 72.2465 147.435 71.9919Z" fill="white"/>
<path d="M140.902 74.5547C140.894 74.5547 140.894 74.5632 140.885 74.5632C140.826 74.6141 140.775 74.6565 140.715 74.7074C140.443 74.9366 140.163 75.1572 139.883 75.3693C139.534 75.6324 139.186 75.887 138.829 76.1331C138.472 76.3792 138.115 76.6253 137.75 76.8544C137.385 77.0835 137.02 77.3211 136.637 77.5248C136.969 77.2363 137.308 76.9732 137.648 76.7101C137.997 76.4471 138.345 76.1925 138.702 75.9464C139.058 75.7003 139.415 75.4542 139.781 75.2251C140.069 75.0384 140.367 74.8517 140.673 74.682C140.741 74.6395 140.809 74.6056 140.885 74.5632C140.894 74.5547 140.894 74.5547 140.902 74.5547Z" fill="white"/>
<path d="M147.41 77.5248C147.028 77.3126 146.654 77.0835 146.297 76.8544C145.932 76.6168 145.575 76.3792 145.218 76.1331C144.861 75.887 144.513 75.6324 144.165 75.3693C143.884 75.1572 143.604 74.9366 143.332 74.7074C143.272 74.6565 143.213 74.6141 143.162 74.5632C143.23 74.6056 143.306 74.6395 143.374 74.682C143.68 74.8517 143.969 75.0384 144.266 75.2251C144.632 75.4627 144.989 75.7003 145.345 75.9464C145.702 76.1925 146.051 76.4471 146.399 76.7101C146.739 76.9732 147.079 77.2363 147.41 77.5248Z" fill="white"/>
<path opacity="0.1" d="M188.113 116.722H110.598V127.236H188.113V116.722Z" fill="#020100"/>
<path d="M166.389 118.979H121.438V125.157H166.389V118.979Z" fill="white"/>
<path d="M166.389 131.072H121.438V137.249H166.389V131.072Z" fill="white"/>
<path d="M166.389 143.173H121.438V149.35H166.389V143.173Z" fill="white"/>
<path d="M166.389 155.265H121.438V161.443H166.389V155.265Z" fill="white"/>
<path d="M175.93 167.366H130.979V173.544H175.93V167.366Z" fill="#455A64"/>
<path d="M175.93 179.459H130.979V185.637H175.93V179.459Z" fill="#455A64"/>
<path d="M166.389 191.56H121.438V197.737H166.389V191.56Z" fill="white"/>
<path d="M166.389 203.652H121.438V209.83H166.389V203.652Z" fill="white"/>
<path d="M110.385 194.038C110.385 194.598 110.411 195.158 110.453 195.735" stroke="#263238" stroke-width="0.75" stroke-miterlimit="10"/>
<path d="M111.184 199.91C116.783 221.261 150.91 247.092 188.895 230.663C229.836 212.953 228.315 145.583 281.184 117.129" stroke="#263238" stroke-width="0.75" stroke-miterlimit="10" stroke-dasharray="4.01 4.01"/>
<path d="M283.07 116.145C283.571 115.89 284.081 115.635 284.591 115.389" stroke="#263238" stroke-width="0.75" stroke-miterlimit="10"/>
<path d="M281.286 106.174L275.959 120.786L287.148 112.063L329.915 96.5674L281.286 106.174Z" fill="#C63031"/>
<path opacity="0.1" d="M281.286 106.174L275.959 120.786L287.148 112.063L329.915 96.5674L281.286 106.174Z" fill="black"/>
<path d="M288.584 115.466L275.959 120.786L287.148 112.063L288.584 115.466Z" fill="#263238"/>
<path d="M287.148 112.063L329.916 96.5674L294.837 130.766L287.148 112.063Z" fill="#C63031"/>
<path d="M281.286 106.174L263.513 94.709L329.915 96.5674L281.286 106.174Z" fill="#C63031"/>
<path d="M474.504 68.9852C480.006 46.7933 466.456 24.348 444.238 18.8521C422.021 13.3561 399.55 26.8908 394.048 49.0826C388.545 71.2744 402.096 93.7197 424.313 99.2157C446.53 104.712 469.001 91.177 474.504 68.9852Z" fill="#A6A6A6"/>
<path d="M462.568 41.1284H405.995V76.9648H462.568V41.1284Z" fill="white"/>
<path d="M462.568 41.1284C460.282 43.3093 457.955 45.4053 455.652 47.5523C453.333 49.6568 451.005 51.7528 448.669 53.8319C446.23 56.0043 443.784 58.1513 441.337 60.2897C441.26 60.3576 441.192 60.4255 441.116 60.4934C438.95 62.3773 436.775 64.2612 434.6 66.1366L434.277 66.3997L433.963 66.1366C431.788 64.2527 429.621 62.3688 427.455 60.4764C427.378 60.417 427.302 60.3491 427.225 60.2813C424.77 58.1428 422.323 55.9958 419.885 53.8149C417.557 51.7443 415.229 49.6483 412.91 47.5438C410.608 45.3968 408.28 43.3093 405.995 41.1199C408.424 42.9868 410.812 44.9555 413.216 46.8734C415.612 48.8252 418.008 50.7769 420.386 52.7627C423.037 54.9605 425.688 57.1839 428.33 59.4411C428.338 59.4411 428.338 59.4411 428.347 59.4496C430.326 61.1214 432.306 62.8101 434.285 64.4988C436.256 62.8101 438.236 61.1129 440.215 59.4496C440.224 59.4242 440.224 59.4242 440.232 59.4242C442.875 57.1839 445.517 54.952 448.176 52.7457C450.555 50.7684 452.942 48.8082 455.338 46.8649C457.751 44.964 460.138 42.9953 462.568 41.1284Z" fill="#DBDBDB"/>
<path d="M428.415 60.2559C428.389 60.2728 428.372 60.2983 428.347 60.3153C428.049 60.5698 427.752 60.8244 427.455 61.0705C426.036 62.267 424.583 63.4126 423.105 64.5243C421.304 65.899 419.46 67.2144 417.608 68.5212C415.748 69.8026 413.878 71.0755 411.967 72.2975C410.055 73.5195 408.127 74.716 406.13 75.8107C407.847 74.3087 409.631 72.9085 411.432 71.5422C413.241 70.1675 415.085 68.8522 416.928 67.5453C418.798 66.2555 420.667 64.9826 422.578 63.7606C424.099 62.7847 425.645 61.8258 427.225 60.9263C427.591 60.7141 427.956 60.5104 428.33 60.3068C428.355 60.2898 428.389 60.2728 428.415 60.2559Z" fill="#DBDBDB"/>
<path d="M462.432 75.819C460.435 74.7243 458.498 73.5278 456.595 72.3058C454.684 71.0838 452.815 69.8109 450.946 68.5295C449.093 67.2227 447.25 65.9074 445.449 64.5326C443.979 63.421 442.526 62.2838 441.116 61.0873C440.81 60.8327 440.513 60.5781 440.215 60.3236C440.19 60.3066 440.173 60.2811 440.147 60.2642C440.173 60.2811 440.207 60.2981 440.232 60.3066C440.606 60.5187 440.972 60.7224 441.337 60.9346C442.917 61.8341 444.455 62.793 445.984 63.7689C447.896 64.9909 449.765 66.2638 451.625 67.5536C453.477 68.8605 455.321 70.1758 457.122 71.5505C458.932 72.9168 460.716 74.317 462.432 75.819Z" fill="#DBDBDB"/>
<path d="M459.337 49.7272C464.103 48.0938 466.642 42.91 465.007 38.1488C463.371 33.3876 458.182 30.852 453.415 32.4854C448.648 34.1188 446.11 39.3026 447.745 44.0638C449.38 48.825 454.57 51.3606 459.337 49.7272Z" fill="#C63031"/>
<path d="M455.372 43.1309V35.7142C455.372 35.1626 455.83 34.7043 456.383 34.7043C456.935 34.7043 457.377 35.1626 457.377 35.7142V43.1309C457.377 43.6995 456.935 44.1408 456.383 44.1408C455.83 44.1323 455.372 43.6995 455.372 43.1309ZM456.383 47.5521C455.83 47.5521 455.372 47.1109 455.372 46.5423V46.1774C455.372 45.6258 455.83 45.1676 456.383 45.1676C456.935 45.1676 457.377 45.6258 457.377 46.1774V46.5423C457.377 47.1109 456.935 47.5521 456.383 47.5521Z" fill="white"/>
<path d="M31.2389 345.445L154.07 345.971C183.924 322.549 187.008 287.859 165.71 266.83C152.821 254.11 136.45 256.673 120.86 254.653C120.843 254.653 120.826 254.645 120.818 254.645C115.389 253.94 110.062 252.676 105.007 250.011C88.959 241.551 79.911 221.6 66.4112 204.823C64.7291 202.719 62.9705 200.674 61.1269 198.705C50.023 186.858 27.9255 186.477 16.3628 203.126C-13.007 245.429 0.441794 308.395 31.2389 345.445Z" fill="#C7C7C7"/>
<path d="M28.5116 248.653C31.7314 298.992 89.9273 317.78 126.281 302.701C157.885 289.59 147.545 259.66 120.869 254.653C120.852 254.653 120.835 254.644 120.826 254.644C115.398 253.94 110.071 252.676 105.016 250.011C88.9673 241.551 79.9193 221.6 66.4196 204.823C46.2931 194.385 26.1497 211.799 28.5116 248.653Z" fill="#DBDBDB"/>
<path d="M126.153 353.319C124.335 352.683 82.9863 320.631 82.1877 318.408C81.8818 317.568 86.1977 311.28 91.6434 303.838C92.8159 302.225 94.0392 300.579 95.2881 298.899C103.393 288.028 112.254 276.682 112.254 276.682L139.976 298.042L122.245 319.664L118.354 324.416C118.354 324.416 128.685 343.764 129.305 346.285C129.925 348.813 127.98 353.956 126.153 353.319Z" fill="#774442"/>
<path d="M99.6464 293.094C98.2106 294.995 96.7409 296.964 95.2881 298.899C94.0307 300.57 92.8074 302.225 91.6349 303.829C86.1977 311.28 81.8818 317.568 82.1877 318.408C82.9948 320.623 124.327 352.674 126.153 353.319C127.971 353.956 129.917 348.813 129.305 346.293C128.685 343.773 118.346 324.425 118.346 324.425L122.237 319.672L126.196 314.844L99.6464 293.094Z" fill="#EBEBEB"/>
<path d="M126.349 353.71C124.505 353.056 82.5957 320.258 81.7886 318.001C81.4148 316.957 88.0244 307.766 95.2034 298.22L122.526 319.477L118.55 324.289C118.55 324.289 128.974 344.01 129.586 346.581C130.197 349.144 128.201 354.363 126.349 353.71Z" fill="#C63031"/>
<path d="M127.062 351.563C120.172 345.894 91.856 323.678 84.6092 318.595C84.5497 318.552 84.5242 318.595 84.5752 318.637C91.2783 324.408 119.782 346.395 126.969 351.682C127.122 351.792 127.207 351.682 127.062 351.563Z" fill="#263238"/>
<path d="M120.767 323.5C118.405 320.818 114.693 318.603 111.039 318.909C110.895 318.917 110.92 319.121 111.031 319.163C114.429 320.436 117.411 321.879 120.487 323.839C120.699 323.975 120.937 323.695 120.767 323.5Z" fill="#263238"/>
<path d="M121.821 326.258C119.459 323.576 115.746 321.361 112.093 321.675C111.949 321.684 111.974 321.887 112.085 321.93C115.483 323.203 118.465 324.645 121.54 326.606C121.753 326.741 121.991 326.453 121.821 326.258Z" fill="#263238"/>
<path d="M122.874 329.024C120.512 326.343 116.799 324.119 113.146 324.433C113.002 324.442 113.027 324.645 113.138 324.688C116.536 325.961 119.518 327.403 122.594 329.364C122.806 329.499 123.044 329.219 122.874 329.024Z" fill="#263238"/>
<path d="M123.928 331.79C121.566 329.109 117.853 326.894 114.2 327.208C114.056 327.216 114.081 327.42 114.192 327.463C117.59 328.735 120.572 330.178 123.647 332.138C123.86 332.266 124.098 331.977 123.928 331.79Z" fill="#263238"/>
<path d="M130.877 321.107C130.962 318.764 128.413 317.848 126.502 317.916C123.401 318.018 119.849 319.189 117.284 320.911C117.224 320.954 117.233 321.022 117.267 321.064C117.114 321.285 117.122 321.65 117.428 321.752C120.376 322.693 123.401 324.068 126.553 324.077C128.396 324.077 130.8 323.33 130.877 321.107ZM122.194 322.261C120.733 321.836 119.306 321.336 117.827 320.962C119.629 320.385 121.396 319.732 123.248 319.333C124.131 319.146 125.049 318.968 125.949 318.9C127.36 318.798 131.862 319.757 128.999 322.405C127.428 323.865 123.927 322.77 122.194 322.261Z" fill="#263238"/>
<path d="M110.827 314.691C112.348 317.441 114.998 319.443 117.241 321.573C117.47 321.794 117.802 321.633 117.921 321.387C117.98 321.403 118.04 321.378 118.048 321.302C118.329 318.23 117.657 314.555 116.264 311.789C115.406 310.083 113.384 308.284 111.362 309.481C109.45 310.618 109.935 313.087 110.827 314.691ZM111.124 311.746C112.076 307.97 115.075 311.458 115.661 312.739C116.035 313.562 116.315 314.453 116.578 315.319C117.122 317.135 117.394 319.002 117.742 320.852C116.706 319.74 115.584 318.722 114.505 317.644C113.223 316.371 110.597 313.834 111.124 311.746Z" fill="#263238"/>
<path d="M168.573 255.578C166.67 269.97 131.166 311.509 127.062 316.278C126.459 316.982 126.128 317.364 126.128 317.364L96.7581 294.817L97.0979 294.384L122.959 260.559C122.959 260.559 80.1914 285.482 58.7906 274.171C49.1819 269.088 42.0625 260.058 42.0625 260.058L69.988 245.182C69.988 245.182 77.7191 247.677 82.6552 246.956C99.6806 244.47 137.827 230.001 146.883 230.366C158.556 230.85 170.314 242.374 168.573 255.578Z" fill="#455A64"/>
<path d="M132.254 247.983C131.251 249.001 130.452 250.266 129.586 251.394C128.668 252.591 127.742 253.779 126.833 254.975C126.825 254.984 126.816 255.001 126.808 255.009C126.969 254.661 127.131 254.305 127.3 253.957C127.878 252.769 128.337 251.53 129.017 250.393C129.059 250.325 128.949 250.257 128.906 250.325C128.21 251.454 127.394 252.531 126.791 253.719C126.51 254.28 126.239 254.848 125.992 255.425C125.856 255.739 125.72 256.053 125.593 256.376C125.533 256.52 125.465 256.681 125.423 256.834C125.015 257.385 124.607 257.945 124.217 258.514C123.341 259.77 122.577 261.102 121.693 262.358C121.642 262.426 121.753 262.486 121.804 262.426C122.696 261.255 123.698 260.152 124.607 258.989C125.533 257.801 126.408 256.579 127.267 255.349C128.108 254.152 128.94 252.939 129.781 251.734C130.631 250.52 131.633 249.332 132.321 248.025C132.347 247.991 132.287 247.94 132.254 247.983Z" fill="#263238"/>
<path d="M129.135 310.397C127.521 308.904 125.788 307.521 124.089 306.129C122.381 304.729 120.665 303.346 118.94 301.962C115.491 299.204 112.059 296.421 108.576 293.714C106.664 292.229 104.727 290.752 102.739 289.369C102.654 289.31 102.552 289.445 102.629 289.522C105.891 292.492 109.374 295.199 112.823 297.948C116.273 300.706 119.739 303.456 123.231 306.154C125.142 307.631 127.045 309.158 129.042 310.516C129.118 310.593 129.212 310.465 129.135 310.397Z" fill="#263238"/>
<path d="M31.9949 194.674C31.1878 195.242 30.7715 196.261 31.0094 197.279C31.3067 198.569 32.5556 199.384 33.8385 199.188C33.779 199.528 33.7875 199.893 33.8725 200.249C34.1953 201.649 35.5376 202.557 36.9394 202.362C36.8969 202.651 36.9054 202.948 36.9734 203.253C37.2878 204.603 38.6471 205.451 39.9979 205.137C40.5756 205.001 41.0599 204.679 41.3997 204.246C41.799 205.485 43.0734 206.215 44.3647 205.918C44.7215 205.833 45.0444 205.672 45.3162 205.468C45.3247 205.544 45.3417 205.621 45.3587 205.689C45.6731 207.038 47.0154 207.878 48.3747 207.564C49.1903 207.377 49.8275 206.809 50.1248 206.079C50.6006 207.14 51.7815 207.734 52.9539 207.462C53.8799 207.25 54.5596 206.554 54.806 205.714C55.3497 205.969 55.9869 206.054 56.6326 205.909C57.3887 205.731 58.0004 205.264 58.3657 204.653C58.9689 205.027 59.708 205.18 60.4472 205.001C61.6705 204.721 62.5201 203.661 62.5796 202.464C62.8939 202.515 63.2253 202.506 63.5651 202.43C64.8055 202.142 65.6296 200.979 65.5021 199.749C65.8844 199.833 66.3007 199.842 66.717 199.749C68.2123 199.401 69.1383 197.924 68.7985 196.431C68.7305 196.125 68.6031 195.837 68.4501 195.599C68.5946 195.607 68.739 195.582 68.8834 195.548C70.2343 195.234 71.0838 193.893 70.7695 192.544C70.659 192.077 70.4296 191.67 70.1068 191.347C71.4491 190.906 72.2562 189.514 71.9334 188.114C71.8145 187.588 71.5511 187.138 71.1943 186.79C72.1288 186.171 72.6385 185.017 72.3667 183.854C72.1713 182.997 71.5766 182.318 70.829 181.979C71.2198 181.419 71.3727 180.706 71.2113 179.993C71.0413 179.263 70.5826 178.686 69.9709 178.364C70.5061 177.727 70.744 176.853 70.5401 175.979C70.2597 174.774 69.2318 173.934 68.0593 173.849C68.1613 173.467 68.1783 173.052 68.0848 172.644C67.796 171.405 66.6406 170.591 65.4002 170.709C65.4936 170.336 65.4851 169.92 65.4002 169.521C65.0518 168.028 63.5651 167.111 62.0868 167.451C61.8744 167.502 61.6705 167.578 61.4836 167.671C61.4751 167.527 61.4496 167.383 61.4157 167.23C61.0758 165.745 59.5806 164.82 58.1023 165.16C57.8729 165.211 57.6521 165.287 57.4566 165.406C57.4821 165.151 57.4566 164.888 57.3972 164.625C57.0489 163.131 55.5621 162.207 54.0668 162.554C53.3022 162.733 52.682 163.208 52.3082 163.853C51.6626 163.165 50.677 162.843 49.7 163.072C48.9694 163.242 48.3832 163.675 48.0094 164.252C47.4911 163.276 46.3697 162.733 45.2398 162.996C44.3562 163.199 43.6935 163.836 43.4217 164.642C42.844 164.209 42.0879 164.023 41.3317 164.201C40.2528 164.447 39.5136 165.355 39.4032 166.399C38.783 165.957 38.0014 165.788 37.2028 165.974C35.8945 166.28 35.0194 167.451 35.0534 168.732C34.756 168.69 34.4417 168.698 34.1358 168.766C32.785 169.08 31.9439 170.429 32.2583 171.779C32.3262 172.084 32.4452 172.364 32.6151 172.602C32.5556 172.602 32.5047 172.619 32.4537 172.627C30.9584 172.975 30.0324 174.46 30.3807 175.954C30.4402 176.217 30.5421 176.48 30.6781 176.701C30.4572 176.684 30.2278 176.709 30.0069 176.76C28.6561 177.074 27.815 178.415 28.1293 179.764C28.2823 180.434 28.7071 180.994 29.2593 181.334C28.5966 181.919 28.2738 182.844 28.4862 183.769C28.6391 184.431 29.0469 184.974 29.5821 185.322C28.5541 185.908 27.9849 187.121 28.2653 188.335C28.5371 189.497 29.5141 190.329 30.6441 190.448C30.0409 191.033 29.752 191.907 29.9559 192.782C30.1938 193.774 31.0264 194.504 31.9949 194.674Z" fill="#263238"/>
<path d="M55.1546 216.22C60.3795 223.722 78.3055 243.18 90.7008 245.997C97.5314 247.55 130.537 252.167 135.057 248.051C140.358 243.239 137.895 225.088 133.689 224.918C120.835 224.417 97.0472 226.929 91.1001 225.614C88.4155 225.02 74.1681 215.847 58.9522 208.498C53.2006 205.731 51.7818 211.383 55.1546 216.22Z" fill="#774442"/>
<path d="M126.689 223.925L124.48 251.097C124.48 251.097 94.5322 250.622 85.4927 245.547C76.4532 240.473 61.7386 227.523 56.1059 218.519C50.4732 209.524 52.3593 204.611 63.3528 210.144C74.3463 215.677 89.1799 224.561 91.1254 225.028C93.0709 225.503 126.689 223.925 126.689 223.925Z" fill="#C63031"/>
<path d="M120.716 225.809C120.716 225.741 120.606 225.707 120.597 225.784C120.223 227.65 120.071 229.568 119.858 231.452C119.637 233.404 119.45 235.364 119.272 237.325C118.924 241.228 118.507 245.157 118.388 249.078C118.38 249.247 118.609 249.247 118.635 249.086C119.221 245.242 119.535 241.33 119.901 237.452C120.079 235.534 120.257 233.608 120.393 231.681C120.529 229.738 120.742 227.769 120.716 225.809Z" fill="#263238"/>
<path d="M80.1066 219.198C77.1926 224.833 73.6669 230.179 70.5829 234.456C70.481 234.354 70.3705 234.261 70.2686 234.176C73.3355 229.908 76.8443 224.587 79.7328 218.986C79.8602 219.054 79.9877 219.122 80.1066 219.198Z" fill="white"/>
<path d="M83.675 221.184C80.7269 227.082 77.0483 232.725 73.8199 237.223C73.7095 237.138 73.599 237.044 73.4971 236.951C76.7085 232.462 80.3786 226.844 83.3097 220.98C83.4371 221.048 83.556 221.116 83.675 221.184Z" fill="white"/>
<path opacity="0.1" d="M97.956 248.993C92.833 248.187 88.2198 247.075 85.5012 245.547C76.4617 240.464 61.7471 227.523 56.1144 218.52C51.8156 211.646 51.892 207.157 57.0744 207.887L97.956 248.993Z" fill="#020100"/>
<path d="M28.6562 266.55C30.2959 267.076 76.9885 253.584 76.9885 253.584L71.4748 237.392C71.4748 237.392 74.1934 232.182 72.9361 227.175C71.2454 220.488 58.8501 209.482 57.8731 208.837C53.9651 206.249 50.2949 206.291 47.0495 208.014C33.5498 215.184 28.6562 266.55 28.6562 266.55Z" fill="#C63031"/>
<path d="M70.6082 222.457C58.5272 228.363 41.8501 230.621 34.8496 231.333C34.8836 231.189 34.9261 231.045 34.9685 230.901C42.02 230.162 58.4338 227.922 70.3618 222.101C70.4468 222.219 70.5317 222.338 70.6082 222.457Z" fill="white"/>
<path d="M72.4602 225.783C59.6317 232.776 40.2359 235.127 33.7451 235.746C33.7706 235.602 33.8046 235.449 33.8471 235.305C40.4483 234.668 59.6147 232.309 72.2818 225.393C72.3498 225.529 72.4092 225.656 72.4602 225.783Z" fill="white"/>
<path d="M64.2791 214.675C65.477 216.076 66.7683 217.399 68.0172 218.774C67.4395 217.756 66.8618 216.729 66.2501 215.728C66.2416 215.711 66.2671 215.685 66.2756 215.702C67.1761 216.899 68.0002 218.129 68.6459 219.47C69.5634 220.514 70.447 221.591 71.2201 222.754C72.1546 224.146 72.9277 225.639 73.344 227.269C73.7518 228.898 73.7518 230.612 73.4884 232.267C73.1741 234.185 72.5624 236.026 71.9082 237.842C71.8233 238.08 71.4834 237.935 71.5429 237.698C72.418 234.533 73.412 231.198 72.7068 227.897C72.0102 224.638 69.9627 221.871 67.9832 219.283C66.7853 217.722 65.5704 216.152 64.1856 214.76C64.1176 214.692 64.2196 214.607 64.2791 214.675Z" fill="#263238"/>
<path d="M40.9494 219.3C37.1943 240.575 40.2443 256.63 43.8635 258.607C53.5996 263.92 72.3922 254.551 78.9849 252.404C81.6525 251.539 79.0868 229.433 76.1473 230.027C68.9089 231.495 55.9784 239.005 55.6131 238.971C54.8909 238.894 54.0499 233.472 50.3287 217.646C47.3127 204.84 42.4872 210.602 40.9494 219.3Z" fill="#774442"/>
<path d="M73.3862 230.773C73.3862 230.773 87.0729 225.054 98.1513 225.563C101.906 225.733 117.139 230.527 116.137 234.244C115.228 237.613 102.603 232.114 102.603 232.114C102.603 232.114 115.831 236.535 113.996 240.388C112.152 244.241 98.7205 236.137 98.7205 236.137C98.7205 236.137 112.212 240.982 109.68 244.657C107.769 247.431 95.1863 240.778 95.1863 240.778C95.1863 240.778 106.749 245.021 104.914 247.966C102.883 251.216 90.879 245.802 90.879 245.802C84.9404 252.489 79.3757 253.244 75.3572 253.312C74.3717 253.321 73.3862 230.773 73.3862 230.773Z" fill="#774442"/>
<path d="M98.1174 230.29C99.6891 230.756 101.286 231.215 102.816 231.809C104.345 232.411 105.848 233.065 107.31 233.803C110.895 235.619 112.866 237.316 112.73 237.223C109.595 235.05 104.166 232.819 102.637 232.216C101.116 231.614 99.6211 230.943 98.1004 230.341C98.0579 230.332 98.0834 230.281 98.1174 230.29Z" fill="#263238"/>
<path d="M95.8401 235.755C97.8197 236.434 99.8162 237.036 101.77 237.8C103.716 238.564 105.491 239.455 107.377 240.346C107.522 240.414 107.437 240.473 107.292 240.405C105.372 239.59 103.537 238.979 101.6 238.182C99.6802 237.393 97.7687 236.519 95.8232 235.797C95.7977 235.789 95.8147 235.746 95.8401 235.755Z" fill="#263238"/>
<path d="M93.0452 240.091C96.1292 240.974 99.0432 242.425 101.872 243.91C102.017 243.986 101.898 244.045 101.745 243.978C98.8308 242.654 96.5624 241.593 93.0112 240.201C92.9602 240.176 92.9857 240.074 93.0452 240.091Z" fill="#263238"/>
<path d="M70.6929 230.85L81.8903 254.763C81.8903 254.763 47.1427 264.887 42.436 258.794C37.7209 252.701 38.0522 233.54 40.2611 220.285C42.47 207.03 48.4425 206.775 51.0592 218.757C53.6759 230.739 55.2136 238.309 55.6809 238.241C56.1482 238.182 70.6929 230.85 70.6929 230.85Z" fill="#C63031"/>
<path d="M53.9989 232.275C49.2328 235.508 43.7955 238.275 38.7065 240.507V240.048C43.77 237.817 49.1818 235.059 53.8969 231.843C53.9394 231.987 53.9649 232.131 53.9989 232.275Z" fill="white"/>
<path d="M54.9845 236.408C49.972 239.828 44.1949 242.721 38.8766 245.021C38.8681 244.868 38.8596 244.716 38.8511 244.563C44.1524 242.272 49.8955 239.378 54.8656 235.975C54.908 236.128 54.9505 236.272 54.9845 236.408Z" fill="white"/>
<path d="M66.1564 234.066C66.1224 234.007 66.012 234.032 66.0375 234.108C66.6577 235.907 67.4987 237.639 68.2719 239.378C69.0705 241.177 69.903 242.959 70.7356 244.741C72.4093 248.289 74.0405 251.887 75.918 255.332C76.003 255.485 76.1899 255.366 76.1304 255.213C74.6946 251.598 72.987 248.059 71.3388 244.538C70.5232 242.79 69.6991 241.041 68.8496 239.31C67.983 237.545 67.1674 235.738 66.1564 234.066Z" fill="#263238"/>
<path d="M63.531 259.159C62.5795 259.133 61.56 259.481 60.6254 259.643C59.6229 259.821 58.612 259.982 57.6095 260.109C55.6554 260.364 53.6844 260.559 51.7134 260.619C49.7764 260.669 44.9678 260.381 43.498 259.04C42.2067 257.869 41.2976 256.019 40.9833 254.721C40.4481 252.48 40.0742 250.189 39.7939 247.907C39.1822 243.061 39.1397 238.182 39.3351 233.302C39.3861 231.944 39.471 230.595 39.573 229.237C39.6749 227.863 39.8364 226.479 39.8788 225.096C39.8788 225.045 39.7939 225.037 39.7854 225.088C39.2841 227.269 39.0632 229.543 38.8678 231.775C38.7829 230.374 38.613 228.983 38.596 227.583C38.596 227.498 38.4685 227.506 38.4685 227.583C38.494 229.059 38.3921 230.527 38.4516 232.004C38.4855 232.835 38.562 233.659 38.6555 234.482C38.5365 236.357 38.4855 238.232 38.5025 240.108C38.5535 244.996 38.9188 250.062 40.2272 254.789C40.8049 256.868 41.6799 258.862 43.5915 259.982C44.6959 260.627 46.6839 261.068 48.1622 261.179C51.5095 261.442 54.8738 261.162 58.1702 260.542C59.0962 260.372 60.0138 260.177 60.9313 259.965C61.7894 259.77 62.7834 259.651 63.565 259.244C63.599 259.227 63.5735 259.159 63.531 259.159Z" fill="#263238"/>
<path d="M70.6423 230.4C68.085 231.673 65.5193 232.963 62.9791 234.261C61.7217 234.906 60.4644 235.543 59.207 236.187C58.0006 236.807 55.6982 238.054 55.6982 238.054C55.6728 237.477 55.231 235.806 54.9846 234.728C54.7212 233.557 54.4494 232.377 54.1435 231.215C54.0671 230.909 53.9821 230.612 53.8971 230.307C53.8462 229.747 53.7952 229.187 53.7357 228.626C53.6508 227.727 53.5743 226.802 53.4384 225.902C53.4299 225.868 53.3874 225.868 53.3874 225.902C53.2939 226.76 53.3194 227.625 53.4044 228.491C53.0136 227.082 52.6143 225.673 52.1895 224.273C52.1725 224.222 52.1045 224.248 52.113 224.299C52.5718 226.666 53.0561 229.034 53.5998 231.384C53.8632 232.521 54.152 233.659 54.4494 234.787C54.7382 235.882 55.3584 238.445 55.4604 238.411C56.7772 237.961 58.0346 237.316 59.2919 236.722C60.6003 236.103 61.9001 235.466 63.1915 234.821C65.7062 233.565 68.238 232.284 70.6592 230.867C70.6592 230.884 71.0331 231.656 71.0585 231.69C71.1265 231.792 71.203 231.614 71.1775 231.503C71.1435 231.308 70.7017 230.366 70.6423 230.4Z" fill="#263238"/>
<path d="M121.999 247.941H72.46V250.164H121.999V247.941Z" fill="#C7C7C7"/>
<path d="M83.0539 247.941L81.3633 250.164H121.998V247.941H83.0539Z" fill="#A6A6A6"/>
<path d="M85.1782 250.155H133.46L137.478 217.408H89.1967L85.1782 250.155Z" fill="#C7C7C7"/>
<path d="M108.389 233.786C108.363 235.407 109.654 236.722 111.277 236.722C112.9 236.722 114.242 235.407 114.268 233.786C114.293 232.165 113.002 230.85 111.379 230.85C109.756 230.85 108.414 232.165 108.389 233.786Z" fill="white"/>
<path d="M137.087 220.573C138.905 223.382 143.399 226.658 144.019 229.068C144.58 231.24 142.847 232.258 142.847 232.258C142.847 232.258 145.447 233.149 145.651 235.432C145.753 236.603 143.968 237.8 143.968 237.8C143.968 237.8 146.024 238.606 146.075 240.643C146.118 242.263 144.325 243.214 144.325 243.214C144.325 243.214 145.931 244.903 145.447 246.574C144.461 249.952 130.639 251.776 127.827 246.973C126.518 244.733 129.916 244.47 129.916 244.47C129.916 244.47 124.938 243.672 124.488 240.829C124.037 237.995 128.472 237.919 128.472 237.919C128.472 237.919 123.655 237.095 123.485 234.108C123.307 231.003 127.759 231.681 127.759 231.681C127.759 231.681 124.411 230.01 124.802 227.693C125.456 223.866 133.34 227.931 136.28 226.81L137.087 220.573Z" fill="#774442"/>
<path d="M144.053 243.401C144.096 243.392 144.121 243.452 144.079 243.469C139.678 245.174 134.326 245.7 129.729 244.504C129.576 244.461 129.576 244.207 129.755 244.215C134.725 244.555 139.16 244.453 144.053 243.401Z" fill="#263238"/>
<path d="M144.028 237.817C144.079 237.808 144.104 237.893 144.045 237.91C139.5 239.641 133.451 240.074 128.319 238.063C128.141 237.995 128.056 237.757 128.26 237.817C131.785 238.903 139.627 238.784 144.028 237.817Z" fill="#263238"/>
<path d="M127.436 231.427C132.431 233.167 137.478 233.124 142.66 232.343C142.728 232.335 142.737 232.428 142.677 232.454C140.247 233.523 136.892 233.684 134.275 233.582C131.769 233.489 129.517 232.895 127.376 231.605C127.291 231.546 127.325 231.385 127.436 231.427Z" fill="#263238"/>
<path d="M44.7983 209.686C44.7983 209.686 53.0647 216.678 58.3151 215.397C63.5654 214.115 60.3456 208.795 60.3456 208.795C60.3456 208.795 55.554 205.875 50.431 206.537C46.7778 207.021 44.7983 209.686 44.7983 209.686Z" fill="#774442"/>
<path d="M49.0459 208.43C49.2328 209.278 53.1833 214.803 57.0404 214.684C58.2978 214.642 58.3657 207.776 58.3657 207.776L58.4847 207.267L60.1753 200.19L50.7026 193.995C50.7111 193.995 48.9694 208.073 49.0459 208.43Z" fill="#774442"/>
<path d="M60.1838 200.19L58.4931 207.267C56.4796 206.478 52.1553 204.195 50.1333 198.807C50.4222 196.363 50.677 194.335 50.7025 194.038C50.711 194.012 50.711 193.995 50.711 193.995L51.9089 194.716L60.1838 200.19Z" fill="#263238"/>
<path d="M70.3451 189.913C70.6085 202.685 62.9878 204.28 60.2267 204.339C57.7204 204.39 49.1992 204.238 47.6105 191.568C46.0303 178.898 51.8838 174.732 57.6015 174.325C63.3191 173.9 70.0817 177.15 70.3451 189.913Z" fill="#774442"/>
<path d="M68.3739 187.877C68.0765 187.826 67.8131 187.732 67.5158 187.656C67.1929 187.563 66.9211 187.529 66.6917 187.257C66.5643 187.113 66.5897 186.833 66.7172 186.706C67.0145 186.392 67.4393 186.409 67.8386 186.493C68.2719 186.595 68.5777 186.782 68.8496 187.13C69.113 187.469 68.7647 187.945 68.3739 187.877Z" fill="#263238"/>
<path d="M59.6658 188.53C59.9631 188.513 60.2435 188.445 60.5408 188.394C60.8722 188.335 61.144 188.326 61.3989 188.08C61.5348 187.953 61.5433 187.673 61.4244 187.529C61.161 187.189 60.7277 187.155 60.3284 187.215C59.8867 187.274 59.5638 187.427 59.258 187.749C58.9691 188.046 59.2665 188.555 59.6658 188.53Z" fill="#263238"/>
<path d="M61.382 190.524C61.3735 190.49 61.314 190.567 61.314 190.601C61.3225 191.475 61.1781 192.468 60.3795 192.739C60.354 192.748 60.354 192.79 60.388 192.79C61.348 192.671 61.5264 191.348 61.382 190.524Z" fill="#263238"/>
<path d="M60.6259 189.599C59.2326 189.455 59.0456 192.255 60.337 192.391C61.6199 192.519 61.7983 189.718 60.6259 189.599Z" fill="#263238"/>
<path d="M60.065 189.71C59.8101 189.854 59.5553 190.117 59.2579 190.125C58.9181 190.134 58.6717 189.828 58.4678 189.531C58.4508 189.497 58.4168 189.523 58.4168 189.557C58.3744 190.091 58.5443 190.66 59.1135 190.77C59.6317 190.881 60.0395 190.431 60.2094 189.896C60.2434 189.803 60.167 189.65 60.065 189.71Z" fill="#263238"/>
<path d="M66.4284 190.567C66.4369 190.533 66.4964 190.609 66.4879 190.651C66.3944 191.517 66.4369 192.527 67.2015 192.866C67.227 192.875 67.2185 192.917 67.193 192.917C66.25 192.705 66.2075 191.373 66.4284 190.567Z" fill="#263238"/>
<path d="M67.2695 189.718C68.6713 189.71 68.5779 192.518 67.278 192.527C66.0037 192.527 66.0971 189.718 67.2695 189.718Z" fill="#263238"/>
<path d="M67.847 189.922C68.0679 190.074 68.2718 190.354 68.5351 190.38C68.841 190.414 69.0789 190.117 69.2828 189.828C69.3082 189.803 69.3252 189.82 69.3252 189.862C69.3252 190.397 69.1213 190.949 68.6031 191.033C68.1273 191.11 67.796 190.643 67.6855 190.1C67.6855 190.007 67.762 189.854 67.847 189.922Z" fill="#263238"/>
<path d="M60.7703 198.204C60.9487 198.433 61.1186 198.739 61.4244 198.807C61.7218 198.875 62.0956 198.79 62.3844 198.722C62.4099 198.713 62.4354 198.747 62.4184 198.773C62.1466 199.07 61.6453 199.214 61.2545 199.087C60.8722 198.968 60.7278 198.603 60.6853 198.23C60.6768 198.179 60.7448 198.17 60.7703 198.204Z" fill="#263238"/>
<path d="M64.7377 195.098C64.7377 195.098 64.8142 196.405 64.7632 197.016C64.7547 197.075 64.6103 197.092 64.3979 197.084C64.3894 197.084 64.3809 197.092 64.3724 197.084C63.2765 197.16 62.223 196.702 61.6368 195.769C61.6028 195.709 61.6793 195.65 61.7387 195.692C62.4949 196.346 63.3784 196.575 64.3299 196.668C64.3894 196.498 64.126 194.428 64.228 194.428C64.5678 194.428 65.205 194.708 65.5873 194.852C65.5109 192.12 65.0011 189.421 64.9671 186.706C64.9671 186.612 65.1116 186.587 65.1286 186.68C65.8677 189.472 66.0206 192.612 66.165 195.429C66.199 195.777 64.9756 195.217 64.7377 195.098Z" fill="#263238"/>
<path d="M64.3893 196.838C64.3893 196.838 63.8031 197.661 62.979 197.967C62.6732 198.077 62.3503 198.128 62.002 198.043C61.2968 197.873 61.2629 197.22 61.3818 196.668C61.4753 196.21 61.6877 195.82 61.6877 195.82C61.6877 195.82 62.7326 196.762 64.3893 196.838Z" fill="#263238"/>
<path d="M62.979 197.967C62.6732 198.077 62.3503 198.128 62.002 198.043C61.2968 197.873 61.2629 197.22 61.3818 196.668C62.1464 196.736 62.9025 197.237 62.979 197.967Z" fill="#FF9CBD"/>
<path d="M48.6044 191.016C49.9552 190.932 53.4724 187.198 53.5574 180.664C53.5574 180.664 53.0731 186.527 52.6398 187.384C52.1981 188.242 54.6024 185.28 54.7468 180.019C54.7468 180.019 57.6778 182.115 60.1671 182.802C62.6563 183.489 64.1856 183.464 64.364 183.277C64.5424 183.099 60.8722 181.953 59.8782 180.816C59.8782 180.816 66.5134 183.871 69.5719 184.092C69.9287 184.117 69.8267 177.846 65.0946 174.783C60.3625 171.719 53.3875 174.095 51.3825 176.039C51.3825 176.039 49.9637 176.684 47.4065 180.18C44.8407 183.676 47.1431 191.11 48.6044 191.016Z" fill="#263238"/>
<path d="M48.3493 194.063C48.9949 195.837 43.957 187.792 43.8465 186.476C43.7361 185.161 45.5457 178.474 50.7196 175.139C55.0609 172.347 60.889 173.315 61.9 173.501C63.82 173.841 65.0774 174.783 65.0774 174.783C65.0774 174.783 57.4397 173.493 51.3653 176.039C48.4427 177.269 45.9195 187.41 48.3493 194.063Z" fill="#C63031"/>
<path d="M48.3071 174.825C48.3071 174.825 49.3096 170.786 52.623 169.301C52.623 169.301 53.5745 172.746 52.7249 174.248C52.3001 174.995 49.6834 176.09 49.2332 175.742C48.7744 175.394 48.3071 174.825 48.3071 174.825Z" fill="#C63031"/>
<path opacity="0.1" d="M48.3071 174.825C48.3071 174.825 48.7744 175.394 49.2247 175.733C49.2417 175.75 49.2671 175.759 49.2926 175.767C49.3181 175.784 49.3436 175.784 49.3861 175.793C49.4116 175.793 49.4286 175.801 49.4626 175.793C49.8109 175.81 50.3886 175.648 50.9748 175.394C50.7539 174.961 50.4396 174.409 50.1337 174.036C49.8703 173.714 49.3266 173.535 48.8084 173.425C48.4516 174.24 48.3071 174.825 48.3071 174.825Z" fill="#050400"/>
<path d="M47.6188 175.555C47.6188 175.555 42.5978 176.344 40.6353 178.109C40.6353 178.109 42.6827 180.197 45.2739 180.053C46.4378 179.985 48.9526 177.04 48.6043 176.531C48.2474 176.022 47.6188 175.555 47.6188 175.555Z" fill="#C63031"/>
<path opacity="0.1" d="M46.4888 175.767C46.5397 176.242 46.7012 176.887 47.075 177.32C47.2874 177.566 47.6102 177.753 47.95 177.906C48.4343 177.286 48.7232 176.726 48.5957 176.531C48.2474 176.03 47.6102 175.555 47.6102 175.555C47.6102 175.555 47.1684 175.623 46.4888 175.767Z" fill="#050400"/>
<path d="M47.4661 176.794C48.1117 177.439 49.1567 177.43 49.8024 176.794C50.4481 176.149 50.4396 175.105 49.7939 174.46C49.1482 173.815 48.1032 173.824 47.4576 174.469C46.8119 175.114 46.8204 176.149 47.4661 176.794Z" fill="#C63031"/>
<path d="M49.6662 192.501C49.6662 192.501 47.143 188.343 45.2739 189.217C43.4048 190.091 45.1125 195.998 47.1854 196.923C49.2584 197.848 50.1505 195.955 50.1505 195.955L49.6662 192.501Z" fill="#774442"/>
<path d="M45.8009 190.898C45.7669 190.889 45.7584 190.94 45.7839 190.957C47.2281 191.653 47.9248 193.087 48.3751 194.547C47.9673 193.97 47.3896 193.63 46.6164 194.105C46.574 194.131 46.6079 194.19 46.6504 194.19C47.2706 194.097 47.7039 194.233 48.0777 194.75C48.3496 195.115 48.5195 195.565 48.6979 195.972C48.7574 196.108 49.0038 196.057 48.9613 195.896C48.9613 195.887 48.9528 195.87 48.9528 195.862C49.1227 193.97 47.8228 191.22 45.8009 190.898Z" fill="#263238"/>
<path d="M232.613 316.236C231.942 318.043 199.14 358.776 196.906 359.54C196.056 359.837 189.846 355.407 182.48 349.849C180.891 348.644 179.26 347.396 177.603 346.123C166.865 337.833 155.667 328.795 155.667 328.795L177.536 301.487L198.877 319.571L203.566 323.534C203.566 323.534 223.107 313.554 225.647 312.977C228.17 312.392 233.285 314.428 232.613 316.236Z" fill="#774442"/>
<path d="M171.869 341.66C173.746 343.128 175.692 344.63 177.603 346.115C179.26 347.396 180.891 348.652 182.471 349.849C189.837 355.407 196.048 359.828 196.897 359.54C199.131 358.776 231.934 318.052 232.605 316.236C233.276 314.428 228.161 312.4 225.63 312.96C223.089 313.537 203.549 323.525 203.549 323.525L198.86 319.554L194.102 315.523L171.869 341.66Z" fill="#EBEBEB"/>
<path d="M233.004 316.049C232.316 317.882 198.758 359.158 196.481 359.922C195.428 360.278 186.346 353.515 176.916 346.183L198.665 319.265L203.414 323.322C203.414 323.322 223.336 313.257 225.927 312.689C228.51 312.12 233.701 314.216 233.004 316.049Z" fill="#C63031"/>
<path d="M230.872 315.302C225.078 322.083 202.343 349.985 197.127 357.121C197.084 357.181 197.118 357.206 197.169 357.155C203.057 350.562 225.57 322.482 230.982 315.387C231.101 315.243 230.999 315.158 230.872 315.302Z" fill="#263238"/>
<path d="M202.674 321.098C199.956 323.406 197.662 327.081 197.917 330.73C197.925 330.874 198.129 330.857 198.172 330.747C199.506 327.369 201.001 324.425 203.014 321.387C203.15 321.175 202.87 320.937 202.674 321.098Z" fill="#263238"/>
<path d="M205.452 320.097C202.734 322.405 200.44 326.08 200.695 329.728C200.703 329.873 200.907 329.856 200.95 329.745C202.283 326.368 203.779 323.423 205.792 320.385C205.928 320.173 205.648 319.927 205.452 320.097Z" fill="#263238"/>
<path d="M208.239 319.096C205.52 321.404 203.226 325.078 203.481 328.727C203.49 328.872 203.694 328.855 203.736 328.744C205.07 325.367 206.565 322.422 208.579 319.384C208.715 319.172 208.434 318.926 208.239 319.096Z" fill="#263238"/>
<path d="M211.026 318.086C208.307 320.394 206.013 324.068 206.268 327.717C206.276 327.862 206.48 327.845 206.523 327.734C207.857 324.357 209.352 321.412 211.365 318.374C211.501 318.162 211.212 317.925 211.026 318.086Z" fill="#263238"/>
<path d="M200.457 310.958C198.112 310.83 197.152 313.359 197.186 315.277C197.237 318.374 198.35 321.947 200.024 324.535C200.066 324.603 200.126 324.586 200.177 324.552C200.389 324.713 200.763 324.705 200.865 324.399C201.859 321.472 203.286 318.468 203.354 315.328C203.388 313.495 202.675 311.076 200.457 310.958ZM201.46 319.656C201.01 321.107 200.483 322.524 200.083 323.992C199.531 322.184 198.911 320.411 198.546 318.552C198.367 317.661 198.206 316.745 198.155 315.845C198.078 314.437 199.115 309.956 201.715 312.858C203.15 314.454 202.004 317.925 201.46 319.656Z" fill="#263238"/>
<path d="M193.686 330.874C196.464 329.406 198.52 326.784 200.687 324.586C200.907 324.357 200.755 324.026 200.517 323.907C200.534 323.848 200.508 323.788 200.432 323.78C197.365 323.449 193.669 324.06 190.874 325.401C189.149 326.232 187.314 328.218 188.478 330.255C189.583 332.181 192.063 331.731 193.686 330.874ZM190.738 330.526C186.974 329.508 190.517 326.572 191.817 326.012C192.65 325.655 193.542 325.384 194.417 325.146C196.243 324.637 198.112 324.399 199.973 324.077C198.843 325.095 197.806 326.198 196.711 327.251C195.411 328.506 192.819 331.086 190.738 330.526Z" fill="#263238"/>
<path d="M197.721 315.37L174.706 346.395L97.0297 292.56L89.5365 287.366C89.5365 287.366 87.4126 288.792 84.2267 290.557C79.7919 293.01 73.2926 296.107 67.541 296.956C57.8983 298.381 41.7989 298.228 33.6685 287.375C26.8209 278.235 30.542 266.304 30.542 266.304L41.1277 261.764C41.1277 261.764 66.1817 240.914 82.4171 240.286C89.3071 240.014 99.3491 245.233 108.643 250.681C117.929 256.112 197.721 315.37 197.721 315.37Z" fill="#455A64"/>
<path d="M89.5281 287.358C89.5281 287.358 87.4042 288.784 84.2183 290.549C78.5771 283.802 66.6236 271.54 66.2583 271.107L89.5281 287.358Z" fill="#263238"/>
<path d="M50.3033 254.772C48.808 255.807 47.3553 256.91 45.877 257.979C44.4242 259.032 42.9205 260.016 41.5442 261.162C40.1424 262.324 38.8085 263.572 37.4832 264.828C36.846 265.43 36.2089 266.041 35.5972 266.669C34.9855 267.289 34.2973 267.916 33.7961 268.621C33.7451 268.689 33.847 268.765 33.9065 268.723C34.6201 268.264 35.2658 267.636 35.9115 267.093C36.6166 266.508 37.3048 265.905 38.0015 265.311C39.3523 264.166 40.7201 263.054 42.0624 261.908C43.3963 260.771 44.6366 259.524 45.9535 258.37C47.3723 257.131 48.859 255.985 50.3288 254.814C50.3628 254.797 50.3373 254.746 50.3033 254.772Z" fill="#263238"/>
<path d="M192.309 314.258C190.814 315.871 189.429 317.602 188.036 319.299C186.634 321.005 185.249 322.719 183.865 324.442C181.103 327.887 178.317 331.315 175.607 334.795C174.12 336.704 172.642 338.639 171.257 340.624C171.197 340.709 171.333 340.811 171.41 340.735C174.383 337.476 177.093 333.997 179.846 330.552C182.607 327.106 185.36 323.644 188.061 320.156C189.54 318.247 191.069 316.346 192.428 314.352C192.505 314.275 192.377 314.191 192.309 314.258Z" fill="#263238"/>
<path d="M128.566 314.572C124.7 311.534 120.69 308.658 116.689 305.806C112.704 302.964 108.72 300.121 104.667 297.363C103.503 296.574 102.331 295.801 101.167 295.021C100.003 294.248 98.7797 293.527 97.6412 292.721C97.5733 292.67 97.5138 292.789 97.5818 292.831C98.6352 293.587 99.6292 294.427 100.657 295.207C101.643 295.954 102.62 296.709 103.614 297.448C105.551 298.882 107.513 300.29 109.467 301.708C113.435 304.576 117.436 307.402 121.472 310.168C123.766 311.738 126.051 313.316 128.387 314.81C128.532 314.895 128.693 314.674 128.566 314.572Z" fill="#263238"/>
<path d="M153.408 282.563C149.84 279.61 146.008 276.946 142.261 274.213C138.472 271.447 134.709 268.655 130.911 265.914C127.139 263.19 123.367 260.466 119.595 257.742C115.941 255.103 112.305 252.421 108.44 250.079C106.324 248.798 104.158 247.618 101.932 246.549C99.7656 245.513 97.5227 244.453 95.2034 243.808C95.1354 243.791 95.0929 243.893 95.1609 243.927C97.0639 244.987 99.0604 245.878 100.989 246.905C102.892 247.915 104.77 248.984 106.613 250.104C110.445 252.43 114.064 255.06 117.7 257.674C125.253 263.096 132.789 268.544 140.392 273.891C144.649 276.886 148.82 280.043 153.238 282.792C153.374 282.877 153.535 282.665 153.408 282.563Z" fill="#263238"/>
</g>
<defs>
<clipPath id="clip0_69_52">
<rect width="551" height="359" fill="white" transform="translate(0 0.998047)"/>
</clipPath>
</defs>
</svg>
