<svg width="381" height="375" viewBox="0 0 381 375" fill="none" xmlns="http://www.w3.org/2000/svg">
<path d="M190.5 375C295.71 375 381 358.435 381 338C381 317.565 295.71 301 190.5 301C85.2898 301 0 317.565 0 338C0 358.435 85.2898 375 190.5 375Z" fill="#EBEBEB"/>
<g clip-path="url(#clip0_43_2765)">
<path d="M238.702 196.045H268.195V186.672H238.702V196.045Z" fill="#EBEBEB"/>
<path d="M357.351 213.551H250.914V228.637H357.351V213.551Z" fill="#455A64"/>
<path d="M354.818 228.637H253.455V233.538H354.818V228.637Z" fill="#455A64"/>
<path d="M354.818 228.637H253.455V230.262H354.818V228.637Z" fill="#263238"/>
<path d="M254.453 337H250.394L262.196 233.538H272.538L254.453 337Z" fill="#455A64"/>
<path d="M272.538 233.538L271.322 240.465H261.407L262.196 233.538H272.538Z" fill="#263238"/>
<path d="M353.812 337H357.871L346.069 233.538H335.727L353.812 337Z" fill="#455A64"/>
<path d="M335.727 233.538L336.943 240.465H346.858L346.069 233.538H335.727Z" fill="#263238"/>
<path d="M40.6722 106.595H36.1426V332.477H40.6722V106.595Z" fill="#C7C7C7"/>
<path d="M115.645 26.7194L7.99805 134.221L11.2009 137.419L118.848 29.918L115.645 26.7194Z" fill="#C7C7C7"/>
<path d="M13.8525 332.479V337.003H62.9654V332.479H13.8525Z" fill="#C7C7C7"/>
<path d="M119.311 43.392L134.494 29.1598L120.201 17.5578L108.826 28.2383L119.311 43.392Z" fill="#C63031"/>
<path opacity="0.1" d="M134.494 29.1514L119.312 43.392L115.143 37.3691L128.153 24.0164L134.494 29.1514Z" fill="black"/>
<path d="M117.743 67.1822L158.711 28.7325L139.141 18.2112L108.44 47.0192L117.743 67.1822Z" fill="#C63031"/>
<path opacity="0.6" d="M277.563 188.822C277.563 188.822 263.009 182.129 263.009 173.149C263.009 164.169 281.891 158.398 281.891 151.378C281.891 144.358 273.654 140.237 273.654 140.237C273.654 140.237 286.656 144.676 286.656 153.547C286.656 162.418 274.208 168.433 273.016 174.079C271.364 181.92 277.563 188.822 277.563 188.822Z" fill="#DBDBDB"/>
<path opacity="0.6" d="M276.841 188.822C276.841 188.822 291.395 183.553 291.395 176.5C291.395 169.438 272.513 164.898 272.513 159.378C272.513 153.857 280.75 150.615 280.75 150.615C280.75 150.615 267.749 154.1 267.749 161.078C267.749 168.056 282.042 172.856 283.065 178.519C284.064 184.089 276.841 188.822 276.841 188.822Z" fill="#DBDBDB"/>
<path d="M284.332 211.398H270.483V213.559H284.332V211.398Z" fill="#C63031"/>
<path opacity="0.1" d="M284.332 211.398H270.483V212.822H284.332V211.398Z" fill="black"/>
<path d="M300.765 205.593C299.129 207.888 296.227 209.538 292.964 208.927C292.502 208.843 292.033 208.709 291.563 208.525C290.917 208.273 290.271 207.938 289.608 207.494L291.37 204.889C291.731 205.14 292.075 205.333 292.41 205.475C295.707 206.966 297.795 204.37 298.206 203.783C300.102 201.119 300.781 195.038 298.861 192.692C298.735 192.516 298.181 192.248 295.95 192.717C295.539 192.81 295.069 192.91 294.541 193.061C293.953 193.228 293.61 193.321 293.274 193.337L293.215 191.771L293.064 190.213C293.207 190.188 293.433 190.121 293.727 190.037C294.566 189.811 295.698 189.501 296.873 189.383C298.517 189.216 300.236 189.409 301.285 190.707C304.414 194.527 303.147 202.25 300.765 205.593Z" fill="#C63031"/>
<path opacity="0.1" d="M291.37 204.889C291.731 205.14 292.074 205.333 292.41 205.475L291.571 208.516C290.925 208.265 290.279 207.93 289.617 207.486L291.37 204.889Z" fill="black"/>
<path opacity="0.1" d="M296.873 189.383L295.942 192.717C295.531 192.81 295.061 192.91 294.532 193.061C293.945 193.228 293.601 193.321 293.266 193.337L293.207 191.771L293.056 190.213C293.199 190.188 293.425 190.121 293.719 190.037C294.566 189.811 295.698 189.501 296.873 189.383Z" fill="black"/>
<path d="M258.983 185.312C258.983 185.312 259.1 186.343 259.344 187.968C259.386 188.219 259.419 188.487 259.461 188.755C259.62 189.869 259.839 191.193 260.09 192.609C260.099 192.684 260.124 192.768 260.132 192.86C260.501 194.895 260.946 197.115 261.466 199.201C261.491 199.302 261.516 199.385 261.541 199.469C261.684 200.03 261.835 200.583 261.986 201.111C262.137 201.639 262.296 202.158 262.464 202.661C262.8 203.658 263.143 204.562 263.513 205.333C266.381 211.264 270.391 211.926 272.874 211.926C275.365 211.926 275.139 211.926 277.403 211.926C279.668 211.926 279.433 211.926 281.933 211.926C284.416 211.926 288.425 211.264 291.286 205.333C291.37 205.149 291.462 204.956 291.546 204.747C291.613 204.604 291.672 204.453 291.73 204.303C291.798 204.152 291.856 204.001 291.915 203.833C291.957 203.725 291.999 203.607 292.041 203.498C292.594 201.982 293.089 200.198 293.526 198.355C293.551 198.28 293.567 198.213 293.576 198.137C293.584 198.104 293.584 198.087 293.601 198.053C293.777 197.316 293.937 196.571 294.088 195.834C294.348 194.619 294.574 193.429 294.767 192.299C294.851 191.779 294.943 191.268 295.027 190.782C295.052 190.64 295.069 190.514 295.094 190.38C295.144 190.054 295.203 189.727 295.245 189.425C295.287 189.124 295.329 188.831 295.379 188.546C295.421 188.261 295.455 187.993 295.497 187.742C295.715 186.234 295.824 185.296 295.824 185.296H258.983V185.312Z" fill="#C63031"/>
<path opacity="0.1" d="M260.132 192.851C260.501 194.887 260.946 197.107 261.466 199.193C261.693 199.226 261.919 199.268 262.146 199.327C263.236 199.586 264.31 200.03 265.258 200.667C266.214 201.287 267.053 202.066 267.858 202.828C268.672 203.599 269.477 204.378 270.383 204.973C271.297 205.567 272.337 205.928 273.419 205.961C274.468 206.011 275.424 205.4 276.179 204.654C276.959 203.884 277.613 202.987 278.251 202.083C278.888 201.17 279.526 200.24 280.289 199.377C280.667 198.958 281.094 198.548 281.564 198.204C281.816 198.045 282.093 197.911 282.369 197.794C282.671 197.744 282.965 197.601 283.267 197.643C283.888 197.593 284.466 197.827 285.003 198.079C285.515 198.372 285.976 198.707 286.387 199.109C287.235 199.88 287.948 200.751 288.694 201.58C289.441 202.368 290.229 203.239 291.261 203.482C291.521 203.549 291.781 203.557 292.041 203.515C292.595 201.999 293.09 200.215 293.526 198.372C293.232 198.296 292.93 198.221 292.637 198.12C291.563 197.76 290.548 197.207 289.667 196.487C288.778 195.775 288.023 194.929 287.285 194.083C286.547 193.237 285.834 192.382 284.987 191.704C284.139 191.025 283.133 190.565 282.059 190.431C281.019 190.28 280.012 190.799 279.174 191.469C278.326 192.148 277.605 192.985 276.875 193.832C276.137 194.678 275.416 195.54 274.577 196.328C274.166 196.722 273.696 197.073 273.193 197.367C272.933 197.509 272.639 197.601 272.362 197.702C272.06 197.727 271.742 197.827 271.44 197.769C270.819 197.76 270.265 197.459 269.77 197.166C269.292 196.83 268.848 196.437 268.479 196.01C267.707 195.163 267.095 194.225 266.423 193.337C265.761 192.475 265.056 191.545 264.058 191.184C263.043 190.824 261.953 191.394 261.114 192.064C260.787 192.299 260.459 192.575 260.132 192.851Z" fill="black"/>
<path d="M260.09 192.609C260.099 192.684 260.124 192.768 260.132 192.86C260.459 192.575 260.787 192.307 261.122 192.047C261.969 191.377 263.051 190.816 264.066 191.168C265.065 191.528 265.769 192.458 266.432 193.321C267.103 194.209 267.724 195.147 268.487 195.993C268.856 196.428 269.301 196.814 269.779 197.149C270.274 197.442 270.827 197.744 271.448 197.752C271.75 197.819 272.069 197.71 272.371 197.685C272.656 197.584 272.941 197.492 273.201 197.35C273.713 197.057 274.174 196.696 274.585 196.311C275.416 195.524 276.145 194.652 276.883 193.815C277.613 192.969 278.335 192.139 279.182 191.453C280.012 190.782 281.027 190.263 282.067 190.414C283.141 190.556 284.148 191.009 284.995 191.687C285.842 192.366 286.555 193.22 287.293 194.066C288.031 194.912 288.786 195.758 289.675 196.47C290.556 197.199 291.571 197.744 292.645 198.104C292.938 198.204 293.24 198.28 293.534 198.355C293.559 198.28 293.576 198.213 293.584 198.137C293.299 198.053 293.014 197.961 292.729 197.852C290.607 197.14 288.988 195.524 287.612 193.798C286.899 192.944 286.178 192.056 285.28 191.319C284.391 190.59 283.284 190.087 282.135 189.92C280.901 189.735 279.735 190.338 278.863 191.042C277.949 191.754 277.202 192.609 276.464 193.455C275.726 194.301 275.021 195.163 274.233 195.926C273.444 196.655 272.513 197.367 271.481 197.249C270.441 197.199 269.544 196.479 268.822 195.666C268.084 194.854 267.447 193.932 266.751 193.044C266.046 192.19 265.308 191.218 264.15 190.824C263.58 190.615 262.951 190.715 262.405 190.925C261.86 191.134 261.39 191.469 260.946 191.821C260.652 192.089 260.376 192.332 260.09 192.609Z" fill="white"/>
<path d="M261.466 199.193C261.491 199.293 261.516 199.377 261.541 199.461C261.726 199.494 261.91 199.536 262.087 199.578C264.267 200.089 266.029 201.53 267.581 203.113C268.369 203.901 269.166 204.713 270.131 205.35C271.095 205.986 272.236 206.388 273.402 206.43C274.635 206.506 275.743 205.794 276.548 204.998C277.378 204.194 278.041 203.281 278.704 202.368C279.341 201.446 279.962 200.516 280.683 199.695C281.388 198.891 282.252 198.095 283.283 198.104C284.324 198.062 285.288 198.69 286.077 199.427C286.89 200.164 287.612 201.019 288.392 201.831C289.172 202.61 289.994 203.507 291.185 203.792C291.42 203.842 291.672 203.859 291.915 203.825C291.957 203.716 291.999 203.599 292.041 203.49C291.781 203.532 291.521 203.524 291.261 203.457C290.229 203.205 289.44 202.342 288.694 201.555C287.947 200.734 287.234 199.854 286.387 199.084C285.976 198.682 285.506 198.347 285.003 198.053C284.475 197.802 283.887 197.568 283.267 197.618C282.965 197.576 282.671 197.718 282.369 197.769C282.101 197.886 281.816 198.02 281.564 198.179C281.086 198.514 280.666 198.925 280.289 199.352C279.534 200.215 278.888 201.145 278.251 202.058C277.613 202.971 276.959 203.867 276.179 204.629C275.424 205.375 274.468 205.995 273.419 205.936C272.337 205.903 271.297 205.542 270.382 204.948C269.468 204.353 268.671 203.574 267.858 202.803C267.052 202.032 266.214 201.253 265.257 200.642C264.318 200.005 263.244 199.561 262.145 199.302C261.919 199.268 261.692 199.226 261.466 199.193Z" fill="white"/>
<path d="M114.899 285.013L50.8467 336.59H54.4536L128.429 285.013H114.899Z" fill="#C7C7C7"/>
<path d="M120.913 285.013L89.2646 336.59H92.8716L131.667 285.013H120.913Z" fill="#C7C7C7"/>
<path d="M136.431 285.013L168.08 336.59H164.473L125.678 285.013H136.431Z" fill="#C7C7C7"/>
<path d="M141.959 285.013L206.003 336.59H202.396L128.429 285.013H141.959Z" fill="#C7C7C7"/>
<path d="M248.859 266.09V251.003L160.9 247.401L114.446 123.533H8L45.663 266.09L135.643 291.321H141.28L248.859 266.09Z" fill="#455A64"/>
<path d="M8 123.533H20.1797L59.4196 253.483L139.024 276L248.859 251.003V266.09L141.28 291.321H135.643L45.663 266.09L8 123.533Z" fill="#37474F"/>
<path d="M313.54 336.07C310.705 336.137 237.098 313.411 234.842 310.781C234.598 310.487 235.748 299.606 237.652 290.961C237.736 290.55 211.514 256.231 211.514 256.231L258.933 237.81L281.614 284.745L287.52 296.95C287.52 296.95 312.072 321.603 314.244 324.761C316.392 327.928 316.375 336.003 313.54 336.07Z" fill="#EBEBEB"/>
<path d="M315.612 336.481C312.651 336.556 235.815 313.134 233.449 310.395C232.543 309.356 233.919 304.615 237.652 290.961L288.031 297.017C288.031 297.017 314.035 321.402 316.3 324.686C318.548 327.97 318.564 336.405 315.612 336.481Z" fill="#C63031"/>
<path d="M315.444 333.08C302.66 328.841 250.695 312.933 237.736 309.708C237.627 309.683 237.61 309.75 237.71 309.792C250.293 314.274 302.383 329.754 315.377 333.297C315.653 333.364 315.712 333.163 315.444 333.08Z" fill="#263238"/>
<path d="M312.198 320.422C309.178 319.367 305.756 319.903 303.533 321.218C301.402 322.475 299.28 324.51 298.559 327.207C298.542 327.283 298.676 327.333 298.718 327.258C300.991 322.449 306.93 319.425 312.156 320.59C312.248 320.607 312.298 320.456 312.198 320.422Z" fill="#263238"/>
<path d="M293.224 302.094C288.09 300.452 281.556 300.443 277.068 303.677C276.892 303.803 277.076 304.046 277.252 304.012C282.646 303.032 287.62 302.596 293.123 302.747C293.509 302.764 293.593 302.211 293.224 302.094Z" fill="#263238"/>
<path d="M296.73 304.858C291.596 303.216 285.062 303.208 280.574 306.441C280.398 306.567 280.583 306.81 280.759 306.776C286.152 305.796 291.127 305.361 296.629 305.511C297.015 305.528 297.099 304.975 296.73 304.858Z" fill="#263238"/>
<path d="M300.236 307.622C295.103 305.981 288.568 305.972 284.081 309.206C283.904 309.331 284.089 309.574 284.265 309.541C289.659 308.561 294.633 308.125 300.136 308.276C300.521 308.293 300.605 307.74 300.236 307.622Z" fill="#263238"/>
<path d="M303.742 310.387C298.608 308.745 292.074 308.737 287.586 311.97C287.41 312.096 287.595 312.339 287.771 312.305C293.165 311.325 298.139 310.889 303.641 311.04C304.027 311.057 304.111 310.504 303.742 310.387Z" fill="#263238"/>
<path d="M302.996 290.056C301.049 287.099 297.115 288.213 294.817 289.964C291.101 292.804 287.754 297.352 286.11 301.7C286.068 301.809 286.144 301.876 286.228 301.893C286.228 302.295 286.563 302.739 287.024 302.588C291.47 301.172 296.402 300.209 300.278 297.47C302.543 295.878 304.841 292.854 302.996 290.056ZM293.324 299.07C291.151 299.815 288.962 300.46 286.823 301.29C288.526 299.003 290.128 296.657 292.057 294.546C292.98 293.541 293.945 292.519 295.002 291.648C296.646 290.291 303.021 287.526 301.821 293.29C301.159 296.456 295.908 298.173 293.324 299.07Z" fill="#263238"/>
<path d="M272.714 299.706C276.992 301.767 282.017 301.901 286.63 302.563C287.109 302.63 287.369 302.136 287.301 301.742C287.385 301.708 287.444 301.625 287.385 301.532C285.045 297.512 280.985 293.583 276.85 291.397C274.291 290.048 270.231 289.604 268.797 292.846C267.455 295.895 270.223 298.5 272.714 299.706ZM270.5 295.828C268.361 290.349 275.105 292.016 276.95 293.08C278.133 293.767 279.257 294.613 280.339 295.451C282.596 297.21 284.559 299.262 286.622 301.231C284.374 300.77 282.101 300.502 279.836 300.117C277.143 299.673 271.683 298.844 270.5 295.828Z" fill="#263238"/>
<path d="M284.014 286.94L231.738 294.655C231.738 294.655 203.21 242.928 191.693 230.061L191.668 230.036C190.913 229.19 190.208 228.503 189.562 227.984L189.537 227.976C188.808 227.557 187.533 227.247 185.763 227.037L185.737 227.029C170.278 225.153 118.263 230.204 82.311 227.883L99.0958 205.475L106.536 195.532C147.034 190.916 196.726 174.381 219.156 185.622C243.524 197.819 284.014 286.94 284.014 286.94Z" fill="#263238"/>
<path d="M277.462 278.077C268.579 279.217 271.112 278.773 262.238 280.012C257.892 280.616 236.066 283.606 232.107 284.846C232.023 284.871 232.04 285.013 232.132 285.013C236.276 285.047 258.035 281.587 262.372 280.9C271.221 279.501 268.663 279.811 277.496 278.32C277.663 278.295 277.63 278.052 277.462 278.077Z" fill="#37474F"/>
<path d="M232.007 284.109C226.093 274.232 199.158 225.479 193.798 223.561C188.916 221.81 91.2863 223.837 89.8435 223.854C89.7428 223.854 89.7344 224.013 89.8351 224.013C101.394 223.863 190.628 223.553 193.178 224.558C198.471 226.644 230.681 283.204 231.47 284.385C231.679 284.695 232.208 284.452 232.007 284.109Z" fill="#37474F"/>
<path d="M55.0159 207.494C55.0159 207.494 51.929 236.897 66.8684 251.514C84.7436 269.014 202.715 264.591 221.001 258.693C239.288 252.796 239.858 223.326 219.869 216.499C200.861 210.007 116.56 206.271 114.564 205.475C112.567 204.68 106.721 195.365 106.721 195.365L55.0159 207.494Z" fill="#263238"/>
<path d="M79.979 206.665C79.9538 206.522 79.7357 206.573 79.7357 206.707C79.7525 210.418 78.3768 214.33 75.9358 217.144C73.1342 220.369 69.0072 222.179 65.2661 224.072C64.9054 224.256 65.1822 224.817 65.5513 224.7C67.8329 224.013 70.0809 223.025 72.1612 221.86C74.0569 220.797 75.8016 219.465 77.127 217.739C79.5679 214.531 80.6416 210.644 79.979 206.665Z" fill="#37474F"/>
<path d="M113.758 203.649C112.928 202.585 112.013 201.572 111.141 200.533C109.078 198.087 107.014 195.624 104.85 193.262C104.649 193.036 104.246 193.354 104.431 193.597C105.882 195.499 107.425 197.333 108.935 199.184C109.707 200.131 110.487 201.078 111.275 202.024C112.005 202.904 112.911 203.775 113.456 204.788C114.018 205.844 113.28 206.74 112.19 206.858C111.208 206.958 110.311 206.464 109.556 205.894C107.853 204.587 106.511 202.728 105.093 201.128C104.229 200.156 103.357 199.176 102.476 198.221C101.537 197.199 100.538 196.227 99.6073 195.205C99.5486 195.138 99.4311 195.23 99.4815 195.306C100.295 196.42 101.05 197.593 101.872 198.715C102.686 199.838 103.516 200.943 104.363 202.041C105.16 203.08 105.991 204.102 106.838 205.098C107.559 205.944 108.381 206.774 109.346 207.343C110.906 208.265 113.624 208.457 114.454 206.439C114.882 205.442 114.371 204.428 113.758 203.649Z" fill="#37474F"/>
<path d="M218.493 258.802C212.202 258.92 205.911 259.288 199.611 259.422C193.371 259.556 187.121 259.59 180.872 259.531C168.332 259.414 155.792 258.936 143.276 258.073C130.627 257.202 116.988 255.946 104.431 254.203C98.4163 253.374 92.3265 252.679 86.3876 251.406C81.0276 250.258 76.1708 248.03 72.1529 244.143C64.0163 236.26 60.854 224.675 59.5538 213.609C59.3777 212.127 59.2351 210.635 59.1176 209.144C59.1092 209.044 58.9583 209.044 58.9666 209.144C59.7048 220.495 61.4663 232.331 68.6131 241.454C71.7083 245.399 75.6424 248.633 80.2559 250.484C85.8844 252.737 92.1252 253.265 98.064 254.069C110.68 255.778 124.369 257.093 137.052 258.082C149.819 259.07 162.611 259.69 175.412 259.875C188.212 260.067 201.021 259.883 213.813 259.255C215.373 259.179 216.933 259.087 218.493 258.953C218.586 258.936 218.586 258.802 218.493 258.802Z" fill="#37474F"/>
<path d="M235.303 231.326C234.104 226.342 231.101 222.162 226.873 219.28C222.343 216.189 216.925 214.782 211.556 214.003C205.483 213.123 199.343 212.671 193.236 212.076C180.713 210.862 168.181 209.739 155.64 208.709C143.108 207.678 116.115 205.584 114.597 205.526C114.463 205.517 114.438 205.743 114.572 205.76C126.668 207.1 137.673 208.256 149.802 209.354C161.982 210.46 174.162 211.616 186.333 212.822C192.398 213.417 198.462 214.028 204.527 214.648C210.147 215.226 215.926 215.796 221.194 217.965C225.715 219.825 229.775 222.815 232.082 227.205C234.313 231.452 234.775 236.52 233.886 241.186C233.055 245.517 231.017 249.739 228.039 253.005C225.103 256.222 221.379 258.685 217.084 259.615C215.977 259.849 214.635 260.025 213.62 260.226C213.544 260.243 213.46 260.402 213.544 260.411C222.603 260.637 230.983 254.027 234.263 245.768C236.05 241.219 236.452 236.093 235.303 231.326Z" fill="#37474F"/>
<path d="M90.2377 135.143C96.2353 158.615 108.147 186.636 113.054 191.117C119.261 196.78 157.209 204.21 159.214 204.403C162.502 204.721 169.288 170.938 166.218 171.005C158.098 171.189 133.085 168.642 131.29 166.892C129.427 165.057 116.719 149.82 103.617 132.58C94.5828 120.668 86.5218 120.576 90.2377 135.143Z" fill="#EB9481"/>
<path d="M156.144 202.996C156.697 203.255 164.498 206.95 169.305 208.215C172.886 209.161 183.279 211.607 184.714 207.762C185.695 205.149 179.756 202.987 175.587 201.371C173.39 200.516 170.664 198.313 171.268 196.897C172.333 194.435 177.987 196.747 181.711 198.791C188.925 202.744 198.58 209.949 202.841 206.246C204.451 204.847 202.48 202.409 199.636 200.039C204.233 202.77 209.115 204.973 210.969 203.49C212.034 202.644 212.051 201.513 211.422 200.24C212.831 200.659 214.064 200.541 214.903 199.612C216.337 198.037 215.566 195.783 213.896 193.496C214.408 193.429 214.869 193.153 215.213 192.583C218.216 187.767 202.287 174.515 196.86 173.367C180.897 169.983 164.188 171.08 164.188 171.08C158.065 176.223 156.127 202.987 156.144 202.996Z" fill="#EB9481"/>
<path d="M179.127 187.842C182.877 188.336 186.593 189.643 189.814 191.662C193.899 194.217 196.642 197.258 200.098 200.307C200.19 200.391 200.064 200.533 199.972 200.449C198.328 199 191.525 193.572 189.772 192.349C186.559 190.095 182.994 188.546 179.111 187.918C179.077 187.901 179.085 187.842 179.127 187.842Z" fill="#263238"/>
<path d="M181.929 181.049C186.131 182.087 190.426 183.134 194.352 185.011C198.638 187.063 202.044 190.506 205.382 193.806C207.387 195.792 209.358 197.819 211.271 199.896C211.355 199.98 211.237 200.123 211.145 200.039C207.756 196.621 204.258 193.304 200.66 190.104C197.279 187.088 193.53 184.81 189.252 183.302C186.844 182.447 184.37 181.786 181.904 181.124C181.862 181.107 181.878 181.04 181.929 181.049Z" fill="#263238"/>
<path d="M186.241 175.059C190.317 175.796 193.866 176.416 197.506 178.502C202.329 181.258 207.027 185.991 208.679 187.666C210.499 189.517 212.261 191.427 213.989 193.371C214.056 193.446 213.922 193.572 213.855 193.496C209.904 189.266 205.659 185.254 201.197 181.568C199.066 179.809 196.751 178.284 194.176 177.245C191.626 176.223 188.908 175.671 186.232 175.101C186.216 175.084 186.224 175.059 186.241 175.059Z" fill="#263238"/>
<path d="M163.559 168.743L152.151 208.089C152.151 208.089 118.506 199.36 112.24 192.935C105.974 186.502 93.8869 152.81 90.1793 136.433C86.4718 120.048 94.8096 120.258 102.72 130.452C110.63 140.647 130.308 165.342 131.382 165.861C132.464 166.381 163.559 168.743 163.559 168.743Z" fill="#C63031"/>
<path d="M148.536 190.816C149.92 186.175 151.346 181.543 152.554 176.852C153.242 174.188 153.946 171.524 154.609 168.852C154.634 168.751 154.466 168.693 154.433 168.793C152.856 173.392 151.287 178.016 149.928 182.69C148.57 187.339 147.177 191.98 145.885 196.646C145.147 199.302 144.493 201.965 143.922 204.663C143.914 204.713 143.998 204.747 144.015 204.696C145.734 200.139 147.144 195.49 148.536 190.816Z" fill="#263238"/>
<path opacity="0.1" d="M147.303 206.774C137.749 204.085 117.021 197.836 112.24 192.935C105.974 186.502 93.8868 152.81 90.1792 136.433C88.4009 128.568 89.3907 124.513 91.7897 123.575C92.0414 123.684 92.3014 123.835 92.5615 123.986C104.909 140.94 130.543 181.417 147.303 206.774Z" fill="black"/>
<path d="M51.6189 212.579C51.8118 212.772 122.935 197.207 123.59 196.386C124.512 195.222 111.796 141.811 98.3914 125.87C95.0362 121.883 84.358 122.159 79.5851 126.18C55.8969 146.125 50.9394 211.892 51.6189 212.579Z" fill="#C63031"/>
<path d="M74.049 130.008C59.8646 140.907 22.4868 184.952 30.2962 195.406C38.1643 205.936 91.6642 202.376 107.291 197.878C111.938 196.537 100.01 167.009 95.0531 165.543C90.9261 164.328 67.7327 170.611 67.3217 169.271C66.852 167.754 71.9855 157.987 80.2731 140.144C89.8188 119.571 80.315 125.192 74.049 130.008Z" fill="#EB9481"/>
<path d="M116.854 162.1C127.188 162.368 129.805 164.018 138.638 159.612C144.443 156.722 148.779 159.185 144.837 164.647C138.386 173.585 124.982 176.039 120.092 175.553L116.854 162.1Z" fill="#EB9481"/>
<path d="M88.4097 167.378C88.4097 167.378 100.799 162.955 111.846 162.15C119.48 161.589 136.231 162.226 149.241 180.981C152.328 185.43 153.569 193.957 145.886 188.521C140.425 184.659 138.135 180.563 134.553 178.896C134.553 178.896 134.838 189.928 130.258 192.843C128.212 194.15 122.533 197.568 117.735 199.612C117.735 199.612 117.013 198.69 116.258 197.383C116.258 197.383 111.72 199.704 104.23 197.718L88.4097 167.378Z" fill="#EB9481"/>
<path d="M119.22 162.787C122.424 165.191 129.143 170.41 133.144 176.584C137.59 183.444 144.309 197.852 139.2 201.078C135.459 203.44 132.406 198.171 132.406 198.171C132.406 198.171 133.924 204.713 130.074 206.112C126.568 207.385 124.454 203.163 124.454 203.163C124.454 203.163 124.689 207.293 121.073 207.863C116.728 208.558 116.938 199.796 111.922 196.705C110.815 196.01 119.22 162.787 119.22 162.787Z" fill="#EB9481"/>
<path d="M125.1 180.068C127.742 182.824 132.137 190.632 132.49 198.02C132.498 198.187 132.372 198.28 132.339 198.129C130.225 190.079 126.71 183.017 125.041 180.11C125.016 180.077 125.074 180.043 125.1 180.068Z" fill="#263238"/>
<path d="M118.297 184.751C120.335 187.365 124.504 195.607 124.605 203.113C124.605 203.281 124.479 203.364 124.445 203.214C122.583 194.711 119.731 187.792 118.23 184.793C118.213 184.751 118.271 184.718 118.297 184.751Z" fill="#263238"/>
<path d="M134.561 178.837C137.69 180.345 139.569 182.313 142.027 184.701C143.243 185.882 144.485 187.046 145.827 188.085C147.051 189.032 148.847 190.456 150.457 189.551C151.355 189.048 151.539 187.901 151.506 186.963C151.472 185.915 150.784 183.863 150.314 182.925C150.289 182.875 150.373 182.833 150.398 182.883C150.835 183.729 151.648 185.605 151.824 186.544C151.984 187.39 152.059 188.353 151.699 189.157C150.91 190.891 148.738 190.774 147.303 190.028C146.448 189.576 145.667 188.956 144.921 188.345C144.2 187.758 143.503 187.13 142.824 186.493C141.431 185.178 140.123 183.788 138.747 182.456C137.237 180.998 136.155 180.219 134.494 178.938C134.436 178.896 134.503 178.804 134.561 178.837Z" fill="#263238"/>
<path d="M139.544 191.536C139.007 189.517 135.686 180.948 134.486 178.896C134.452 178.845 134.528 178.795 134.562 178.845C136.726 181.702 139.779 188.831 140.4 191.059C141.012 193.262 141.675 196.051 141.297 198.33C140.727 201.764 138.336 202.041 137.464 202.066C136.424 202.099 135.442 201.723 134.612 201.103C133.689 200.416 132.901 199.176 132.372 198.171C132.347 198.12 132.414 198.062 132.448 198.12C133.412 199.67 135.174 201.337 137.086 201.396C137.917 201.421 138.798 201.186 139.402 200.6C140.115 199.905 140.333 198.874 140.408 197.928C140.593 195.767 140.098 193.614 139.544 191.536Z" fill="#263238"/>
<path d="M88.4094 165.895L99.1715 203.297C99.1715 203.297 32.2085 207.109 28.5009 194.962C24.7934 182.816 57.1382 143.034 70.5593 132.111C86.111 119.454 86.9499 124.765 81.8834 137.43C76.5821 150.691 67.4557 169.623 67.4557 169.623L88.4094 165.895Z" fill="#C63031"/>
<path d="M46.3006 175.612C49.6308 174.02 53.1119 172.739 56.6265 171.641C60.116 170.552 63.6977 169.849 67.3047 169.287C69.3598 168.969 71.4317 168.743 73.5035 168.508C73.5706 168.5 73.579 168.601 73.5119 168.609C69.8882 169.12 66.2897 169.949 62.7415 170.871C59.2101 171.792 55.7122 172.772 52.2227 173.819C50.2515 174.414 48.3054 175.101 46.351 175.754C46.2587 175.788 46.2168 175.654 46.3006 175.612Z" fill="#263238"/>
<path d="M88.2498 165.769C87.9143 165.803 69.2925 168.701 68.6633 168.877C68.7808 168.626 73.5033 159.771 74.1996 158.473C74.2667 158.347 74.3338 158.213 74.4009 158.088C74.8203 157.526 75.2481 156.973 75.6507 156.395C76.1624 155.658 76.6741 154.913 77.1858 154.176C77.2025 154.15 77.169 154.125 77.1522 154.15C76.607 154.863 76.0701 155.583 75.5249 156.303C75.2732 156.638 75.0384 156.973 74.8035 157.317C75.2732 156.395 75.7346 155.474 76.196 154.544C76.9257 153.061 77.6136 151.57 78.293 150.063C78.3182 150.012 78.2427 149.987 78.2175 150.029C76.8251 152.609 75.3571 155.147 73.9563 157.719C72.5639 160.291 67.2625 169.757 67.2877 169.757C67.3129 169.79 87.8723 166.121 88.2666 166.02C88.4427 165.979 88.4175 165.752 88.2498 165.769Z" fill="#263238"/>
<path d="M85.6999 188.579C84.5256 184.408 83.3848 180.228 82.0511 176.098C81.2961 173.752 80.5496 171.407 79.7695 169.061C79.7443 168.969 79.5849 169.011 79.6101 169.103C80.6251 173.333 81.6484 177.58 82.8563 181.761C84.0558 185.924 85.2218 190.104 86.48 194.25C87.193 196.613 87.9731 198.941 88.8371 201.253C88.8539 201.295 88.9294 201.279 88.921 201.228C88.0486 196.973 86.8827 192.784 85.6999 188.579Z" fill="#263238"/>
<path d="M99.9095 203.976C99.4398 202.803 98.8777 201.128 98.3577 199.972C98.2235 199.67 97.997 199.687 98.0976 200.005C98.4248 201.052 98.6597 202.217 98.9784 203.289C98.0389 203.323 97.1078 203.331 96.1684 203.373C95.0863 203.423 94.0042 203.473 92.9221 203.515C90.7999 203.599 88.6777 203.658 86.5555 203.699C82.2607 203.783 77.9576 203.766 73.6628 203.666C65.0482 203.465 56.4167 202.946 47.8691 201.848C45.4785 201.538 43.0879 201.186 40.714 200.768C38.3066 200.332 35.7063 199.855 33.7434 199.268C33.6847 199.251 33.6512 199.352 33.7099 199.377C35.7147 200.148 37.5936 200.726 39.6907 201.178C41.8296 201.639 43.977 202.041 46.1328 202.376C50.4359 203.038 54.7642 203.465 59.1009 203.783C67.6988 204.403 76.3387 204.654 84.9617 204.562C87.3775 204.537 89.7933 204.479 92.2091 204.403C93.4254 204.361 94.6501 204.319 95.8664 204.252C97.0994 204.185 99.9934 204.177 99.9095 203.976Z" fill="#263238"/>
<path d="M190.234 208.901H104.557V212.353H190.234V208.901Z" fill="#455A64"/>
<path d="M151.967 208.901H104.557V212.353H151.967V208.901Z" fill="#A6A6A6"/>
<path d="M150.524 212.353H225.615L236.226 161.422H161.135L150.524 212.353Z" fill="#A6A6A6"/>
<path d="M153.93 212.353H229.021L239.632 161.422H164.541L153.93 212.353Z" fill="#C7C7C7"/>
<path d="M191.777 188.018C191.483 190.782 193.488 193.019 196.256 193.019C199.024 193.019 201.499 190.782 201.784 188.018C202.078 185.254 200.073 183.017 197.305 183.017C194.545 183.025 192.071 185.262 191.777 188.018Z" fill="#EBEBEB"/>
<path d="M93.0059 142.959C93.0059 142.959 80.4823 130.519 72.3039 130.737L65.3081 136.836C65.3081 136.836 63.0181 137.564 62.3303 136.115C60.6191 132.53 60.3423 123.902 67.8162 118.365C74.6609 113.297 85.8005 113.766 95.0778 116.287C103.986 118.708 111.678 124.689 108.893 130.486C106.1 136.274 93.0059 142.959 93.0059 142.959Z" fill="#C63031"/>
<path opacity="0.1" d="M93.92 140.228C93.92 140.228 104.221 133.016 105.311 128.685C106.402 124.354 97.7618 120.157 92.1669 118.49C83.5103 115.91 77.5966 116.421 72.6979 121.003C67.7992 125.585 93.92 140.228 93.92 140.228Z" fill="black"/>
<path d="M93.9201 140.228C93.9201 140.228 83.9382 123.031 71.314 121.238L72.2954 130.729C72.2954 130.729 79.8364 130.813 92.9974 142.951L93.9201 140.228Z" fill="#C63031"/>
<path d="M68.8896 130.88C71.2048 130.612 73.5032 131.139 75.6673 131.843C77.8482 132.555 79.9034 133.602 81.8578 134.792C83.829 135.956 85.6744 137.33 87.4863 138.737L90.1118 140.974L92.6366 143.328L92.9218 143.596L93.2406 143.437C95.6228 142.239 97.896 140.89 100.085 139.39C101.176 138.637 102.258 137.866 103.248 136.986C104.246 136.115 105.211 135.202 106.024 134.155C104.137 136.006 101.931 137.43 99.7079 138.804C98.5922 139.483 97.4431 140.111 96.2855 140.722C95.1279 141.326 93.962 141.937 92.7876 142.482L93.3916 142.582L90.8667 140.153C89.9943 139.374 89.0968 138.62 88.1993 137.866C87.2598 137.162 86.3371 136.442 85.3724 135.772C84.3826 135.135 83.418 134.465 82.3695 133.929C80.3311 132.756 78.1334 131.851 75.8602 131.231C75.2982 131.064 74.7111 130.963 74.1407 130.846C73.5535 130.771 72.9747 130.679 72.3875 130.645C71.2048 130.545 70.0137 130.57 68.8896 130.88Z" fill="#263238"/>
<path d="M65.3081 136.836C66.6167 135.99 67.8162 135.009 68.9905 134.004C70.1481 132.982 71.2805 131.927 72.3039 130.746C70.9953 131.592 69.7958 132.572 68.6214 133.577C67.4555 134.591 66.3231 135.646 65.3081 136.836Z" fill="#263238"/>
<path d="M88.8034 137.137C88.8034 137.137 87.7465 142.021 87.5955 149.083C87.5368 151.88 88.6105 161.907 91.7225 161.547C94.8345 161.187 89.7681 154.712 88.8789 149.418C87.973 144.048 89.4074 140.253 89.6003 137.087L88.8034 137.137Z" fill="#C63031"/>
<g opacity="0.1">
<path d="M88.8034 137.137C88.8034 137.137 87.7465 142.021 87.5955 149.083C87.5368 151.88 88.6105 161.907 91.7225 161.547C94.8345 161.187 89.7681 154.712 88.8789 149.418C87.973 144.048 89.4074 140.253 89.6003 137.087L88.8034 137.137Z" fill="black"/>
</g>
<path d="M99.8508 137.69C99.8508 137.69 101.302 142.976 102.166 149.325C102.51 151.838 102.569 160.986 99.725 160.986C96.8814 160.978 100.782 154.628 101.042 149.769C101.302 144.835 99.6243 140.572 99.1294 137.74L99.8508 137.69Z" fill="#C63031"/>
<g opacity="0.1">
<path d="M99.8508 137.69C99.8508 137.69 101.302 142.976 102.166 149.325C102.51 151.838 102.569 160.986 99.725 160.986C96.8814 160.978 100.782 154.628 101.042 149.769C101.302 144.835 99.6243 140.572 99.1294 137.74L99.8508 137.69Z" fill="black"/>
</g>
<path d="M94.9687 138.302C91.7225 138.092 85.6662 131.315 83.6027 125.937C83.4601 125.569 84.4835 122.025 85.5152 117.661C86.136 115.014 86.7567 112.04 87.1341 109.293L103.827 115.826C103.827 115.826 101.344 121.355 100.723 126.155C100.673 126.557 100.664 126.934 100.689 127.303C100.689 127.353 100.698 127.42 100.689 127.495C100.74 129.682 100.06 138.637 94.9687 138.302Z" fill="#EB9481"/>
<path d="M100.681 127.303C100.681 127.353 100.689 127.412 100.681 127.495C100.127 127.495 99.5401 127.454 98.8858 127.345C89.1052 125.787 88.3335 113.523 88.3335 109.77L103.818 115.826C103.818 115.826 101.335 121.355 100.698 126.155C100.673 126.557 100.656 126.926 100.681 127.303Z" fill="#263238"/>
<path d="M90.5315 87.7976C87.0336 93.2174 85.3056 111.253 88.4512 116.27C93.006 123.542 102.887 126.909 109.69 120.894C116.283 115.056 118.112 91.5169 114.379 86.7086C108.876 79.6218 95.6986 79.7893 90.5315 87.7976Z" fill="#EB9481"/>
<path d="M101.797 100.949C102.35 100.882 102.845 100.731 103.382 100.606C103.986 100.472 104.481 100.421 104.934 99.9524C105.169 99.7011 105.152 99.1901 104.925 98.9388C104.405 98.344 103.617 98.3273 102.887 98.4613C102.09 98.6121 101.511 98.922 100.983 99.5419C100.471 100.145 101.075 101.033 101.797 100.949Z" fill="#263238"/>
<path d="M114.035 102.616C113.507 102.457 113.037 102.222 112.534 102.013C111.963 101.779 111.477 101.644 111.116 101.108C110.923 100.824 111.032 100.321 111.292 100.103C111.905 99.6089 112.685 99.7178 113.381 99.9775C114.144 100.254 114.664 100.664 115.075 101.36C115.478 102.047 114.731 102.826 114.035 102.616Z" fill="#263238"/>
<path d="M100.866 115.123C101.117 115.441 101.36 115.868 101.797 115.96C102.216 116.053 102.736 115.919 103.139 115.818C103.181 115.81 103.214 115.852 103.181 115.885C102.803 116.312 102.107 116.513 101.562 116.346C101.025 116.178 100.815 115.676 100.748 115.156C100.731 115.089 100.824 115.081 100.866 115.123Z" fill="#263238"/>
<path d="M102.602 111.663C103.147 112.802 104.07 113.498 105.118 113.85C105.588 114.009 106.091 114.084 106.595 114.109C106.695 114.118 106.788 114.118 106.88 114.109C106.972 114.109 107.048 114.109 107.148 114.101C107.291 114.101 107.383 113.992 107.425 113.858V113.85C107.434 113.808 107.434 113.766 107.434 113.724C107.434 113.724 107.434 113.724 107.434 113.716L107.442 113.607C107.585 112.677 107.677 111.253 107.677 111.253C107.996 111.471 109.631 112.467 109.673 111.981C109.95 107.919 110.252 103.404 109.665 99.3074C109.656 99.1733 109.447 99.1733 109.438 99.3074C109.019 103.203 109.296 107.14 108.935 111.052C108.407 110.767 107.551 110.264 107.065 110.214C106.93 110.239 106.939 112.978 106.838 113.389C106.838 113.389 106.838 113.406 106.821 113.431C105.228 113.431 104.103 112.811 102.719 111.563C102.644 111.487 102.535 111.563 102.602 111.663Z" fill="#263238"/>
<path d="M106.108 113.565C106.108 113.565 105.135 114.578 103.952 114.83C103.516 114.93 103.055 114.93 102.602 114.746C101.671 114.369 101.755 113.481 102.031 112.744C102.258 112.141 102.61 111.638 102.61 111.638C102.61 111.638 103.86 113.138 106.108 113.565Z" fill="#263238"/>
<path d="M103.952 114.83C103.516 114.93 103.055 114.93 102.602 114.746C101.671 114.369 101.755 113.481 102.031 112.744C103.055 112.978 103.994 113.816 103.952 114.83Z" fill="#FF9ABB"/>
<path d="M104.179 104.25C104.179 104.199 104.078 104.292 104.07 104.342C103.919 105.548 103.541 106.897 102.392 107.123C102.359 107.131 102.35 107.19 102.392 107.19C103.743 107.215 104.221 105.414 104.179 104.25Z" fill="#263238"/>
<path d="M103.307 102.826C101.402 102.373 100.639 106.21 102.401 106.629C104.137 107.048 104.9 103.211 103.307 102.826Z" fill="#263238"/>
<path d="M111.191 105.171C111.208 105.129 111.275 105.247 111.259 105.297C110.973 106.478 110.848 107.877 111.837 108.488C111.871 108.505 111.854 108.564 111.812 108.555C110.546 108.095 110.738 106.235 111.191 105.171Z" fill="#263238"/>
<path d="M112.508 104.149C114.446 104.4 113.809 108.262 112.005 108.028C110.244 107.793 110.881 103.94 112.508 104.149Z" fill="#263238"/>
<path d="M92.251 99.4079C94.7339 96.3168 94.8514 89.674 97.1917 88.7274C102.258 86.6835 107.685 96.0907 113.045 98.0676C118.238 99.9859 121.19 97.2718 121.786 92.7148C122.381 88.1578 119.823 84.028 114.295 81.0375C108.583 77.9464 102.191 78.382 98.5002 79.2197C98.5002 79.2197 100.58 77.5862 100.32 76.7569C100.069 75.9276 96.7806 77.025 95.6902 77.603C94.5829 78.1894 93.5092 79.6469 93.5092 79.6469C93.5092 79.6469 92.662 79.0187 91.2193 78.5412C89.8855 78.0972 87.8388 78.5244 87.6375 78.8009C87.4278 79.0773 89.2397 80.0071 90.5398 80.5516C90.5398 80.5516 86.8742 82.939 85.9012 85.7704C84.9365 88.6018 84.4668 103.529 85.465 104.057C86.7568 104.736 91.2444 100.664 92.251 99.4079Z" fill="#455A64"/>
<path d="M91.1859 80.4008C91.2446 80.3925 91.2781 80.4762 91.2194 80.5014C89.5586 81.138 88.0655 82.0343 86.9582 83.4584C85.6664 85.1086 85.0625 87.1777 84.8024 89.23C84.2824 93.2174 84.8779 97.2215 85.2051 101.192C85.2135 101.309 85.0205 101.326 85.0038 101.209C84.383 97.0205 83.8378 92.5221 84.5592 88.317C85.1715 84.7317 87.3525 81.1464 91.1859 80.4008Z" fill="#455A64"/>
<path d="M97.4854 87.2866C99.0876 87.63 100.74 88.384 102.091 89.3054C103.424 90.2101 104.355 91.5755 105.412 92.7734C107.786 95.4456 110.579 97.8665 114.069 98.8969C114.111 98.9136 114.094 98.9723 114.044 98.9639C110.781 98.2267 108.063 96.1912 105.79 93.8038C104.641 92.6059 103.684 91.1316 102.401 90.0677C100.941 88.8698 99.1295 88.2416 97.3932 87.5714C97.217 87.5044 97.2925 87.2531 97.4854 87.2866Z" fill="#455A64"/>
<path d="M102.25 78.9014C104.733 78.5915 107.266 78.7171 109.724 79.1192C112.089 79.5045 114.438 80.1495 116.543 81.3223C120.167 83.3495 122.826 87.0856 122.289 91.3661C122.021 93.5357 121.014 95.6551 119.32 97.0875C119.202 97.1796 119.06 97.0205 119.16 96.92C122.004 94.03 122.91 89.607 120.888 85.9966C118.724 82.1097 114.362 80.292 110.185 79.4962C107.559 78.9935 104.909 78.893 102.241 78.9517C102.233 78.9349 102.233 78.9098 102.25 78.9014Z" fill="#455A64"/>
<path d="M99.8925 110.214C97.4767 109.544 95.7152 107.299 95.7739 104.677C95.841 101.577 98.4246 99.1147 101.52 99.1817C104.623 99.2487 107.09 101.82 107.022 104.92C106.955 108.019 104.372 110.482 101.277 110.415C100.798 110.407 100.329 110.331 99.8925 110.214ZM102.703 100.112C102.317 100.003 101.922 99.944 101.503 99.9356C98.8188 99.877 96.5792 102.013 96.5204 104.694C96.4617 107.374 98.6007 109.611 101.285 109.67C103.969 109.728 106.209 107.592 106.268 104.911C106.318 102.641 104.8 100.69 102.703 100.112Z" fill="#37474F"/>
<path d="M112.659 112.124C110.587 111.546 109.296 108.907 109.749 106.009C109.975 104.551 110.604 103.236 111.527 102.306C112.475 101.351 113.624 100.924 114.748 101.1C115.88 101.276 116.837 102.03 117.449 103.228C118.045 104.384 118.246 105.833 118.019 107.29C117.541 110.348 115.302 112.551 113.02 112.199C112.894 112.183 112.777 112.157 112.659 112.124ZM114.907 101.904C114.815 101.879 114.723 101.862 114.631 101.846C113.75 101.712 112.835 102.063 112.055 102.842C111.25 103.655 110.688 104.819 110.487 106.126C110.076 108.782 111.259 111.169 113.137 111.462C115.008 111.755 116.87 109.829 117.281 107.182C117.483 105.875 117.306 104.593 116.786 103.58C116.333 102.7 115.679 102.122 114.907 101.904Z" fill="#37474F"/>
<path d="M106.737 105.54L106.352 104.895C107.308 104.317 109.405 103.672 110.537 105.33L109.917 105.749C108.893 104.266 106.821 105.481 106.737 105.54Z" fill="#37474F"/>
<path d="M81.749 103.119L81.145 102.675C81.3547 102.39 83.2169 99.9105 84.9197 99.9021C86.5135 99.8937 96.3277 102.373 96.7387 102.482L96.5541 103.211C93.7441 102.499 86.1528 100.648 84.9197 100.656C83.7957 100.656 82.2523 102.432 81.749 103.119Z" fill="#37474F"/>
<path d="M90.2376 102.809C90.2376 102.809 87.7967 96.2163 84.9027 96.9451C82.0088 97.6739 82.8225 106.52 85.5067 108.405C88.1909 110.289 89.986 107.843 89.986 107.843L90.2376 102.809Z" fill="#EB9481"/>
<path d="M85.1963 99.4749C85.146 99.4581 85.1208 99.5252 85.1628 99.5503C87.025 100.941 87.6205 103.152 87.8638 105.355C87.4444 104.426 86.7146 103.781 85.4899 104.25C85.4228 104.275 85.4564 104.375 85.5151 104.375C86.421 104.417 86.9914 104.727 87.394 105.556C87.6792 106.143 87.7967 106.83 87.9393 107.466C87.9896 107.676 88.3503 107.667 88.3335 107.433C88.3335 107.416 88.3335 107.399 88.3251 107.383C89.0717 104.736 87.9812 100.48 85.1963 99.4749Z" fill="#263238"/>
</g>
<defs>
<clipPath id="clip0_43_2765">
<rect width="349.872" height="337" fill="white" transform="translate(8)"/>
</clipPath>
</defs>
</svg>
