<svg width="588" height="362" viewBox="0 0 588 362" fill="none" xmlns="http://www.w3.org/2000/svg">
<path d="M293.996 362C456.365 362 587.991 346.554 587.991 327.5C587.991 308.446 456.365 293 293.996 293C131.626 293 0 308.446 0 327.5C0 346.554 131.626 362 293.996 362Z" fill="#EBEBEB"/>
<g clip-path="url(#clip0_43_3858)">
<path d="M544.734 203.248L549.372 195.787L547.078 194.374C546.404 193.954 546.041 193.197 546.109 192.406C546.142 191.969 546.159 191.531 546.151 191.094C546.134 190.303 546.547 189.572 547.247 189.202L549.625 187.932L545.459 180.185L543.082 181.455C542.382 181.825 541.547 181.766 540.898 181.312C540.535 181.06 540.164 180.833 539.776 180.623C539.085 180.244 538.646 179.521 538.672 178.73L538.756 176.039L529.953 175.77L529.868 178.469C529.843 179.26 529.362 179.95 528.637 180.286C528.443 180.379 528.249 180.471 528.055 180.581C527.861 180.681 527.676 180.791 527.49 180.9C526.816 181.304 525.973 181.329 525.307 180.917L522.996 179.487L518.358 186.948L520.652 188.369C521.327 188.79 521.689 189.547 521.622 190.337C521.588 190.774 521.571 191.203 521.58 191.641C521.596 192.431 521.183 193.163 520.483 193.533L518.105 194.803L522.271 202.55L524.649 201.28C525.349 200.91 526.184 200.968 526.833 201.423C527.195 201.675 527.566 201.902 527.946 202.112C528.646 202.491 529.076 203.214 529.05 204.005L528.966 206.696L537.769 206.965L537.854 204.274C537.879 203.483 538.36 202.802 539.076 202.466C539.27 202.373 539.464 202.272 539.658 202.171C539.852 202.07 540.037 201.961 540.223 201.852C540.906 201.439 541.749 201.423 542.424 201.835L544.734 203.248ZM537.28 197.705C533.772 199.581 529.405 198.269 527.516 194.77C525.635 191.271 526.951 186.906 530.459 185.03C533.966 183.154 538.343 184.466 540.231 187.974C542.12 191.464 540.796 195.829 537.28 197.705Z" fill="#EBEBEB"/>
<path d="M234.026 144.658L230.94 139.325L229.304 140.267C228.823 140.545 228.233 140.52 227.769 140.217C227.508 140.049 227.246 139.897 226.968 139.754C226.471 139.502 226.159 139.006 226.159 138.451V136.567H219.986V138.451C219.986 139.006 219.666 139.502 219.177 139.754C218.899 139.897 218.637 140.049 218.376 140.217C217.912 140.52 217.322 140.545 216.841 140.267L215.205 139.325L212.119 144.658L213.763 145.6C214.244 145.877 214.514 146.407 214.48 146.954C214.472 147.105 214.472 147.257 214.472 147.408C214.472 147.56 214.472 147.711 214.48 147.862C214.505 148.418 214.244 148.939 213.763 149.217L212.119 150.167L215.205 155.499L216.841 154.557C217.322 154.28 217.912 154.305 218.376 154.608C218.629 154.776 218.899 154.927 219.168 155.07C219.657 155.323 219.978 155.819 219.978 156.374V158.258H226.15V156.374C226.15 155.819 226.471 155.323 226.96 155.07C227.23 154.927 227.499 154.776 227.752 154.608C228.216 154.305 228.806 154.28 229.287 154.557L230.923 155.499L234.009 150.167L232.365 149.225C231.884 148.947 231.623 148.426 231.648 147.871C231.656 147.719 231.656 147.568 231.656 147.417C231.656 147.265 231.656 147.114 231.648 146.962C231.623 146.407 231.884 145.877 232.365 145.608L234.026 144.658ZM228.123 147.408C228.123 150.192 225.864 152.446 223.073 152.446C220.281 152.446 218.013 150.192 218.013 147.408C218.013 144.624 220.281 142.362 223.073 142.362C225.864 142.37 228.123 144.624 228.123 147.408Z" fill="#EBEBEB"/>
<path d="M67.9207 59.5739C54.6485 59.5739 43.8975 70.2977 43.8975 83.5364C43.8975 96.7666 54.6485 107.499 67.9207 107.499C81.1845 107.499 91.9439 96.7666 91.9439 83.5364C91.9439 70.2977 81.1845 59.5739 67.9207 59.5739ZM67.9207 94.7312C61.723 94.7312 56.6975 89.7267 56.6975 83.5448C56.6975 77.3628 61.723 72.35 67.9207 72.35C74.1183 72.35 79.1439 77.3628 79.1439 83.5448C79.1439 89.7183 74.1183 94.7312 67.9207 94.7312Z" fill="#EBEBEB"/>
<path d="M72.5419 60.5664H63.3003L63.8062 54.048H72.0276L72.5419 60.5664Z" fill="#EBEBEB"/>
<path d="M54.9523 63.67L48.4174 70.1884L44.1592 65.2176L49.9689 59.4225L54.9523 63.67Z" fill="#EBEBEB"/>
<path d="M44.7156 78.2712V87.4895L38.1807 86.9764V78.7843L44.7156 78.2712Z" fill="#EBEBEB"/>
<path d="M47.8355 95.8162L54.362 102.326L49.3786 106.582L43.5688 100.787L47.8355 95.8162Z" fill="#EBEBEB"/>
<path d="M62.4653 106.019H71.707L71.1926 112.545H62.9797L62.4653 106.019Z" fill="#EBEBEB"/>
<path d="M80.0547 102.915L86.5896 96.3965L90.8478 101.376L85.0381 107.171L80.0547 102.915Z" fill="#EBEBEB"/>
<path d="M90.2832 88.3137V79.1039L96.8266 79.6085V87.8091L90.2832 88.3137Z" fill="#EBEBEB"/>
<path d="M87.1716 70.7772L80.6367 64.2588L85.6286 60.0113L91.4383 65.8064L87.1716 70.7772Z" fill="#EBEBEB"/>
<path d="M397.989 5.52591C384.717 5.52591 373.966 16.2497 373.966 29.4884C373.966 42.7186 384.717 53.4508 397.989 53.4508C411.253 53.4508 422.012 42.7186 422.012 29.4884C422.021 16.2581 411.261 5.52591 397.989 5.52591ZM397.989 40.6832C391.791 40.6832 386.766 35.6787 386.766 29.4968C386.766 23.3148 391.791 18.302 397.989 18.302C404.187 18.302 409.212 23.3148 409.212 29.4968C409.212 35.6787 404.187 40.6832 397.989 40.6832Z" fill="#EBEBEB"/>
<path d="M402.61 6.52681H393.369L393.883 0H402.104L402.61 6.52681Z" fill="#EBEBEB"/>
<path d="M385.029 9.63039L378.494 16.1488L374.228 11.1696L380.037 5.37451L385.029 9.63039Z" fill="#EBEBEB"/>
<path d="M374.792 24.2232V33.4415L368.249 32.9368V24.7363L374.792 24.2232Z" fill="#EBEBEB"/>
<path d="M377.904 41.7682L384.439 48.2866L379.455 52.5341L373.646 46.739L377.904 41.7682Z" fill="#EBEBEB"/>
<path d="M392.542 51.9789H401.784L401.269 58.4973H393.048L392.542 51.9789Z" fill="#EBEBEB"/>
<path d="M410.123 48.8669L416.658 42.3569L420.925 47.3277L415.115 53.1228L410.123 48.8669Z" fill="#EBEBEB"/>
<path d="M420.36 34.2741V25.0559L426.903 25.5689V33.7611L420.36 34.2741Z" fill="#EBEBEB"/>
<path d="M417.248 16.7292L410.713 10.2108L415.697 5.96329L421.507 11.7583L417.248 16.7292Z" fill="#EBEBEB"/>
<path d="M566 325.878H471.602L490.423 216.663H561.017L566 325.878Z" fill="#DBDBDB"/>
<path d="M566 325.878H557.728L553.082 216.663H561.017L566 325.878Z" fill="#A6A6A6"/>
<path d="M346.975 325.878H252.568L271.397 216.663H341.983L346.975 325.878Z" fill="#DBDBDB"/>
<path d="M346.975 325.878H338.694L334.048 216.663H341.983L346.975 325.878Z" fill="#A6A6A6"/>
<path d="M32 325.878H126.406L107.577 216.663H36.9918L32 325.878Z" fill="#DBDBDB"/>
<path d="M32 325.878H40.2804L44.9265 216.663H36.9918L32 325.878Z" fill="#A6A6A6"/>
<path d="M55.7951 210.574C52.4813 223.652 46.2921 238.792 49.3192 252.434C51.714 263.124 59.598 271.611 68.3 277.81C87.441 291.418 116.675 298.677 135.724 280.846C143.329 273.722 147.908 256.581 139.451 248.229C135.1 243.948 129.29 241.971 123.935 239.28C116.869 235.747 112.333 230.457 110.301 222.795C106.329 207.874 109.719 198.243 111.439 183.339C111.751 180.572 111.667 177.763 109.449 174.92C107.661 172.111 104.904 169.874 101.734 168.318C99.128 166.593 96.2695 165.315 93.1158 165.021C86.4713 164.364 79.0004 169.066 73.2075 171.758C67.3387 174.491 64.1851 177.948 62.4818 184.239C60.1377 192.978 58.0296 201.793 55.7951 210.574Z" fill="#263238"/>
<path d="M52.8778 216.453C56.6891 204.661 60.7365 192.961 64.6996 181.228C64.7249 181.161 64.8346 181.178 64.8177 181.253C61.8327 191.002 58.9911 200.783 55.8796 210.498C52.8272 220.019 49.0411 229.599 46.8319 239.355C41.8907 261.249 62.7012 274.841 81.6651 277.608C82.5252 277.734 82.2301 279.088 81.3616 278.937C64.7924 275.985 46.2838 266.337 44.9853 247.455C44.277 237.127 49.7663 226.092 52.8778 216.453Z" fill="#263238"/>
<path d="M110.63 181.968C110.68 181.733 111.026 181.817 110.992 182.052C109.053 194.257 105.646 208.294 110.377 220.238C112.695 226.083 116.793 231.189 122.03 234.687C126.195 237.471 130.985 238.615 135.555 240.525C153.406 247.985 148.422 273.083 132.89 280.081C132.562 280.232 132.3 279.677 132.621 279.509C143.692 273.899 149.662 260.795 143.987 249.104C139.425 239.726 126.937 239.843 119.348 233.729C103.622 221.07 106.641 199.446 110.63 181.968Z" fill="#263238"/>
<path d="M98.8076 244.436C116.717 260.231 144.071 272.545 151.23 267.372C159.519 261.375 180.414 225.074 186.974 204.678C188.408 200.22 153.853 191.986 153.178 195.215C150.876 206.276 138.076 235.386 136.997 236.824C135.757 238.472 115.141 231.138 103.757 229.069C85.3498 225.705 86.9435 233.972 98.8076 244.436Z" fill="#D3766A"/>
<path d="M159.561 201.111C158.794 197.074 155.497 174.533 155.59 169.142C155.758 159.225 158.128 149.015 162.201 148.174C165.455 147.501 167.032 153.212 167.032 153.212C167.032 153.212 169.317 146.962 173.5 147.425C177.682 147.888 176.645 154.919 176.645 154.919C176.645 154.919 179.461 148.67 183.601 149.427C187.742 150.184 185.507 157.089 185.507 157.089C185.507 157.089 187.818 151.26 190.963 153.313C194.749 155.785 189.276 166.055 189.006 172.018C188.964 172.927 190.583 187.006 189.985 196.258C189.689 200.851 186.949 204.274 186.949 204.274L159.561 201.111Z" fill="#D3766A"/>
<path d="M185.962 156.921C181.957 164.482 181.518 168.486 182.168 176.88C182.185 177.048 181.94 177.098 181.906 176.93C180.515 168.763 180.346 163.666 185.6 156.711C185.861 156.374 186.156 156.568 185.962 156.921Z" fill="#263238"/>
<path d="M176.973 154.574C174.191 163.052 174.031 167.409 174.789 176.224C174.798 176.35 174.587 176.384 174.57 176.257C173.103 167.678 172.631 162.607 176.526 154.507C176.695 154.128 177.1 154.187 176.973 154.574Z" fill="#263238"/>
<path d="M167.04 153.514C165.16 161.967 164.907 166.753 166.965 175.156C167.015 175.357 166.729 175.442 166.661 175.248C163.727 166.879 163.996 160.908 166.779 153.481C166.973 152.976 167.167 152.985 167.04 153.514Z" fill="#263238"/>
<path d="M155.472 202.466C155.472 202.466 148.996 193.912 146.981 189.53C144.965 185.148 143.49 166.055 147.605 165.5C152.917 164.785 155.952 175.643 156.737 181.153C156.737 181.153 169.031 179.487 172.893 186.813C176.755 194.13 155.472 202.466 155.472 202.466Z" fill="#D3766A"/>
<path d="M155.961 177.225C156.146 177.872 156.307 178.52 156.475 179.168C156.636 179.815 156.813 180.463 156.956 181.11L156.72 180.925C160.556 180.69 164.427 181.329 168.002 182.742C169.798 183.423 171.501 184.365 173.036 185.509C174.621 186.594 175.945 188.007 177.134 189.471C175.726 188.201 174.318 186.948 172.707 185.989L172.117 185.61L171.501 185.282C171.088 185.072 170.692 184.828 170.27 184.618C169.419 184.231 168.584 183.827 167.698 183.516C165.953 182.86 164.157 182.347 162.319 181.994C160.481 181.657 158.609 181.405 156.745 181.396H156.534L156.501 181.211C156.391 180.555 156.307 179.891 156.214 179.226C156.13 178.545 156.037 177.889 155.961 177.225Z" fill="#263238"/>
<path d="M122.072 264.327L133.05 234.915C133.05 234.915 112.29 227.706 99.0604 227.084C85.8219 226.462 87.0952 234.326 96.3368 243.317C105.57 252.308 122.072 264.327 122.072 264.327Z" fill="#C63031"/>
<path d="M122.654 262.78L122.283 263.78H122.274C122.114 263.907 121.971 264.024 121.811 264.142C121.693 264.058 121.549 263.949 121.364 263.806C121.802 263.478 122.232 263.133 122.654 262.78Z" fill="white"/>
<path d="M125.327 255.622L125.251 255.815C124.627 255.479 124.02 255.117 123.413 254.756C120.141 252.771 117.072 250.491 113.867 248.431C112.265 247.413 110.621 246.446 108.892 245.672C107.172 244.89 105.351 244.309 103.479 244.108C102.543 243.998 101.599 244.015 100.671 244.099C100.199 244.15 99.7436 244.242 99.2798 244.318C98.8245 244.427 98.3607 244.545 97.9054 244.663C97.8632 244.671 97.8211 244.688 97.7789 244.705C97.6356 244.57 97.5006 244.444 97.3657 244.318C97.5006 244.276 97.6356 244.242 97.7789 244.2C98.2427 244.082 98.7149 243.965 99.1786 243.855C99.6593 243.788 100.14 243.695 100.621 243.645C101.59 243.569 102.56 243.561 103.521 243.687C105.452 243.914 107.307 244.537 109.044 245.336C110.79 246.143 112.434 247.135 114.036 248.178C117.24 250.264 120.276 252.569 123.522 254.571C124.113 254.932 124.72 255.294 125.327 255.622Z" fill="white"/>
<path d="M127.182 234.452C125.209 238.901 120.217 251.131 118.075 259.516C118.058 259.567 118.261 259.642 118.278 259.592C121.17 252.905 125.917 239.17 127.477 234.561C127.494 234.477 127.216 234.368 127.182 234.452Z" fill="#263238"/>
<path opacity="0.1" d="M126.482 252.527L122.072 264.327C122.072 264.327 105.57 252.308 96.3286 243.325C90.3671 237.522 87.7194 232.189 90.1647 229.305L126.482 252.527Z" fill="black"/>
<path d="M124.737 325.878H38.7964C38.7964 325.878 54.5898 254.15 72.6009 233.047C73.0056 232.559 73.4188 232.105 73.8404 231.668C73.9247 231.567 74.0006 231.5 74.085 231.407C75.6365 229.784 77.2639 228.573 78.8997 227.698C79.2117 227.53 79.5321 227.37 79.861 227.227C86.8007 224.048 94.1282 226.68 99.4152 231.197C101.093 232.627 120.091 257.279 121.769 266.674C123.219 274.967 117.603 283.882 117.603 283.882L124.737 325.878Z" fill="#C63031"/>
<path d="M104.146 280.669C100.343 281.09 96.5315 281.645 92.8297 282.629C90.9915 283.117 89.1786 283.689 87.3741 284.295C86.4719 284.597 85.5697 284.875 84.659 285.144C83.723 285.422 82.7196 285.682 81.7415 285.716C81.6571 285.716 81.6571 285.851 81.7415 285.851C82.6943 285.867 83.605 285.884 84.5494 285.775C85.4516 285.674 86.3454 285.472 87.2224 285.245C89.0943 284.766 90.9494 284.202 92.8129 283.706C96.5821 282.705 100.351 281.704 104.179 280.981C104.373 280.955 104.331 280.653 104.146 280.669Z" fill="#263238"/>
<path d="M113.615 283.966C110.487 283.672 107.291 283.529 104.146 283.596C102.561 283.63 100.992 283.756 99.4238 283.916C98.6733 283.992 97.9229 284.084 97.1724 284.194C96.3461 284.303 95.5366 284.53 94.7102 284.631C94.6259 284.639 94.6259 284.774 94.7102 284.766C95.4944 284.698 96.287 284.749 97.0712 284.723C97.8554 284.698 98.648 284.665 99.4322 284.639C101.009 284.589 102.586 284.555 104.163 284.488C107.316 284.353 110.461 284.252 113.624 284.227C113.792 284.219 113.775 283.975 113.615 283.966Z" fill="#263238"/>
<path d="M121.195 264.588C120.664 264.975 120.107 265.345 119.534 265.681C117.881 266.674 116.102 267.464 114.239 267.978C113.775 268.095 113.303 268.213 112.831 268.322C112.35 268.39 111.878 268.482 111.397 268.533C110.427 268.608 109.449 268.617 108.488 268.491C106.565 268.264 104.71 267.641 102.973 266.842C101.228 266.035 99.5836 265.042 97.9815 263.999C94.7773 261.913 91.7333 259.609 88.4953 257.607C86.9438 256.665 85.367 255.773 83.7143 255.033C83.63 254.991 83.5457 254.949 83.4613 254.916C83.3601 254.873 83.259 254.823 83.1578 254.789C81.5135 254.074 79.7933 253.536 78.0395 253.191C76.1675 252.838 74.2619 252.72 72.3646 252.855L70.9564 253.006L69.5483 253.267C68.6292 253.469 67.7101 253.746 66.791 253.99C65.8634 254.192 64.9949 254.588 64.1011 254.907C63.6626 255.084 63.2073 255.218 62.7773 255.429L61.4956 256.051C61.074 256.261 60.6355 256.446 60.2307 256.69L59.4297 257.17C59.5056 256.968 59.5899 256.757 59.6742 256.556C61.9003 255.344 64.2613 254.369 66.7066 253.696C67.6426 253.469 68.5617 253.191 69.4977 253.006L70.9143 252.762L72.3478 252.636C74.2619 252.51 76.1928 252.636 78.0732 253.006C79.8692 253.368 81.6063 253.931 83.2843 254.655C83.4698 254.73 83.6637 254.806 83.8408 254.899C85.4851 255.63 87.0787 256.488 88.6049 257.422C91.8766 259.407 94.9375 261.686 98.1417 263.747C99.7523 264.765 101.397 265.732 103.125 266.506C104.845 267.288 106.667 267.868 108.539 268.07C109.475 268.179 110.411 268.163 111.346 268.078C111.81 268.028 112.274 267.935 112.738 267.86C113.193 267.75 113.648 267.633 114.104 267.515C115.917 266.985 117.654 266.22 119.264 265.236C119.863 264.874 120.445 264.487 121.018 264.075C121.077 264.252 121.145 264.42 121.195 264.588Z" fill="white"/>
<path d="M111.178 246.816C110.427 246.404 109.669 246.017 108.893 245.672C107.173 244.89 105.351 244.309 103.479 244.108C102.543 243.998 101.599 244.015 100.671 244.099C100.199 244.15 99.7439 244.242 99.2802 244.318C98.8248 244.427 98.361 244.545 97.9057 244.663C96.0928 245.193 94.3642 245.958 92.7537 246.942C89.5073 248.893 86.8343 251.652 84.2625 254.436C84.1191 254.587 83.9758 254.747 83.8409 254.899C83.7987 254.941 83.7566 254.991 83.7144 255.033C81.3281 257.632 78.9165 260.282 76.0243 262.418C72.955 264.748 69.2195 266.245 65.3829 266.649C62.1955 267.027 59.0419 266.649 55.9136 266.262C55.9642 266.119 56.0148 265.984 56.0654 265.85C59.16 266.203 62.2461 266.531 65.3154 266.127C67.1874 265.866 69.034 265.454 70.7795 264.739C72.5334 264.05 74.1692 263.091 75.6785 261.964C78.4612 259.912 80.7969 257.338 83.1579 254.789C83.2 254.739 83.2422 254.697 83.2844 254.655C83.4699 254.453 83.6554 254.251 83.8409 254.049C86.438 251.265 89.1531 248.481 92.4838 246.496C94.1365 245.504 95.9157 244.713 97.7792 244.2C98.243 244.082 98.7152 243.965 99.179 243.855C99.6596 243.788 100.14 243.695 100.621 243.645C101.591 243.569 102.56 243.561 103.522 243.687C105.452 243.914 107.308 244.537 109.045 245.336C109.626 245.605 110.191 245.891 110.748 246.193C110.891 246.404 111.035 246.606 111.178 246.816Z" fill="white"/>
<path d="M124.13 322.354C120.824 322.724 117.46 322.656 114.171 322.101C113.193 321.899 112.198 321.748 111.228 321.504L109.778 321.1L108.361 320.587C106.498 319.856 104.727 318.88 103.117 317.686C101.582 316.55 100.191 315.238 98.9259 313.817C98.7826 313.657 98.6392 313.497 98.5043 313.337C97.2732 311.907 96.1602 310.377 95.1314 308.821C92.9306 305.49 91.0503 301.966 88.9422 298.593C87.8798 296.911 86.7583 295.271 85.4682 293.765C84.1865 292.26 82.7277 290.897 81.0497 289.879C80.215 289.358 79.3127 288.954 78.3936 288.609C77.9298 288.458 77.4576 288.34 76.9854 288.206C76.5048 288.105 76.0157 288.012 75.5351 287.92C73.5788 287.608 71.5973 287.566 69.6326 287.777C65.6863 288.18 61.934 289.593 58.2492 291.09C58.0468 291.175 57.8529 291.25 57.6505 291.334C57.5915 291.36 57.5325 291.385 57.4734 291.41C54.0415 292.806 50.5759 294.236 46.8826 294.968C46.8236 294.985 46.7646 294.993 46.7056 295.002C46.7646 294.783 46.832 294.573 46.8911 294.354C50.382 293.647 53.7127 292.268 57.0518 290.922C57.1108 290.897 57.1783 290.872 57.2373 290.855C57.4987 290.746 57.7686 290.636 58.03 290.535C61.7232 289.055 65.543 287.634 69.5736 287.238C71.5804 287.036 73.621 287.079 75.611 287.423C76.1085 287.524 76.606 287.617 77.0951 287.726C77.5841 287.878 78.0732 287.995 78.5538 288.164C79.5066 288.525 80.4258 288.954 81.2774 289.501C82.9976 290.569 84.4732 291.982 85.7633 293.521C87.0534 295.06 88.1665 296.726 89.2121 298.425C91.3032 301.823 93.1499 305.364 95.3254 308.694C96.3625 310.284 97.4587 311.832 98.6898 313.261C98.7488 313.337 98.8163 313.404 98.8753 313.48C98.9512 313.573 99.0271 313.657 99.1114 313.741C100.343 315.145 101.725 316.424 103.235 317.526C104.837 318.695 106.591 319.654 108.446 320.369L109.854 320.856L111.296 321.235C112.257 321.462 113.244 321.597 114.222 321.782C115.2 322 116.195 322.009 117.182 322.11C117.679 322.135 118.168 322.219 118.666 322.202L120.158 322.185C120.647 322.177 121.145 322.194 121.642 322.152L123.126 322.009C123.43 321.975 123.742 321.958 124.054 321.916L124.13 322.354Z" fill="white"/>
<path d="M122.266 311.394C121.861 311.234 121.465 311.091 121.052 310.965C119.171 310.377 117.232 309.939 115.267 309.838C113.303 309.712 111.321 309.889 109.39 310.284C105.849 310.982 102.484 312.378 99.1114 313.741C99.0523 313.766 98.9849 313.791 98.9259 313.817C98.6645 313.926 98.3946 314.027 98.1332 314.136C94.4315 315.608 90.6118 317.038 86.5812 317.425C84.5743 317.627 82.5338 317.585 80.5438 317.248C80.0463 317.147 79.5488 317.046 79.0597 316.937C78.5706 316.794 78.0816 316.668 77.6009 316.5C76.6565 316.138 75.729 315.709 74.8774 315.171C73.1572 314.094 71.6816 312.681 70.3914 311.15C69.1098 309.603 67.9967 307.937 66.9427 306.238C64.8515 302.84 63.0049 299.308 60.8294 295.969C59.8007 294.388 58.7045 292.84 57.4734 291.41C57.4144 291.334 57.3553 291.259 57.2879 291.183C57.212 291.09 57.1361 291.006 57.0518 290.922C55.8122 289.518 54.4294 288.248 52.92 287.137C51.8829 286.38 50.7783 285.708 49.623 285.136C49.6399 285.068 49.6652 284.993 49.6821 284.925C50.8541 285.514 51.9841 286.195 53.0381 286.978C54.5812 288.121 55.964 289.434 57.2373 290.855C57.3806 291.015 57.524 291.175 57.6505 291.334C58.8816 292.764 59.9946 294.278 61.0233 295.843C63.2241 299.173 65.1045 302.706 67.2125 306.07C68.275 307.752 69.3965 309.401 70.6866 310.906C71.9683 312.404 73.427 313.766 75.105 314.792C75.9398 315.314 76.8421 315.717 77.7612 316.054C78.2249 316.214 78.7056 316.323 79.1693 316.458C79.6584 316.567 80.139 316.651 80.6281 316.744C82.5759 317.055 84.5575 317.097 86.5222 316.887C90.4684 316.491 94.2207 315.07 97.9056 313.581C98.1079 313.497 98.3019 313.421 98.5043 313.337C98.5633 313.312 98.6307 313.287 98.6898 313.261C102.122 311.865 105.579 310.427 109.272 309.704C113.218 308.863 117.418 309.115 121.229 310.444C121.541 310.545 121.861 310.662 122.165 310.78L122.266 311.394Z" fill="white"/>
<path d="M67.4908 237.396C50.6181 261.072 28.7366 302.134 39.9936 309.687C58.5021 322.11 109.415 325.449 121.052 325.735C126.077 325.861 132.933 292.546 129.223 288.677C125.512 284.808 72.2044 286.868 71.5298 283.664C71.1419 281.847 77.6684 265.059 80.9738 244.923C84.7852 221.701 72.2466 230.718 67.4908 237.396Z" fill="#D3766A"/>
<path d="M120.285 286.835C120.285 286.835 135.488 285.279 145.48 284.724C151.054 284.412 160.658 284.74 164.857 286.38C171.139 288.836 195.828 303.11 192.489 309.157C189.462 314.632 169.815 299.686 169.815 299.686C169.815 299.686 190.988 313.018 186.131 318.947C181.275 324.868 161.324 305.036 161.324 305.036C161.324 305.036 182.767 319.225 176.789 324.54C172.269 328.561 153.187 311.613 153.187 311.613C153.187 311.613 171.535 323.935 167.066 328.266C162.134 333.052 143.532 318.51 143.532 318.51C130.319 327.619 120.302 326.559 113.261 324.969C111.541 324.566 120.285 286.835 120.285 286.835Z" fill="#D3766A"/>
<path d="M162.783 294.598C165.329 296.078 167.909 297.55 170.313 299.249C172.716 300.948 175.06 302.731 177.294 304.64C182.775 309.334 185.465 313.127 185.28 312.908C180.735 307.794 172.227 301.587 169.823 299.888C167.429 298.198 165.11 296.381 162.715 294.682C162.656 294.648 162.724 294.564 162.783 294.598Z" fill="#263238"/>
<path d="M156.484 303.143C159.646 305.17 162.867 307.063 165.945 309.233C169.006 311.386 173.196 314.557 176.106 316.912C176.333 317.097 176.165 317.492 175.929 317.315C172.935 315.07 168.508 312.042 165.489 309.83C162.479 307.635 159.528 305.296 156.433 303.211C156.374 303.185 156.433 303.11 156.484 303.143Z" fill="#263238"/>
<path d="M149.755 309.502C154.755 312.353 159.216 316.113 163.508 319.914C163.719 320.099 163.491 320.158 163.264 319.973C158.761 316.424 155.245 313.615 149.654 309.67C149.561 309.62 149.646 309.443 149.755 309.502Z" fill="#263238"/>
<path d="M118.092 286.565C125.032 285.859 145.412 283.874 152.386 283.748C158.533 283.638 163.736 284.471 169.2 287.381C180.92 293.605 188.847 301.486 190.853 303.858C192.068 305.296 193.864 307.601 192.599 309.451C191.064 311.697 184.47 310.276 177.143 304.817C176.881 304.624 177.016 304.472 177.286 304.649C187.489 311.411 191.182 310.166 192.042 308.762C192.599 307.853 191.848 306.449 191.165 305.38C190.179 303.833 188.728 302.47 187.379 301.242C182.733 297.012 177.261 293.252 171.847 290.064C165.624 286.406 159.216 284.614 151.99 284.707C144.848 284.799 125.226 286.843 118.084 286.835C117.941 286.826 117.949 286.574 118.092 286.565Z" fill="#263238"/>
<path d="M186.958 315.785C186.385 313.926 184.858 312.336 183.627 310.881C182.109 309.081 180.465 307.323 178.61 305.86C178.526 305.793 178.408 305.902 178.492 305.978C180.052 307.542 181.595 309.098 182.961 310.839C183.703 311.79 184.395 312.765 185.019 313.791C185.617 314.775 186.317 315.911 186.174 317.114C185.895 319.41 183.029 319.628 181.275 319.183C180.136 318.888 179.032 318.443 177.969 317.955C176.865 317.45 174.799 316.13 173.821 315.406C173.703 315.322 173.441 315.381 173.559 315.474C176.317 317.635 181.578 322.177 185.305 319.973C186.806 319.09 187.472 317.45 186.958 315.785Z" fill="#263238"/>
<path d="M46.4526 262.056L76.0579 272.696C76.0579 272.696 83.0651 251.913 83.5457 238.708C84.0263 225.503 76.1591 226.849 67.2463 236.159C58.3335 245.47 46.4526 262.056 46.4526 262.056Z" fill="#C63031"/>
<path d="M81.2691 253.881C81.2607 253.94 81.2523 253.999 81.2354 254.049C80.1898 253.688 79.1189 253.402 78.0396 253.191C76.1677 252.838 74.262 252.72 72.3648 252.855L70.9566 253.006L69.5484 253.267C68.6293 253.469 67.7102 253.746 66.7911 253.99C65.8636 254.192 64.9951 254.588 64.1013 254.907C63.6628 255.084 63.2075 255.218 62.7774 255.429L61.4957 256.051C61.0741 256.261 60.6357 256.446 60.2309 256.69L59.0082 257.414C58.6035 257.657 58.1819 257.885 57.794 258.154L56.6135 258.961C54.5308 260.391 52.5492 261.972 50.5339 263.52L49.9858 263.326C52.0854 261.72 54.1682 260.08 56.3605 258.583C59.5142 256.413 63.0135 254.714 66.7068 253.696C67.6428 253.469 68.5619 253.191 69.4979 253.006L70.9145 252.762L72.3479 252.636C74.262 252.51 76.193 252.636 78.0734 253.006C79.1611 253.225 80.2236 253.519 81.2691 253.881Z" fill="white"/>
<path d="M80.3587 257.767C80.2659 258.137 80.1732 258.507 80.0804 258.869L80.072 258.877C78.8072 260.147 77.4749 261.35 76.0245 262.418C72.9552 264.748 69.2198 266.245 65.3832 266.649C63.3004 266.901 61.2261 266.825 59.1687 266.623H59.1602L57.4316 266.001C60.0709 266.287 62.7017 266.472 65.3157 266.127C67.1876 265.866 69.0343 265.454 70.7797 264.739C72.5336 264.05 74.1695 263.091 75.6788 261.964C77.3737 260.719 78.8999 259.281 80.3587 257.767Z" fill="white"/>
<path d="M76.4627 266.834C71.9852 264.908 59.6658 260.071 51.2337 258.019C51.1831 258.011 51.1072 258.204 51.1578 258.221C57.8867 261.03 71.7154 265.623 76.3531 267.128C76.4374 267.153 76.547 266.867 76.4627 266.834Z" fill="#263238"/>
<path d="M82.1796 255.647C82.188 255.605 82.129 255.58 82.1037 255.622C81.5725 256.64 81.1003 257.674 80.6449 258.734C81.1593 256.429 81.6231 254.108 82.0278 251.787C82.0447 251.703 81.9266 251.686 81.9013 251.761C79.9113 258.574 77.7611 265.345 75.9229 272.191C75.164 272.158 74.4051 272.107 73.6547 272.006C73.5282 271.99 73.486 272.175 73.6125 272.2C74.4304 272.402 75.2399 272.654 76.0325 272.932C76.2096 272.99 76.4626 272.974 76.5469 272.763C78.0057 268.886 79.1777 264.899 80.1559 260.862C80.4678 260.248 80.7714 259.626 81.0328 258.995C81.4966 257.885 81.8844 256.791 82.1796 255.647Z" fill="#263238"/>
<path d="M83.5625 228.27C83.7058 229.868 89.6589 240.962 96.7925 241.643C99.1198 241.862 100.874 229.262 100.874 229.262L101.219 228.362L106.009 215.755L92.079 203.744L90.0468 202.129C90.0468 202.129 88.9675 205.662 87.6605 210.077C87.6015 210.279 87.534 210.489 87.475 210.708C87.3907 210.952 87.3148 211.188 87.2558 211.423C87.0534 212.079 86.851 212.752 86.6571 213.425C86.5137 213.938 86.362 214.434 86.227 214.981C86.0753 215.519 85.9488 216.049 85.797 216.596C84.4563 221.962 83.5119 227.589 83.5625 228.27Z" fill="#D3766A"/>
<path d="M87.6689 210.077C89.9203 220.978 97.6105 226.394 101.219 228.362L106.009 215.755L92.079 203.744L90.0468 202.129C90.0552 202.129 88.9759 205.662 87.6689 210.077Z" fill="#263238"/>
<path d="M120.647 190.27C126.431 213.215 113.302 219.262 108.344 220.507C103.841 221.634 88.3599 224.889 80.2313 202.659C72.1027 180.429 80.9734 170.496 91.1341 167.376C101.295 164.255 114.862 167.317 120.647 190.27Z" fill="#D3766A"/>
<path d="M116.405 187.124C115.849 187.183 115.326 187.149 114.77 187.149C114.137 187.149 113.64 187.217 113.092 186.855C112.796 186.662 112.704 186.157 112.864 185.854C113.243 185.148 114.011 184.954 114.77 184.921C115.588 184.887 116.237 185.064 116.894 185.551C117.527 186.022 117.139 187.04 116.405 187.124Z" fill="#263238"/>
<path d="M101.615 190.589C102.147 190.404 102.602 190.144 103.099 189.908C103.664 189.639 104.145 189.488 104.482 188.924C104.659 188.621 104.533 188.125 104.255 187.923C103.614 187.452 102.83 187.612 102.138 187.906C101.379 188.226 100.882 188.672 100.502 189.395C100.131 190.085 100.924 190.842 101.615 190.589Z" fill="#263238"/>
<path d="M105.638 195.476C105.612 195.417 105.537 195.577 105.553 195.644C106 197.192 106.245 199.042 104.963 199.917C104.921 199.942 104.946 200.018 104.997 200.001C106.666 199.328 106.312 196.872 105.638 195.476Z" fill="#263238"/>
<path d="M103.825 194.198C101.262 194.643 102.341 199.732 104.719 199.32C107.063 198.916 105.984 193.828 103.825 194.198Z" fill="#263238"/>
<path d="M102.88 194.677C102.492 195.056 102.164 195.661 101.641 195.829C101.034 196.023 100.452 195.585 99.9375 195.165C99.8869 195.123 99.8532 195.173 99.8616 195.241C100.056 196.216 100.646 197.141 101.717 197.066C102.703 196.998 103.201 195.989 103.243 194.955C103.251 194.761 103.041 194.526 102.88 194.677Z" fill="#263238"/>
<path d="M114.205 193.323C114.205 193.264 114.34 193.373 114.356 193.441C114.626 195.03 115.208 196.805 116.751 197.04C116.802 197.049 116.81 197.125 116.76 197.133C114.955 197.234 114.205 194.871 114.205 193.323Z" fill="#263238"/>
<path d="M115.284 191.38C117.788 190.674 119.028 195.72 116.709 196.376C114.415 197.032 113.176 191.977 115.284 191.38Z" fill="#263238"/>
<path d="M116.414 191.456C116.877 191.624 117.392 192.019 117.881 191.927C118.446 191.826 118.715 191.178 118.943 190.573C118.968 190.505 119.019 190.539 119.036 190.606C119.297 191.565 119.23 192.65 118.344 193.062C117.535 193.441 116.709 192.759 116.245 191.859C116.161 191.7 116.228 191.388 116.414 191.456Z" fill="#263238"/>
<path d="M108.37 208.319C108.741 208.715 109.103 209.245 109.685 209.32C110.242 209.388 110.916 209.161 111.439 208.984C111.489 208.967 111.54 209.026 111.506 209.068C111.059 209.665 110.166 210.018 109.424 209.859C108.698 209.699 108.361 209.06 108.209 208.387C108.184 208.286 108.311 208.261 108.37 208.319Z" fill="#263238"/>
<path d="M113.37 201.33C113.37 201.33 114.222 203.609 114.475 204.711C114.5 204.812 110.638 206.553 108.26 204.223C108.159 204.131 108.277 203.988 108.395 204.03C110.098 204.779 111.776 204.694 113.522 204.333C113.53 204.005 111.928 200.481 112.105 200.43C112.704 200.245 113.985 200.388 114.753 200.439C113.117 195.644 110.722 191.153 109.162 186.359C109.112 186.191 109.348 186.081 109.432 186.224C112.274 190.749 114.281 196.225 116.102 201.128C116.33 201.742 113.851 201.414 113.37 201.33Z" fill="#263238"/>
<path d="M113.926 204.728C113.926 204.728 113.353 206.52 112.08 207.529C111.607 207.907 111.059 208.176 110.402 208.219C109.053 208.319 108.631 207.192 108.521 206.141C108.429 205.275 108.563 204.459 108.563 204.459C108.563 204.459 110.958 205.544 113.926 204.728Z" fill="#263238"/>
<path d="M112.08 207.529C111.608 207.907 111.06 208.176 110.402 208.219C109.053 208.319 108.631 207.192 108.521 206.141C109.896 205.83 111.523 206.276 112.08 207.529Z" fill="#FF99BA"/>
<path d="M102.467 170.193C102.467 170.193 103.817 173.616 102.897 176.308C101.009 181.851 94.5074 181.22 92.5933 183.55C90.7973 185.736 91.9862 189.673 90.3757 191.834C88.1496 194.829 84.5659 194.198 84.3635 196.056C84.1611 197.915 83.6384 203.828 81.4123 204.837C79.1862 205.847 63.9914 168.73 94.4062 166.349C94.4062 166.349 98.3609 164.163 105.191 166.635C112.729 169.369 117.207 180.665 117.207 180.665C117.207 180.665 117.038 180.522 115.891 179.739C114.281 178.629 113.573 177.502 112.4 176.804C110.562 175.694 109.702 176.299 107.796 175.231C104.904 173.616 102.467 170.193 102.467 170.193Z" fill="#263238"/>
<path d="M101.81 168.578C102.459 170.025 102.948 171.547 103.243 173.086C103.547 174.609 103.657 176.241 103.134 177.654C102.594 179.033 101.329 180.076 99.9801 180.757C98.6057 181.455 97.0373 181.792 95.5616 182.599C94.8449 183.02 94.145 183.566 93.715 184.357C93.2934 185.139 93.1838 185.989 93.0995 186.779C92.9645 188.369 92.8128 189.933 91.919 191.161C91.042 192.389 89.617 193.23 88.0655 193.34C86.5392 193.525 84.8022 193.298 83.394 194.139C84.8697 193.407 86.4886 193.769 88.0992 193.701C89.7435 193.659 91.354 192.818 92.3827 191.506C93.4789 190.169 93.6138 188.386 93.7825 186.855C93.8752 186.081 93.9933 185.316 94.3474 184.702C94.6847 184.096 95.2918 183.617 95.9411 183.247C97.2565 182.498 98.8418 182.12 100.301 181.363C101.034 180.984 101.726 180.513 102.316 179.924C102.898 179.353 103.454 178.654 103.69 177.839C104.205 176.224 103.994 174.55 103.614 173.002C103.184 171.455 102.569 169.974 101.81 168.578Z" fill="#263238"/>
<path d="M102.552 169.882C103.016 171.287 103.682 172.624 104.516 173.869C105.334 175.122 106.506 176.232 107.948 176.838C108.674 177.149 109.466 177.258 110.141 177.401C110.79 177.544 111.49 177.855 111.903 178.301C112.358 178.814 112.814 179.47 113.429 179.924C114.045 180.379 114.753 180.681 115.487 180.816C114.812 180.522 114.171 180.16 113.674 179.647C113.143 179.159 112.805 178.554 112.35 177.923C111.81 177.233 111.068 176.955 110.318 176.72C109.559 176.527 108.876 176.442 108.243 176.156C106.953 175.61 105.891 174.651 105.006 173.515C104.095 172.388 103.311 171.152 102.552 169.882Z" fill="#263238"/>
<path d="M102.864 205.014C99.5076 205.46 96.1432 203.618 94.8278 200.346C93.2679 196.477 95.1567 192.061 99.027 190.505C102.906 188.949 107.324 190.825 108.893 194.694C110.453 198.563 108.572 202.97 104.693 204.535C104.086 204.779 103.479 204.93 102.864 205.014ZM100.983 191.027C100.452 191.094 99.9208 191.237 99.4065 191.439C96.0505 192.785 94.4146 196.612 95.7638 199.959C97.1129 203.307 100.95 204.938 104.306 203.593C107.662 202.247 109.297 198.42 107.948 195.072C106.81 192.246 103.892 190.64 100.983 191.027Z" fill="#C63031"/>
<path d="M119.694 200.632C116.819 201.019 113.817 198.428 112.839 194.61C112.341 192.684 112.426 190.724 113.075 189.092C113.741 187.41 114.939 186.266 116.423 185.888C117.915 185.501 119.509 185.938 120.9 187.091C122.249 188.209 123.27 189.891 123.767 191.817C124.804 195.855 123.194 199.766 120.175 200.539C120.023 200.573 119.863 200.607 119.694 200.632ZM117.055 186.796C116.929 186.813 116.802 186.838 116.676 186.872C115.512 187.166 114.559 188.091 114.011 189.471C113.446 190.901 113.37 192.642 113.809 194.366C114.702 197.865 117.443 200.203 119.922 199.564C122.393 198.933 123.674 195.577 122.78 192.078C122.342 190.354 121.44 188.865 120.251 187.881C119.239 187.023 118.117 186.653 117.055 186.796Z" fill="#C63031"/>
<path d="M108.859 195.611L108.033 195.022C108.91 193.802 111.161 191.893 113.446 193.348L112.898 194.198C110.857 192.894 108.943 195.501 108.859 195.611Z" fill="#C63031"/>
<path d="M76.6228 205.838L75.6362 205.611C75.7458 205.149 76.7324 201.095 78.8404 200.186C80.8051 199.337 94.2797 197.209 94.8531 197.125L95.0133 198.126C91.1514 198.731 80.763 200.455 79.2452 201.12C77.8539 201.709 76.8842 204.728 76.6228 205.838Z" fill="#C63031"/>
<path d="M83.9754 201.767C83.9754 201.767 77.6851 195.3 74.6663 197.646C71.6476 200.001 77.196 209.951 81.3193 210.767C85.4426 211.583 86.2859 207.79 86.2859 207.79L83.9754 201.767Z" fill="#D3766A"/>
<path d="M76.319 200.464C76.2515 200.472 76.2599 200.556 76.319 200.573C79.2281 201.238 81.0747 203.534 82.4997 205.99C81.5216 205.115 80.3327 204.736 79.1353 205.922C79.0763 205.981 79.1606 206.082 79.2365 206.057C80.3158 205.636 81.1506 205.704 82.0528 206.478C82.6937 207.024 83.1827 207.764 83.6887 208.437C83.8573 208.664 84.2789 208.462 84.1356 208.193C84.1271 208.176 84.1103 208.151 84.1018 208.134C83.6044 204.636 80.1134 200.211 76.319 200.464Z" fill="#263238"/>
<path d="M274.5 239.81C255.697 256.396 226.985 269.323 219.464 263.881C210.762 257.59 188.594 233.401 179.951 214.796C177.876 210.33 209.354 192.667 210.998 195.72C216.217 205.426 233.276 230.297 234.414 231.803C235.721 233.535 257.358 225.839 269.306 223.661C288.633 220.154 286.963 228.825 274.5 239.81Z" fill="#AD6359"/>
<path d="M182.64 217.302C182.134 216.865 175.203 210.515 171.839 206.217C169.326 203.012 162.344 193.601 165.607 190.489C167.825 188.369 172.589 193.415 176.038 196.914C177.851 198.756 181.274 200.556 182.438 199.328C184.47 197.192 179.672 192.49 175.987 189.622C168.854 184.063 157.369 177.452 159.275 171.556C160 169.327 163.314 170.252 166.948 172.102C162.192 168.654 157.833 164.684 158.541 162.178C158.938 160.739 160.067 160.226 161.636 160.31C160.599 159.074 160.186 157.779 160.759 156.526C161.729 154.398 164.343 154.196 167.387 154.885C167.226 154.339 167.311 153.758 167.732 153.161C171.308 148.047 191.637 158.359 195.154 163.33C205.517 177.956 211.031 195.72 211.031 195.72C208.468 204.114 182.657 217.311 182.64 217.302Z" fill="#AD6359"/>
<path d="M185.794 185.021C183.922 181.968 181.35 179.21 178.239 177.267C174.562 174.962 170.287 173.667 166.4 171.732C166.299 171.682 166.206 171.842 166.316 171.892C168.272 172.75 170.135 173.81 172.049 174.743C173.921 175.66 175.835 176.518 177.623 177.561C180.912 179.462 183.686 181.943 185.735 185.055C185.769 185.089 185.819 185.055 185.794 185.021Z" fill="#263238"/>
<path d="M190.128 178.226C187.582 174.996 184.993 171.69 181.78 169.024C178.273 166.114 173.82 164.507 169.52 162.901C166.94 161.934 164.326 161.025 161.695 160.176C161.585 160.142 161.493 160.294 161.611 160.336C166.038 161.942 170.405 163.675 174.714 165.542C178.762 167.3 182.278 169.655 185.28 172.758C186.975 174.508 188.518 176.384 190.061 178.259C190.094 178.301 190.153 178.259 190.128 178.226Z" fill="#263238"/>
<path d="M194.656 171.732C192.438 168.494 190.524 165.668 187.227 163.33C182.868 160.235 176.738 157.997 174.571 157.224C172.176 156.366 169.756 155.584 167.319 154.843C167.218 154.81 167.159 154.978 167.26 155.012C172.648 156.786 177.944 158.897 183.02 161.328C185.448 162.489 187.725 163.893 189.656 165.719C191.562 167.527 193.096 169.663 194.639 171.749C194.639 171.766 194.665 171.749 194.656 171.732Z" fill="#263238"/>
<path d="M250.081 260.702L238.554 229.826C238.554 229.826 260.343 222.265 274.239 221.609C288.135 220.953 286.803 229.212 277.106 238.649C267.401 248.077 250.081 260.702 250.081 260.702Z" fill="#A6A6A6"/>
<path d="M244.718 229.338C246.792 234.006 252.029 246.85 254.28 255.656C254.297 255.706 254.086 255.79 254.069 255.74C251.034 248.725 246.05 234.301 244.415 229.456C244.389 229.363 244.684 229.246 244.718 229.338Z" fill="#263238"/>
<path opacity="0.1" d="M245.452 248.305L250.081 260.694C250.081 260.694 267.401 248.078 277.114 238.641C283.371 232.543 286.154 226.95 283.59 223.922L245.452 248.305Z" fill="black"/>
<path d="M250.047 325.878H343.602C344.63 323.994 329.301 242.249 297.748 219.228C290.749 214.123 278.328 217.403 274.871 222.374C257.509 247.329 250.047 325.878 250.047 325.878Z" fill="#A6A6A6"/>
<path d="M342.733 318.821H250.797C251.067 316.491 251.413 313.665 251.826 310.461H341.047C341.755 313.674 342.32 316.5 342.733 318.821Z" fill="#DBDBDB"/>
<path d="M339.993 305.843H252.441C252.627 304.497 252.821 303.101 253.032 301.663H338.972C339.335 303.101 339.672 304.497 339.993 305.843Z" fill="#DBDBDB"/>
<path d="M303.532 237.959C322.336 254.545 351.047 267.473 358.569 262.031C367.271 255.74 389.211 217.622 396.092 196.208C397.601 191.523 361.318 182.885 360.609 186.275C358.189 197.89 344.757 228.438 343.619 229.952C342.312 231.685 320.675 223.989 308.726 221.81C289.4 218.303 291.078 226.975 303.532 237.959Z" fill="#AD6359"/>
<path d="M367.465 191.75C367.6 187.671 369.32 165.096 370.585 159.881C372.904 150.302 377.432 140.915 381.563 140.982C384.869 141.033 385.147 146.92 385.147 146.92C385.147 146.92 388.722 141.352 392.677 142.707C396.632 144.061 394.094 150.663 394.094 150.663C394.094 150.663 398.183 145.213 402.037 146.845C405.882 148.476 402.222 154.684 402.222 154.684C402.222 154.684 405.73 149.528 408.336 152.202C411.464 155.415 403.925 164.196 402.357 169.916C402.121 170.782 400.62 184.786 398.023 193.634C396.733 198.025 393.326 200.741 393.326 200.741L367.465 191.75Z" fill="#AD6359"/>
<path d="M402.703 154.625C397.171 161.093 395.873 164.878 394.675 173.162C394.65 173.322 394.405 173.322 394.414 173.154C394.844 164.936 395.788 159.957 402.407 154.347C402.728 154.07 402.964 154.314 402.703 154.625Z" fill="#263238"/>
<path d="M394.498 150.394C389.945 158.006 388.84 162.203 387.66 170.917C387.643 171.043 387.432 171.026 387.441 170.9C387.888 162.262 388.537 157.24 394.085 150.234C394.33 149.906 394.709 150.041 394.498 150.394Z" fill="#263238"/>
<path d="M385.105 147.206C381.437 154.995 380.147 159.579 380.315 168.175C380.315 168.376 380.02 168.402 380.003 168.2C378.983 159.444 380.543 153.716 384.86 147.114C385.147 146.676 385.333 146.719 385.105 147.206Z" fill="#263238"/>
<path d="M363.206 192.171C363.206 192.171 358.788 182.473 357.793 177.788C356.798 173.103 359.522 154.263 363.637 154.625C368.949 155.087 369.514 166.265 369.084 171.783C369.084 171.783 381.361 172.834 383.52 180.774C385.661 188.705 363.206 192.171 363.206 192.171Z" fill="#AD6359"/>
<path d="M369.185 167.796C369.219 168.461 369.244 169.125 369.261 169.789C369.278 170.454 369.312 171.118 369.312 171.783L369.118 171.547C372.895 172.153 376.504 173.608 379.666 175.761C381.26 176.812 382.702 178.091 383.95 179.538C385.257 180.934 386.226 182.591 387.061 184.273C385.973 182.734 384.877 181.22 383.528 179.933L383.039 179.437L382.508 178.982C382.154 178.688 381.816 178.36 381.454 178.074C380.712 177.511 379.987 176.947 379.202 176.442C377.651 175.425 376.024 174.542 374.312 173.801C372.609 173.078 370.838 172.422 369.042 172.01L368.839 171.959L368.848 171.774C368.882 171.11 368.949 170.454 369 169.789C369.059 169.117 369.118 168.461 369.185 167.796Z" fill="#263238"/>
<path d="M327.96 258.852L339.487 227.976C339.487 227.976 317.698 220.414 303.802 219.758C289.906 219.102 291.238 227.362 300.935 236.799C310.632 246.227 327.96 258.852 327.96 258.852Z" fill="#A6A6A6"/>
<path d="M333.314 227.479C331.24 232.147 326.004 244.991 323.752 253.797C323.736 253.847 323.946 253.931 323.963 253.881C326.999 246.866 331.982 232.442 333.618 227.597C333.652 227.513 333.357 227.395 333.314 227.479Z" fill="#263238"/>
<path d="M329.098 255.252C328.938 255.361 327.716 257.96 327.716 257.96C327.361 257.624 318.373 250.786 316.965 249.768C314.106 247.699 311.113 245.781 308.161 243.847C308.069 243.788 307.959 243.914 308.052 243.99C310.379 245.815 312.673 247.682 315.008 249.491C314.57 249.314 314.123 249.129 313.693 248.944C312.799 248.549 311.939 248.094 311.062 247.665C310.986 247.623 310.919 247.741 310.986 247.792C311.973 248.548 313.12 249.12 314.266 249.591C314.764 249.793 315.278 249.953 315.793 250.088C315.986 250.239 316.18 250.39 316.374 250.533C317.757 251.576 327.842 258.927 327.96 258.86C327.985 258.843 329.065 256.202 329.259 255.37C329.284 255.26 329.183 255.193 329.098 255.252Z" fill="#263238"/>
<path d="M275.521 219.926C273.084 221.962 270.639 229.557 271.988 234.578C273.328 239.599 275.993 242.829 280.58 242.425C285.159 242.022 293.953 238.531 299.687 228.287C305.421 218.034 287.511 209.918 275.521 219.926Z" fill="#DBDBDB"/>
<path d="M280.951 236.538C286.584 236.874 294.434 227.017 296.93 219.699C297.098 219.195 291.997 201.204 291.356 197.528L269.247 207.125C269.247 207.125 272.856 214.426 273.935 220.835C274.028 221.373 275.504 236.21 280.951 236.538Z" fill="#AD6359"/>
<path d="M293.945 207.874C289.83 220.633 278.674 223.484 274.416 224.115C274.104 222.307 273.969 220.986 273.944 220.835C272.864 214.434 269.255 207.125 269.255 207.125L291.364 197.528C291.643 199.135 292.773 203.458 293.945 207.874Z" fill="#263238"/>
<path d="M295.876 171.127C299.342 179.067 297.714 203.349 292.453 209.32C284.83 217.984 270.976 220.305 263.26 210.851C255.781 201.683 258.454 170.084 264.458 164.516C273.303 156.315 290.758 159.394 295.876 171.127Z" fill="#AD6359"/>
<path d="M273.851 188.226C273.868 188.167 273.978 188.31 273.969 188.377C273.817 190.009 273.919 191.902 275.369 192.541C275.411 192.558 275.403 192.642 275.352 192.633C273.548 192.272 273.446 189.748 273.851 188.226Z" fill="#263238"/>
<path d="M275.42 186.611C278.067 186.577 277.949 191.859 275.496 191.902C273.084 191.935 273.202 186.645 275.42 186.611Z" fill="#263238"/>
<path d="M264.778 188.268C264.77 188.209 264.652 188.344 264.652 188.411C264.669 190.051 264.407 191.927 262.907 192.44C262.856 192.457 262.864 192.541 262.915 192.532C264.728 192.322 265.048 189.816 264.778 188.268Z" fill="#263238"/>
<path d="M263.345 186.527C260.706 186.266 260.377 191.548 262.822 191.792C265.234 192.019 265.554 186.746 263.345 186.527Z" fill="#263238"/>
<path d="M277.57 184.239C276.853 184.038 276.221 183.743 275.529 183.474C274.753 183.171 274.096 183.011 273.598 182.297C273.328 181.91 273.463 181.237 273.809 180.951C274.618 180.27 275.664 180.404 276.617 180.732C277.654 181.085 278.354 181.624 278.927 182.549C279.501 183.432 278.514 184.5 277.57 184.239Z" fill="#263238"/>
<path d="M261.355 183.81C262.097 183.709 262.755 183.491 263.471 183.314C264.281 183.112 264.947 183.037 265.537 182.397C265.849 182.052 265.807 181.371 265.504 181.035C264.787 180.253 263.733 180.253 262.746 180.454C261.675 180.673 260.908 181.11 260.217 181.952C259.55 182.767 260.385 183.953 261.355 183.81Z" fill="#263238"/>
<path d="M275.462 203.458C275.057 203.836 274.652 204.35 274.054 204.392C273.48 204.425 272.814 204.156 272.3 203.937C272.249 203.921 272.199 203.971 272.224 204.022C272.637 204.661 273.523 205.073 274.29 204.955C275.04 204.846 275.42 204.207 275.614 203.534C275.647 203.441 275.521 203.408 275.462 203.458Z" fill="#263238"/>
<path d="M273.843 198.512C272.89 199.917 271.524 200.657 270.057 200.91C269.399 201.027 268.716 201.036 268.041 200.952C267.907 200.943 267.78 200.926 267.662 200.901C267.544 200.884 267.434 200.867 267.299 200.834C267.105 200.8 267.004 200.64 266.979 200.455V200.447C266.979 200.388 266.987 200.338 266.996 200.279C266.996 200.279 266.996 200.279 266.996 200.27L267.004 200.127C266.996 198.866 267.165 196.948 267.165 196.948C266.701 197.167 264.314 198.176 264.365 197.512C264.82 192.061 265.318 186.006 266.92 180.673C266.962 180.496 267.24 180.539 267.215 180.724C266.987 185.98 265.841 191.153 265.529 196.427C266.288 196.157 267.527 195.661 268.185 195.686C268.362 195.745 267.797 199.387 267.848 199.951C267.848 199.951 267.848 199.976 267.856 200.01C269.972 200.329 271.591 199.724 273.683 198.344C273.817 198.277 273.944 198.386 273.843 198.512Z" fill="#263238"/>
<path d="M268.8 200.338C268.8 200.338 269.888 201.868 271.414 202.449C271.979 202.667 272.586 202.76 273.227 202.6C274.551 202.289 274.61 201.086 274.391 200.052C274.214 199.202 273.843 198.462 273.843 198.462C273.843 198.462 271.878 200.22 268.8 200.338Z" fill="#263238"/>
<path d="M271.414 202.449C271.979 202.667 272.586 202.76 273.227 202.6C274.551 202.289 274.61 201.086 274.391 200.052C272.974 200.169 271.566 201.086 271.414 202.449Z" fill="#FF99BA"/>
<path opacity="0.2" d="M297.605 188.344C295.977 187.965 292.453 182.17 290.943 179.857C289.35 177.46 289.299 165.71 289.333 163.036C292.073 164.886 294.325 167.401 295.716 170.538C297.335 174.172 297.917 181.161 297.605 188.344Z" fill="#263238"/>
<path d="M268.345 171.32C270.175 173.6 273.042 174.836 275.968 174.483C278.809 174.138 281.693 172.296 282.814 169.596C282.848 169.512 282.975 169.571 282.941 169.646C281.744 172.531 279.273 174.844 276.06 175.164C273.042 175.458 269.871 173.961 268.185 171.455C268.109 171.337 268.261 171.211 268.345 171.32Z" fill="#263238"/>
<path d="M277.907 150.815C282.806 151.109 287.208 153.986 288.869 157.392C289.881 159.461 289.965 161.522 289.552 163.599C289.535 163.683 289.358 163.658 289.375 163.574C289.78 160.268 288.287 156.433 284.822 153.986C281.491 151.63 276.98 150.773 272.991 152.11C270.908 152.808 269.197 154.044 268.286 155.592C268.185 155.769 267.822 155.634 267.907 155.457C269.357 152.446 273.472 150.545 277.907 150.815Z" fill="#263238"/>
<path d="M249.01 160.327C249.879 157.947 251.641 155.945 253.842 154.7C256.919 152.959 260.318 153.363 263.682 153.834C263.775 153.851 263.758 153.986 263.665 153.977C260.798 153.582 257.872 153.355 255.182 154.6C252.982 155.617 251.11 157.384 250.064 159.57C247.897 164.121 249.558 169.924 253.867 172.573C256.304 174.071 259.382 174.508 262.139 173.734C262.249 173.701 262.316 173.86 262.206 173.902C257.164 175.458 251.388 172.977 249.314 168.065C248.276 165.651 248.108 162.817 249.01 160.327Z" fill="#263238"/>
<path d="M297.149 175.458C297.149 175.458 302.107 166.863 298.38 161.665C296.272 158.721 288.936 158.847 288.936 158.847C288.936 158.847 286.719 154.566 280.698 152.976C274.618 151.37 267.207 154.692 267.207 154.692C267.207 154.692 261.498 151.176 255.941 154.095C248.192 158.174 248.757 169.756 256.279 173.726C261.566 176.51 269.02 172.018 269.02 172.018C269.719 172.136 276.76 176.695 282.401 170.488C282.401 170.488 286.685 174.55 290.741 171.943C290.749 171.943 292.621 175.988 297.149 175.458Z" fill="#263238"/>
<path d="M293.001 191.086C293.001 191.086 297.672 182.868 301.366 184.466C305.05 186.056 302.049 197.612 298.077 199.53C294.105 201.448 292.259 197.814 292.259 197.814L293.001 191.086Z" fill="#AD6359"/>
<path d="M300.421 187.755C300.489 187.747 300.505 187.831 300.455 187.864C297.681 189.303 296.416 192.112 295.606 194.98C296.365 193.836 297.478 193.138 299.005 194.021C299.08 194.072 299.021 194.189 298.937 194.181C297.731 194.038 296.897 194.324 296.188 195.342C295.682 196.065 295.379 196.948 295.05 197.755C294.94 198.025 294.46 197.932 294.527 197.629C294.536 197.604 294.536 197.587 294.544 197.562C294.131 193.903 296.509 188.495 300.421 187.755Z" fill="#263238"/>
<path d="M457.461 273.251L462.883 272.679C462.968 271.19 463.238 269.744 463.701 268.449C465.599 263.124 469.747 258.717 472.918 254.335C472.926 254.31 472.951 254.344 472.943 254.369C469.992 258.658 467.251 263.915 465.843 269.147C465.548 270.248 465.413 271.35 465.379 272.418L468.761 272.065C468.786 268.819 469.444 265.656 470.97 262.721C471.012 262.637 471.155 262.729 471.113 262.83C469.899 265.757 469.739 268.819 469.983 271.947L499.319 268.861C499.631 266.211 499.774 263.52 499.648 260.769C499.631 260.458 500.078 260.467 500.078 260.778C500.221 263.469 500.246 266.144 500.078 268.785L502.523 268.516C502.607 264.008 502.278 259.525 501.14 254.739C501.098 254.587 501.317 254.529 501.359 254.68C502.582 259.062 503.526 263.738 503.779 268.381L524.092 266.262C522.651 263.419 521.563 260.357 520.644 257.413C520.559 257.161 520.93 257.06 521.015 257.313C522.102 260.576 523.612 263.402 525.264 266.127L528.275 265.816C525.619 260.845 523.536 255.614 522.76 250.062C522.735 249.835 523.081 249.793 523.131 250.02C524.269 255.984 527.55 260.769 530.821 265.538L538.469 264.739C535.501 260.273 530.61 256.354 529.599 250.929C528.494 244.831 533.95 241.542 535.307 236.269C537.601 227.429 532.794 221.289 526.9 215.721C521.478 210.574 521.613 204.265 519.927 197.369C518.696 192.288 516.866 186.695 513.864 182.406C504.631 169.133 489.799 172.027 489.807 172.229C486.207 172.548 482.986 173.759 480.22 175.778C480.203 175.778 480.186 175.786 480.178 175.803C479.984 175.929 479.807 176.089 479.621 176.249C476.653 178.579 474.216 181.884 472.412 186.056C472.412 186.056 472.403 186.081 472.386 186.098C471.864 187.284 471.4 188.537 470.978 189.866C470.261 192.188 470.278 195.333 469.781 198.983C469.781 199.059 469.772 199.135 469.756 199.194C469.022 204.341 467.184 210.38 460.691 216.142C452.942 222.971 455.783 232.988 462.985 242.762C466.029 246.9 466.298 249.684 465.337 252.14C465.346 252.157 465.346 252.157 465.329 252.182C465.185 252.51 465.05 252.804 464.89 253.124C463.457 255.849 460.708 258.33 458.946 262.039C457.276 265.454 457.082 269.357 457.461 273.251Z" fill="#263238"/>
<path d="M502.843 173.356C509.033 176.182 513.949 181.237 516.571 188.041C518.578 193.247 519.101 199 521.639 204.005C524.042 208.723 527.98 212.163 531.209 216.175C535.484 221.474 538.402 228.11 535.493 234.637C533.697 238.683 529.413 242.846 529.936 247.817C530.552 253.637 535.94 258.961 538.941 263.621C539.085 263.848 538.773 264.117 538.604 263.907C534.582 258.675 527.693 251.888 529.472 244.621C530.29 241.29 532.331 238.666 533.899 235.772C536.943 230.162 535.914 224.401 532.289 219.043C527.381 211.776 521.183 207.285 518.679 198.344C517.246 193.23 516.453 187.948 513.569 183.407C510.837 179.1 507.059 175.812 502.708 173.717C502.531 173.616 502.658 173.272 502.843 173.356Z" fill="#263238"/>
<path d="M461.231 260.45C463.288 257.245 465.919 254.823 464.469 250.247C463.465 247.068 461.07 244.444 459.384 241.677C455.16 234.772 452.487 225.915 455.885 218.345C457.799 214.073 461.391 212.845 464.308 209.632C467.842 205.737 468.921 200.001 469.857 194.711C471.257 186.788 473.078 177.746 481.114 175.467C481.181 175.45 481.215 175.559 481.147 175.585C470.945 179.159 471.678 192.356 469.165 201.675C468.314 204.846 467.024 207.916 464.899 210.254C461.534 213.972 457.284 215.401 455.725 220.936C454.266 226.134 455.294 231.727 457.47 236.706C459.35 241.029 462.614 244.545 464.41 248.86C465.489 251.442 465.86 254.159 464.663 256.631C463.727 258.574 462.04 259.937 461.028 261.821C459.671 264.361 459.249 267.237 459.494 270.206C459.519 270.509 459.089 270.492 459.064 270.19C458.726 266.615 459.359 263.352 461.231 260.45Z" fill="#263238"/>
<path d="M489.048 249.507C466.551 260.618 426.414 269.163 415.891 258.978C408.176 251.509 399.423 230.305 394.76 208.303C393.74 203.492 426.018 186.998 426.912 190.346C429.981 201.868 438.084 233.266 439.063 234.881C440.184 236.731 464.081 235.772 476.215 235.285C497.126 234.444 504.825 241.719 489.048 249.507Z" fill="#F7A9A0"/>
<path d="M396.767 211.07C396.32 210.574 390.173 203.458 387.331 198.807C385.215 195.333 379.38 185.173 382.98 182.465C385.434 180.614 389.574 186.191 392.584 190.068C394.17 192.112 397.357 194.29 398.656 193.214C400.924 191.33 396.708 186.106 393.386 182.818C386.943 176.468 376.319 168.57 378.899 162.926C379.877 160.798 383.065 162.102 386.454 164.356C382.137 160.378 378.275 155.928 379.262 153.514C379.827 152.135 381.007 151.757 382.55 152.026C381.665 150.672 381.403 149.343 382.12 148.165C383.334 146.163 385.957 146.273 388.891 147.307C388.798 146.744 388.942 146.18 389.439 145.642C393.588 140.974 412.569 153.582 415.478 158.931C424.053 174.659 427.46 192.944 427.46 192.944C423.961 200.977 396.784 211.087 396.767 211.07Z" fill="#F7A9A0"/>
<path d="M403.681 179.378C402.18 176.131 399.946 173.095 397.087 170.799C393.706 168.082 389.616 166.299 385.982 163.927C385.881 163.86 385.78 164.02 385.881 164.078C387.719 165.163 389.448 166.425 391.244 167.577C392.989 168.704 394.794 169.781 396.455 171.026C399.499 173.297 401.961 176.081 403.63 179.411C403.639 179.445 403.698 179.42 403.681 179.378Z" fill="#263238"/>
<path d="M408.774 173.137C406.624 169.638 404.44 166.047 401.565 163.027C398.419 159.73 394.186 157.619 390.105 155.516C387.651 154.255 385.172 153.043 382.651 151.9C382.55 151.849 382.44 151.992 382.55 152.051C386.758 154.162 390.898 156.391 394.954 158.746C398.773 160.958 401.986 163.708 404.609 167.148C406.084 169.083 407.4 171.127 408.715 173.171C408.732 173.204 408.799 173.171 408.774 173.137Z" fill="#263238"/>
<path d="M414.027 167.216C412.206 163.742 410.629 160.714 407.636 158.006C403.673 154.423 397.846 151.496 395.78 150.47C393.504 149.343 391.185 148.283 388.857 147.265C388.765 147.223 388.68 147.383 388.773 147.425C393.917 149.814 398.925 152.522 403.69 155.533C405.966 156.971 408.058 158.628 409.761 160.664C411.439 162.682 412.712 164.978 414.002 167.233C414.019 167.241 414.036 167.233 414.027 167.216Z" fill="#263238"/>
<path d="M439.973 234.797L464.258 262.233C464.258 262.233 482.564 255.984 496.629 247.758C510.702 239.532 497.556 232.517 475.498 232.879C453.439 233.232 439.973 234.797 439.973 234.797Z" fill="#C63031"/>
<path d="M471.223 258.204C466.391 251.93 461.112 245.992 455.724 240.163C454.198 238.514 452.638 236.9 451.036 235.327C450.994 235.285 450.918 235.335 450.96 235.386C453.439 238.464 456.045 241.441 458.633 244.436C461.23 247.438 463.853 250.424 466.534 253.351C468.044 255.008 469.561 256.657 471.105 258.28C471.172 258.364 471.282 258.28 471.223 258.204Z" fill="#263238"/>
<path opacity="0.1" d="M496.629 247.758C482.564 255.984 464.258 262.225 464.258 262.225L451.567 247.884C451.567 247.884 487.396 236.109 498.248 236.328C503.872 239.095 504.353 243.25 496.629 247.758Z" fill="black"/>
<path d="M554.085 325.878L462.175 325.659L467.251 294.135C467.251 294.135 459.983 285.337 461.357 275.791C462.866 265.328 481.771 238.826 483.357 237.337C489.757 231.348 496.528 230.272 503.037 232.433H503.054C533.106 251.282 554.085 325.878 554.085 325.878Z" fill="#C63031"/>
<path d="M464.047 314.052C464.384 314.346 464.814 314.523 465.295 314.523C466.324 314.523 467.167 313.69 467.167 312.664C467.167 311.638 466.315 310.789 465.295 310.789C465.025 310.789 464.772 310.847 464.544 310.948L464.485 311.344C464.721 311.192 465 311.108 465.303 311.108C466.163 311.108 466.855 311.806 466.855 312.664C466.855 313.505 466.155 314.203 465.303 314.203C464.831 314.203 464.401 313.985 464.114 313.648L464.047 314.052ZM480.793 305.885C480.793 306.911 481.628 307.752 482.665 307.752C483.694 307.752 484.529 306.92 484.529 305.885C484.529 304.859 483.694 304.018 482.665 304.018C481.636 304.009 480.793 304.859 480.793 305.885ZM481.114 305.885C481.114 305.027 481.813 304.338 482.665 304.338C483.508 304.338 484.208 305.036 484.208 305.885C484.208 306.735 483.508 307.433 482.665 307.433C481.813 307.424 481.114 306.735 481.114 305.885ZM466.138 275.547C466.138 276.582 466.981 277.414 468.01 277.414C469.039 277.414 469.882 276.582 469.882 275.547C469.882 274.521 469.047 273.68 468.01 273.68C466.981 273.68 466.138 274.513 466.138 275.547ZM466.458 275.547C466.458 274.698 467.15 274 468.01 274C468.862 274 469.553 274.698 469.553 275.547C469.553 276.405 468.862 277.095 468.01 277.095C467.15 277.095 466.458 276.397 466.458 275.547ZM533.519 322.757C533.519 323.783 534.346 324.616 535.383 324.616C536.428 324.616 537.263 323.783 537.263 322.757C537.263 321.731 536.428 320.882 535.383 320.882C534.354 320.873 533.519 321.723 533.519 322.757ZM533.84 322.757C533.84 321.891 534.531 321.21 535.383 321.21C536.251 321.21 536.934 321.899 536.934 322.757C536.934 323.607 536.243 324.296 535.383 324.296C534.531 324.288 533.84 323.607 533.84 322.757ZM514.48 316.617C514.48 317.643 515.314 318.485 516.343 318.485C517.389 318.485 518.223 317.652 518.223 316.617C518.223 315.583 517.389 314.75 516.343 314.75C515.314 314.742 514.48 315.583 514.48 316.617ZM514.8 316.617C514.8 315.751 515.491 315.07 516.343 315.07C517.212 315.07 517.903 315.759 517.903 316.617C517.903 317.467 517.203 318.156 516.343 318.156C515.483 318.148 514.8 317.467 514.8 316.617ZM528.865 269.407C528.865 270.433 529.7 271.275 530.737 271.275C531.462 271.275 532.086 270.862 532.398 270.265C532.339 270.139 532.271 270.013 532.204 269.887C532.01 270.509 531.42 270.955 530.737 270.955C529.885 270.955 529.194 270.257 529.194 269.407C529.194 268.566 529.885 267.868 530.737 267.868C530.897 267.868 531.049 267.893 531.201 267.935C531.142 267.809 531.074 267.692 531.007 267.565C530.922 267.549 530.83 267.549 530.745 267.549C529.7 267.549 528.865 268.381 528.865 269.407ZM523.612 283.689C523.612 284.715 524.446 285.556 525.475 285.556C526.504 285.556 527.347 284.723 527.347 283.689C527.347 282.663 526.512 281.83 525.475 281.83C524.446 281.83 523.612 282.663 523.612 283.689ZM523.932 283.689C523.932 282.848 524.632 282.15 525.475 282.15C526.327 282.15 527.027 282.848 527.027 283.689C527.027 284.538 526.327 285.237 525.475 285.237C524.623 285.228 523.932 284.538 523.932 283.689ZM508.198 244.881C508.198 245.907 509.049 246.749 510.078 246.749C511.107 246.749 511.942 245.899 511.942 244.881C511.942 243.855 511.107 243.014 510.078 243.014C509.049 243.023 508.198 243.855 508.198 244.881ZM508.518 244.881C508.518 244.032 509.218 243.334 510.078 243.334C510.921 243.334 511.621 244.032 511.621 244.881C511.621 245.739 510.921 246.429 510.078 246.429C509.218 246.437 508.518 245.739 508.518 244.881ZM506.334 277.246C506.334 278.272 507.169 279.113 508.206 279.113C509.235 279.113 510.078 278.272 510.078 277.246C510.078 276.22 509.243 275.379 508.206 275.379C507.169 275.387 506.334 276.22 506.334 277.246ZM506.655 277.246C506.655 276.397 507.346 275.707 508.206 275.707C509.058 275.707 509.758 276.397 509.758 277.246C509.758 278.113 509.058 278.794 508.206 278.794C507.346 278.802 506.655 278.113 506.655 277.246ZM490.389 240.71C490.389 241.736 491.224 242.568 492.252 242.568C493.281 242.568 494.124 241.744 494.124 240.71C494.124 239.683 493.29 238.842 492.252 238.842C491.224 238.842 490.389 239.683 490.389 240.71ZM490.709 240.71C490.709 239.843 491.401 239.162 492.252 239.162C493.104 239.162 493.804 239.852 493.804 240.71C493.804 241.559 493.104 242.249 492.252 242.249C491.401 242.249 490.709 241.559 490.709 240.71ZM476.029 248.523C476.029 249.566 476.864 250.399 477.901 250.399C478.93 250.399 479.773 249.566 479.773 248.523C479.773 247.497 478.93 246.664 477.901 246.664C476.864 246.664 476.029 247.497 476.029 248.523ZM476.358 248.523C476.358 247.682 477.049 246.984 477.901 246.984C478.769 246.984 479.452 247.682 479.452 248.523C479.452 249.39 478.761 250.079 477.901 250.079C477.049 250.079 476.358 249.381 476.358 248.523ZM482.336 320.873C482.336 321.899 483.171 322.74 484.208 322.74C485.237 322.74 486.08 321.891 486.08 320.873C486.08 319.847 485.245 319.006 484.208 319.006C483.171 319.014 482.336 319.847 482.336 320.873ZM482.665 320.873C482.665 320.024 483.356 319.326 484.208 319.326C485.06 319.326 485.751 320.024 485.751 320.873C485.751 321.731 485.06 322.421 484.208 322.421C483.356 322.429 482.665 321.731 482.665 320.873ZM499.437 308.711C499.437 309.737 500.271 310.578 501.3 310.578C502.329 310.578 503.172 309.746 503.172 308.711C503.172 307.685 502.337 306.852 501.3 306.852C500.271 306.852 499.437 307.685 499.437 308.711ZM499.757 308.711C499.757 307.87 500.44 307.172 501.3 307.172C502.152 307.172 502.852 307.87 502.852 308.711C502.852 309.561 502.152 310.259 501.3 310.259C500.44 310.25 499.757 309.552 499.757 308.711ZM479.258 286.271C479.258 287.314 480.093 288.147 481.122 288.147C482.151 288.147 482.994 287.314 482.994 286.271C482.994 285.245 482.159 284.412 481.122 284.412C480.093 284.412 479.258 285.245 479.258 286.271ZM479.579 286.271C479.579 285.422 480.27 284.732 481.122 284.732C481.974 284.732 482.673 285.422 482.673 286.271C482.673 287.137 481.974 287.819 481.122 287.819C480.27 287.819 479.579 287.129 479.579 286.271ZM477.387 263.427C477.387 264.453 478.221 265.286 479.258 265.286C480.287 265.286 481.122 264.453 481.122 263.427C481.122 262.401 480.287 261.56 479.258 261.56C478.221 261.568 477.387 262.401 477.387 263.427ZM477.707 263.427C477.707 262.578 478.407 261.88 479.258 261.88C480.102 261.88 480.802 262.578 480.802 263.427C480.802 264.285 480.102 264.966 479.258 264.966C478.407 264.966 477.707 264.285 477.707 263.427ZM465.742 292.007C465.801 292.108 465.868 292.201 465.919 292.293C466.037 292.26 466.163 292.243 466.298 292.243C467.141 292.243 467.841 292.941 467.841 293.782C467.841 294.337 467.538 294.825 467.099 295.094L467.04 295.489C467.698 295.203 468.162 294.547 468.162 293.782C468.162 292.756 467.327 291.923 466.298 291.923C466.104 291.932 465.919 291.957 465.742 292.007ZM488.829 273.848C488.829 274.874 489.664 275.715 490.701 275.715C491.73 275.715 492.573 274.883 492.573 273.848C492.573 272.822 491.73 271.981 490.701 271.981C489.664 271.973 488.829 272.822 488.829 273.848ZM489.158 273.848C489.158 272.982 489.849 272.301 490.701 272.301C491.569 272.301 492.252 272.99 492.252 273.848C492.252 274.698 491.561 275.387 490.701 275.387C489.849 275.387 489.158 274.698 489.158 273.848ZM536.842 293.782C536.842 294.808 537.676 295.649 538.714 295.649C539.742 295.649 540.586 294.816 540.586 293.782C540.586 292.756 539.751 291.923 538.714 291.923C537.676 291.932 536.842 292.764 536.842 293.782ZM537.171 293.782C537.171 292.941 537.862 292.243 538.714 292.243C539.565 292.243 540.257 292.941 540.257 293.782C540.257 294.631 539.565 295.33 538.714 295.33C537.862 295.33 537.171 294.631 537.171 293.782ZM499.437 325.751H499.765C499.808 324.944 500.474 324.296 501.3 324.296C502.126 324.296 502.801 324.952 502.843 325.76H503.172C503.122 324.767 502.304 323.977 501.3 323.977C500.305 323.977 499.487 324.767 499.437 325.751ZM513.872 296.684C513.872 297.71 514.707 298.551 515.744 298.551C516.773 298.551 517.608 297.718 517.608 296.684C517.608 295.658 516.773 294.825 515.744 294.825C514.707 294.825 513.872 295.666 513.872 296.684ZM514.193 296.684C514.193 295.843 514.893 295.144 515.744 295.144C516.588 295.144 517.288 295.843 517.288 296.684C517.288 297.55 516.588 298.231 515.744 298.231C514.884 298.231 514.193 297.55 514.193 296.684ZM512.928 262.485C512.928 263.511 513.78 264.344 514.808 264.344C515.837 264.344 516.672 263.52 516.672 262.485C516.672 261.451 515.837 260.618 514.808 260.618C513.78 260.618 512.928 261.459 512.928 262.485ZM513.248 262.485C513.248 261.636 513.948 260.938 514.808 260.938C515.652 260.938 516.352 261.636 516.352 262.485C516.352 263.352 515.652 264.024 514.808 264.024C513.948 264.024 513.248 263.343 513.248 262.485ZM546.092 309.914C546.092 310.948 546.943 311.781 547.972 311.781C548.537 311.781 549.043 311.52 549.389 311.117C549.347 310.999 549.304 310.881 549.262 310.755C548.992 311.176 548.52 311.461 547.972 311.461C547.104 311.461 546.421 310.772 546.421 309.914C546.421 309.064 547.112 308.366 547.972 308.366C548.141 308.366 548.301 308.392 548.453 308.442C548.411 308.324 548.368 308.206 548.326 308.08C548.217 308.064 548.099 308.047 547.972 308.047C546.943 308.055 546.092 308.888 546.092 309.914ZM525.762 306.827C525.762 307.87 526.613 308.703 527.634 308.703C528.662 308.703 529.506 307.87 529.506 306.827C529.506 305.801 528.671 304.968 527.634 304.968C526.613 304.968 525.762 305.801 525.762 306.827ZM526.082 306.827C526.082 305.978 526.782 305.288 527.634 305.288C528.485 305.288 529.185 305.978 529.185 306.827C529.185 307.693 528.485 308.375 527.634 308.375C526.782 308.375 526.082 307.685 526.082 306.827ZM496.022 292.251C496.022 293.277 496.856 294.118 497.885 294.118C498.914 294.118 499.765 293.286 499.765 292.251C499.765 291.225 498.914 290.384 497.885 290.384C496.856 290.384 496.022 291.217 496.022 292.251ZM496.342 292.251C496.342 291.402 497.042 290.712 497.885 290.712C498.754 290.712 499.445 291.402 499.445 292.251C499.445 293.101 498.745 293.79 497.885 293.79C497.042 293.782 496.342 293.092 496.342 292.251ZM502.27 232.189C502.573 232.829 503.214 233.274 503.973 233.274C504.083 233.274 504.192 233.266 504.294 233.249C504.15 233.148 504.007 233.047 503.863 232.946H503.855C503.391 232.921 502.987 232.686 502.734 232.332C502.573 232.282 502.422 232.24 502.27 232.189ZM495.077 254.915C495.077 255.942 495.912 256.791 496.958 256.791C497.986 256.791 498.821 255.942 498.821 254.915C498.821 253.889 497.986 253.057 496.958 253.057C495.912 253.065 495.077 253.898 495.077 254.915ZM495.398 254.915C495.398 254.074 496.097 253.376 496.958 253.376C497.801 253.376 498.501 254.074 498.501 254.915C498.501 255.782 497.801 256.471 496.958 256.471C496.089 256.48 495.398 255.782 495.398 254.915Z" fill="white"/>
<path d="M481.805 291.73C485.549 292.117 489.31 292.63 492.969 293.563C494.791 294.026 496.57 294.573 498.349 295.161C499.234 295.456 500.128 295.716 501.03 295.969C501.95 296.229 502.945 296.482 503.906 296.507C503.99 296.507 503.99 296.642 503.906 296.642C502.97 296.667 502.068 296.692 501.14 296.591C500.255 296.499 499.369 296.305 498.501 296.095C496.654 295.641 494.824 295.102 492.986 294.631C489.268 293.681 485.549 292.722 481.771 292.041C481.586 292.007 481.628 291.713 481.805 291.73Z" fill="#263238"/>
<path d="M472.513 295.052C475.591 294.741 478.736 294.564 481.839 294.606C483.399 294.623 484.942 294.732 486.494 294.884C487.236 294.959 487.969 295.044 488.711 295.136C489.521 295.237 490.322 295.447 491.131 295.54C491.216 295.548 491.216 295.683 491.131 295.674C490.364 295.607 489.58 295.674 488.804 295.658C488.028 295.641 487.252 295.615 486.477 295.599C484.925 295.565 483.374 295.54 481.822 295.489C478.711 295.388 475.616 295.313 472.505 295.313C472.336 295.304 472.353 295.069 472.513 295.052Z" fill="#263238"/>
<path d="M498.754 237.724C498.298 239.28 490.246 249.087 483.061 248.372C480.726 248.136 481.451 235.343 481.451 235.343L481.291 234.385L479.022 220.995L495.136 211.835L497.455 210.632C497.455 210.632 497.835 214.342 498.256 218.959C498.282 219.169 498.298 219.388 498.315 219.615C498.349 219.876 498.383 220.12 498.4 220.364C498.475 221.053 498.543 221.76 498.602 222.458C498.644 222.996 498.695 223.509 498.72 224.073C498.762 224.636 498.787 225.183 498.83 225.747C499.108 231.315 498.931 237.059 498.754 237.724Z" fill="#F7A9A0"/>
<path d="M498.256 218.951C493.897 229.288 485.237 233.14 481.282 234.385L479.014 220.995L495.128 211.835L497.447 210.632C497.447 210.624 497.826 214.333 498.256 218.951Z" fill="#263238"/>
<path d="M461.695 197.772C457.006 221.146 470.515 226.588 475.574 227.589C480.161 228.497 495.904 231.012 502.987 208.244C510.07 185.476 500.651 175.913 490.271 173.28C479.874 170.647 466.374 174.399 461.695 197.772Z" fill="#F7A9A0"/>
<path d="M466.324 193.802C466.88 193.886 467.411 193.87 467.968 193.895C468.6 193.92 469.098 194.013 469.663 193.668C469.966 193.483 470.084 192.978 469.933 192.667C469.578 191.944 468.811 191.716 468.052 191.649C467.226 191.582 466.577 191.733 465.894 192.196C465.236 192.658 465.582 193.693 466.324 193.802Z" fill="#263238"/>
<path d="M483.23 198.756C482.716 198.529 482.278 198.226 481.797 197.949C481.249 197.629 480.777 197.436 480.49 196.847C480.338 196.527 480.507 196.04 480.802 195.863C481.485 195.442 482.261 195.661 482.935 196.023C483.669 196.41 484.133 196.889 484.461 197.646C484.773 198.369 483.913 199.059 483.23 198.756Z" fill="#263238"/>
<path d="M478.702 201.692C478.728 201.633 478.812 201.793 478.787 201.86C478.357 203.424 478.138 205.292 479.444 206.158C479.487 206.183 479.461 206.259 479.411 206.242C477.724 205.586 478.053 203.113 478.702 201.692Z" fill="#263238"/>
<path d="M480.516 200.38C483.104 200.792 482.092 205.931 479.689 205.552C477.328 205.174 478.34 200.035 480.516 200.38Z" fill="#263238"/>
<path d="M481.468 200.851C481.865 201.229 482.202 201.826 482.733 201.995C483.349 202.18 483.931 201.734 484.445 201.296C484.496 201.254 484.538 201.305 484.521 201.372C484.344 202.356 483.762 203.298 482.674 203.231C481.679 203.172 481.165 202.163 481.114 201.128C481.097 200.935 481.317 200.699 481.468 200.851Z" fill="#263238"/>
<path d="M469.03 199.589C469.03 199.53 468.887 199.639 468.879 199.707C468.626 201.313 468.069 203.105 466.518 203.365C466.467 203.374 466.459 203.458 466.518 203.458C468.331 203.542 469.047 201.145 469.03 199.589Z" fill="#263238"/>
<path d="M467.917 197.654C465.379 196.973 464.207 202.079 466.551 202.709C468.862 203.332 470.042 198.226 467.917 197.654Z" fill="#263238"/>
<path d="M466.771 197.747C466.307 197.924 465.793 198.327 465.304 198.243C464.739 198.151 464.452 197.503 464.216 196.889C464.191 196.822 464.14 196.855 464.123 196.923C463.87 197.89 463.963 198.983 464.857 199.387C465.675 199.757 466.501 199.059 466.956 198.142C467.032 197.974 466.956 197.671 466.771 197.747Z" fill="#263238"/>
<path d="M475.566 215.738C475.212 216.15 474.866 216.705 474.284 216.806C473.728 216.898 473.045 216.705 472.505 216.554C472.454 216.537 472.404 216.596 472.446 216.646C472.918 217.226 473.837 217.546 474.579 217.344C475.304 217.151 475.608 216.486 475.726 215.805C475.743 215.704 475.616 215.679 475.566 215.738Z" fill="#263238"/>
<path d="M469.764 208.732C469.764 208.732 468.938 211.036 468.702 212.155C468.676 212.256 468.938 212.365 469.317 212.466C469.334 212.474 469.342 212.483 469.359 212.474C471.273 213.198 473.415 212.929 474.958 211.566C475.059 211.473 474.941 211.331 474.823 211.373C473.12 212.146 471.425 212.087 469.663 211.751C469.646 211.423 471.214 207.848 471.037 207.798C470.439 207.621 469.14 207.781 468.364 207.84C469.95 202.987 472.294 198.437 473.803 193.584C473.854 193.407 473.609 193.306 473.525 193.449C470.725 198.05 468.777 203.593 467.015 208.555C466.788 209.186 469.275 208.832 469.764 208.732Z" fill="#263238"/>
<path d="M469.621 212.23C469.621 212.23 470.346 213.963 471.703 214.863C472.201 215.2 472.774 215.418 473.44 215.41C474.798 215.393 475.118 214.232 475.135 213.181C475.152 212.315 474.941 211.516 474.941 211.516C474.941 211.516 472.648 212.777 469.621 212.23Z" fill="#263238"/>
<path d="M471.704 214.855C472.201 215.191 472.774 215.41 473.441 215.401C474.798 215.385 475.119 214.224 475.136 213.172C473.736 212.971 472.151 213.559 471.704 214.855Z" fill="#FF99BA"/>
<path d="M497.261 173.221C497.666 175.223 507.936 178.697 514.083 172.573C520.129 166.543 515.896 156.66 506.646 159.007C500.794 160.479 496.41 168.99 497.261 173.221Z" fill="#263238"/>
<path d="M516.251 162.985C514.851 160.596 512.616 158.847 510.196 157.922C507.751 156.988 505.044 157.341 503.054 158.939C500.98 160.47 499.58 162.825 498.577 165.281C498.088 166.526 497.708 167.83 497.455 169.159C497.177 170.488 497.025 171.85 497.253 173.221C496.688 171.934 496.68 170.471 496.713 169.075C496.798 167.67 497.034 166.265 497.447 164.903C498.282 162.203 499.74 159.545 502.127 157.737C503.316 156.854 504.766 156.198 506.284 156.063C507.802 155.92 509.319 156.223 510.643 156.845C513.299 158.056 515.39 160.336 516.251 162.985Z" fill="#263238"/>
<path d="M500.061 210.338C495.179 209.102 497.666 197.882 497.666 197.882C497.666 197.882 489.774 194.357 487.699 187.932C487.699 187.932 488.812 193.331 491.57 196.107C492.033 196.57 475.641 190.842 477.168 177.628C477.168 177.628 471.636 189.706 463.347 190.455C462.951 190.488 467.26 179.193 470.38 177.073C473.5 174.962 476.189 174.104 476.189 174.104C476.189 174.104 484.959 169.815 494.909 173.793C504.859 177.771 508.999 190.211 508.712 194.828C508.13 203.912 502.371 210.918 500.061 210.338Z" fill="#263238"/>
<path d="M490.962 196.25C481.898 193.651 476.021 186.064 477.513 176.543C477.547 176.308 477.193 176.224 477.108 176.442C473.575 185.61 482.168 195.022 491.005 196.427C491.224 196.469 491.182 196.309 490.962 196.25Z" fill="#263238"/>
<path d="M500.162 209.817C495.811 206.082 496.233 200.918 497.076 195.779C497.101 195.628 496.848 195.56 496.806 195.712C495.533 200.649 494.968 206.932 499.876 210.187C500.137 210.355 500.39 210.01 500.162 209.817Z" fill="#263238"/>
<path d="M477.547 175.669C477.556 175.61 477.471 175.593 477.454 175.643C475.077 180.606 472.716 189.378 465.675 189.084C465.489 189.075 465.455 189.345 465.641 189.37C472.37 190.261 476.949 181.253 477.547 175.669Z" fill="#263238"/>
<path d="M499.184 197.655L501.992 202.6L509.092 196.544L507.802 194.349L499.184 197.655ZM501.309 198.479L506.992 195.939L507.279 196.46L502.329 200.203L501.309 198.479Z" fill="#C63031"/>
<path d="M497.953 190.177L498.687 195.813L507.557 192.877L507.186 190.362L497.953 190.177ZM499.614 191.742L505.837 191.531L505.913 192.12L499.909 193.727L499.614 191.742Z" fill="#C63031"/>
<path d="M498.897 209.304C498.897 209.304 504.909 202.482 508.063 204.703C511.225 206.923 506.132 217.21 502.017 218.236C497.902 219.262 496.874 215.486 496.874 215.486L498.897 209.304Z" fill="#F7A9A0"/>
<path d="M506.528 207.613C506.596 207.613 506.596 207.705 506.537 207.722C503.644 208.538 501.899 210.935 500.583 213.475C501.519 212.542 502.708 212.113 503.965 213.24C504.032 213.299 503.948 213.408 503.872 213.383C502.767 213.013 501.924 213.122 501.056 213.938C500.44 214.518 499.976 215.292 499.513 215.99C499.352 216.226 498.922 216.041 499.049 215.763C499.057 215.746 499.066 215.721 499.083 215.704C499.403 212.172 502.7 207.546 506.528 207.613Z" fill="#263238"/>
<path d="M513.755 238.296C530.56 252.67 572.982 308.896 562.645 321.277C552.231 333.75 486.376 325.852 467.37 319.275C461.72 317.315 478.399 281.662 484.622 280.182C489.799 278.954 518.03 288.222 518.637 286.599C519.32 284.757 511.976 274.26 502.92 251.694C492.464 225.688 506.335 231.945 513.755 238.296Z" fill="#F7A9A0"/>
<path d="M456.736 272.368C443.481 272.006 440.024 273.941 429.003 267.708C421.768 263.621 416.051 266.472 420.723 273.722C428.371 285.59 445.37 289.644 451.669 289.349L456.736 272.368Z" fill="#F7A9A0"/>
<path d="M492.801 281.056C492.801 281.056 477.235 274.563 463.145 272.78C453.406 271.544 431.921 271.224 413.969 294.329C409.71 299.812 407.543 310.629 417.755 304.195C425.006 299.627 428.228 294.539 432.933 292.655C432.933 292.655 431.811 306.743 437.478 310.789C440.016 312.597 447.048 317.357 453.052 320.293C453.052 320.293 454.047 319.157 455.092 317.543C455.092 317.543 460.75 320.814 470.481 318.796L492.801 281.056Z" fill="#F7A9A0"/>
<path d="M453.667 273.083C449.392 275.943 440.446 282.158 434.897 289.787C428.733 298.257 419.146 316.23 425.462 320.705C430.091 323.985 434.358 317.442 434.358 317.442C434.358 317.442 431.963 325.701 436.795 327.753C441.196 329.62 444.19 324.364 444.19 324.364C444.19 324.364 443.599 329.62 448.195 330.613C453.718 331.799 454.038 320.579 460.674 316.962C462.159 316.146 453.667 273.083 453.667 273.083Z" fill="#F7A9A0"/>
<path d="M444.949 294.791C441.373 298.139 435.21 307.82 434.257 317.248C434.231 317.458 434.383 317.593 434.451 317.4C437.705 307.239 442.689 298.45 445.033 294.85C445.058 294.8 444.991 294.749 444.949 294.791Z" fill="#263238"/>
<path d="M453.339 301.242C450.556 304.447 444.645 314.708 444.013 324.296C443.996 324.507 444.156 324.633 444.215 324.439C447.183 313.69 451.307 305.036 453.432 301.301C453.457 301.251 453.381 301.2 453.339 301.242Z" fill="#263238"/>
<path d="M432.916 292.562C428.801 294.287 426.271 296.675 422.957 299.552C421.321 300.982 419.652 302.386 417.864 303.623C416.237 304.75 413.842 306.449 411.827 305.187C410.705 304.489 410.562 303 410.655 301.806C410.764 300.469 411.127 299.148 411.785 297.97C411.818 297.912 411.717 297.853 411.683 297.912C411.068 298.963 410.562 300.056 410.275 301.242C410.014 302.31 409.845 303.538 410.258 304.598C411.144 306.869 413.943 306.869 415.832 306.011C416.962 305.498 417.999 304.75 419.003 304.026C419.964 303.32 420.9 302.571 421.811 301.797C423.682 300.208 425.453 298.517 427.308 296.911C429.34 295.144 430.782 294.228 433 292.705C433.076 292.646 433 292.529 432.916 292.562Z" fill="#263238"/>
<path d="M425.672 308.476C426.499 305.936 431.339 295.203 433.008 292.655C433.051 292.588 432.966 292.52 432.907 292.579C429.939 296.078 425.546 304.994 424.602 307.803C423.666 310.578 422.628 314.102 422.957 317.038C423.455 321.47 426.49 321.983 427.603 322.076C428.936 322.194 430.217 321.773 431.314 321.041C432.536 320.226 433.641 318.695 434.383 317.45C434.425 317.383 434.332 317.307 434.29 317.374C432.949 319.292 430.58 321.302 428.126 321.252C427.064 321.226 425.951 320.873 425.217 320.074C424.349 319.141 424.146 317.812 424.112 316.584C424.045 313.817 424.821 311.083 425.672 308.476Z" fill="#263238"/>
<path d="M444.013 324.296C443.456 324.894 442.385 326.87 440.404 327.493C438.953 327.947 437.393 327.98 436.137 327.03C434.906 326.096 434.324 324.658 434.088 323.178C433.953 322.337 434.223 318.628 434.4 317.5C434.417 317.408 434.299 317.383 434.282 317.467C433.86 319.494 433.405 321.697 433.616 323.615C433.793 325.213 434.493 326.862 435.808 327.846C437.174 328.863 439.038 329.065 440.564 328.292C441.323 327.905 443.642 326.029 444.198 324.372C444.207 324.33 444.038 324.271 444.013 324.296Z" fill="#263238"/>
<path d="M460.16 316.214C459.511 316.701 458.971 317.383 458.457 318.005C457.9 318.67 457.369 319.359 456.855 320.066C455.818 321.462 454.966 323.026 454.249 324.608C453.516 326.214 452.883 327.98 451.534 329.183C450.219 330.369 448.262 330.748 446.686 329.839C445.859 329.368 445.261 328.636 444.915 327.762C444.561 326.862 444.266 325.743 444.291 324.767C444.291 324.683 444.164 324.675 444.173 324.767C444.207 325.709 444.046 326.601 444.257 327.535C444.443 328.359 444.814 329.149 445.387 329.772C446.576 331.042 448.465 331.454 450.109 330.958C451.93 330.411 453.136 328.872 453.971 327.249C454.907 325.449 455.632 323.556 456.652 321.798C457.184 320.873 457.715 319.94 458.314 319.048C458.938 318.123 459.713 317.273 460.278 316.315C460.32 316.247 460.244 316.146 460.16 316.214Z" fill="#263238"/>
<path d="M465.784 319.41C464.376 319.443 461.096 319.267 458.465 318.72C458.389 318.703 458.305 318.922 458.381 318.956C459.384 319.368 461.425 319.67 462.04 319.729C463.263 319.839 464.578 319.805 465.784 319.544C465.852 319.527 465.869 319.41 465.784 319.41Z" fill="#263238"/>
<path d="M544.237 295.615C540.207 293.479 535.965 291.73 531.673 290.19C527.423 288.668 523.022 287.617 518.595 286.734C516.065 286.229 513.519 285.851 510.972 285.455C510.896 285.447 510.88 285.565 510.955 285.573C515.408 286.389 519.818 287.592 524.143 288.912C528.452 290.224 532.736 291.612 537.002 293.084C539.414 293.916 541.783 294.859 544.161 295.775C544.279 295.826 544.338 295.666 544.237 295.615Z" fill="#263238"/>
<path d="M548.723 272.713L512.144 275.556C512.144 275.556 503.358 258.364 498.998 242.686C494.639 227.008 508.29 230.432 523.873 246C539.464 261.568 548.723 272.713 548.723 272.713Z" fill="#C63031"/>
<path d="M513.628 275.261C513.434 275.278 512.127 275.202 512.119 275.202C511.976 274.731 509.058 267.464 508.333 265.892C506.849 262.687 505.171 259.567 503.552 256.438C503.501 256.337 503.349 256.404 503.392 256.505C504.53 259.23 505.618 261.972 506.773 264.689C506.478 264.319 506.174 263.949 505.888 263.57C505.297 262.788 504.774 261.972 504.218 261.173C504.167 261.097 504.058 261.173 504.091 261.249C504.581 262.393 505.306 263.444 506.073 264.411C506.402 264.832 506.781 265.219 507.161 265.589C507.262 265.816 507.355 266.043 507.456 266.27C508.156 267.851 511.731 275.673 511.866 275.673C511.9 275.673 513.223 275.556 513.628 275.514C513.721 275.505 513.729 275.253 513.628 275.261Z" fill="#263238"/>
<path d="M542.036 266.329C534.11 266.615 526.192 267.456 518.316 268.448C516.09 268.726 513.864 269.062 511.647 269.449C511.588 269.458 511.579 269.55 511.647 269.55C515.601 269.323 519.548 268.936 523.494 268.575C527.448 268.213 531.412 267.809 535.358 267.338C537.584 267.069 539.81 266.8 542.036 266.489C542.137 266.463 542.137 266.329 542.036 266.329Z" fill="#263238"/>
<path d="M192.068 328.737H98.3105V332.934H192.068V328.737Z" fill="#455A64"/>
<path d="M145.505 328.737H98.3105V332.934H145.505V328.737Z" fill="#263238"/>
<path d="M144.409 332.926H235.788L248.698 271.022H157.319L144.409 332.926Z" fill="#37474F"/>
<path d="M189.471 303.353C189.117 306.709 191.553 309.426 194.918 309.426C198.282 309.426 201.293 306.709 201.647 303.353C202.001 299.998 199.564 297.281 196.2 297.281C192.835 297.281 189.825 299.998 189.471 303.353Z" fill="white"/>
<path d="M485.996 327.972H392.239V332.169H485.996V327.972Z" fill="#455A64"/>
<path d="M486.004 327.972H438.81V332.169H486.004V327.972Z" fill="#263238"/>
<path d="M439.906 332.161H348.526L335.617 270.257H426.996L439.906 332.161Z" fill="#37474F"/>
<path d="M394.844 302.588C395.198 305.944 392.761 308.661 389.397 308.661C386.032 308.661 383.022 305.944 382.668 302.588C382.314 299.232 384.751 296.515 388.115 296.515C391.48 296.515 394.49 299.232 394.844 302.588Z" fill="white"/>
<path d="M187.346 94.4032C195.905 117.239 184.285 142.698 161.383 151.235C152.133 154.684 142.453 154.843 133.616 152.295L115.243 165.046L116.626 143.026C111.305 138.383 107.047 132.386 104.407 125.347C95.8402 102.511 107.468 77.0516 130.37 68.5146C153.272 59.9608 178.787 71.5594 187.346 94.4032Z" fill="white"/>
<path d="M187.346 94.4032C190.12 102.032 191.005 110.417 189.353 118.416C189.066 120.435 188.358 122.361 187.818 124.329C187.042 126.213 186.41 128.156 185.398 129.939C183.61 133.606 181.224 136.97 178.492 139.998C175.811 143.102 172.505 145.591 169.09 147.837C167.303 148.846 165.557 149.923 163.635 150.68C161.771 151.555 159.84 152.27 157.867 152.833C149.958 155.129 141.407 155.155 133.439 152.917L133.979 152.825L115.689 165.693L114.366 166.627L114.458 165.004L115.765 142.976L116.06 143.674C105.621 134.775 99.9971 120.805 100.908 107.23C101.355 100.442 103.37 93.7724 106.734 87.8848C110.09 81.9804 114.888 76.9423 120.487 73.1574C126.095 69.381 132.545 66.8577 139.232 65.9073C145.919 64.9821 152.782 65.6129 159.182 67.6651C172.084 71.6014 182.691 81.8626 187.346 94.4032ZM187.346 94.4032C182.607 81.8963 171.94 71.7528 159.107 67.9175C152.715 65.983 145.91 65.4952 139.333 66.5129C132.764 67.5642 126.466 70.1632 121.052 73.948C115.647 77.7497 111.069 82.7374 107.906 88.524C104.761 94.3107 102.898 100.762 102.493 107.314C102.021 113.883 103.37 120.468 105.815 126.541C108.37 132.58 112.283 138.03 117.199 142.379L117.519 142.665L117.494 143.085L116.035 165.105L114.804 164.415L133.262 151.782L133.515 151.605L133.802 151.689C141.5 153.994 149.848 154.128 157.648 152.009C159.596 151.487 161.51 150.815 163.348 149.99C165.245 149.284 166.991 148.249 168.77 147.29C172.176 145.137 175.49 142.74 178.188 139.712C180.946 136.76 183.4 133.471 185.179 129.83C186.199 128.072 186.831 126.129 187.624 124.27C188.172 122.319 188.889 120.409 189.192 118.399C190.896 110.426 190.069 102.049 187.346 94.4032Z" fill="#263238"/>
<path d="M175.668 110.922C175.668 113.95 173.214 116.397 170.178 116.397C168.475 116.397 166.949 115.607 165.937 114.396C165.414 113.765 164.672 113.37 163.854 113.37C163.137 113.37 162.471 113.664 161.991 114.135C161.518 114.614 161.223 115.279 161.223 115.994V129.72H147.47C146.012 129.72 144.84 128.543 144.84 127.096C144.84 126.289 145.227 125.54 145.851 125.035C147.082 124.035 147.858 122.495 147.858 120.796C147.858 117.768 145.404 115.321 142.377 115.321C139.35 115.321 136.888 117.768 136.888 120.796C136.888 122.495 137.681 124.035 138.895 125.035C139.527 125.548 139.924 126.297 139.924 127.096C139.924 127.828 139.628 128.475 139.156 128.955C138.676 129.426 138.009 129.72 137.293 129.72H123.548V92.1322H137.293C138.743 92.1322 139.924 93.3013 139.924 94.7564C139.924 95.5639 139.527 96.3124 138.895 96.8171C137.672 97.818 136.888 99.3403 136.888 101.056C136.888 104.084 139.35 106.532 142.377 106.532C145.404 106.532 147.858 104.084 147.858 101.056C147.858 99.3487 147.082 97.818 145.851 96.8171C145.219 96.304 144.84 95.5554 144.84 94.7564C144.84 94.0331 145.135 93.3686 145.607 92.8976C146.079 92.4266 146.737 92.1322 147.47 92.1322H161.223V105.85C161.223 107.305 162.404 108.474 163.854 108.474C164.672 108.474 165.414 108.088 165.937 107.465C166.94 106.237 168.466 105.463 170.178 105.463C173.214 105.455 175.668 107.903 175.668 110.922Z" fill="#C63031"/>
<path d="M396.969 94.4032C388.41 117.239 400.03 142.698 422.931 151.235C432.182 154.684 441.862 154.843 450.699 152.295L469.072 165.046L467.689 143.026C473.01 138.383 477.268 132.386 479.908 125.347C488.475 102.511 476.847 77.0516 453.945 68.5146C431.043 59.9608 405.527 71.5594 396.969 94.4032Z" fill="white"/>
<path d="M425.124 67.6483C431.515 65.5961 438.388 64.9737 445.074 65.8904C451.761 66.8409 458.212 69.3641 463.819 73.1406C469.41 76.9339 474.207 81.972 477.572 87.868C480.936 93.7639 482.96 100.425 483.399 107.213C484.309 120.788 478.685 134.758 468.246 143.657L468.541 142.959L469.848 164.987L469.941 166.61L468.617 165.677L450.328 152.808L450.867 152.9C442.907 155.138 434.349 155.113 426.439 152.816C424.458 152.244 422.535 151.53 420.672 150.663C418.758 149.915 417.004 148.83 415.216 147.82C411.801 145.575 408.496 143.085 405.814 139.981C403.074 136.954 400.696 133.589 398.908 129.922C397.896 128.147 397.272 126.196 396.488 124.312C395.957 122.344 395.24 120.426 394.954 118.399C393.301 110.401 394.186 102.015 396.96 94.3863C401.623 81.8626 412.231 71.6014 425.124 67.6483ZM395.122 118.374C395.426 120.384 396.143 122.293 396.691 124.245C397.483 126.112 398.116 128.046 399.136 129.804C400.924 133.446 403.369 136.743 406.126 139.687C408.833 142.715 412.147 145.12 415.545 147.265C417.324 148.232 419.061 149.259 420.967 149.965C422.813 150.789 424.719 151.462 426.667 151.984C434.458 154.095 442.815 153.969 450.513 151.664L450.8 151.58L451.053 151.757L469.511 164.39L468.28 165.079L466.821 143.06L466.796 142.639L467.116 142.353C472.032 138.013 475.953 132.563 478.499 126.516C480.945 120.443 482.294 113.857 481.822 107.289C481.417 100.737 479.545 94.2854 476.408 88.4988C473.246 82.7121 468.668 77.7245 463.263 73.9228C457.841 70.1295 451.55 67.5306 444.982 66.4876C438.405 65.4699 431.6 65.9577 425.208 67.8922C412.366 71.7276 401.708 81.871 396.969 94.3779C394.245 102.049 393.419 110.426 395.122 118.374Z" fill="#263238"/>
<path d="M408.353 110.93C408.353 107.903 410.806 105.455 413.842 105.455C415.545 105.455 417.071 106.246 418.083 107.457C418.606 108.088 419.348 108.483 420.166 108.483C420.883 108.483 421.549 108.189 422.029 107.718C422.502 107.238 422.797 106.574 422.797 105.859V92.1322H436.55C438.008 92.1322 439.181 93.3098 439.181 94.7564C439.181 95.5639 438.793 96.3124 438.169 96.8171C436.938 97.818 436.162 99.3571 436.162 101.056C436.162 104.084 438.616 106.532 441.643 106.532C444.67 106.532 447.132 104.084 447.132 101.056C447.132 99.3571 446.339 97.818 445.125 96.8171C444.493 96.304 444.096 95.5554 444.096 94.7564C444.096 94.0331 444.392 93.377 444.864 92.8976C445.344 92.4266 446.011 92.1322 446.727 92.1322H460.472V129.72H446.727C445.277 129.72 444.096 128.551 444.096 127.096C444.096 126.289 444.493 125.54 445.125 125.035C446.348 124.035 447.132 122.512 447.132 120.796C447.132 117.768 444.67 115.321 441.643 115.321C438.616 115.321 436.162 117.768 436.162 120.796C436.162 122.504 436.938 124.035 438.169 125.035C438.801 125.548 439.181 126.297 439.181 127.096C439.181 127.828 438.885 128.484 438.413 128.955C437.941 129.426 437.283 129.72 436.55 129.72H422.797V116.002C422.797 114.547 421.616 113.378 420.166 113.378C419.348 113.378 418.606 113.765 418.083 114.387C417.08 115.615 415.554 116.389 413.842 116.389C410.806 116.397 408.353 113.95 408.353 110.93Z" fill="#C63031"/>
<path d="M264.466 43.4841C245.359 58.6993 242.231 86.4887 257.484 105.548C263.648 113.252 271.87 118.341 280.766 120.679L289.965 141.033L300.117 121.427C307.074 120.166 313.82 117.205 319.705 112.512C338.813 97.2966 341.941 69.5072 326.687 50.4483C311.442 31.3894 283.574 28.2773 264.466 43.4841Z" fill="white"/>
<path d="M302.402 34.9554C308.946 36.4694 315.16 39.4552 320.422 43.669C325.667 47.9081 329.908 53.3751 332.775 59.4898C335.625 65.6045 337.151 72.392 336.991 79.1712C336.848 85.9503 335.145 92.7042 332.033 98.76C325.827 110.872 313.811 119.981 300.269 122.268L300.876 121.814L290.656 141.386L289.906 142.833L289.248 141.352L280.184 120.939L280.605 121.293C272.62 119.131 265.293 114.724 259.694 108.71C258.285 107.213 257.004 105.606 255.857 103.907C254.601 102.284 253.648 100.459 252.636 98.6759C250.857 95.0004 249.305 91.1734 248.605 87.1362C247.813 83.1411 247.501 79.0282 247.855 74.9658C247.905 72.9219 248.369 70.9286 248.664 68.91C249.221 66.9502 249.6 64.94 250.393 63.056C253.091 55.3517 258.167 48.6062 264.475 43.484C274.922 35.1068 289.307 31.7425 302.402 34.9554ZM250.545 63.1149C249.769 64.9989 249.398 67.0007 248.867 68.9604C248.58 70.9706 248.133 72.9556 248.099 74.991C247.754 79.0366 248.158 83.1074 249.01 87.0605C249.769 91.0473 251.38 94.8069 253.192 98.3899C254.221 100.131 255.182 101.906 256.447 103.487C257.602 105.144 258.901 106.691 260.301 108.138C265.9 113.942 273.134 118.113 280.926 120.073L281.212 120.149L281.339 120.426L290.673 140.722L289.265 140.688L299.35 121.049L299.544 120.679L299.966 120.603C306.425 119.392 312.589 116.726 317.884 112.848C323.103 108.887 327.657 103.933 330.633 98.0535C333.66 92.2248 335.381 85.7316 335.659 79.1543C335.929 72.5687 334.563 65.9409 331.881 59.9104C329.183 53.8798 325.119 48.4296 320.026 44.1653C314.907 39.9178 308.819 36.8563 302.335 35.2414C289.341 31.9528 274.973 35.1993 264.466 43.5008C258.193 48.6483 253.176 55.419 250.545 63.1149Z" fill="#263238"/>
<path d="M310.303 59.6076V73.3256C310.303 74.7723 309.123 75.9498 307.672 75.9498C306.863 75.9498 306.113 75.5629 305.598 74.9321C304.595 73.7041 303.06 72.9303 301.357 72.9303C298.321 72.9303 295.867 75.3779 295.867 78.3974C295.867 81.4169 298.321 83.8644 301.357 83.8644C303.069 83.8644 304.595 83.0822 305.598 81.8626C306.113 81.2318 306.863 80.8449 307.672 80.8449C309.123 80.8449 310.303 82.0224 310.303 83.4691V97.1872H296.55C295.1 97.1872 293.92 98.3647 293.92 99.8113C293.92 100.619 294.307 101.367 294.94 101.88C296.171 102.881 296.947 104.412 296.947 106.111C296.947 109.139 294.493 111.587 291.466 111.587C288.439 111.587 285.985 109.139 285.985 106.111C285.985 104.404 286.769 102.881 287.992 101.88C288.624 101.367 289.012 100.619 289.012 99.8113C289.012 98.3647 287.832 97.1872 286.381 97.1872H272.628V83.4775C272.628 82.0308 273.809 80.8533 275.259 80.8533C276.069 80.8533 276.819 81.2402 277.334 81.871C278.337 83.099 279.872 83.8728 281.575 83.8728C284.611 83.8728 287.064 81.4253 287.064 78.4058C287.064 75.3863 284.611 72.9387 281.575 72.9387C279.863 72.9387 278.337 73.7209 277.334 74.9405C276.819 75.5713 276.069 75.9582 275.259 75.9582C273.809 75.9582 272.628 74.7807 272.628 73.334V59.6076H286.381C287.832 59.6076 289.012 58.43 289.012 56.9834C289.012 56.1759 288.624 55.4274 287.992 54.9143C286.761 53.9134 285.985 52.3827 285.985 50.6837C285.985 47.6558 288.439 45.2082 291.466 45.2082C294.493 45.2082 296.947 47.6558 296.947 50.6837C296.947 52.3911 296.163 53.9134 294.94 54.9143C294.307 55.4274 293.92 56.1759 293.92 56.9834C293.92 58.43 295.1 59.6076 296.55 59.6076H310.303Z" fill="#37474F"/>
<path d="M339.993 259.054C329.883 272.713 319.334 288.576 316.762 305.708C316.728 305.969 317.15 306.053 317.209 305.793C318.381 301.091 319.865 296.532 321.678 292.075C328.331 290.249 334.858 288.752 338.348 282.167C341.907 275.396 341.46 266.573 340.777 259.205C340.735 258.81 340.204 258.793 339.993 259.054Z" fill="#C63031"/>
<path d="M321.788 291.948C326.333 281.78 332.168 271.569 339.58 263.2C339.63 263.141 339.706 263.225 339.664 263.284C334.807 269.239 331.122 275.724 327.522 282.326C330.869 278.937 334.537 275.9 337.716 272.301C337.775 272.233 337.876 272.334 337.817 272.402C334.664 276.17 331.223 280.266 327.125 283.058C326.021 285.085 324.916 287.112 323.786 289.148C324.065 288.996 324.343 288.853 324.63 288.719C324.68 288.693 324.722 288.769 324.672 288.794C324.36 288.954 324.048 289.122 323.727 289.257C323.196 290.216 322.665 291.183 322.117 292.142C321.99 292.344 321.687 292.159 321.788 291.948Z" fill="#263238"/>
<path d="M325.169 288.399C327.876 286.851 330.49 285.186 332.935 283.226C333.003 283.176 333.096 283.268 333.028 283.319C330.633 285.337 328.078 287.154 325.279 288.584C325.153 288.651 325.043 288.466 325.169 288.399Z" fill="#263238"/>
<path d="M315.599 303.16C315.616 303.37 315.97 303.362 315.97 303.143C316.02 297.5 315.978 291.831 316.063 286.162C317.513 283.243 320.624 281.628 322.783 279.29C324.343 277.599 325.675 275.699 326.814 273.688C329.487 268.911 330.937 263.545 331.493 258.12C332.092 252.081 329.799 232.164 327.244 232.862C325.92 233.224 321.636 243.081 320.506 246.345C318.643 251.711 317.336 257.27 316.484 262.881C314.41 276.161 314.587 289.795 315.599 303.16Z" fill="#C63031"/>
<path d="M315.557 278.819C315.565 278.811 315.574 278.802 315.582 278.794C315.894 271.653 317.505 264.445 319.014 257.523C320.641 250.062 322.539 243.039 326.392 236.386C326.468 236.26 326.645 236.37 326.586 236.496C323.964 241.643 322.092 247.11 320.658 252.72C320.92 252.317 321.232 251.938 321.493 251.56C321.603 251.408 321.847 251.551 321.746 251.703C321.366 252.266 321.029 252.922 320.54 253.393C320.523 253.41 320.506 253.41 320.49 253.418C319.166 258.751 318.213 264.201 317.403 269.643C317.462 269.576 317.521 269.5 317.58 269.433C317.623 269.391 317.69 269.441 317.665 269.5C317.564 269.676 317.454 269.862 317.344 270.038C316.931 272.797 316.552 275.556 316.172 278.289C321.105 274.084 325.313 269.13 327.682 263.032C327.691 263.007 327.741 263.015 327.733 263.049C325.405 269.382 321.738 275.009 316.096 278.844C315.995 279.584 315.894 280.316 315.784 281.048C315.759 281.199 315.523 281.157 315.523 281.014C315.523 280.367 315.557 279.711 315.582 279.063C315.506 278.996 315.472 278.886 315.557 278.819Z" fill="#263238"/>
<path d="M317.875 268.474C321.645 262.864 325.161 257.422 327.918 251.223C327.952 251.156 328.07 251.206 328.045 251.274C325.726 257.43 322.471 263.671 318.069 268.617C317.977 268.718 317.799 268.591 317.875 268.474Z" fill="#263238"/>
<path d="M322.884 249.835C324.444 247.085 326.088 244.402 327.555 241.593C327.598 241.517 327.707 241.584 327.674 241.66C326.442 244.528 324.967 247.447 323.12 249.978C323.019 250.121 322.791 249.995 322.884 249.835Z" fill="#263238"/>
<path d="M322.277 251.038C322.311 251.038 322.311 251.089 322.277 251.089C322.244 251.08 322.244 251.038 322.277 251.038Z" fill="#263238"/>
<path d="M311.77 286.843C311.678 290.586 311.273 294.32 310.446 297.962C310.506 298.366 310.565 298.761 310.624 299.182C311.804 295.128 312.42 290.981 312.614 286.793C312.681 286.675 312.706 286.549 312.63 286.406C312.63 286.406 312.63 286.406 312.63 286.397C312.841 280.804 312.327 275.143 311.382 269.609C309.629 259.239 305.8 249.289 298.557 241.517C298.329 241.281 297.866 241.399 297.756 241.685C294.83 249.104 295.85 257.96 298.346 265.362C299.704 269.348 301.635 273.175 304.097 276.607C306.576 280.081 309.747 283.033 311.77 286.843Z" fill="#C63031"/>
<path d="M299.409 244.982C306.281 256.11 311.062 269.298 311.644 282.436C311.652 282.671 311.264 282.73 311.231 282.495C311.07 281.317 310.885 280.148 310.699 278.979C310.699 278.979 310.691 278.979 310.691 278.97C307.849 276.254 304.932 273.386 302.891 269.996C302.858 269.937 302.942 269.87 302.992 269.92C305.463 272.738 307.774 275.631 310.565 278.146C310.075 275.244 309.494 272.385 308.802 269.567C308.617 269.357 308.44 269.138 308.263 268.928C308.145 268.785 308.338 268.583 308.465 268.726C308.516 268.785 308.575 268.844 308.634 268.911C307.664 265.042 306.475 261.257 305.042 257.531C303.296 255.454 301.34 253.654 300.067 251.147C300.033 251.089 300.117 251.038 300.159 251.097C301.18 252.527 302.175 253.973 303.338 255.302C303.802 255.832 304.308 256.328 304.789 256.842C303.229 252.872 301.374 248.977 299.164 245.142C299.046 244.957 299.308 244.814 299.409 244.982Z" fill="#263238"/>
<path d="M300.8 258.7C303.018 261.678 305.556 264.529 307.613 267.607C307.672 267.7 307.546 267.784 307.47 267.717C304.814 265.236 302.571 261.846 300.648 258.784C300.589 258.692 300.733 258.616 300.8 258.7Z" fill="#263238"/>
<path d="M307.925 268.297L308.017 268.389C308.084 268.456 307.983 268.557 307.916 268.49L307.824 268.398C307.757 268.331 307.866 268.23 307.925 268.297Z" fill="#263238"/>
<path d="M288.649 266.363C289.198 272.082 292.216 278.92 295.901 283.327C297.529 285.279 299.51 286.767 301.778 287.903C304.325 289.156 306.989 290.603 309.629 291.637C310.86 294.774 311.804 298.055 312.403 301.478C312.487 301.192 312.571 300.889 312.656 300.603C310.961 286.111 301.568 273.731 289.543 265.782C289.113 265.505 288.599 265.875 288.649 266.363Z" fill="#C63031"/>
<path d="M292.798 270.644C292.714 270.568 292.832 270.417 292.916 270.484C299.291 275.194 305.033 282.057 308.237 289.316C308.322 289.518 308.052 289.686 307.942 289.492C307.386 288.517 306.812 287.566 306.23 286.633H306.222C303.482 286.12 300.876 284.194 298.844 282.36C298.785 282.31 298.869 282.234 298.928 282.276C299.991 283.209 301.129 284.067 302.402 284.707C303.524 285.27 304.721 285.632 305.893 286.086C304.873 284.48 303.819 282.932 302.706 281.435C299.755 280.434 296.938 278.626 294.459 276.809C294.383 276.75 294.451 276.624 294.535 276.674C297.065 278.197 299.561 279.534 302.2 280.762C300.539 278.567 298.734 276.481 296.786 274.471C295.85 273.983 294.906 273.487 294.004 272.957C293.928 272.915 293.979 272.788 294.063 272.814C294.78 273.049 295.513 273.428 296.196 273.857C295.117 272.78 293.995 271.695 292.798 270.644Z" fill="#263238"/>
<path d="M293.059 275.648C293.228 275.758 293.371 275.85 293.523 275.977C293.565 276.019 293.515 276.069 293.464 276.053C293.287 275.977 293.144 275.884 292.983 275.783C292.891 275.724 292.975 275.589 293.059 275.648Z" fill="#263238"/>
<path d="M331.417 332.867H298.473L301.137 302.941L301.719 296.339H328.179L328.761 302.941L331.417 332.867Z" fill="#455A64"/>
<path d="M328.761 302.941H301.137L301.719 296.339H328.179L328.761 302.941Z" fill="#263238"/>
<path d="M329.756 291.721H300.142V298.256H329.756V291.721Z" fill="#455A64"/>
</g>
<defs>
<clipPath id="clip0_43_3858">
<rect width="534" height="332.926" fill="white" transform="translate(32)"/>
</clipPath>
</defs>
</svg>
