<svg width="32" height="32" viewBox="0 0 32 32" fill="none" xmlns="http://www.w3.org/2000/svg">
<path d="M28.83 6.16995C28.4586 5.79842 28.0176 5.5037 27.5322 5.30263C27.0469 5.10155 26.5266 4.99806 26.0013 4.99806C25.4759 4.99806 24.9557 5.10155 24.4703 5.30263C23.985 5.5037 23.544 5.79842 23.1725 6.16995C22.9208 6.42157 22.7038 6.70576 22.5275 7.01495L19 6.05245C19.0109 5.25665 18.7842 4.47569 18.3488 3.80947C17.9134 3.14324 17.2892 2.62204 16.5559 2.31254C15.8227 2.00303 15.0138 1.9193 14.2327 2.07204C13.4517 2.22477 12.7339 2.60705 12.1713 3.16995C11.5705 3.77212 11.177 4.54981 11.0475 5.39048C10.9181 6.23116 11.0595 7.09122 11.4513 7.8462L7.20878 11.665C6.43905 11.1562 5.51731 10.9287 4.59927 11.021C3.68123 11.1132 2.82316 11.5195 2.17003 12.1712C1.43974 12.896 1.0168 13.8742 0.989121 14.9027C0.961438 15.9313 1.33114 16.9309 2.02138 17.6939C2.71163 18.4568 3.66933 18.9245 4.69546 18.9997C5.72159 19.0748 6.73722 18.7517 7.53128 18.0975L16.2813 24.5175C16.0013 25.2187 15.9254 25.9848 16.0625 26.7274C16.1997 27.4699 16.5442 28.1584 17.0562 28.7133C17.5682 29.2683 18.2268 29.667 18.9559 29.8633C19.685 30.0597 20.4548 30.0456 21.1763 29.8228C21.8977 29.6 22.5414 29.1776 23.0328 28.6043C23.5243 28.0311 23.8434 27.3305 23.9534 26.5834C24.0633 25.8364 23.9596 25.0735 23.6542 24.383C23.3488 23.6924 22.8542 23.1024 22.2275 22.6812L25.6513 12.9825C25.7663 12.9925 25.8813 12.9975 25.9963 12.9975C26.7872 12.9973 27.5604 12.7627 28.2181 12.3233C28.8757 11.8838 29.3883 11.2592 29.6911 10.5285C29.9938 9.79779 30.0731 8.9937 29.919 8.21791C29.7648 7.44211 29.3841 6.72943 28.825 6.16995H28.83ZM13.58 4.5837C13.8598 4.30422 14.2162 4.11396 14.6041 4.03697C14.992 3.95998 15.394 3.99972 15.7593 4.15116C16.1247 4.3026 16.4369 4.55894 16.6565 4.88779C16.8762 5.21664 16.9935 5.60324 16.9935 5.9987C16.9935 6.39417 16.8762 6.78076 16.6565 7.10961C16.4369 7.43846 16.1247 7.69481 15.7593 7.84625C15.394 7.99769 14.992 8.03743 14.6041 7.96044C14.2162 7.88345 13.8598 7.69319 13.58 7.4137C13.3944 7.22763 13.2473 7.00679 13.1471 6.76382C13.0468 6.52084 12.9955 6.2605 12.996 5.99767C12.9964 5.73484 13.0487 5.47467 13.1498 5.23206C13.2508 4.98944 13.3987 4.76912 13.585 4.5837H13.58ZM3.58003 16.415C3.39407 16.2292 3.24656 16.0086 3.14591 15.7658C3.04526 15.523 2.99345 15.2628 2.99345 15C2.99345 14.7371 3.04526 14.4769 3.14591 14.2341C3.24656 13.9913 3.39407 13.7707 3.58003 13.585C3.85982 13.3055 4.21619 13.1152 4.60409 13.0382C4.99199 12.9612 5.39401 13.001 5.75933 13.1524C6.12466 13.3038 6.43688 13.5602 6.65655 13.889C6.87621 14.2179 6.99345 14.6045 6.99345 15C6.99345 15.3954 6.87621 15.782 6.65655 16.1109C6.43688 16.4397 6.12466 16.6961 5.75933 16.8475C5.39401 16.9989 4.99199 17.0387 4.60409 16.9617C4.21619 16.8847 3.85982 16.6944 3.58003 16.415ZM21.4113 27.415C21.0362 27.7901 20.5274 28.0008 19.9969 28.0008C19.4664 28.0008 18.9576 27.7901 18.5825 27.415C18.2074 27.0398 17.9967 26.5311 17.9967 26.0006C17.9967 25.4701 18.2074 24.9613 18.5825 24.5862C18.7683 24.4005 18.9888 24.2531 19.2314 24.1526C19.4741 24.0521 19.7342 24.0004 19.9969 24.0004C20.2596 24.0004 20.5197 24.0521 20.7624 24.1526C21.005 24.2531 21.2255 24.4005 21.4113 24.5862C21.597 24.7719 21.7444 24.9924 21.8449 25.2351C21.9454 25.4778 21.9971 25.7379 21.9971 26.0006C21.9971 26.2633 21.9454 26.5234 21.8449 26.766C21.7444 27.0087 21.597 27.2292 21.4113 27.415ZM20.3425 22.0175C19.3055 21.9271 18.2742 22.2446 17.4675 22.9025L8.71753 16.4825C8.92957 15.9475 9.02435 15.3733 8.99545 14.7986C8.96656 14.224 8.81466 13.6622 8.55003 13.1512L12.7938 9.33245C13.2503 9.63505 13.7642 9.84066 14.3034 9.93654C14.8427 10.0324 15.3959 10.0165 15.9288 9.88983C16.4617 9.76315 16.9628 9.52837 17.4013 9.20006C17.8397 8.87175 18.206 8.45689 18.4775 7.9812L22 8.94495C21.9905 9.60989 22.1469 10.2667 22.4551 10.856C22.7632 11.4453 23.2135 11.9484 23.765 12.32L20.3425 22.0175ZM27.4125 10.4125C27.2297 10.6101 27.0088 10.7688 26.7631 10.879C26.5175 10.9892 26.2521 11.0486 25.9829 11.0538C25.7137 11.0589 25.4462 11.0097 25.1965 10.909C24.9468 10.8083 24.72 10.6582 24.5297 10.4677C24.3394 10.2773 24.1895 10.0503 24.089 9.80054C23.9885 9.55074 23.9395 9.28323 23.9449 9.01403C23.9503 8.74484 24.01 8.47951 24.1205 8.23394C24.2309 7.98838 24.3897 7.76764 24.5875 7.58495C24.9626 7.20984 25.4714 6.9991 26.0019 6.9991C26.5324 6.9991 27.0412 7.20984 27.4163 7.58495C27.7914 7.96007 28.0021 8.46884 28.0021 8.99933C28.0021 9.52982 27.7914 10.0386 27.4163 10.4137L27.4125 10.4125Z" fill="#C63031"/>
</svg>
