<svg width="162" height="53" viewBox="0 0 162 53" fill="none" xmlns="http://www.w3.org/2000/svg">
<path d="M79.13 40.954C78.122 40.954 77.156 40.822 76.232 40.558C75.308 40.282 74.564 39.928 74 39.496L74.99 37.3C75.53 37.684 76.166 38.002 76.898 38.254C77.642 38.494 78.392 38.614 79.148 38.614C79.724 38.614 80.186 38.56 80.534 38.452C80.894 38.332 81.158 38.17 81.326 37.966C81.494 37.762 81.578 37.528 81.578 37.264C81.578 36.928 81.446 36.664 81.182 36.472C80.918 36.268 80.57 36.106 80.138 35.986C79.706 35.854 79.226 35.734 78.698 35.626C78.182 35.506 77.66 35.362 77.132 35.194C76.616 35.026 76.142 34.81 75.71 34.546C75.278 34.282 74.924 33.934 74.648 33.502C74.384 33.07 74.252 32.518 74.252 31.846C74.252 31.126 74.444 30.472 74.828 29.884C75.224 29.284 75.812 28.81 76.592 28.462C77.384 28.102 78.374 27.922 79.562 27.922C80.354 27.922 81.134 28.018 81.902 28.21C82.67 28.39 83.348 28.666 83.936 29.038L83.036 31.252C82.448 30.916 81.86 30.67 81.272 30.514C80.684 30.346 80.108 30.262 79.544 30.262C78.98 30.262 78.518 30.328 78.158 30.46C77.798 30.592 77.54 30.766 77.384 30.982C77.228 31.186 77.15 31.426 77.15 31.702C77.15 32.026 77.282 32.29 77.546 32.494C77.81 32.686 78.158 32.842 78.59 32.962C79.022 33.082 79.496 33.202 80.012 33.322C80.54 33.442 81.062 33.58 81.578 33.736C82.106 33.892 82.586 34.102 83.018 34.366C83.45 34.63 83.798 34.978 84.062 35.41C84.338 35.842 84.476 36.388 84.476 37.048C84.476 37.756 84.278 38.404 83.882 38.992C83.486 39.58 82.892 40.054 82.1 40.414C81.32 40.774 80.33 40.954 79.13 40.954Z" fill="black"/>
<path d="M90.9685 40.882C89.9365 40.882 89.0185 40.666 88.2145 40.234C87.4225 39.802 86.7925 39.214 86.3245 38.47C85.8685 37.714 85.6405 36.856 85.6405 35.896C85.6405 34.924 85.8685 34.066 86.3245 33.322C86.7925 32.566 87.4225 31.978 88.2145 31.558C89.0185 31.126 89.9365 30.91 90.9685 30.91C91.9885 30.91 92.9005 31.126 93.7045 31.558C94.5085 31.978 95.1385 32.56 95.5945 33.304C96.0505 34.048 96.2785 34.912 96.2785 35.896C96.2785 36.856 96.0505 37.714 95.5945 38.47C95.1385 39.214 94.5085 39.802 93.7045 40.234C92.9005 40.666 91.9885 40.882 90.9685 40.882ZM90.9685 38.578C91.4365 38.578 91.8565 38.47 92.2285 38.254C92.6005 38.038 92.8945 37.732 93.1105 37.336C93.3265 36.928 93.4345 36.448 93.4345 35.896C93.4345 35.332 93.3265 34.852 93.1105 34.456C92.8945 34.06 92.6005 33.754 92.2285 33.538C91.8565 33.322 91.4365 33.214 90.9685 33.214C90.5005 33.214 90.0805 33.322 89.7085 33.538C89.3365 33.754 89.0365 34.06 88.8085 34.456C88.5925 34.852 88.4845 35.332 88.4845 35.896C88.4845 36.448 88.5925 36.928 88.8085 37.336C89.0365 37.732 89.3365 38.038 89.7085 38.254C90.0805 38.47 90.5005 38.578 90.9685 38.578Z" fill="black"/>
<path d="M98.2454 40.738V27.382H101.053V40.738H98.2454Z" fill="black"/>
<path d="M107.835 40.882C107.031 40.882 106.312 40.726 105.676 40.414C105.052 40.102 104.566 39.628 104.218 38.992C103.87 38.344 103.696 37.522 103.696 36.526V31.054H106.503V36.112C106.503 36.916 106.672 37.51 107.007 37.894C107.355 38.266 107.841 38.452 108.465 38.452C108.897 38.452 109.282 38.362 109.618 38.182C109.953 37.99 110.217 37.702 110.41 37.318C110.602 36.922 110.697 36.43 110.697 35.842V31.054H113.506V40.738H110.841V38.074L111.327 38.848C111.003 39.52 110.524 40.03 109.888 40.378C109.264 40.714 108.579 40.882 107.835 40.882Z" fill="black"/>
<path d="M120.157 40.882C119.017 40.882 118.129 40.594 117.493 40.018C116.857 39.43 116.539 38.56 116.539 37.408V28.912H119.347V37.372C119.347 37.78 119.455 38.098 119.671 38.326C119.887 38.542 120.181 38.65 120.553 38.65C120.997 38.65 121.375 38.53 121.687 38.29L122.443 40.27C122.155 40.474 121.807 40.63 121.399 40.738C121.003 40.834 120.589 40.882 120.157 40.882ZM115.045 33.43V31.27H121.759V33.43H115.045Z" fill="black"/>
<path d="M124.109 40.738V31.054H126.917V40.738H124.109ZM125.513 29.704C124.997 29.704 124.577 29.554 124.253 29.254C123.929 28.954 123.767 28.582 123.767 28.138C123.767 27.694 123.929 27.322 124.253 27.022C124.577 26.722 124.997 26.572 125.513 26.572C126.029 26.572 126.449 26.716 126.773 27.004C127.097 27.28 127.259 27.64 127.259 28.084C127.259 28.552 127.097 28.942 126.773 29.254C126.461 29.554 126.041 29.704 125.513 29.704Z" fill="black"/>
<path d="M134.221 40.882C133.189 40.882 132.271 40.666 131.467 40.234C130.675 39.802 130.045 39.214 129.577 38.47C129.121 37.714 128.893 36.856 128.893 35.896C128.893 34.924 129.121 34.066 129.577 33.322C130.045 32.566 130.675 31.978 131.467 31.558C132.271 31.126 133.189 30.91 134.221 30.91C135.241 30.91 136.153 31.126 136.957 31.558C137.761 31.978 138.391 32.56 138.847 33.304C139.303 34.048 139.531 34.912 139.531 35.896C139.531 36.856 139.303 37.714 138.847 38.47C138.391 39.214 137.761 39.802 136.957 40.234C136.153 40.666 135.241 40.882 134.221 40.882ZM134.221 38.578C134.689 38.578 135.109 38.47 135.481 38.254C135.853 38.038 136.147 37.732 136.363 37.336C136.579 36.928 136.687 36.448 136.687 35.896C136.687 35.332 136.579 34.852 136.363 34.456C136.147 34.06 135.853 33.754 135.481 33.538C135.109 33.322 134.689 33.214 134.221 33.214C133.753 33.214 133.333 33.322 132.961 33.538C132.589 33.754 132.289 34.06 132.061 34.456C131.845 34.852 131.737 35.332 131.737 35.896C131.737 36.448 131.845 36.928 132.061 37.336C132.289 37.732 132.589 38.038 132.961 38.254C133.333 38.47 133.753 38.578 134.221 38.578Z" fill="black"/>
<path d="M147.384 30.91C148.152 30.91 148.836 31.066 149.436 31.378C150.048 31.678 150.528 32.146 150.876 32.782C151.224 33.406 151.398 34.21 151.398 35.194V40.738H148.59V35.626C148.59 34.846 148.416 34.27 148.068 33.898C147.732 33.526 147.252 33.34 146.628 33.34C146.184 33.34 145.782 33.436 145.422 33.628C145.074 33.808 144.798 34.09 144.594 34.474C144.402 34.858 144.306 35.35 144.306 35.95V40.738H141.498V31.054H144.18V33.736L143.676 32.926C144.024 32.278 144.522 31.78 145.17 31.432C145.818 31.084 146.556 30.91 147.384 30.91Z" fill="black"/>
<path d="M157.291 40.882C156.463 40.882 155.665 40.786 154.897 40.594C154.141 40.39 153.541 40.138 153.097 39.838L154.033 37.822C154.477 38.098 154.999 38.326 155.599 38.506C156.211 38.674 156.811 38.758 157.399 38.758C158.047 38.758 158.503 38.68 158.767 38.524C159.043 38.368 159.181 38.152 159.181 37.876C159.181 37.648 159.073 37.48 158.857 37.372C158.653 37.252 158.377 37.162 158.029 37.102C157.681 37.042 157.297 36.982 156.877 36.922C156.469 36.862 156.055 36.784 155.635 36.688C155.215 36.58 154.831 36.424 154.483 36.22C154.135 36.016 153.853 35.74 153.637 35.392C153.433 35.044 153.331 34.594 153.331 34.042C153.331 33.43 153.505 32.89 153.853 32.422C154.213 31.954 154.729 31.588 155.401 31.324C156.073 31.048 156.877 30.91 157.813 30.91C158.473 30.91 159.145 30.982 159.829 31.126C160.513 31.27 161.083 31.48 161.539 31.756L160.603 33.754C160.135 33.478 159.661 33.292 159.181 33.196C158.713 33.088 158.257 33.034 157.813 33.034C157.189 33.034 156.733 33.118 156.445 33.286C156.157 33.454 156.013 33.67 156.013 33.934C156.013 34.174 156.115 34.354 156.319 34.474C156.535 34.594 156.817 34.69 157.165 34.762C157.513 34.834 157.891 34.9 158.299 34.96C158.719 35.008 159.139 35.086 159.559 35.194C159.979 35.302 160.357 35.458 160.693 35.662C161.041 35.854 161.323 36.124 161.539 36.472C161.755 36.808 161.863 37.252 161.863 37.804C161.863 38.404 161.683 38.938 161.323 39.406C160.963 39.862 160.441 40.222 159.757 40.486C159.085 40.75 158.263 40.882 157.291 40.882Z" fill="black"/>
<path d="M79.13 23.572C78.122 23.572 77.156 23.44 76.232 23.176C75.308 22.9 74.564 22.546 74 22.114L74.99 19.918C75.53 20.302 76.166 20.62 76.898 20.872C77.642 21.112 78.392 21.232 79.148 21.232C79.724 21.232 80.186 21.178 80.534 21.07C80.894 20.95 81.158 20.788 81.326 20.584C81.494 20.38 81.578 20.146 81.578 19.882C81.578 19.546 81.446 19.282 81.182 19.09C80.918 18.886 80.57 18.724 80.138 18.604C79.706 18.472 79.226 18.352 78.698 18.244C78.182 18.124 77.66 17.98 77.132 17.812C76.616 17.644 76.142 17.428 75.71 17.164C75.278 16.9 74.924 16.552 74.648 16.12C74.384 15.688 74.252 15.136 74.252 14.464C74.252 13.744 74.444 13.09 74.828 12.502C75.224 11.902 75.812 11.428 76.592 11.08C77.384 10.72 78.374 10.54 79.562 10.54C80.354 10.54 81.134 10.636 81.902 10.828C82.67 11.008 83.348 11.284 83.936 11.656L83.036 13.87C82.448 13.534 81.86 13.288 81.272 13.132C80.684 12.964 80.108 12.88 79.544 12.88C78.98 12.88 78.518 12.946 78.158 13.078C77.798 13.21 77.54 13.384 77.384 13.6C77.228 13.804 77.15 14.044 77.15 14.32C77.15 14.644 77.282 14.908 77.546 15.112C77.81 15.304 78.158 15.46 78.59 15.58C79.022 15.7 79.496 15.82 80.012 15.94C80.54 16.06 81.062 16.198 81.578 16.354C82.106 16.51 82.586 16.72 83.018 16.984C83.45 17.248 83.798 17.596 84.062 18.028C84.338 18.46 84.476 19.006 84.476 19.666C84.476 20.374 84.278 21.022 83.882 21.61C83.486 22.198 82.892 22.672 82.1 23.032C81.32 23.392 80.33 23.572 79.13 23.572Z" fill="black"/>
<path d="M90.3205 23.5C89.1805 23.5 88.2925 23.212 87.6565 22.636C87.0205 22.048 86.7025 21.178 86.7025 20.026V11.53H89.5105V19.99C89.5105 20.398 89.6185 20.716 89.8345 20.944C90.0505 21.16 90.3445 21.268 90.7165 21.268C91.1605 21.268 91.5385 21.148 91.8505 20.908L92.6065 22.888C92.3185 23.092 91.9705 23.248 91.5625 23.356C91.1665 23.452 90.7525 23.5 90.3205 23.5ZM85.2085 16.048V13.888H91.9225V16.048H85.2085Z" fill="black"/>
<path d="M98.582 23.5C97.55 23.5 96.632 23.284 95.828 22.852C95.036 22.42 94.406 21.832 93.938 21.088C93.482 20.332 93.254 19.474 93.254 18.514C93.254 17.542 93.482 16.684 93.938 15.94C94.406 15.184 95.036 14.596 95.828 14.176C96.632 13.744 97.55 13.528 98.582 13.528C99.602 13.528 100.514 13.744 101.318 14.176C102.122 14.596 102.752 15.178 103.208 15.922C103.664 16.666 103.892 17.53 103.892 18.514C103.892 19.474 103.664 20.332 103.208 21.088C102.752 21.832 102.122 22.42 101.318 22.852C100.514 23.284 99.602 23.5 98.582 23.5ZM98.582 21.196C99.05 21.196 99.47 21.088 99.842 20.872C100.214 20.656 100.508 20.35 100.724 19.954C100.94 19.546 101.048 19.066 101.048 18.514C101.048 17.95 100.94 17.47 100.724 17.074C100.508 16.678 100.214 16.372 99.842 16.156C99.47 15.94 99.05 15.832 98.582 15.832C98.114 15.832 97.694 15.94 97.322 16.156C96.95 16.372 96.65 16.678 96.422 17.074C96.206 17.47 96.098 17.95 96.098 18.514C96.098 19.066 96.206 19.546 96.422 19.954C96.65 20.35 96.95 20.656 97.322 20.872C97.694 21.088 98.114 21.196 98.582 21.196Z" fill="black"/>
<path d="M105.859 23.356V13.672H108.541V16.408L108.163 15.616C108.451 14.932 108.913 14.416 109.549 14.068C110.185 13.708 110.959 13.528 111.871 13.528V16.12C111.751 16.108 111.643 16.102 111.547 16.102C111.451 16.09 111.349 16.084 111.241 16.084C110.473 16.084 109.849 16.306 109.369 16.75C108.901 17.182 108.667 17.86 108.667 18.784V23.356H105.859Z" fill="black"/>
<path d="M115.97 21.376L116.042 17.956L120.56 13.672H123.908L119.57 18.082L118.112 19.27L115.97 21.376ZM113.648 23.356V10H116.456V23.356H113.648ZM120.866 23.356L117.59 19.288L119.354 17.11L124.268 23.356H120.866Z" fill="black"/>
<path d="M44.9906 26.9635C44.776 27.3375 44.5574 27.7093 44.3478 28.09C43.3253 29.9386 41.8212 31.1034 40.0421 31.8919C38.9501 32.3695 37.8671 32.881 36.7569 33.3034C34.9042 34.0086 33.1221 34.8895 31.5183 36.1309C29.5034 37.6922 27.2438 38.421 24.8773 38.8694C23.8518 39.0643 22.8151 39.2073 21.8057 39.472C20.9397 39.6856 20.0957 39.9985 19.2871 40.4059C17.2723 41.4682 15.2504 42.5361 13.3131 43.764C12.1425 44.5063 11.1159 45.5382 10.038 46.4608C9.10511 47.2594 8.21152 48.1144 7.26655 48.894C5.07138 50.7042 2.75833 52.2745 0 53L1.25626 51.9253C1.69088 51.5715 2.1026 51.1838 2.48834 50.7651L0.281072 51.7361L0.227678 51.6054L3.14115 49.7591L3.12302 49.6904L1.1535 50.0959L1.12026 50.0069C1.42248 49.8605 1.70859 49.6938 2.01283 49.5699C3.58845 48.9311 5.17313 48.3206 6.74169 47.6616C7.21409 47.4812 7.65659 47.2147 8.05134 46.873C9.29551 45.7094 10.4964 44.4872 11.7133 43.2886L11.6539 43.1511L10.7653 43.23L10.6364 43.0284L12.1707 41.636C12.1364 41.591 12.1032 41.5448 12.07 41.4986L11.3557 41.6112C11.6106 40.7675 11.9954 40.1569 12.5646 39.7514C13.8229 38.857 15.1204 38.0301 16.3858 37.1481C17.236 36.5544 18.0591 35.909 18.866 35.2466C18.2455 35.4415 17.634 35.6972 17.0033 35.82C15.8508 36.0453 15.469 35.5485 15.7511 34.2733C15.7743 34.1685 15.7964 34.0638 15.8196 33.9568C14.381 33.7315 14.1634 33.4791 14.2682 32.1612C12.7016 32.0102 12.6563 31.9133 13.2003 29.8597C12.8981 29.7291 12.4588 29.6863 12.35 29.4508C12.1838 29.0903 12.1939 28.5924 12.2251 28.1621C12.2563 27.7318 12.4054 27.2936 12.5021 26.8599C11.6579 26.6977 11.5139 26.4161 11.81 25.4721C11.9108 25.1398 12.0508 24.8198 12.1737 24.4943C10.984 24.0122 10.9255 23.5458 11.8715 21.9034C11.2157 21.5508 11.3063 20.9447 11.4947 20.3387C11.6478 19.8475 11.8534 19.3755 12.0357 18.8945C11.6922 18.7087 11.3305 18.5566 11.0132 18.3313C10.724 18.1161 10.4228 17.8559 10.2505 17.5326C10.0783 17.2093 9.91205 16.7306 10.0047 16.4163C10.1478 15.9341 10.6092 16.1729 10.9356 16.2473C11.9027 16.467 13.6556 16.432 14.7638 16.1346C13.8944 15.9679 13.0633 15.8632 12.2594 15.639C11.3839 15.3957 10.4943 15.1343 9.68538 14.7051C9.1041 14.3976 8.63061 13.8175 8.13899 13.3229C8.03321 13.2171 8.05335 12.9546 8.01608 12.7597C8.18835 12.7282 8.37573 12.6313 8.52987 12.6763C9.46778 12.9546 10.3876 13.3184 11.3335 13.5527C12.3964 13.8163 13.4793 13.9752 14.5573 14.1734C14.7176 14.1854 14.8785 14.1854 15.0388 14.1734C11.9551 12.6752 9.76295 10.4459 9.10208 6.75103L9.25521 6.55389C9.4567 6.71047 9.68337 6.83777 9.85967 7.02701C10.3765 7.59026 10.8439 8.21208 11.3809 8.74828C12.8346 10.1992 14.5311 11.2266 16.2971 12.1108C16.3503 12.1298 16.4055 12.1404 16.4613 12.1424C15.7813 11.5713 15.0701 11.0407 14.4283 10.4189C13.0723 9.10538 12.0407 7.50915 11.4967 5.58849C11.2952 4.8574 11.2952 4.04633 11.2378 3.26906C11.2267 3.11698 11.3386 2.86465 11.4544 2.81847C11.5703 2.77228 11.7909 2.89394 11.8705 3.01898C12.2674 3.64305 12.6825 4.26487 13.0018 4.93964C14.4253 7.95073 16.555 10.1778 19.1149 11.9419C19.1528 11.9702 19.196 11.9886 19.2412 11.9956C19.2864 12.0026 19.3324 11.9981 19.3758 11.9824C19.0091 11.5386 18.6427 11.0951 18.2767 10.652C16.7656 8.817 15.4851 6.81073 14.6671 4.46764C14.2218 3.19133 14.2641 1.89475 14.5714 0.600417C14.6258 0.37512 14.8333 0.198261 14.9744 0C15.1486 0.155455 15.3955 0.272609 15.4781 0.475377C15.7438 1.07995 15.9681 1.7062 16.149 2.34872C17.0708 5.7631 18.7321 8.67281 20.9847 11.1849C20.9121 11.0565 20.8446 10.9247 20.7681 10.8007C19.4745 8.72012 18.3371 6.53925 18.048 3.98438C17.9251 2.89056 18.0954 1.75168 18.1659 0.635338C18.178 0.452847 18.3674 0.285001 18.4681 0.109269C18.6071 0.256839 18.7996 0.376246 18.8761 0.559863C19.0738 1.01421 19.2379 1.48591 19.3667 1.97022C20.1102 4.8698 21.1902 7.60265 22.5039 10.2352C22.5249 10.2825 22.5552 10.3239 22.5926 10.3563C22.6299 10.3886 22.6733 10.4112 22.7194 10.4222C22.6701 10.2409 22.6268 10.0573 22.5714 9.87815C21.8923 7.69727 21.302 5.48486 21.0431 3.18908C20.9857 2.67766 21.0431 2.14595 21.0773 1.62552C21.0854 1.50498 21.2053 1.32024 21.297 1.30109C21.3886 1.28194 21.5398 1.41374 21.6062 1.51738C21.7148 1.70873 21.8004 1.91513 21.8611 2.13131C22.8685 5.3508 23.7944 8.60409 24.9015 11.7797C25.376 13.1382 26.1618 14.3796 26.9164 15.5939C27.5106 16.523 27.9282 17.5785 28.1434 18.6951C28.632 21.3491 29.4279 23.8567 31.0005 25.9891C31.2433 26.3192 31.4125 26.4983 31.8064 26.2527C32.4038 25.881 33.0576 25.9858 33.6691 26.2099C34.6856 26.5839 35.684 27.0266 36.6914 27.4265C37.2737 27.6518 37.853 27.9323 38.4554 28.0596C40.3947 28.4685 41.9179 27.4434 42.6463 25.4C42.9606 24.5191 43.3183 23.6235 43.8149 22.8643C45.1941 20.751 47.6059 20.5155 49.3709 22.2199C49.5544 22.3813 49.7695 22.4917 49.9985 22.5421C52.2894 23.1132 54.5873 23.6449 56.8722 24.2431C57.7899 24.483 58.6795 24.8615 59.5821 25.1769C59.57 25.222 59.5579 25.2671 59.5469 25.3132C58.6039 25.3132 57.661 25.329 56.718 25.3132C53.998 25.2581 51.2779 25.0958 48.5669 25.1736C47.5595 25.2029 46.5692 25.7819 45.5709 26.1097L45.7562 25.7143L45.3825 25.471C46.0091 25.3853 46.7153 25.3583 47.3862 25.1758C48.2758 24.9302 48.3574 24.7106 48.3735 23.8556C48.6828 23.5728 48.9004 23.1898 49.1351 22.8203C49.3155 22.5353 49.3054 22.2717 49.0344 22.1174C48.5609 21.8538 48.0834 21.5114 47.5777 21.4257C45.6404 21.0968 44.1917 22.0498 43.3606 24.0538C42.9737 24.9866 42.5889 25.9294 42.1174 26.8092C41.5391 27.8895 40.6113 28.3615 39.4981 28.4043C38.3476 28.4483 37.2888 28.1036 36.2351 27.6158C35.2924 27.185 34.3251 26.8249 33.3397 26.5377C33.0679 26.4463 32.7818 26.4209 32.5004 26.4632C32.2191 26.5056 31.9492 26.6147 31.7087 26.7833L32.5821 28.0134C30.8777 26.8297 29.5282 25.1038 28.7066 23.0569C28.0185 21.3593 27.5359 19.5423 27.0947 17.7388C26.7572 16.369 26.0792 15.3157 25.2007 14.3593C24.4361 13.528 23.5405 13.3241 22.5542 13.6947C20.6804 14.3976 19.266 16.3982 21.161 18.9711C21.3393 19.2133 21.5418 19.4319 21.7453 19.6774C20.8386 19.8205 20.3983 20.279 20.3107 21.4066C20.2301 22.4512 20.2301 23.5015 20.3107 24.5461C20.5434 27.5955 22.2671 29.9262 24.8753 30.8206C25.1232 30.9051 25.379 30.975 25.6994 31.0752C23.8206 33.1592 21.6919 34.7002 19.404 36.1241C19.4393 35.8481 19.4604 35.6803 19.5048 35.3446L13.5529 40.1885C14.8877 39.7097 16.1722 39.1307 17.4567 38.5562C18.7139 37.9817 19.9772 37.4124 21.2466 36.8485L21.2849 36.9386L18.186 39.4687C18.3904 39.5374 18.6062 39.5524 18.8167 39.5126C20.3933 39.2625 21.9699 39.0057 23.5516 38.7533C26.6333 38.2599 29.6072 37.4241 32.1963 35.3592C32.4291 35.1747 32.6771 35.0152 32.9367 34.8827C33.9502 34.3702 34.9697 33.843 36.0023 33.3563C37.5316 32.6433 39.0881 32.0046 40.6053 31.2498C41.9162 30.5968 43.0619 29.5905 43.9398 28.321C44.2703 27.8523 44.639 27.4153 44.9906 26.9635Z" fill="black"/>
<path d="M21.2849 36.9406C21.2718 36.9101 21.2597 36.8797 21.2466 36.8504C19.9779 37.4144 18.7096 37.9796 17.4415 38.5458C16.1571 39.1203 14.8726 39.6993 13.5378 40.1781L19.4896 35.3342V35.3477C19.4982 35.3378 19.5073 35.3284 19.5168 35.3195C19.4914 35.1854 19.4971 35.0463 19.5334 34.9153C19.5697 34.7844 19.6355 34.666 19.7244 34.5716C19.7244 34.5626 19.7244 34.5547 19.7244 34.5457C19.4162 34.8837 19.0656 35.1698 18.6837 35.395C17.9372 36.0056 17.1726 36.597 16.3908 37.1445C15.1255 38.0265 13.8279 38.8533 12.5696 39.7478C11.9964 40.1533 11.6116 40.7616 11.3607 41.6076L12.075 41.4949C12.1092 41.5411 12.1425 41.5873 12.1757 41.6324L10.6414 43.0247L10.7704 43.2263L11.6589 43.1475C11.6781 43.1937 11.6982 43.2387 11.7184 43.2849C10.5014 44.4835 9.30055 45.7057 8.05638 46.8694C7.66163 47.2111 7.21912 47.4775 6.74672 47.6579C5.17816 48.3169 3.59348 48.9275 2.01787 49.5662C1.71564 49.6901 1.42248 49.8568 1.12529 50.0033L1.15854 50.0923L3.12302 49.6901C3.12805 49.7149 3.1341 49.7397 3.13914 49.7645L0.227678 51.6051L0.281072 51.7324L2.48834 50.7614C2.1026 51.1801 1.69088 51.5679 1.25626 51.9217L0 52.9997C2.75833 52.2743 5.07138 50.6995 7.26958 48.8892C8.21454 48.1097 9.10813 47.2547 10.041 46.456C11.1189 45.5334 12.1455 44.5015 13.3161 43.7592C14.7044 42.8794 16.1369 42.083 17.5755 41.3102C17.3418 40.6287 17.5755 39.723 18.2898 39.5011C18.2555 39.492 18.2213 39.483 18.1891 39.4706L21.2849 36.9406Z" fill="#C63031"/>
<path d="M44.9905 26.9634C44.6389 27.414 44.2702 27.8522 43.9398 28.3231C43.0619 29.5926 41.9162 30.5989 40.6052 31.2519C39.088 32.0044 37.5316 32.6432 36.0023 33.3562C34.9697 33.8429 33.9502 34.3701 32.9327 34.8849C32.673 35.0173 32.4251 35.1768 32.1922 35.3614C29.6031 37.4262 26.6292 38.2621 23.5475 38.7555C21.9699 39.0078 20.3932 39.2646 18.8126 39.5147C18.6022 39.5545 18.3863 39.5395 18.1819 39.4708L21.2808 36.9407L21.2425 36.8506C19.9738 37.4146 18.7055 37.9797 17.4375 38.5459C16.153 39.1204 14.8685 39.6995 13.5337 40.1782L19.4856 35.3343C19.4432 35.6723 19.4221 35.8379 19.3848 36.1139C21.6727 34.69 23.8014 33.1489 25.6802 31.0649C25.3558 30.9647 25.104 30.8948 24.8561 30.8104C22.2479 29.9159 20.5242 27.5852 20.2915 24.5358C20.2109 23.4913 20.2109 22.4409 20.2915 21.3963C20.3791 20.2698 20.8214 19.8102 21.7261 19.6672C21.5246 19.4216 21.3231 19.2031 21.1418 18.9609C19.2468 16.3902 20.6612 14.3873 22.535 13.6844C23.5213 13.3138 24.4169 13.5177 25.1815 14.349C26.06 15.3054 26.738 16.3587 27.0755 17.7285C27.5208 19.5309 28.0033 21.349 28.6874 23.0466C29.509 25.0935 30.8585 26.8194 32.5629 28.0032L31.6895 26.773C31.93 26.6044 32.1999 26.4953 32.4813 26.453C32.7626 26.4106 33.0487 26.436 33.3205 26.5275C34.3098 26.8159 35.2808 27.1779 36.2269 27.6111C37.2807 28.1023 38.3425 28.447 39.49 28.3997C40.6072 28.3569 41.5351 27.8849 42.1093 26.8046C42.5808 25.9248 42.9656 24.9819 43.3525 24.0492C44.1836 22.0452 45.6323 21.0922 47.5695 21.4211C48.0733 21.5067 48.5528 21.8492 49.0263 22.1128C49.3013 22.2671 49.3114 22.5307 49.127 22.8157C48.8923 23.1852 48.6747 23.5682 48.3654 23.8509C48.3493 24.7059 48.2647 24.9256 47.3781 25.1712C46.7072 25.357 46.001 25.3807 45.3744 25.4663L45.7481 25.7018L45.5627 26.0971L44.9905 26.9634ZM26.4227 34.236L26.4428 34.2889C26.6051 34.1142 26.7553 33.9259 26.8921 33.7257C27.3485 32.9372 27.7424 32.1058 28.2451 31.3601C28.7126 30.6684 29.2757 30.0534 29.8248 29.4349C29.994 29.2445 30.2529 29.1511 30.4705 29.0136C30.0847 29.0486 29.7099 29.1742 29.3705 29.3823C29.0311 29.5904 28.7348 29.8763 28.501 30.2212C28.0537 30.8678 27.6951 31.5955 27.3304 32.3075C27.006 32.9338 26.7229 33.5905 26.4227 34.236ZM48.2203 22.6985L48.2818 22.5566C48.0219 22.4192 47.768 22.1916 47.502 22.1736C47.3056 22.1601 47.0991 22.4203 46.8764 22.5667C47.3741 23.2719 47.8012 22.5634 48.2203 22.6985Z" fill="white"/>
<path d="M33.4744 13.6519C33.6587 11.489 33.5026 9.30477 33.5882 7.1284L33.834 7.05968C33.9811 7.32328 34.1997 7.56773 34.2612 7.84822C34.6239 9.53795 35.0883 11.2277 35.2525 12.9433C35.4389 14.8933 35.3432 16.877 35.3804 18.8461C35.3794 19.1038 35.419 19.3596 35.4973 19.602C35.6817 20.1156 35.6907 20.6383 35.3835 21.0461C34.4042 22.3461 33.5701 23.7227 33.2679 25.4394C32.9253 23.6077 33.6446 22.2087 34.7407 20.9583C33.1843 20.395 31.4817 20.7634 29.4749 22.0904C29.2039 20.6507 28.9369 19.2336 28.6609 17.7714L29.0055 17.6588C28.9974 17.6115 29.0055 17.5461 28.9793 17.5112C28.7858 17.2288 28.5891 16.9487 28.3889 16.6709C27.2807 15.1388 26.4929 13.4423 26.2844 11.462C26.2438 11.016 26.2566 10.5659 26.3227 10.1237C26.3569 9.87139 26.5242 9.64384 26.639 9.40502C26.8264 9.57625 27.0621 9.7103 27.1931 9.92433C27.5908 10.5513 27.9535 11.2052 28.2791 11.8822C28.9309 13.2982 29.5364 14.7423 30.16 16.1741C30.2269 16.3515 30.3233 16.5132 30.4441 16.6506C30.162 15.5477 29.8597 14.4517 29.6039 13.3421C29.3117 12.0725 29.0115 10.7996 28.813 9.51204C28.7123 8.84404 28.7899 8.13435 28.8382 7.44832C28.8674 7.03603 29.1233 6.97069 29.3419 7.28611C29.6139 7.68263 29.9142 8.10168 30.0471 8.56579C30.5841 10.4977 31.0616 12.4499 31.5583 14.3942C31.5976 14.5985 31.671 14.7927 31.7749 14.9665C31.657 14.1239 31.5311 13.2768 31.4233 12.4364C31.1896 10.6137 30.985 8.78658 31.2591 6.94703C31.2984 6.68231 31.4656 6.44237 31.5734 6.19116C31.7628 6.41646 32.0539 6.6012 32.1244 6.86705C32.4126 7.94285 32.6574 9.03441 32.8719 10.1339C33.0966 11.2941 33.2749 12.4758 33.4744 13.6519Z" fill="black"/>
<path d="M26.4229 34.2362C26.7251 33.5907 27.0062 32.934 27.3295 32.3031C27.6962 31.5912 28.0529 30.8635 28.5002 30.2169C28.734 29.8719 29.0303 29.5861 29.3696 29.378C29.709 29.1699 30.0839 29.0443 30.4697 29.0093C30.2521 29.1467 29.9932 29.2346 29.8239 29.4306C29.2749 30.049 28.7157 30.6697 28.2443 31.3557C27.7406 32.1004 27.3477 32.9328 26.8913 33.7214C26.7545 33.9216 26.6043 34.1099 26.442 34.2846L26.4229 34.2362Z" fill="black"/>
<path d="M48.2199 22.6988C47.8008 22.5636 47.3736 23.2722 46.876 22.567C47.0936 22.4205 47.3051 22.1603 47.5016 22.1738C47.7675 22.1919 48.0214 22.4194 48.2813 22.5569L48.2199 22.6988Z" fill="black"/>
<path d="M56.8822 24.2319C54.6024 23.6382 52.2994 23.1054 50.0085 22.5421C49.7806 22.4926 49.5662 22.3838 49.3829 22.2245C49.3416 22.185 49.3003 22.1467 49.258 22.1118C49.2693 22.171 49.2741 22.2316 49.2721 22.2921V22.3056C49.2716 22.3471 49.2685 22.3885 49.263 22.4295C49.2676 22.5727 49.2253 22.7129 49.1441 22.8238C48.9094 23.1944 48.6918 23.5774 48.3825 23.8601C48.3745 24.3107 48.3463 24.5777 48.1972 24.7726C48.0863 25.0193 47.9012 25.2144 47.6743 25.3234C47.9688 25.235 48.2712 25.1836 48.576 25.1702C51.29 25.0925 54.01 25.2547 56.727 25.3099C57.8181 25.3313 58.9091 25.3099 60.0002 25.3099C58.9575 24.972 57.939 24.5135 56.8822 24.2319Z" fill="#C63031"/>
</svg>
