<svg width="145" height="37" viewBox="0 0 145 37" fill="none" xmlns="http://www.w3.org/2000/svg">
<path d="M62.13 36.9543C61.122 36.9543 60.156 36.8223 59.232 36.5583C58.308 36.2823 57.564 35.9283 57 35.4963L57.99 33.3003C58.53 33.6843 59.166 34.0023 59.898 34.2543C60.642 34.4943 61.392 34.6143 62.148 34.6143C62.724 34.6143 63.186 34.5603 63.534 34.4523C63.894 34.3323 64.158 34.1703 64.326 33.9663C64.494 33.7623 64.578 33.5283 64.578 33.2643C64.578 32.9283 64.446 32.6643 64.182 32.4723C63.918 32.2683 63.57 32.1063 63.138 31.9863C62.706 31.8543 62.226 31.7343 61.698 31.6263C61.182 31.5063 60.66 31.3623 60.132 31.1943C59.616 31.0263 59.142 30.8103 58.71 30.5463C58.278 30.2823 57.924 29.9343 57.648 29.5023C57.384 29.0703 57.252 28.5183 57.252 27.8463C57.252 27.1263 57.444 26.4723 57.828 25.8843C58.224 25.2843 58.812 24.8103 59.592 24.4623C60.384 24.1023 61.374 23.9223 62.562 23.9223C63.354 23.9223 64.134 24.0183 64.902 24.2103C65.67 24.3903 66.348 24.6663 66.936 25.0383L66.036 27.2523C65.448 26.9163 64.86 26.6703 64.272 26.5143C63.684 26.3463 63.108 26.2623 62.544 26.2623C61.98 26.2623 61.518 26.3283 61.158 26.4603C60.798 26.5923 60.54 26.7663 60.384 26.9823C60.228 27.1863 60.15 27.4263 60.15 27.7023C60.15 28.0263 60.282 28.2903 60.546 28.4943C60.81 28.6863 61.158 28.8423 61.59 28.9623C62.022 29.0823 62.496 29.2023 63.012 29.3223C63.54 29.4423 64.062 29.5803 64.578 29.7363C65.106 29.8923 65.586 30.1023 66.018 30.3663C66.45 30.6303 66.798 30.9783 67.062 31.4103C67.338 31.8423 67.476 32.3883 67.476 33.0483C67.476 33.7563 67.278 34.4043 66.882 34.9923C66.486 35.5803 65.892 36.0543 65.1 36.4143C64.32 36.7743 63.33 36.9543 62.13 36.9543Z" fill="black"/>
<path d="M73.9685 36.8823C72.9365 36.8823 72.0185 36.6663 71.2145 36.2343C70.4225 35.8023 69.7925 35.2143 69.3245 34.4703C68.8685 33.7143 68.6405 32.8563 68.6405 31.8963C68.6405 30.9243 68.8685 30.0663 69.3245 29.3223C69.7925 28.5663 70.4225 27.9783 71.2145 27.5583C72.0185 27.1263 72.9365 26.9103 73.9685 26.9103C74.9885 26.9103 75.9005 27.1263 76.7045 27.5583C77.5085 27.9783 78.1385 28.5603 78.5945 29.3043C79.0505 30.0483 79.2785 30.9123 79.2785 31.8963C79.2785 32.8563 79.0505 33.7143 78.5945 34.4703C78.1385 35.2143 77.5085 35.8023 76.7045 36.2343C75.9005 36.6663 74.9885 36.8823 73.9685 36.8823ZM73.9685 34.5783C74.4365 34.5783 74.8565 34.4703 75.2285 34.2543C75.6005 34.0383 75.8945 33.7323 76.1105 33.3363C76.3265 32.9283 76.4345 32.4483 76.4345 31.8963C76.4345 31.3323 76.3265 30.8523 76.1105 30.4563C75.8945 30.0603 75.6005 29.7543 75.2285 29.5383C74.8565 29.3223 74.4365 29.2143 73.9685 29.2143C73.5005 29.2143 73.0805 29.3223 72.7085 29.5383C72.3365 29.7543 72.0365 30.0603 71.8085 30.4563C71.5925 30.8523 71.4845 31.3323 71.4845 31.8963C71.4845 32.4483 71.5925 32.9283 71.8085 33.3363C72.0365 33.7323 72.3365 34.0383 72.7085 34.2543C73.0805 34.4703 73.5005 34.5783 73.9685 34.5783Z" fill="black"/>
<path d="M81.2454 36.7383V23.3823H84.0534V36.7383H81.2454Z" fill="black"/>
<path d="M90.8355 36.8823C90.0315 36.8823 89.3115 36.7263 88.6755 36.4143C88.0515 36.1023 87.5655 35.6283 87.2175 34.9923C86.8695 34.3443 86.6955 33.5223 86.6955 32.5263V27.0543H89.5035V32.1123C89.5035 32.9163 89.6715 33.5103 90.0075 33.8943C90.3555 34.2663 90.8415 34.4523 91.4655 34.4523C91.8975 34.4523 92.2815 34.3623 92.6175 34.1823C92.9535 33.9903 93.2175 33.7023 93.4095 33.3183C93.6015 32.9223 93.6975 32.4303 93.6975 31.8423V27.0543H96.5055V36.7383H93.8415V34.0743L94.3275 34.8483C94.0035 35.5203 93.5235 36.0303 92.8875 36.3783C92.2635 36.7143 91.5795 36.8823 90.8355 36.8823Z" fill="black"/>
<path d="M103.157 36.8823C102.017 36.8823 101.129 36.5943 100.493 36.0183C99.8569 35.4303 99.5389 34.5603 99.5389 33.4083V24.9123H102.347V33.3723C102.347 33.7803 102.455 34.0983 102.671 34.3263C102.887 34.5423 103.181 34.6503 103.553 34.6503C103.997 34.6503 104.375 34.5303 104.687 34.2903L105.443 36.2703C105.155 36.4743 104.807 36.6303 104.399 36.7383C104.003 36.8343 103.589 36.8823 103.157 36.8823ZM98.0449 29.4303V27.2703H104.759V29.4303H98.0449Z" fill="black"/>
<path d="M107.109 36.7383V27.0543H109.917V36.7383H107.109ZM108.513 25.7043C107.997 25.7043 107.577 25.5543 107.253 25.2543C106.929 24.9543 106.767 24.5823 106.767 24.1383C106.767 23.6943 106.929 23.3223 107.253 23.0223C107.577 22.7223 107.997 22.5723 108.513 22.5723C109.029 22.5723 109.449 22.7163 109.773 23.0043C110.097 23.2803 110.259 23.6403 110.259 24.0843C110.259 24.5523 110.097 24.9423 109.773 25.2543C109.461 25.5543 109.041 25.7043 108.513 25.7043Z" fill="black"/>
<path d="M117.221 36.8823C116.189 36.8823 115.271 36.6663 114.467 36.2343C113.675 35.8023 113.045 35.2143 112.577 34.4703C112.121 33.7143 111.893 32.8563 111.893 31.8963C111.893 30.9243 112.121 30.0663 112.577 29.3223C113.045 28.5663 113.675 27.9783 114.467 27.5583C115.271 27.1263 116.189 26.9103 117.221 26.9103C118.241 26.9103 119.153 27.1263 119.957 27.5583C120.761 27.9783 121.391 28.5603 121.847 29.3043C122.303 30.0483 122.531 30.9123 122.531 31.8963C122.531 32.8563 122.303 33.7143 121.847 34.4703C121.391 35.2143 120.761 35.8023 119.957 36.2343C119.153 36.6663 118.241 36.8823 117.221 36.8823ZM117.221 34.5783C117.689 34.5783 118.109 34.4703 118.481 34.2543C118.853 34.0383 119.147 33.7323 119.363 33.3363C119.579 32.9283 119.687 32.4483 119.687 31.8963C119.687 31.3323 119.579 30.8523 119.363 30.4563C119.147 30.0603 118.853 29.7543 118.481 29.5383C118.109 29.3223 117.689 29.2143 117.221 29.2143C116.753 29.2143 116.333 29.3223 115.961 29.5383C115.589 29.7543 115.289 30.0603 115.061 30.4563C114.845 30.8523 114.737 31.3323 114.737 31.8963C114.737 32.4483 114.845 32.9283 115.061 33.3363C115.289 33.7323 115.589 34.0383 115.961 34.2543C116.333 34.4703 116.753 34.5783 117.221 34.5783Z" fill="black"/>
<path d="M130.384 26.9103C131.152 26.9103 131.836 27.0663 132.436 27.3783C133.048 27.6783 133.528 28.1463 133.876 28.7823C134.224 29.4063 134.398 30.2103 134.398 31.1943V36.7383H131.59V31.6263C131.59 30.8463 131.416 30.2703 131.068 29.8983C130.732 29.5263 130.252 29.3403 129.628 29.3403C129.184 29.3403 128.782 29.4363 128.422 29.6283C128.074 29.8083 127.798 30.0903 127.594 30.4743C127.402 30.8583 127.306 31.3503 127.306 31.9503V36.7383H124.498V27.0543H127.18V29.7363L126.676 28.9263C127.024 28.2783 127.522 27.7803 128.17 27.4323C128.818 27.0843 129.556 26.9103 130.384 26.9103Z" fill="black"/>
<path d="M140.291 36.8823C139.463 36.8823 138.665 36.7863 137.897 36.5943C137.141 36.3903 136.541 36.1383 136.097 35.8383L137.033 33.8223C137.477 34.0983 137.999 34.3263 138.599 34.5063C139.211 34.6743 139.811 34.7583 140.399 34.7583C141.047 34.7583 141.503 34.6803 141.767 34.5243C142.043 34.3683 142.181 34.1523 142.181 33.8763C142.181 33.6483 142.073 33.4803 141.857 33.3723C141.653 33.2523 141.377 33.1623 141.029 33.1023C140.681 33.0423 140.297 32.9823 139.877 32.9223C139.469 32.8623 139.055 32.7843 138.635 32.6883C138.215 32.5803 137.831 32.4243 137.483 32.2203C137.135 32.0163 136.853 31.7403 136.637 31.3923C136.433 31.0443 136.331 30.5943 136.331 30.0423C136.331 29.4303 136.505 28.8903 136.853 28.4223C137.213 27.9543 137.729 27.5883 138.401 27.3243C139.073 27.0483 139.877 26.9103 140.813 26.9103C141.473 26.9103 142.145 26.9823 142.829 27.1263C143.513 27.2703 144.083 27.4803 144.539 27.7563L143.603 29.7543C143.135 29.4783 142.661 29.2923 142.181 29.1963C141.713 29.0883 141.257 29.0343 140.813 29.0343C140.189 29.0343 139.733 29.1183 139.445 29.2863C139.157 29.4543 139.013 29.6703 139.013 29.9343C139.013 30.1743 139.115 30.3543 139.319 30.4743C139.535 30.5943 139.817 30.6903 140.165 30.7623C140.513 30.8343 140.891 30.9003 141.299 30.9603C141.719 31.0083 142.139 31.0863 142.559 31.1943C142.979 31.3023 143.357 31.4583 143.693 31.6623C144.041 31.8543 144.323 32.1243 144.539 32.4723C144.755 32.8083 144.863 33.2523 144.863 33.8043C144.863 34.4043 144.683 34.9383 144.323 35.4063C143.963 35.8623 143.441 36.2223 142.757 36.4863C142.085 36.7503 141.263 36.8823 140.291 36.8823Z" fill="black"/>
<path d="M62.13 19.572C61.122 19.572 60.156 19.44 59.232 19.176C58.308 18.9 57.564 18.546 57 18.114L57.99 15.918C58.53 16.302 59.166 16.62 59.898 16.872C60.642 17.112 61.392 17.232 62.148 17.232C62.724 17.232 63.186 17.178 63.534 17.07C63.894 16.95 64.158 16.788 64.326 16.584C64.494 16.38 64.578 16.146 64.578 15.882C64.578 15.546 64.446 15.282 64.182 15.09C63.918 14.886 63.57 14.724 63.138 14.604C62.706 14.472 62.226 14.352 61.698 14.244C61.182 14.124 60.66 13.98 60.132 13.812C59.616 13.644 59.142 13.428 58.71 13.164C58.278 12.9 57.924 12.552 57.648 12.12C57.384 11.688 57.252 11.136 57.252 10.464C57.252 9.744 57.444 9.09 57.828 8.502C58.224 7.902 58.812 7.428 59.592 7.08C60.384 6.72 61.374 6.54 62.562 6.54C63.354 6.54 64.134 6.636 64.902 6.828C65.67 7.008 66.348 7.284 66.936 7.656L66.036 9.87C65.448 9.534 64.86 9.288 64.272 9.132C63.684 8.964 63.108 8.88 62.544 8.88C61.98 8.88 61.518 8.946 61.158 9.078C60.798 9.21 60.54 9.384 60.384 9.6C60.228 9.804 60.15 10.044 60.15 10.32C60.15 10.644 60.282 10.908 60.546 11.112C60.81 11.304 61.158 11.46 61.59 11.58C62.022 11.7 62.496 11.82 63.012 11.94C63.54 12.06 64.062 12.198 64.578 12.354C65.106 12.51 65.586 12.72 66.018 12.984C66.45 13.248 66.798 13.596 67.062 14.028C67.338 14.46 67.476 15.006 67.476 15.666C67.476 16.374 67.278 17.022 66.882 17.61C66.486 18.198 65.892 18.672 65.1 19.032C64.32 19.392 63.33 19.572 62.13 19.572Z" fill="black"/>
<path d="M73.3205 19.5C72.1805 19.5 71.2925 19.212 70.6565 18.636C70.0205 18.048 69.7025 17.178 69.7025 16.026V7.53H72.5105V15.99C72.5105 16.398 72.6185 16.716 72.8345 16.944C73.0505 17.16 73.3445 17.268 73.7165 17.268C74.1605 17.268 74.5385 17.148 74.8505 16.908L75.6065 18.888C75.3185 19.092 74.9705 19.248 74.5625 19.356C74.1665 19.452 73.7525 19.5 73.3205 19.5ZM68.2085 12.048V9.888H74.9225V12.048H68.2085Z" fill="black"/>
<path d="M81.582 19.5C80.55 19.5 79.632 19.284 78.828 18.852C78.036 18.42 77.406 17.832 76.938 17.088C76.482 16.332 76.254 15.474 76.254 14.514C76.254 13.542 76.482 12.684 76.938 11.94C77.406 11.184 78.036 10.596 78.828 10.176C79.632 9.744 80.55 9.528 81.582 9.528C82.602 9.528 83.514 9.744 84.318 10.176C85.122 10.596 85.752 11.178 86.208 11.922C86.664 12.666 86.892 13.53 86.892 14.514C86.892 15.474 86.664 16.332 86.208 17.088C85.752 17.832 85.122 18.42 84.318 18.852C83.514 19.284 82.602 19.5 81.582 19.5ZM81.582 17.196C82.05 17.196 82.47 17.088 82.842 16.872C83.214 16.656 83.508 16.35 83.724 15.954C83.94 15.546 84.048 15.066 84.048 14.514C84.048 13.95 83.94 13.47 83.724 13.074C83.508 12.678 83.214 12.372 82.842 12.156C82.47 11.94 82.05 11.832 81.582 11.832C81.114 11.832 80.694 11.94 80.322 12.156C79.95 12.372 79.65 12.678 79.422 13.074C79.206 13.47 79.098 13.95 79.098 14.514C79.098 15.066 79.206 15.546 79.422 15.954C79.65 16.35 79.95 16.656 80.322 16.872C80.694 17.088 81.114 17.196 81.582 17.196Z" fill="black"/>
<path d="M88.8589 19.356V9.672H91.5409V12.408L91.1629 11.616C91.4509 10.932 91.9129 10.416 92.5489 10.068C93.1849 9.708 93.9589 9.528 94.8709 9.528V12.12C94.7509 12.108 94.6429 12.102 94.5469 12.102C94.4509 12.09 94.3489 12.084 94.2409 12.084C93.4729 12.084 92.8489 12.306 92.3689 12.75C91.9009 13.182 91.6669 13.86 91.6669 14.784V19.356H88.8589Z" fill="black"/>
<path d="M98.9701 17.376L99.0421 13.956L103.56 9.672H106.908L102.57 14.082L101.112 15.27L98.9701 17.376ZM96.6481 19.356V6H99.4561V19.356H96.6481ZM103.866 19.356L100.59 15.288L102.354 13.11L107.268 19.356H103.866Z" fill="black"/>
<path d="M33.7429 18.0853C33.582 18.3361 33.418 18.5855 33.2609 18.8409C32.494 20.0807 31.3659 20.862 30.0316 21.3909C29.2126 21.7113 28.4003 22.0543 27.5677 22.3376C26.1782 22.8106 24.8416 23.4015 23.6387 24.2341C22.1276 25.2813 20.4328 25.7702 18.658 26.0709C17.8888 26.2016 17.1114 26.2976 16.3543 26.4751C15.7048 26.6184 15.0718 26.8283 14.4654 27.1015C12.9542 27.814 11.4378 28.5303 9.98484 29.3538C9.10687 29.8518 8.33694 30.5439 7.52849 31.1627C6.82883 31.6984 6.15864 32.2718 5.44992 32.7947C3.80353 34.0089 2.06875 35.0622 0 35.5487L0.942194 34.8279C1.26816 34.5906 1.57695 34.3306 1.86625 34.0497L0.210804 34.701L0.170759 34.6134L2.35586 33.375L2.34226 33.3289L0.865126 33.6009L0.840192 33.5412C1.06686 33.443 1.28144 33.3312 1.50963 33.248C2.69134 32.8196 3.87984 32.4101 5.05627 31.9681C5.41057 31.8471 5.74244 31.6684 6.0385 31.4392C6.97163 30.6587 7.87227 29.8389 8.785 29.035L8.74042 28.9428L8.07401 28.9957L7.97729 28.8605L9.12802 27.9266C9.10234 27.8963 9.0774 27.8654 9.05247 27.8344L8.51677 27.9099C8.70793 27.344 8.99656 26.9345 9.42345 26.6625C10.3672 26.0626 11.3403 25.508 12.2893 24.9164C12.927 24.5182 13.5443 24.0853 14.1495 23.641C13.6841 23.7717 13.2255 23.9432 12.7525 24.0256C11.8881 24.1767 11.6018 23.8435 11.8133 22.9882C11.8307 22.9179 11.8473 22.8476 11.8647 22.7759C10.7857 22.6247 10.6225 22.4555 10.7011 21.5715C9.52621 21.4702 9.49221 21.4053 9.90022 20.0279C9.67355 19.9402 9.34412 19.9115 9.26252 19.7536C9.13785 19.5118 9.1454 19.1778 9.16883 18.8892C9.19225 18.6006 9.30407 18.3067 9.37661 18.0158C8.74344 17.907 8.63539 17.7181 8.85753 17.0849C8.93309 16.862 9.03811 16.6474 9.13029 16.4291C8.23796 16.1057 8.19414 15.7929 8.90362 14.6913C8.41175 14.4548 8.47975 14.0483 8.62104 13.6418C8.73588 13.3124 8.89002 12.9958 9.02678 12.6732C8.76913 12.5485 8.49788 12.4465 8.25988 12.2954C8.04303 12.1511 7.81711 11.9765 7.68791 11.7597C7.55871 11.5428 7.43404 11.2217 7.50355 11.0109C7.61084 10.6875 7.95689 10.8477 8.2017 10.8976C8.92704 11.0449 10.2417 11.0215 11.0729 10.822C10.4208 10.7102 9.79746 10.6399 9.19452 10.4896C8.53793 10.3264 7.87076 10.1511 7.26404 9.86319C6.82807 9.65692 6.47296 9.26781 6.10424 8.93611C6.0249 8.86509 6.04002 8.68904 6.01206 8.55833C6.14126 8.53717 6.2818 8.47219 6.3974 8.50241C7.10083 8.68904 7.79067 8.93309 8.50015 9.09025C9.29727 9.26705 10.1095 9.37358 10.918 9.50656C11.0382 9.5146 11.1589 9.5146 11.2791 9.50656C8.96633 8.50166 7.32222 7.00639 6.82656 4.52812L6.94141 4.3959C7.09252 4.50092 7.26253 4.5863 7.39475 4.71324C7.78236 5.09102 8.13294 5.5081 8.53566 5.86775C9.62594 6.84092 10.8983 7.53 12.2228 8.12312C12.2627 8.13582 12.3042 8.14294 12.346 8.14427C11.836 7.7612 11.3026 7.40533 10.8213 6.98825C9.80426 6.10726 9.03056 5.03662 8.62255 3.74838C8.47144 3.25801 8.47144 2.714 8.42837 2.19266C8.42006 2.09066 8.50393 1.92141 8.59082 1.89043C8.67771 1.85945 8.84318 1.94106 8.90287 2.02492C9.20056 2.44351 9.51185 2.86058 9.75137 3.31317C10.819 5.3328 12.4163 6.82656 14.3362 8.00978C14.3646 8.02879 14.397 8.04112 14.4309 8.04583C14.4648 8.05054 14.4993 8.04751 14.5319 8.03698C14.2568 7.73929 13.982 7.44185 13.7075 7.14466C12.5742 5.91384 11.6138 4.56817 11.0003 2.99659C10.6664 2.14053 10.6981 1.27087 10.9285 0.402718C10.9693 0.251604 11.125 0.13298 11.2308 0C11.3615 0.104268 11.5466 0.182848 11.6086 0.31885C11.8078 0.724356 11.9761 1.1444 12.1118 1.57536C12.8031 3.86549 14.049 5.81712 15.7385 7.50204C15.6841 7.41591 15.6335 7.3275 15.576 7.24439C14.6059 5.84886 13.7529 4.38608 13.536 2.67245C13.4438 1.93879 13.5715 1.17491 13.6244 0.426141C13.6335 0.303739 13.7755 0.191159 13.8511 0.0732902C13.9554 0.17227 14.0997 0.25236 14.1571 0.375518C14.3054 0.680265 14.4284 0.996647 14.5251 1.32149C15.0827 3.26632 15.8926 5.09933 16.8779 6.8651C16.8937 6.89681 16.9164 6.92455 16.9444 6.94627C16.9724 6.96798 17.0049 6.98311 17.0396 6.99052C17.0026 6.86888 16.9701 6.74572 16.9285 6.62558C16.4193 5.1628 15.9765 3.67886 15.7823 2.13902C15.7393 1.79599 15.7823 1.43936 15.808 1.09029C15.8141 1.00944 15.904 0.885526 15.9727 0.872682C16.0415 0.859837 16.1548 0.948239 16.2047 1.01775C16.2861 1.1461 16.3503 1.28453 16.3958 1.42954C17.1514 3.58895 17.8458 5.77103 18.6761 7.90098C19.032 8.8122 19.6214 9.64483 20.1873 10.4593C20.633 11.0825 20.9462 11.7905 21.1076 12.5394C21.474 14.3195 22.0709 16.0014 23.2504 17.4317C23.4325 17.6531 23.5594 17.7732 23.8548 17.6085C24.3029 17.3592 24.7932 17.4295 25.2519 17.5798C26.0142 17.8307 26.763 18.1276 27.5186 18.3958C27.9553 18.5469 28.3897 18.7351 28.8416 18.8205C30.296 19.0947 31.4385 18.4072 31.9847 17.0366C32.2205 16.4457 32.4887 15.845 32.8612 15.3358C33.8956 13.9183 35.7044 13.7604 37.0282 14.9036C37.1658 15.0118 37.3271 15.0859 37.4989 15.1197C39.217 15.5028 40.9405 15.8594 42.6541 16.2606C43.3424 16.4215 44.0096 16.6754 44.6866 16.887C44.6775 16.9172 44.6685 16.9474 44.6602 16.9784C43.9529 16.9784 43.2457 16.989 42.5385 16.9784C40.4985 16.9414 38.4584 16.8326 36.4252 16.8847C35.6696 16.9043 34.9269 17.2927 34.1781 17.5126L34.3172 17.2474L34.0369 17.0842C34.5068 17.0267 35.0365 17.0086 35.5397 16.8862C36.2069 16.7215 36.2681 16.5742 36.2801 16.0007C36.5121 15.811 36.6753 15.5541 36.8514 15.3063C36.9866 15.1152 36.979 14.9383 36.7758 14.8348C36.4207 14.658 36.0625 14.4283 35.6832 14.3709C34.2303 14.1503 33.1438 14.7895 32.5204 16.1337C32.2303 16.7593 31.9417 17.3917 31.5881 17.9818C31.1544 18.7064 30.4585 19.023 29.6236 19.0517C28.7607 19.0811 27.9666 18.8499 27.1763 18.5228C26.4693 18.2338 25.7439 17.9923 25.0048 17.7997C24.8009 17.7383 24.5863 17.7213 24.3753 17.7497C24.1644 17.7781 23.9619 17.8513 23.7815 17.9644L24.4366 18.7895C23.1583 17.9955 22.1461 16.8379 21.5299 15.465C21.0139 14.3263 20.652 13.1076 20.321 11.8979C20.0679 10.9792 19.5594 10.2727 18.9005 9.63123C18.3271 9.07362 17.6554 8.93687 16.9157 9.18545C15.5103 9.65692 14.4495 10.9988 15.8707 12.7245C16.0045 12.887 16.1563 13.0336 16.309 13.1983C15.6289 13.2942 15.2988 13.6017 15.233 14.3581C15.1726 15.0587 15.1726 15.7632 15.233 16.4638C15.4076 18.5092 16.7003 20.0724 18.6565 20.6724C18.8424 20.729 19.0343 20.7759 19.2746 20.8431C17.8654 22.2409 16.2689 23.2745 14.553 24.2296C14.5795 24.0445 14.5953 23.9319 14.6286 23.7067L10.1647 26.9557C11.1658 26.6345 12.1291 26.2462 13.0925 25.8608C14.0354 25.4755 14.9829 25.0937 15.9349 24.7154L15.9637 24.7759L13.6395 26.4729C13.7928 26.5189 13.9547 26.529 14.1125 26.5023C15.295 26.3346 16.4774 26.1623 17.6637 25.9931C19.975 25.6621 22.2054 25.1015 24.1472 23.7165C24.3219 23.5928 24.5078 23.4858 24.7026 23.3969C25.4627 23.0532 26.2273 22.6995 27.0018 22.3731C28.1487 21.8949 29.3161 21.4665 30.454 20.9602C31.4372 20.5222 32.2964 19.8472 32.9549 18.9958C33.2027 18.6814 33.4792 18.3883 33.7429 18.0853Z" fill="black"/>
<path d="M15.9637 24.7772C15.9538 24.7568 15.9448 24.7364 15.9349 24.7168C14.9834 25.0951 14.0322 25.4741 13.0812 25.8539C12.1178 26.2393 11.1545 26.6276 10.1533 26.9487L14.6172 23.6998V23.7089C14.6237 23.7022 14.6305 23.6959 14.6376 23.69C14.6185 23.6 14.6228 23.5067 14.6501 23.4188C14.6773 23.331 14.7266 23.2516 14.7933 23.1883C14.7933 23.1822 14.7933 23.1769 14.7933 23.1709C14.5621 23.3976 14.2992 23.5896 14.0128 23.7406C13.4529 24.1501 12.8794 24.5468 12.2931 24.914C11.3441 25.5056 10.3709 26.0602 9.42723 26.6601C8.99731 26.9321 8.70868 27.3401 8.52055 27.9076L9.05625 27.832C9.08193 27.863 9.10687 27.894 9.1318 27.9242L7.98107 28.8581L8.07778 28.9933L8.7442 28.9404C8.75855 28.9714 8.77366 29.0016 8.78877 29.0326C7.87605 29.8365 6.97541 30.6563 6.04228 31.4368C5.74622 31.666 5.41434 31.8447 5.06004 31.9657C3.88362 32.4077 2.69511 32.8172 1.5134 33.2456C1.28673 33.3288 1.06686 33.4406 0.84397 33.5388L0.868904 33.5985L2.34226 33.3288C2.34604 33.3454 2.35057 33.362 2.35435 33.3786L0.170759 34.6132L0.210804 34.6986L1.86625 34.0473C1.57695 34.3282 1.26816 34.5882 0.942194 34.8255L0 35.5486C2.06875 35.062 3.80353 34.0058 5.45218 32.7916C6.16091 32.2687 6.8311 31.6952 7.53075 31.1595C8.33921 30.5407 9.10913 29.8486 9.98711 29.3507C11.0283 28.7606 12.1027 28.2264 13.1817 27.7081C13.0064 27.251 13.1816 26.6435 13.7173 26.4946C13.6917 26.4886 13.666 26.4826 13.6418 26.4742L15.9637 24.7772Z" fill="#C63031"/>
<path d="M33.7428 18.0853C33.4791 18.3875 33.2025 18.6815 32.9547 18.9973C32.2963 19.8488 31.437 20.5237 30.4538 20.9618C29.3159 21.4665 28.1485 21.8949 27.0016 22.3732C26.2271 22.6996 25.4625 23.0532 24.6994 23.3985C24.5046 23.4873 24.3187 23.5943 24.144 23.7181C22.2022 25.103 19.9718 25.6637 17.6605 25.9946C16.4773 26.1639 15.2948 26.3361 14.1093 26.5039C13.9515 26.5306 13.7896 26.5205 13.6363 26.4744L15.9605 24.7774L15.9318 24.7169C14.9802 25.0952 14.029 25.4743 13.078 25.8541C12.1146 26.2394 11.1513 26.6278 10.1501 26.9489L14.614 23.6999C14.5823 23.9266 14.5664 24.0377 14.5385 24.2228C16.2544 23.2678 17.8509 22.2341 19.26 20.8363C19.0167 20.7691 18.8279 20.7223 18.642 20.6656C16.6858 20.0657 15.393 18.5024 15.2185 16.4571C15.1581 15.7564 15.1581 15.0519 15.2185 14.3513C15.2842 13.5957 15.6159 13.2875 16.2944 13.1915C16.1433 13.0268 15.9922 12.8802 15.8562 12.7178C14.435 10.9936 15.4958 9.65015 16.9012 9.17867C17.6409 8.93009 18.3126 9.06685 18.886 9.62446C19.5449 10.2659 20.0534 10.9724 20.3065 11.8912C20.6405 13.1001 21.0024 14.3196 21.5154 15.4582C22.1316 16.8311 23.1437 17.9887 24.4221 18.7827L23.767 17.9576C23.9474 17.8445 24.1498 17.7713 24.3608 17.7429C24.5718 17.7145 24.7864 17.7316 24.9903 17.7929C25.7323 17.9864 26.4605 18.2292 27.1701 18.5198C27.9604 18.8492 28.7568 19.0804 29.6174 19.0487C30.4553 19.02 31.1512 18.7034 31.5818 17.9788C31.9355 17.3887 32.2241 16.7563 32.5142 16.1307C33.1376 14.7865 34.2241 14.1473 35.677 14.3679C36.0548 14.4253 36.4145 14.655 36.7696 14.8318C36.9759 14.9354 36.9834 15.1122 36.8451 15.3033C36.6691 15.5511 36.5059 15.808 36.2739 15.9977C36.2618 16.5712 36.1984 16.7185 35.5335 16.8832C35.0303 17.0079 34.5006 17.0237 34.0306 17.0812L34.311 17.2391L34.1719 17.5043L33.7428 18.0853ZM19.8169 22.9633L19.832 22.9988C19.9537 22.8816 20.0664 22.7553 20.169 22.621C20.5113 22.0921 20.8067 21.5345 21.1837 21.0343C21.5343 20.5704 21.9567 20.1578 22.3684 19.743C22.4954 19.6153 22.6896 19.5526 22.8528 19.4605C22.5634 19.4839 22.2823 19.5682 22.0277 19.7078C21.7732 19.8473 21.551 20.0391 21.3756 20.2704C21.0402 20.7041 20.7712 21.1922 20.4977 21.6697C20.2544 22.0898 20.0421 22.5303 19.8169 22.9633ZM36.1651 15.2247L36.2112 15.1295C36.0163 15.0374 35.8259 14.8847 35.6264 14.8726C35.4791 14.8636 35.3242 15.0381 35.1572 15.1363C35.5305 15.6093 35.8508 15.1341 36.1651 15.2247Z" fill="white"/>
<path d="M25.1059 9.15647C25.2442 7.70578 25.1271 6.24074 25.1913 4.78098L25.3757 4.73489C25.486 4.91169 25.6499 5.07565 25.696 5.26379C25.968 6.39714 26.3163 7.53049 26.4395 8.68122C26.5793 9.98911 26.5075 11.3197 26.5355 12.6404C26.5347 12.8132 26.5644 12.9848 26.6231 13.1474C26.7614 13.4919 26.7682 13.8425 26.5377 14.116C25.8033 14.988 25.1777 15.9113 24.951 17.0627C24.6941 15.8342 25.2336 14.8958 26.0557 14.0571C24.8883 13.6793 23.6114 13.9264 22.1063 14.8164C21.9031 13.8508 21.7028 12.9003 21.4958 11.9196L21.7542 11.844C21.7482 11.8123 21.7542 11.7685 21.7346 11.7451C21.5895 11.5557 21.4419 11.3678 21.2918 11.1814C20.4607 10.1538 19.8698 9.01594 19.7134 7.68765C19.6829 7.3885 19.6926 7.08662 19.7421 6.79003C19.7678 6.62079 19.8932 6.46816 19.9794 6.30798C20.1199 6.42283 20.2967 6.51274 20.3949 6.6563C20.6932 7.07685 20.9652 7.51541 21.2094 7.96948C21.6983 8.91923 22.1524 9.88787 22.6201 10.8482C22.6703 10.9672 22.7426 11.0756 22.8332 11.1678C22.6216 10.4281 22.3949 9.69293 22.203 8.94869C21.9839 8.09717 21.7587 7.24338 21.6099 6.37976C21.5343 5.93171 21.5925 5.4557 21.6288 4.99556C21.6507 4.71902 21.8426 4.6752 22.0066 4.88676C22.2106 5.15272 22.4357 5.43379 22.5355 5.74508C22.9382 7.04088 23.2963 8.35028 23.6688 9.65439C23.6983 9.79144 23.7534 9.92167 23.8313 10.0382C23.7429 9.47306 23.6484 8.90487 23.5676 8.34122C23.3923 7.11871 23.2389 5.89317 23.4444 4.65933C23.4739 4.48177 23.5993 4.32084 23.6802 4.15234C23.8222 4.30346 24.0406 4.42737 24.0935 4.60568C24.3095 5.32725 24.4931 6.0594 24.6541 6.79683C24.8226 7.57507 24.9563 8.36766 25.1059 9.15647Z" fill="black"/>
<path d="M19.8174 22.9634C20.0441 22.5304 20.2549 22.0899 20.4974 21.6668C20.7724 21.1893 21.0399 20.7012 21.3754 20.2675C21.5507 20.0361 21.7729 19.8444 22.0275 19.7048C22.282 19.5653 22.5632 19.481 22.8525 19.4575C22.6893 19.5497 22.4951 19.6086 22.3682 19.7401C21.9564 20.1549 21.5371 20.5712 21.1834 21.0314C20.8057 21.5308 20.511 22.0892 20.1687 22.6181C20.0661 22.7523 19.9535 22.8786 19.8317 22.9958L19.8174 22.9634Z" fill="black"/>
<path d="M36.1652 15.225C35.8508 15.1343 35.5305 15.6096 35.1572 15.1366C35.3204 15.0384 35.4791 14.8638 35.6264 14.8729C35.8259 14.885 36.0163 15.0376 36.2112 15.1298L36.1652 15.225Z" fill="black"/>
<path d="M42.6615 16.253C40.9517 15.8549 39.2244 15.4975 37.5063 15.1197C37.3353 15.0865 37.1746 15.0135 37.0371 14.9066C37.0061 14.8802 36.9751 14.8545 36.9434 14.8311C36.9519 14.8708 36.9554 14.9114 36.9539 14.9519V14.961C36.9535 14.9888 36.9513 15.0166 36.9471 15.0441C36.9506 15.1402 36.9189 15.2342 36.858 15.3086C36.6819 15.5572 36.5187 15.814 36.2868 16.0037C36.2807 16.3059 36.2596 16.485 36.1478 16.6157C36.0646 16.7812 35.9257 16.912 35.7556 16.9852C35.9765 16.9259 36.2033 16.8914 36.4318 16.8824C38.4673 16.8303 40.5074 16.9391 42.5452 16.9761C43.3634 16.9905 44.1817 16.9761 45 16.9761C44.218 16.7494 43.4541 16.4419 42.6615 16.253Z" fill="#C63031"/>
</svg>
