<svg width="38" height="32" viewBox="0 0 38 32" fill="none" xmlns="http://www.w3.org/2000/svg">
<mask id="path-1-outside-1_27_162" maskUnits="userSpaceOnUse" x="0.157227" y="2.00537" width="37" height="27" fill="black">
<rect fill="white" x="0.157227" y="2.00537" width="37" height="27"/>
<path d="M35.9056 15.5C35.9041 14.1754 35.4681 12.8783 34.6482 11.7587C33.8283 10.6391 32.658 9.74291 31.2726 9.17375V9C31.2713 7.71152 30.7896 6.45764 29.8988 5.42389C29.008 4.39014 27.7554 3.63143 26.3263 3.26003C24.8973 2.88863 23.3678 2.92427 21.964 3.36168C20.5603 3.79909 19.3569 4.61502 18.532 5.68875C17.707 4.61502 16.5037 3.79909 15.0999 3.36168C13.6962 2.92427 12.1666 2.88863 10.7376 3.26003C9.30856 3.63143 8.05597 4.39014 7.16515 5.42389C6.27434 6.45764 5.79262 7.71152 5.79129 9V9.17375C4.40478 9.74136 3.2333 10.637 2.41299 11.7567C1.59268 12.8763 1.15723 14.1739 1.15723 15.4987C1.15723 16.8236 1.59268 18.1212 2.41299 19.2408C3.2333 20.3605 4.40478 21.2561 5.79129 21.8237V22C5.79262 23.2885 6.27434 24.5424 7.16515 25.5761C8.05597 26.6099 9.30856 27.3686 10.7376 27.74C12.1666 28.1114 13.6962 28.0757 15.0999 27.6383C16.5037 27.2009 17.707 26.385 18.532 25.3113C19.3569 26.385 20.5603 27.2009 21.964 27.6383C23.3678 28.0757 24.8973 28.1114 26.3263 27.74C27.7554 27.3686 29.008 26.6099 29.8988 25.5761C30.7896 24.5424 31.2713 23.2885 31.2726 22V21.8237C32.6578 21.255 33.828 20.3592 34.6479 19.2401C35.4678 18.121 35.9039 16.8242 35.9056 15.5ZM12.7407 26C11.5984 25.9999 10.4963 25.6353 9.64625 24.9764C8.7962 24.3175 8.25809 23.4106 8.13528 22.43C8.50983 22.4761 8.88767 22.4995 9.26602 22.5H10.4243C10.7314 22.5 11.0261 22.3946 11.2433 22.2071C11.4605 22.0196 11.5825 21.7652 11.5825 21.5C11.5825 21.2348 11.4605 20.9804 11.2433 20.7929C11.0261 20.6054 10.7314 20.5 10.4243 20.5H9.26602C7.89865 20.5014 6.57483 20.085 5.52891 19.3246C4.483 18.5641 3.78247 17.5087 3.55136 16.3451C3.32024 15.1816 3.57344 13.9849 4.26613 12.9671C4.95883 11.9492 6.04633 11.1758 7.33609 10.7838C7.56177 10.7148 7.75714 10.5871 7.89533 10.4183C8.03352 10.2495 8.10774 10.0479 8.10777 9.84125V9C8.10777 7.93913 8.59589 6.92172 9.46474 6.17157C10.3336 5.42143 11.512 5 12.7407 5C13.9695 5 15.1479 5.42143 16.0168 6.17157C16.8856 6.92172 17.3737 7.93913 17.3737 9V17.5325C16.1018 16.5449 14.4514 15.9989 12.7407 16C12.4336 16 12.139 16.1054 11.9217 16.2929C11.7045 16.4804 11.5825 16.7348 11.5825 17C11.5825 17.2652 11.7045 17.5196 11.9217 17.7071C12.139 17.8946 12.4336 18 12.7407 18C13.9695 18 15.1479 18.4214 16.0168 19.1716C16.8856 19.9217 17.3737 20.9391 17.3737 22C17.3737 23.0609 16.8856 24.0783 16.0168 24.8284C15.1479 25.5786 13.9695 26 12.7407 26ZM27.7979 20.5H26.6397C26.3325 20.5 26.0379 20.6054 25.8207 20.7929C25.6035 20.9804 25.4814 21.2348 25.4814 21.5C25.4814 21.7652 25.6035 22.0196 25.8207 22.2071C26.0379 22.3946 26.3325 22.5 26.6397 22.5H27.7979C28.1763 22.4995 28.5541 22.4761 28.9287 22.43C28.8324 23.1983 28.4805 23.9262 27.9153 24.5255C27.3502 25.1248 26.5961 25.5699 25.7442 25.807C24.8922 26.0442 23.979 26.0632 23.1148 25.8617C22.2507 25.6603 21.4726 25.247 20.8747 24.6719C20.2768 24.0967 19.8847 23.3844 19.7457 22.621C19.6068 21.8575 19.7269 21.0757 20.0917 20.3699C20.4565 19.6642 21.0502 19.0648 21.8012 18.6442C22.5521 18.2237 23.4281 17.9999 24.3232 18C24.6304 18 24.925 17.8946 25.1422 17.7071C25.3594 17.5196 25.4814 17.2652 25.4814 17C25.4814 16.7348 25.3594 16.4804 25.1422 16.2929C24.925 16.1054 24.6304 16 24.3232 16C22.6126 15.9989 20.9621 16.5449 19.6902 17.5325V9C19.6902 7.93913 20.1783 6.92172 21.0472 6.17157C21.916 5.42143 23.0944 5 24.3232 5C25.5519 5 26.7303 5.42143 27.5992 6.17157C28.468 6.92172 28.9562 7.93913 28.9562 9V9.84125C28.9562 10.0479 29.0304 10.2495 29.1686 10.4183C29.3068 10.5871 29.5022 10.7148 29.7278 10.7838C31.0176 11.1758 32.1051 11.9492 32.7978 12.9671C33.4905 13.9849 33.7437 15.1816 33.5126 16.3451C33.2815 17.5087 32.5809 18.5641 31.535 19.3246C30.4891 20.085 29.1653 20.5014 27.7979 20.5ZM30.1144 14C30.1144 14.2652 29.9924 14.5196 29.7752 14.7071C29.558 14.8946 29.2633 15 28.9562 15H28.377C26.9947 15 25.669 14.5259 24.6915 13.682C23.7141 12.8381 23.1649 11.6935 23.1649 10.5V10C23.1649 9.73478 23.287 9.48043 23.5042 9.29289C23.7214 9.10536 24.016 9 24.3232 9C24.6304 9 24.925 9.10536 25.1422 9.29289C25.3594 9.48043 25.4814 9.73478 25.4814 10V10.5C25.4814 11.163 25.7865 11.7989 26.3295 12.2678C26.8726 12.7366 27.6091 13 28.377 13H28.9562C29.2633 13 29.558 13.1054 29.7752 13.2929C29.9924 13.4804 30.1144 13.7348 30.1144 14ZM8.6869 15H8.10777C7.80059 15 7.50599 14.8946 7.28877 14.7071C7.07156 14.5196 6.94953 14.2652 6.94953 14C6.94953 13.7348 7.07156 13.4804 7.28877 13.2929C7.50599 13.1054 7.80059 13 8.10777 13H8.6869C9.45486 13 10.1914 12.7366 10.7344 12.2678C11.2774 11.7989 11.5825 11.163 11.5825 10.5V10C11.5825 9.73478 11.7045 9.48043 11.9217 9.29289C12.139 9.10536 12.4336 9 12.7407 9C13.0479 9 13.3425 9.10536 13.5598 9.29289C13.777 9.48043 13.899 9.73478 13.899 10V10.5C13.899 11.6935 13.3499 12.8381 12.3724 13.682C11.3949 14.5259 10.0692 15 8.6869 15Z"/>
</mask>
<path d="M35.9056 15.5C35.9041 14.1754 35.4681 12.8783 34.6482 11.7587C33.8283 10.6391 32.658 9.74291 31.2726 9.17375V9C31.2713 7.71152 30.7896 6.45764 29.8988 5.42389C29.008 4.39014 27.7554 3.63143 26.3263 3.26003C24.8973 2.88863 23.3678 2.92427 21.964 3.36168C20.5603 3.79909 19.3569 4.61502 18.532 5.68875C17.707 4.61502 16.5037 3.79909 15.0999 3.36168C13.6962 2.92427 12.1666 2.88863 10.7376 3.26003C9.30856 3.63143 8.05597 4.39014 7.16515 5.42389C6.27434 6.45764 5.79262 7.71152 5.79129 9V9.17375C4.40478 9.74136 3.2333 10.637 2.41299 11.7567C1.59268 12.8763 1.15723 14.1739 1.15723 15.4987C1.15723 16.8236 1.59268 18.1212 2.41299 19.2408C3.2333 20.3605 4.40478 21.2561 5.79129 21.8237V22C5.79262 23.2885 6.27434 24.5424 7.16515 25.5761C8.05597 26.6099 9.30856 27.3686 10.7376 27.74C12.1666 28.1114 13.6962 28.0757 15.0999 27.6383C16.5037 27.2009 17.707 26.385 18.532 25.3113C19.3569 26.385 20.5603 27.2009 21.964 27.6383C23.3678 28.0757 24.8973 28.1114 26.3263 27.74C27.7554 27.3686 29.008 26.6099 29.8988 25.5761C30.7896 24.5424 31.2713 23.2885 31.2726 22V21.8237C32.6578 21.255 33.828 20.3592 34.6479 19.2401C35.4678 18.121 35.9039 16.8242 35.9056 15.5ZM12.7407 26C11.5984 25.9999 10.4963 25.6353 9.64625 24.9764C8.7962 24.3175 8.25809 23.4106 8.13528 22.43C8.50983 22.4761 8.88767 22.4995 9.26602 22.5H10.4243C10.7314 22.5 11.0261 22.3946 11.2433 22.2071C11.4605 22.0196 11.5825 21.7652 11.5825 21.5C11.5825 21.2348 11.4605 20.9804 11.2433 20.7929C11.0261 20.6054 10.7314 20.5 10.4243 20.5H9.26602C7.89865 20.5014 6.57483 20.085 5.52891 19.3246C4.483 18.5641 3.78247 17.5087 3.55136 16.3451C3.32024 15.1816 3.57344 13.9849 4.26613 12.9671C4.95883 11.9492 6.04633 11.1758 7.33609 10.7838C7.56177 10.7148 7.75714 10.5871 7.89533 10.4183C8.03352 10.2495 8.10774 10.0479 8.10777 9.84125V9C8.10777 7.93913 8.59589 6.92172 9.46474 6.17157C10.3336 5.42143 11.512 5 12.7407 5C13.9695 5 15.1479 5.42143 16.0168 6.17157C16.8856 6.92172 17.3737 7.93913 17.3737 9V17.5325C16.1018 16.5449 14.4514 15.9989 12.7407 16C12.4336 16 12.139 16.1054 11.9217 16.2929C11.7045 16.4804 11.5825 16.7348 11.5825 17C11.5825 17.2652 11.7045 17.5196 11.9217 17.7071C12.139 17.8946 12.4336 18 12.7407 18C13.9695 18 15.1479 18.4214 16.0168 19.1716C16.8856 19.9217 17.3737 20.9391 17.3737 22C17.3737 23.0609 16.8856 24.0783 16.0168 24.8284C15.1479 25.5786 13.9695 26 12.7407 26ZM27.7979 20.5H26.6397C26.3325 20.5 26.0379 20.6054 25.8207 20.7929C25.6035 20.9804 25.4814 21.2348 25.4814 21.5C25.4814 21.7652 25.6035 22.0196 25.8207 22.2071C26.0379 22.3946 26.3325 22.5 26.6397 22.5H27.7979C28.1763 22.4995 28.5541 22.4761 28.9287 22.43C28.8324 23.1983 28.4805 23.9262 27.9153 24.5255C27.3502 25.1248 26.5961 25.5699 25.7442 25.807C24.8922 26.0442 23.979 26.0632 23.1148 25.8617C22.2507 25.6603 21.4726 25.247 20.8747 24.6719C20.2768 24.0967 19.8847 23.3844 19.7457 22.621C19.6068 21.8575 19.7269 21.0757 20.0917 20.3699C20.4565 19.6642 21.0502 19.0648 21.8012 18.6442C22.5521 18.2237 23.4281 17.9999 24.3232 18C24.6304 18 24.925 17.8946 25.1422 17.7071C25.3594 17.5196 25.4814 17.2652 25.4814 17C25.4814 16.7348 25.3594 16.4804 25.1422 16.2929C24.925 16.1054 24.6304 16 24.3232 16C22.6126 15.9989 20.9621 16.5449 19.6902 17.5325V9C19.6902 7.93913 20.1783 6.92172 21.0472 6.17157C21.916 5.42143 23.0944 5 24.3232 5C25.5519 5 26.7303 5.42143 27.5992 6.17157C28.468 6.92172 28.9562 7.93913 28.9562 9V9.84125C28.9562 10.0479 29.0304 10.2495 29.1686 10.4183C29.3068 10.5871 29.5022 10.7148 29.7278 10.7838C31.0176 11.1758 32.1051 11.9492 32.7978 12.9671C33.4905 13.9849 33.7437 15.1816 33.5126 16.3451C33.2815 17.5087 32.5809 18.5641 31.535 19.3246C30.4891 20.085 29.1653 20.5014 27.7979 20.5ZM30.1144 14C30.1144 14.2652 29.9924 14.5196 29.7752 14.7071C29.558 14.8946 29.2633 15 28.9562 15H28.377C26.9947 15 25.669 14.5259 24.6915 13.682C23.7141 12.8381 23.1649 11.6935 23.1649 10.5V10C23.1649 9.73478 23.287 9.48043 23.5042 9.29289C23.7214 9.10536 24.016 9 24.3232 9C24.6304 9 24.925 9.10536 25.1422 9.29289C25.3594 9.48043 25.4814 9.73478 25.4814 10V10.5C25.4814 11.163 25.7865 11.7989 26.3295 12.2678C26.8726 12.7366 27.6091 13 28.377 13H28.9562C29.2633 13 29.558 13.1054 29.7752 13.2929C29.9924 13.4804 30.1144 13.7348 30.1144 14ZM8.6869 15H8.10777C7.80059 15 7.50599 14.8946 7.28877 14.7071C7.07156 14.5196 6.94953 14.2652 6.94953 14C6.94953 13.7348 7.07156 13.4804 7.28877 13.2929C7.50599 13.1054 7.80059 13 8.10777 13H8.6869C9.45486 13 10.1914 12.7366 10.7344 12.2678C11.2774 11.7989 11.5825 11.163 11.5825 10.5V10C11.5825 9.73478 11.7045 9.48043 11.9217 9.29289C12.139 9.10536 12.4336 9 12.7407 9C13.0479 9 13.3425 9.10536 13.5598 9.29289C13.777 9.48043 13.899 9.73478 13.899 10V10.5C13.899 11.6935 13.3499 12.8381 12.3724 13.682C11.3949 14.5259 10.0692 15 8.6869 15Z" fill="#C63031"/>
<path d="M35.9056 15.5C35.9041 14.1754 35.4681 12.8783 34.6482 11.7587C33.8283 10.6391 32.658 9.74291 31.2726 9.17375V9C31.2713 7.71152 30.7896 6.45764 29.8988 5.42389C29.008 4.39014 27.7554 3.63143 26.3263 3.26003C24.8973 2.88863 23.3678 2.92427 21.964 3.36168C20.5603 3.79909 19.3569 4.61502 18.532 5.68875C17.707 4.61502 16.5037 3.79909 15.0999 3.36168C13.6962 2.92427 12.1666 2.88863 10.7376 3.26003C9.30856 3.63143 8.05597 4.39014 7.16515 5.42389C6.27434 6.45764 5.79262 7.71152 5.79129 9V9.17375C4.40478 9.74136 3.2333 10.637 2.41299 11.7567C1.59268 12.8763 1.15723 14.1739 1.15723 15.4987C1.15723 16.8236 1.59268 18.1212 2.41299 19.2408C3.2333 20.3605 4.40478 21.2561 5.79129 21.8237V22C5.79262 23.2885 6.27434 24.5424 7.16515 25.5761C8.05597 26.6099 9.30856 27.3686 10.7376 27.74C12.1666 28.1114 13.6962 28.0757 15.0999 27.6383C16.5037 27.2009 17.707 26.385 18.532 25.3113C19.3569 26.385 20.5603 27.2009 21.964 27.6383C23.3678 28.0757 24.8973 28.1114 26.3263 27.74C27.7554 27.3686 29.008 26.6099 29.8988 25.5761C30.7896 24.5424 31.2713 23.2885 31.2726 22V21.8237C32.6578 21.255 33.828 20.3592 34.6479 19.2401C35.4678 18.121 35.9039 16.8242 35.9056 15.5ZM12.7407 26C11.5984 25.9999 10.4963 25.6353 9.64625 24.9764C8.7962 24.3175 8.25809 23.4106 8.13528 22.43C8.50983 22.4761 8.88767 22.4995 9.26602 22.5H10.4243C10.7314 22.5 11.0261 22.3946 11.2433 22.2071C11.4605 22.0196 11.5825 21.7652 11.5825 21.5C11.5825 21.2348 11.4605 20.9804 11.2433 20.7929C11.0261 20.6054 10.7314 20.5 10.4243 20.5H9.26602C7.89865 20.5014 6.57483 20.085 5.52891 19.3246C4.483 18.5641 3.78247 17.5087 3.55136 16.3451C3.32024 15.1816 3.57344 13.9849 4.26613 12.9671C4.95883 11.9492 6.04633 11.1758 7.33609 10.7838C7.56177 10.7148 7.75714 10.5871 7.89533 10.4183C8.03352 10.2495 8.10774 10.0479 8.10777 9.84125V9C8.10777 7.93913 8.59589 6.92172 9.46474 6.17157C10.3336 5.42143 11.512 5 12.7407 5C13.9695 5 15.1479 5.42143 16.0168 6.17157C16.8856 6.92172 17.3737 7.93913 17.3737 9V17.5325C16.1018 16.5449 14.4514 15.9989 12.7407 16C12.4336 16 12.139 16.1054 11.9217 16.2929C11.7045 16.4804 11.5825 16.7348 11.5825 17C11.5825 17.2652 11.7045 17.5196 11.9217 17.7071C12.139 17.8946 12.4336 18 12.7407 18C13.9695 18 15.1479 18.4214 16.0168 19.1716C16.8856 19.9217 17.3737 20.9391 17.3737 22C17.3737 23.0609 16.8856 24.0783 16.0168 24.8284C15.1479 25.5786 13.9695 26 12.7407 26ZM27.7979 20.5H26.6397C26.3325 20.5 26.0379 20.6054 25.8207 20.7929C25.6035 20.9804 25.4814 21.2348 25.4814 21.5C25.4814 21.7652 25.6035 22.0196 25.8207 22.2071C26.0379 22.3946 26.3325 22.5 26.6397 22.5H27.7979C28.1763 22.4995 28.5541 22.4761 28.9287 22.43C28.8324 23.1983 28.4805 23.9262 27.9153 24.5255C27.3502 25.1248 26.5961 25.5699 25.7442 25.807C24.8922 26.0442 23.979 26.0632 23.1148 25.8617C22.2507 25.6603 21.4726 25.247 20.8747 24.6719C20.2768 24.0967 19.8847 23.3844 19.7457 22.621C19.6068 21.8575 19.7269 21.0757 20.0917 20.3699C20.4565 19.6642 21.0502 19.0648 21.8012 18.6442C22.5521 18.2237 23.4281 17.9999 24.3232 18C24.6304 18 24.925 17.8946 25.1422 17.7071C25.3594 17.5196 25.4814 17.2652 25.4814 17C25.4814 16.7348 25.3594 16.4804 25.1422 16.2929C24.925 16.1054 24.6304 16 24.3232 16C22.6126 15.9989 20.9621 16.5449 19.6902 17.5325V9C19.6902 7.93913 20.1783 6.92172 21.0472 6.17157C21.916 5.42143 23.0944 5 24.3232 5C25.5519 5 26.7303 5.42143 27.5992 6.17157C28.468 6.92172 28.9562 7.93913 28.9562 9V9.84125C28.9562 10.0479 29.0304 10.2495 29.1686 10.4183C29.3068 10.5871 29.5022 10.7148 29.7278 10.7838C31.0176 11.1758 32.1051 11.9492 32.7978 12.9671C33.4905 13.9849 33.7437 15.1816 33.5126 16.3451C33.2815 17.5087 32.5809 18.5641 31.535 19.3246C30.4891 20.085 29.1653 20.5014 27.7979 20.5ZM30.1144 14C30.1144 14.2652 29.9924 14.5196 29.7752 14.7071C29.558 14.8946 29.2633 15 28.9562 15H28.377C26.9947 15 25.669 14.5259 24.6915 13.682C23.7141 12.8381 23.1649 11.6935 23.1649 10.5V10C23.1649 9.73478 23.287 9.48043 23.5042 9.29289C23.7214 9.10536 24.016 9 24.3232 9C24.6304 9 24.925 9.10536 25.1422 9.29289C25.3594 9.48043 25.4814 9.73478 25.4814 10V10.5C25.4814 11.163 25.7865 11.7989 26.3295 12.2678C26.8726 12.7366 27.6091 13 28.377 13H28.9562C29.2633 13 29.558 13.1054 29.7752 13.2929C29.9924 13.4804 30.1144 13.7348 30.1144 14ZM8.6869 15H8.10777C7.80059 15 7.50599 14.8946 7.28877 14.7071C7.07156 14.5196 6.94953 14.2652 6.94953 14C6.94953 13.7348 7.07156 13.4804 7.28877 13.2929C7.50599 13.1054 7.80059 13 8.10777 13H8.6869C9.45486 13 10.1914 12.7366 10.7344 12.2678C11.2774 11.7989 11.5825 11.163 11.5825 10.5V10C11.5825 9.73478 11.7045 9.48043 11.9217 9.29289C12.139 9.10536 12.4336 9 12.7407 9C13.0479 9 13.3425 9.10536 13.5598 9.29289C13.777 9.48043 13.899 9.73478 13.899 10V10.5C13.899 11.6935 13.3499 12.8381 12.3724 13.682C11.3949 14.5259 10.0692 15 8.6869 15Z" stroke="#C63031" stroke-width="0.6" mask="url(#path-1-outside-1_27_162)"/>
</svg>
