<svg width="38" height="32" viewBox="0 0 38 32" fill="none" xmlns="http://www.w3.org/2000/svg">
<path d="M13.9886 28.0847L13.9878 28.0844C13.828 28.0344 13.68 27.9573 13.5526 27.8567C13.4252 27.7561 13.3205 27.6336 13.2459 27.4955C13.1712 27.3574 13.1282 27.2067 13.1204 27.0524C13.1126 26.898 13.1401 26.7444 13.2009 26.6005L22.4668 4.60065C22.4668 4.60062 22.4668 4.60059 22.4668 4.60056C22.5272 4.45686 22.6192 4.32637 22.7362 4.21594C22.8532 4.10554 22.993 4.01716 23.1473 3.95494C23.3015 3.89271 23.4677 3.85758 23.6365 3.8511C23.8054 3.84461 23.9743 3.86688 24.1339 3.9169C24.2935 3.96692 24.4413 4.04395 24.5686 4.14446C24.6959 4.245 24.8004 4.36734 24.8751 4.50525C24.9498 4.64325 24.9928 4.7937 25.0007 4.94787C25.0087 5.10205 24.9813 5.25559 24.9208 5.39943L24.9208 5.39951L15.6549 27.3994C15.6548 27.3995 15.6548 27.3995 15.6548 27.3995C15.5603 27.6243 15.3896 27.8146 15.1702 27.9473C14.951 28.08 14.6918 28.15 14.4279 28.15L13.9886 28.0847ZM13.9886 28.0847C14.1299 28.1281 14.2785 28.1501 14.4278 28.15L13.9886 28.0847ZM2.0165 16.8893L2.01652 16.8893L8.9637 21.8876C8.96407 21.8879 8.96444 21.8882 8.96481 21.8885C9.09633 21.9867 9.24803 22.0605 9.41079 22.1066C9.57402 22.1527 9.74584 22.1703 9.91642 22.1583C10.087 22.1464 10.2537 22.1051 10.407 22.0365C10.5602 21.9679 10.6975 21.8729 10.8101 21.7562C10.9227 21.6395 11.0086 21.5032 11.0612 21.3548C11.1138 21.2063 11.1318 21.0496 11.1137 20.8942C11.0955 20.7388 11.0418 20.5893 10.9567 20.4542C10.8719 20.3196 10.758 20.2025 10.6226 20.1087C10.6222 20.1084 10.6218 20.1082 10.6214 20.1079L4.91199 16L10.6237 11.8906C10.6237 11.8906 10.6237 11.8906 10.6237 11.8905C10.8909 11.6985 11.0649 11.4178 11.0978 11.1069L10.9486 11.0911L11.0978 11.1069C11.1308 10.7954 11.0183 10.4893 10.7932 10.2559C10.569 10.0234 10.2513 9.88113 9.9121 9.85436C9.57288 9.82759 9.23266 9.91783 8.96603 10.1095L8.96598 10.1095L2.01652 15.1095L2.0165 15.1095C1.86896 15.2157 1.74841 15.3499 1.66496 15.5038C1.58143 15.6578 1.5375 15.8271 1.5375 15.9994C1.5375 16.1717 1.58143 16.341 1.66496 16.495C1.74841 16.6489 1.86896 16.7831 2.0165 16.8893ZM29.1556 10.1095L29.1556 10.1095C29.0233 10.0144 28.8717 9.94351 28.7098 9.90002C28.5478 9.85652 28.3779 9.84107 28.2095 9.85436C28.0411 9.86765 27.8768 9.90947 27.7258 9.97796C27.5749 10.0465 27.4396 10.1406 27.3284 10.2559L27.4364 10.36L27.3284 10.2559C27.1033 10.4893 26.9908 10.7954 27.0238 11.1069C27.0567 11.4178 27.2307 11.6985 27.4979 11.8905C27.4979 11.8906 27.4979 11.8906 27.4979 11.8906L33.2096 16L27.5002 20.1079C27.4998 20.1082 27.4994 20.1084 27.499 20.1087C27.3636 20.2025 27.2497 20.3196 27.1649 20.4542C27.0798 20.5893 27.0261 20.7388 27.0079 20.8942C26.9898 21.0496 27.0078 21.2063 27.0604 21.3548C27.113 21.5032 27.1989 21.6395 27.3115 21.7562C27.4242 21.8729 27.5614 21.9679 27.7147 22.0365C27.8679 22.1051 28.0346 22.1464 28.2052 22.1583C28.3758 22.1703 28.5476 22.1527 28.7108 22.1066C28.8736 22.0605 29.0253 21.9867 29.1568 21.8885C29.1572 21.8882 29.1575 21.8879 29.1579 21.8876L36.1051 16.8893L36.0175 16.7675L36.1051 16.8893C36.2527 16.7831 36.3732 16.6489 36.4567 16.495C36.5402 16.341 36.5841 16.1717 36.5841 15.9994C36.5841 15.8271 36.5402 15.6578 36.4567 15.5038C36.3732 15.3499 36.2527 15.2157 36.1051 15.1095L36.0175 15.2313L36.1051 15.1095L29.1556 10.1095Z" fill="#C63031" stroke="#C63031" stroke-width="0.3"/>
</svg>
