<svg width="32" height="32" viewBox="0 0 32 32" fill="none" xmlns="http://www.w3.org/2000/svg">
<path d="M22.4293 12.0564L22.4289 12.056L19.15 8.77597V12C19.15 12.305 19.0288 12.5975 18.8132 12.8132C18.5975 13.0288 18.305 13.15 18 13.15C17.695 13.15 17.4025 13.0288 17.1868 12.8132C16.9712 12.5975 16.85 12.305 16.85 12V6C16.85 5.695 16.9712 5.40249 17.1868 5.18683C17.4025 4.97116 17.695 4.85 18 4.85H24C24.305 4.85 24.5975 4.97116 24.8132 5.18683C25.0289 5.40249 25.15 5.695 25.15 6C25.15 6.305 25.0289 6.59751 24.8132 6.81317C24.5975 7.02884 24.305 7.15 24 7.15H20.776L24.0558 10.4287C24.0559 10.4287 24.0559 10.4287 24.0559 10.4288C24.7217 11.0914 25.2496 11.8795 25.6091 12.7474C25.9685 13.6154 26.1524 14.5459 26.15 15.4854M22.4293 12.0564L26 15.485M22.4293 12.0564C22.8811 12.5054 23.2394 13.0396 23.4833 13.6281C23.7271 14.2166 23.8518 14.8476 23.85 15.4846V15.485V20.0105C22.9192 20.2789 22.1103 20.865 21.5653 21.6688C20.9984 22.5048 20.7558 23.5189 20.8831 24.5209C21.0104 25.5229 21.4987 26.4441 22.2566 27.1119C23.0145 27.7796 23.9899 28.148 25 28.148C26.0101 28.148 26.9855 27.7796 27.7434 27.1119C28.5013 26.4441 28.9897 25.5229 29.1169 24.5209C29.2442 23.5189 29.0017 22.5048 28.4348 21.6688C27.8897 20.865 27.0808 20.2789 26.15 20.0105M22.4293 12.0564L26 20.125M26.15 15.4854L26 15.485M26.15 15.4854V15.485H26M26.15 15.4854V20.0105M26 15.485V20.125M26.15 20.0105C26.1127 19.9997 26.0752 19.9895 26.0375 19.9798L26 20.125M26.15 20.0105V20.125H26M13.15 8.00014L13.15 7.99992C13.1496 7.22382 12.9316 6.46338 12.5207 5.80497C12.1099 5.14655 11.5226 4.61654 10.8256 4.27513C10.1286 3.93372 9.34989 3.79459 8.57782 3.87355C7.80574 3.9525 7.07128 4.24638 6.45784 4.72179C5.8444 5.19721 5.37656 5.83512 5.10746 6.56307C4.83836 7.29103 4.77878 8.07986 4.93549 8.83997C5.0922 9.60009 5.45891 10.301 5.99399 10.8632C6.50223 11.3972 7.14303 11.7856 7.85001 11.9895V20.0105C6.91923 20.2789 6.11032 20.865 5.56526 21.6688C4.99836 22.5048 4.75581 23.5189 4.88309 24.5209C5.01036 25.5229 5.49872 26.4441 6.25662 27.1119C7.01452 27.7796 7.98993 28.148 9.00001 28.148C10.0101 28.148 10.9855 27.7796 11.7434 27.1119C12.5013 26.4441 12.9897 25.5229 13.1169 24.5209C13.2442 23.5189 13.0017 22.5048 12.4348 21.6688C11.8897 20.865 11.0808 20.2789 10.15 20.0105V11.9893C10.9944 11.7446 11.7405 11.2381 12.2799 10.5413C12.8431 9.81386 13.1491 8.92014 13.15 8.00014ZM10.85 24C10.85 24.3659 10.7415 24.7236 10.5382 25.0278C10.3349 25.332 10.046 25.5692 9.70797 25.7092C9.36993 25.8492 8.99796 25.8858 8.63909 25.8145C8.28023 25.7431 7.95059 25.5669 7.69186 25.3081C7.43313 25.0494 7.25694 24.7198 7.18556 24.3609C7.11417 24.0021 7.15081 23.6301 7.29083 23.292C7.43085 22.954 7.66797 22.6651 7.9722 22.4618C8.27644 22.2585 8.63411 22.15 9.00001 22.15C9.49066 22.15 9.96121 22.3449 10.3082 22.6919C10.6551 23.0388 10.85 23.5093 10.85 24ZM9.00001 9.85C8.63411 9.85 8.27644 9.7415 7.9722 9.53822C7.66797 9.33494 7.43085 9.04601 7.29083 8.70796C7.15081 8.36992 7.11417 7.99795 7.18556 7.63908C7.25694 7.28022 7.43313 6.95058 7.69186 6.69185C7.95059 6.43312 8.28023 6.25693 8.63909 6.18555C8.99796 6.11416 9.36993 6.1508 9.70797 6.29082C10.046 6.43084 10.3349 6.66796 10.5382 6.97219C10.7415 7.27643 10.85 7.6341 10.85 8C10.85 8.49065 10.6551 8.9612 10.3082 9.30815C9.96121 9.65509 9.49066 9.85 9.00001 9.85ZM25 25.85C24.6341 25.85 24.2764 25.7415 23.9722 25.5382C23.668 25.3349 23.4309 25.046 23.2908 24.708C23.1508 24.3699 23.1142 23.9979 23.1856 23.6391C23.2569 23.2802 23.4331 22.9506 23.6919 22.6919C23.9506 22.4331 24.2802 22.2569 24.6391 22.1855C24.998 22.1142 25.3699 22.1508 25.708 22.2908C26.046 22.4308 26.3349 22.668 26.5382 22.9722C26.7415 23.2764 26.85 23.6341 26.85 24C26.85 24.4907 26.6551 24.9612 26.3082 25.3081C25.9612 25.6551 25.4907 25.85 25 25.85Z" fill="#C63031" stroke="#C63031" stroke-width="0.3"/>
</svg>
