<svg width="30" height="39" viewBox="0 0 30 39" fill="none" xmlns="http://www.w3.org/2000/svg">
<g clip-path="url(#clip0_43_3946)">
<path d="M10.3314 29.6993C10.3314 29.6993 8.87677 30.5843 11.3441 30.8379C14.3078 31.2166 15.8967 31.154 19.1848 30.5217C19.1848 30.5217 20.0698 31.0898 21.2718 31.5344C13.8731 34.6957 4.51514 31.345 10.3323 29.701L10.3314 29.6993ZM9.38308 25.5896C9.38308 25.5896 7.80242 26.7916 10.268 27.0443C13.4928 27.3604 16.0309 27.423 20.3859 26.5388C20.3859 26.5388 20.954 27.1711 21.9032 27.4872C12.9873 30.1431 2.99623 27.7391 9.38308 25.5896ZM26.8362 32.7981C26.8362 32.7981 27.9114 33.6831 25.6342 34.3787C21.3977 35.6432 7.86581 36.0228 4.07141 34.3787C2.74349 33.8107 5.27336 32.9792 6.09498 32.8615C6.91824 32.6721 7.35951 32.6721 7.35951 32.6721C5.90563 31.6595 -2.31544 34.7591 3.18558 35.6359C18.2981 38.1015 30.7549 34.5607 26.8345 32.7907L26.8362 32.7981ZM11.0263 21.2897C11.0263 21.2897 4.13397 22.9337 8.55982 23.5026C10.4566 23.7553 14.1877 23.692 17.6651 23.4392C20.5103 23.1865 23.3562 22.6803 23.3562 22.6803C23.3562 22.6803 22.3437 23.1231 21.6488 23.5653C14.6297 25.3987 1.16118 24.5778 5.01898 22.6803C8.30708 21.0996 11.0263 21.2806 11.0263 21.2806V21.2897ZM23.3571 28.182C30.4388 24.5144 27.1507 20.9736 24.8743 21.4165C24.3063 21.5433 24.0511 21.6692 24.0511 21.6692C24.0511 21.6692 24.2405 21.2905 24.6833 21.1637C29.1726 19.5831 32.7142 25.9057 23.2287 28.3722C23.2287 28.3722 23.2921 28.3088 23.3555 28.1829L23.3571 28.182ZM11.7228 38.1723C18.5517 38.6152 28.9866 37.9196 29.2385 34.6949C29.2385 34.6949 28.733 35.9594 23.6106 36.9078C17.7935 37.983 10.585 37.8562 6.3469 37.1605C6.3469 37.1605 7.2319 37.9187 11.7228 38.1723Z" fill="#5382A1"/>
<path d="M19.0568 0.422363C19.0568 0.422363 22.9772 4.40694 15.3258 10.4135C9.19251 15.2822 13.9263 18.0648 15.3258 21.2261C11.7215 18.0015 9.12911 15.1563 10.8991 12.4996C13.4924 8.57922 20.6375 6.68243 19.0568 0.422363ZM17.0332 18.5703C18.8666 20.6572 16.5269 22.5549 16.5269 22.5549C16.5269 22.5549 21.2063 20.151 19.056 17.179C17.0966 14.3338 15.5785 12.9425 23.7979 8.1997C23.7979 8.1997 10.8349 11.4244 17.0324 18.5695L17.0332 18.5703Z" fill="#E76F00"/>
</g>
<defs>
<clipPath id="clip0_43_3946">
<rect width="28.9003" height="38.223" fill="white" transform="translate(0.915039 0.422363)"/>
</clipPath>
</defs>
</svg>
