<svg width="47" height="48" viewBox="0 0 47 48" fill="none" xmlns="http://www.w3.org/2000/svg">
<g clip-path="url(#clip0_43_3937)">
<path d="M0.177246 0.693359H46.7906V47.3067H0.177246V0.693359Z" fill="#F0DB4F"/>
<path d="M42.9756 36.1895C42.6344 34.0626 41.2475 32.277 37.14 30.611C35.7133 29.9552 34.1226 29.4856 33.6484 28.4044C33.48 27.7751 33.458 27.4207 33.5642 27.0397C33.87 25.8034 35.3455 25.4179 36.5152 25.7724C37.2685 26.025 37.9819 26.6054 38.4117 27.5314C40.4234 26.2288 40.4189 26.2376 41.8236 25.3427C41.3095 24.5451 41.0348 24.1772 40.698 23.8361C39.4884 22.4847 37.8401 21.789 35.2037 21.8422C34.7474 21.8998 34.2866 21.9618 33.8301 22.0194C32.5142 22.3518 31.2602 23.0429 30.5247 23.9691C28.3181 26.4726 28.9473 30.8547 31.6324 32.6581C34.2777 34.6432 38.1636 35.0951 38.6598 36.9517C39.1428 39.2248 36.9894 39.9602 34.8493 39.6988C33.2719 39.371 32.3945 38.569 31.4463 37.1112C29.7005 38.1214 29.7005 38.1214 27.906 39.1538C28.3314 40.0843 28.7789 40.5053 29.4923 41.3117C32.8687 44.7368 41.3184 44.5684 42.8339 39.3843C42.8958 39.207 43.3035 38.0194 42.9756 36.1895ZM25.5177 22.1168H21.1577C21.1577 25.8832 21.14 29.6229 21.14 33.3892C21.14 35.7863 21.2641 37.984 20.8741 38.6576C20.2361 39.9823 18.5834 39.8184 17.8301 39.5614C17.0636 39.1848 16.6736 38.6486 16.2216 37.891C16.0976 37.6739 16.0045 37.5055 15.9735 37.4923C14.7905 38.2145 13.6119 38.9411 12.4287 39.6634C13.0181 40.873 13.8865 41.9231 14.9987 42.6055C16.6603 43.6024 18.8935 43.9081 21.2287 43.3721C22.7484 42.929 24.06 42.0118 24.7468 40.616C25.7392 38.7861 25.5266 36.5706 25.5177 34.1202C25.5398 30.1236 25.5177 26.1269 25.5177 22.1168Z" fill="#323330"/>
</g>
<defs>
<clipPath id="clip0_43_3937">
<rect width="46.6134" height="46.6134" fill="white" transform="translate(0.177246 0.693359)"/>
</clipPath>
</defs>
</svg>
