<svg width="57" height="25" viewBox="0 0 57 25" fill="none" xmlns="http://www.w3.org/2000/svg">
<g clip-path="url(#clip0_43_3952)">
<g opacity="0.7">
<path d="M20.3308 5.2166C22.3468 11.7208 23.1099 23.3253 29.0055 23.3253C29.4539 23.3253 29.9077 23.2784 30.3629 23.1873C25.0033 21.8692 24.3687 10.3913 21.0985 4.44702C20.8422 4.69285 20.5878 4.94934 20.3301 5.21596L20.3308 5.2166Z" fill="url(#paint0_linear_43_3952)"/>
<path d="M21.1045 4.44612C24.3752 10.391 25.0099 21.869 30.3687 23.1864C30.7993 23.1005 31.2225 22.9801 31.6341 22.826C26.8244 20.3391 25.4947 9.19348 21.7809 3.82788C21.5556 4.02547 21.3297 4.23181 21.1045 4.44612Z" fill="url(#paint1_linear_43_3952)"/>
<path d="M25.8132 0.913597C25.3653 0.913597 24.9109 0.95981 24.4551 1.0509C23.2619 1.28867 22.0503 1.83052 20.8286 2.65033C21.1625 2.9986 21.4799 3.39578 21.7786 3.82913C23.0208 2.74141 24.2551 1.93768 25.4846 1.45478C25.9464 1.27393 26.4055 1.13864 26.8673 1.04956C26.5233 0.958108 26.1689 0.912401 25.8132 0.913597Z" fill="#14559A"/>
<path d="M35.3827 20.5334C35.8962 20.1003 36.39 19.6438 36.8622 19.1651C34.8137 12.6911 34.0803 0.92041 28.1437 0.92041C27.7198 0.92041 27.291 0.962606 26.8638 1.04566C32.271 2.46492 32.9633 14.8792 35.3827 20.5334Z" fill="url(#paint2_linear_43_3952)"/>
<path d="M26.868 1.04736C26.524 0.955945 26.1696 0.910238 25.814 0.911399L28.1479 0.920772C27.7239 0.920772 27.2953 0.962967 26.868 1.04736Z" fill="#3092C4"/>
<path d="M35.2849 21.9101C35.048 21.6686 34.8246 21.4139 34.6158 21.1472C33.6168 21.8933 32.6217 22.4593 31.6333 22.8271C32.27 23.158 32.9763 23.3292 33.6923 23.326C34.8019 23.326 35.6784 23.1874 36.4257 22.8095C36.0059 22.5648 35.622 22.2621 35.2849 21.9101Z" fill="#1969BC"/>
<path d="M25.4824 1.45434C30.3253 4.12672 30.7466 16.2316 34.6116 21.1464C34.87 20.9535 35.127 20.7498 35.3834 20.5342C32.964 14.88 32.2723 2.46503 26.8657 1.04712C26.4046 1.1382 25.9435 1.27283 25.4824 1.45434Z" fill="url(#paint3_linear_43_3952)"/>
<path d="M21.7759 3.8287C25.4898 9.19424 26.8194 20.3399 31.6291 22.8268C32.6181 22.4585 33.6132 21.8925 34.6116 21.1471C30.7466 16.2316 30.3252 4.12808 25.4825 1.45435C24.2529 1.93659 23.0179 2.74032 21.7759 3.8287Z" fill="url(#paint4_linear_43_3952)"/>
<path d="M17.9569 5.06047C17.3753 6.44958 16.7804 8.27473 16.0615 10.6571C17.4912 8.53192 18.9163 6.70076 20.3326 5.21722C20.1542 4.62702 19.9437 4.04724 19.7019 3.48047C19.0924 3.97502 18.5098 4.50202 17.9569 5.06047Z" fill="url(#paint5_linear_43_3952)"/>
<path d="M20.2184 3.07886C20.0481 3.20813 19.8758 3.34007 19.7036 3.47939C19.9288 3.99912 20.1375 4.58319 20.333 5.2161C20.5907 4.95019 20.8457 4.6937 21.1015 4.44723C20.8419 3.96919 20.5463 3.51178 20.2184 3.07886Z" fill="#2B74B1"/>
<path d="M20.8283 2.65088C20.6255 2.78684 20.4235 2.93018 20.2188 3.07954C20.5471 3.51317 20.8425 3.97125 21.1025 4.44987C21.3278 4.23421 21.5537 4.02663 21.7782 3.82969C21.4938 3.41149 21.1756 3.01727 20.8283 2.65088Z" fill="#125A9E"/>
<path d="M53.863 0.416987C51.1236 11.5634 45.4029 20.517 40.6065 22.7741H40.5966C40.5098 22.8156 40.4231 22.8531 40.3382 22.89C40.3263 22.898 40.315 22.8986 40.3064 22.9034L40.2322 22.9328C40.2209 22.9402 40.2097 22.9428 40.1991 22.9476C40.1593 22.9623 40.1196 22.9756 40.0798 22.9917C40.0626 22.9998 40.0467 23.0044 40.0301 23.0105C40.0106 23.0182 39.9908 23.025 39.9705 23.0306C39.9526 23.0386 39.9341 23.044 39.9129 23.0521C39.8957 23.0594 39.8778 23.0628 39.8619 23.0702C39.8268 23.0809 39.7943 23.0902 39.7592 23.1035C39.7446 23.1035 39.7314 23.1109 39.7161 23.1149C39.6943 23.123 39.6697 23.1283 39.6466 23.1351C39.6306 23.1424 39.6174 23.1451 39.6001 23.1485C39.5753 23.1558 39.55 23.1626 39.5246 23.1685L39.4326 23.1906C39.6498 23.2751 39.8752 23.3179 40.119 23.3179C44.6676 23.3179 49.2534 14.7167 56.8415 0.414307H53.8622L53.863 0.416987Z" fill="url(#paint6_linear_43_3952)"/>
<path d="M15.0745 1.36395C15.0778 1.36395 15.0811 1.35659 15.0831 1.35659C15.0864 1.35659 15.0917 1.35659 15.0937 1.34854H15.0996C15.1248 1.33984 15.148 1.32912 15.1725 1.31908C15.1791 1.31908 15.1831 1.31908 15.1877 1.31171C15.1944 1.31171 15.2003 1.30434 15.2063 1.303C15.2335 1.29429 15.2606 1.28291 15.2858 1.27353H15.2898C15.3501 1.25478 15.4057 1.23133 15.4647 1.20923C15.4726 1.20923 15.4805 1.20187 15.4905 1.20187C15.515 1.19315 15.5402 1.18378 15.5654 1.17775C15.5767 1.17105 15.5886 1.17105 15.5991 1.16637C15.6256 1.15833 15.6508 1.14895 15.6746 1.14292C15.6859 1.14292 15.6959 1.13555 15.7038 1.13489C15.7874 1.11078 15.8701 1.088 15.9536 1.06657C15.9655 1.06657 15.9755 1.0592 15.9881 1.05786C16.0118 1.05097 16.0363 1.04604 16.0609 1.04313C16.0715 1.03509 16.0841 1.03509 16.0967 1.03174C16.1212 1.0237 16.1444 1.02303 16.1702 1.01701H16.1875C16.2378 1.00629 16.2895 0.996913 16.3398 0.987534H16.3703C16.3948 0.979499 16.4166 0.978828 16.4405 0.974139C16.4538 0.974139 16.467 0.967441 16.4802 0.967441C16.5028 0.967441 16.5253 0.959406 16.5478 0.956054C16.5591 0.956054 16.571 0.956053 16.5844 0.94869C16.6373 0.941321 16.6923 0.937975 16.748 0.933286C16.5872 0.916203 16.4258 0.90726 16.2643 0.906494C11.142 0.906494 4.0844 10.9357 0.905762 23.9227H1.5179C2.46908 22.1293 3.39182 20.3206 4.28579 18.4974C6.51176 9.29877 11.0472 3.02566 15.0759 1.36328" fill="url(#paint7_linear_43_3952)"/>
<path d="M17.9575 5.06051C18.5106 4.502 19.0934 3.97435 19.7032 3.47984C19.5707 3.17442 19.4342 2.89178 19.2871 2.63257C18.8187 3.23203 18.3901 4.02372 17.9575 5.06051Z" fill="#0D82CA"/>
<path d="M18.3763 1.44084C18.7108 1.73688 19.0103 2.1441 19.2852 2.63237C19.3713 2.52051 19.4588 2.4167 19.5496 2.32024C19.1846 1.95468 18.7674 1.64651 18.312 1.40601C18.3296 1.41593 18.3478 1.42487 18.3664 1.4328C18.3664 1.4328 18.373 1.44084 18.3763 1.44084Z" fill="#0D82CA"/>
<path d="M4.28613 18.4987C8.95671 9.00197 11.1694 2.99138 15.0754 1.3645C11.0482 3.02755 6.51211 9.30134 4.28613 18.4987Z" fill="url(#paint8_linear_43_3952)"/>
<path d="M19.553 2.31958C19.4623 2.41737 19.3755 2.51984 19.2881 2.63169C19.4351 2.8909 19.5716 3.17287 19.7055 3.47963C19.8777 3.33965 20.0499 3.2077 20.2202 3.07911C20.0088 2.80383 19.7855 2.54798 19.553 2.31958Z" fill="#127BCA"/>
<path d="M6.4059 23.8806C6.37675 23.8887 6.3476 23.8887 6.3211 23.8914H6.30455C6.28069 23.8914 6.25486 23.8994 6.233 23.8994H6.2204C6.16211 23.9061 6.10447 23.9061 6.04815 23.9114H6.03027C10.7579 23.7714 12.9189 21.2746 13.9908 17.6523C14.8056 14.9063 15.4747 12.5928 16.0617 10.6519C14.0822 13.5922 12.0933 17.0978 10.0926 21.0247C9.12873 22.9175 7.66265 23.7078 6.40458 23.8773" fill="url(#paint9_linear_43_3952)"/>
<path d="M6.40381 23.8792C7.66122 23.7104 9.1273 22.9207 10.0919 21.0273C12.0913 17.101 14.0815 13.5948 16.0596 10.6538C16.7791 8.27077 17.3727 6.44627 17.9557 5.05786C14.0131 9.01755 10.0548 15.6015 6.40381 23.8766" fill="url(#paint10_linear_43_3952)"/>
<path d="M4.28285 18.4976C3.38914 20.3208 2.46661 22.1294 1.51562 23.9227H3.29773C3.53357 22.0219 3.86812 20.2081 4.28285 18.4976Z" fill="#05A1E6"/>
<path d="M16.5862 0.95403C16.5717 0.95403 16.5611 0.961394 16.5485 0.961394C16.5267 0.969435 16.5041 0.969435 16.4822 0.971444C16.4684 0.971444 16.4558 0.971444 16.4425 0.979479C16.418 0.986176 16.3955 0.98752 16.3716 0.992202C16.361 0.992202 16.3505 0.992202 16.3411 0.999572C16.2901 1.00895 16.2398 1.01899 16.1887 1.0277H16.1722C16.1481 1.03445 16.1235 1.0396 16.0987 1.04311C16.0854 1.05047 16.0735 1.05047 16.0616 1.05383C16.037 1.06052 16.0133 1.06454 15.9894 1.06856C15.9768 1.07659 15.9668 1.07659 15.9556 1.07727C15.8715 1.09803 15.7886 1.1208 15.7051 1.14558C15.6966 1.14558 15.6873 1.15228 15.6767 1.15429C15.6514 1.16186 15.6262 1.16968 15.6012 1.17773C15.5898 1.18577 15.5772 1.18577 15.5667 1.18845C15.5415 1.19578 15.5166 1.20359 15.4918 1.21189C15.4825 1.21189 15.4739 1.21926 15.4654 1.21926C15.4078 1.24203 15.3507 1.2648 15.2918 1.28423C15.2666 1.29226 15.2387 1.30298 15.2123 1.31303C15.2017 1.32039 15.1918 1.3224 15.1792 1.32709C15.154 1.3358 15.1288 1.34652 15.1056 1.35656C15.0964 1.36326 15.0877 1.3646 15.0811 1.36862C11.1751 2.9955 8.96233 9.00608 4.2911 18.5028C3.8594 20.2902 3.53069 22.1014 3.30664 23.9273H3.55639C4.26062 23.9273 4.45937 23.92 5.27026 23.92H6.05531C6.11096 23.9126 6.1686 23.9126 6.22755 23.9078H6.23815C6.26267 23.9078 6.28652 23.8998 6.31037 23.8998H6.32693C6.35344 23.8998 6.38324 23.8931 6.41173 23.8891C10.0634 15.614 14.0211 9.02952 17.9643 5.06912C18.3975 4.03298 18.8254 3.24064 19.2932 2.64253C19.0196 2.15427 18.7201 1.74637 18.3856 1.45033C18.3856 1.45033 18.3764 1.45033 18.3756 1.44229C18.3564 1.43426 18.3386 1.42421 18.3193 1.41417L18.265 1.38469C18.2465 1.37671 18.2283 1.36777 18.2107 1.3579C18.1875 1.34987 18.1683 1.33915 18.1478 1.3291C18.1305 1.3224 18.1153 1.31437 18.0981 1.30633C18.0632 1.2921 18.0288 1.27692 17.9947 1.26078L17.951 1.24337C17.9249 1.23342 17.8991 1.2227 17.8735 1.21122C17.8603 1.20318 17.8469 1.20185 17.8317 1.19648L17.7251 1.15764H17.7159C17.6748 1.1429 17.6343 1.13286 17.592 1.1208C17.582 1.11276 17.5741 1.11276 17.5641 1.11143C17.527 1.10071 17.4945 1.08999 17.46 1.08062C17.4508 1.08062 17.4429 1.07258 17.4355 1.07258C17.3496 1.0492 17.2627 1.02909 17.1752 1.0123C17.1666 1.0123 17.1573 1.0056 17.1487 1.0056C17.1115 0.997657 17.0739 0.991178 17.0361 0.986176C17.0268 0.978807 17.0215 0.978807 17.0136 0.978807C16.9695 0.971749 16.9254 0.965718 16.8811 0.960728H16.8572C16.8214 0.953359 16.7877 0.952022 16.7545 0.947998C16.6976 0.956039 16.6439 0.958719 16.5909 0.964074" fill="url(#paint11_linear_43_3952)"/>
<path d="M43.164 6.5884C42.265 9.62583 41.5369 12.1314 40.9043 14.193C43.3694 10.6125 45.7987 6.10882 48.1115 0.911377C45.4139 1.80486 43.9743 3.8517 43.164 6.5884Z" fill="url(#paint12_linear_43_3952)"/>
<path d="M40.9842 22.584C40.8583 22.651 40.7325 22.716 40.6079 22.7736C45.4043 20.5164 51.1257 11.5636 53.865 0.416504H53.3099C47.0169 12.2802 44.9923 20.2211 40.9842 22.584Z" fill="url(#paint13_linear_43_3952)"/>
<path d="M37.8531 21.5876C38.8965 20.2434 39.7464 17.9588 40.9072 14.1934C39.5689 16.1329 38.2207 17.8014 36.8726 19.161C36.8726 19.1691 36.8726 19.1691 36.8652 19.1738C37.1595 20.1041 37.482 20.9246 37.8504 21.5876" fill="#079AE1"/>
<path d="M37.8522 21.5867C37.4971 22.0441 37.1208 22.3924 36.7028 22.6509C36.6118 22.7069 36.5188 22.7594 36.4238 22.8084C36.9455 23.1074 37.5279 23.2815 38.1265 23.3174H38.1411C38.1782 23.3174 38.2166 23.3174 38.2563 23.3248H38.6465C38.6611 23.3248 38.6757 23.3248 38.6903 23.3174C38.7188 23.3174 38.748 23.3174 38.7764 23.3101H38.8195C38.8487 23.3101 38.8811 23.3019 38.9129 23.2993H38.9195C38.9295 23.2993 38.9394 23.2912 38.9487 23.2912C38.9818 23.2846 39.0162 23.2805 39.0486 23.2758H39.0785C39.1149 23.2678 39.1528 23.2632 39.1911 23.2558H39.2077C39.2832 23.2403 39.3574 23.2256 39.4316 23.2056C38.8129 22.9664 38.2948 22.4025 37.8482 21.5993" fill="#1969BC"/>
<path d="M29.0078 23.3252C29.457 23.3252 29.9101 23.2791 30.3652 23.1867C30.7866 23.1062 31.208 22.983 31.6307 22.8269C32.2679 23.1574 32.9741 23.3283 33.6903 23.3252H29.0078Z" fill="#1E5CB3"/>
<path d="M33.6896 23.325C34.7979 23.325 35.6757 23.1863 36.4217 22.8086C36.9433 23.1075 37.5256 23.2816 38.1243 23.3176H38.1388C38.176 23.3176 38.2143 23.3176 38.2541 23.325H38.3886H33.6855H33.6896Z" fill="#1E5CB3"/>
<path d="M38.3906 23.3257H38.6471C38.6623 23.3257 38.6763 23.3257 38.6908 23.3183C38.7186 23.3183 38.7484 23.3183 38.7783 23.3109H38.8206C38.8504 23.3109 38.8829 23.3029 38.9133 23.3002H38.9214C38.9306 23.3002 38.9399 23.2928 38.9491 23.2928C38.9823 23.2855 39.0167 23.2821 39.0485 23.2767C39.0598 23.2767 39.0684 23.2767 39.0797 23.2693C39.1168 23.262 39.1545 23.258 39.1923 23.25H39.2108C39.2863 23.2352 39.3599 23.2198 39.4348 23.1997C39.6514 23.2848 39.8773 23.327 40.1211 23.327L38.392 23.335L38.3906 23.3257Z" fill="#1D60B5"/>
<path d="M36.869 19.1734V19.166C36.3967 19.6445 35.9032 20.1009 35.3896 20.5337C35.1325 20.7487 34.8762 20.9531 34.6172 21.1459C34.8338 21.4192 35.0544 21.675 35.2863 21.9095C35.6234 22.261 36.0074 22.5633 36.4271 22.8076C36.5205 22.7594 36.6139 22.7065 36.7053 22.6503C37.1241 22.3917 37.5003 22.0435 37.8554 21.5859C37.4877 20.9236 37.1651 20.1024 36.8703 19.1721" fill="#175FAB"/>
<path d="M51.5555 0.416504H48.7624C48.6114 0.423873 48.4643 0.4299 48.3198 0.439278C48.2516 0.593994 48.1814 0.748711 48.1146 0.904099C45.801 6.10154 43.3724 10.6064 40.9066 14.1864C39.7473 17.9519 38.8959 20.2372 37.8525 21.5807C38.2983 22.3844 38.8177 22.9483 39.4346 23.1882C39.4531 23.1801 39.4677 23.1801 39.4835 23.1768H39.4935C39.504 23.1768 39.5161 23.1687 39.5273 23.1687C39.5524 23.1614 39.5803 23.1567 39.6048 23.1487C39.6214 23.1407 39.6347 23.1399 39.6512 23.1353C39.6744 23.1272 39.6982 23.1218 39.7201 23.1152C39.7347 23.1085 39.7486 23.1058 39.7631 23.1024C39.7989 23.0904 39.8314 23.0816 39.8659 23.0703C39.8823 23.0624 39.8993 23.0562 39.9169 23.0515C39.9367 23.0448 39.9566 23.0388 39.9745 23.0301C39.9957 23.0221 40.0162 23.0181 40.0341 23.0101C40.05 23.0026 40.0672 22.9979 40.0824 22.9912C40.1229 22.9758 40.1626 22.9632 40.2031 22.9464C40.2143 22.9464 40.2249 22.9357 40.2362 22.933C40.2607 22.9222 40.2858 22.9142 40.3104 22.9028C40.3189 22.8955 40.3303 22.8948 40.3415 22.8908C40.4263 22.8532 40.5138 22.8158 40.6005 22.7742H40.6098C40.7344 22.716 40.8602 22.6517 40.9848 22.584C44.9942 20.2203 47.0188 12.2796 53.3124 0.417175H51.5542L51.5555 0.416504Z" fill="url(#paint14_linear_43_3952)"/>
<path d="M16.7495 0.937911C16.7595 0.937911 16.7687 0.937911 16.7787 0.945281C16.8026 0.945281 16.827 0.945281 16.8516 0.953987H16.8754L17.0086 0.972072C17.0172 0.972072 17.0238 0.972072 17.0311 0.979442C17.0682 0.986805 17.1059 0.992831 17.1437 0.999529C17.1517 0.999529 17.163 1.00623 17.1715 1.00623C17.2577 1.02498 17.3464 1.04374 17.4305 1.06785C17.4386 1.06785 17.4471 1.07455 17.4537 1.07455C17.4902 1.08392 17.5226 1.09531 17.5584 1.10602C17.5691 1.10602 17.577 1.11339 17.5869 1.1154C17.6293 1.12679 17.669 1.13817 17.7101 1.15291C17.7121 1.15291 17.7148 1.15291 17.7193 1.15961C17.7545 1.17166 17.7903 1.1864 17.8274 1.19912C17.842 1.20582 17.8552 1.20984 17.8692 1.21319L17.946 1.24668C17.9605 1.24668 17.9752 1.25739 17.9904 1.26275C18.0235 1.27882 18.0586 1.29289 18.0931 1.3083C18.111 1.31567 18.1262 1.32437 18.1434 1.33107C18.1633 1.34179 18.1832 1.35116 18.2051 1.3592L18.26 1.38599C18.2793 1.39738 18.2971 1.40608 18.315 1.41613C18.7702 1.65695 19.1873 1.96509 19.5526 2.33037C19.693 2.17432 19.8401 2.035 19.9918 1.90976C19.1596 1.28687 18.2163 0.931885 17.1298 0.931885C17.0039 0.931885 16.8773 0.939253 16.7495 0.949298" fill="#7DCBEC"/>
<path d="M19.5518 2.31906C19.785 2.54744 20.0075 2.80331 20.2189 3.07859C20.4236 2.92856 20.6256 2.78389 20.8291 2.64993C20.5712 2.37551 20.2903 2.12408 19.9896 1.89844C19.8373 2.02302 19.6916 2.16368 19.5518 2.31906Z" fill="#5EC5ED"/>
<path d="M16.7453 0.937497C16.8732 0.926111 16.999 0.921421 17.1249 0.921421C18.2128 0.921421 19.1555 1.2764 19.9869 1.89796C20.8653 1.16723 21.9273 0.911377 23.402 0.911377H16.2617C16.426 0.911377 16.587 0.922092 16.7453 0.937497Z" fill="url(#paint15_linear_43_3952)"/>
<path d="M23.405 0.911377C21.9302 0.911377 20.8689 1.16656 19.9912 1.89728C20.2826 2.11496 20.5629 2.36746 20.8292 2.6481C22.0522 1.8283 23.2625 1.28511 24.4563 1.04801C24.9036 0.958245 25.3585 0.912484 25.8145 0.911377H23.405Z" fill="url(#paint16_linear_43_3952)"/>
<path d="M40.9045 14.1945C41.5386 12.1309 42.2646 9.62591 43.1649 6.58713C43.9765 3.84978 45.4121 1.80362 48.1111 0.91014C48.182 0.757432 48.2496 0.600035 48.3185 0.445312C43.9209 0.723271 41.8651 3.08423 40.8303 6.58047C39.0217 12.6834 37.926 16.6391 36.8706 19.1608C38.2181 17.8012 39.5656 16.1328 40.9045 14.1945Z" fill="url(#paint17_linear_43_3952)"/>
</g>
</g>
<defs>
<linearGradient id="paint0_linear_43_3952" x1="25.3464" y1="0.763268" x2="25.3464" y2="28.9179" gradientUnits="userSpaceOnUse">
<stop stop-color="#0994DC"/>
<stop offset="0.35" stop-color="#66CEF5"/>
<stop offset="0.846" stop-color="#127BCA"/>
<stop offset="1" stop-color="#127BCA"/>
</linearGradient>
<linearGradient id="paint1_linear_43_3952" x1="26.3693" y1="0.0496966" x2="26.3693" y2="28.9217" gradientUnits="userSpaceOnUse">
<stop stop-color="#0E76BC"/>
<stop offset="0.36" stop-color="#36AEE8"/>
<stop offset="0.846" stop-color="#00ADEF"/>
<stop offset="1" stop-color="#00ADEF"/>
</linearGradient>
<linearGradient id="paint2_linear_43_3952" x1="31.863" y1="22.6747" x2="31.863" y2="-0.297907" gradientUnits="userSpaceOnUse">
<stop stop-color="#1C63B7"/>
<stop offset="0.5" stop-color="#33BDF2"/>
<stop offset="1" stop-color="#33BDF2" stop-opacity="0.42"/>
</linearGradient>
<linearGradient id="paint3_linear_43_3952" x1="30.4326" y1="-2.87509" x2="30.4326" y2="27.1014" gradientUnits="userSpaceOnUse">
<stop stop-color="#166AB8"/>
<stop offset="0.4" stop-color="#36AEE8"/>
<stop offset="0.846" stop-color="#0798DD"/>
<stop offset="1" stop-color="#0798DD"/>
</linearGradient>
<linearGradient id="paint4_linear_43_3952" x1="28.1934" y1="-2.71768" x2="28.1934" y2="29.1589" gradientUnits="userSpaceOnUse">
<stop stop-color="#124379"/>
<stop offset="0.39" stop-color="#1487CB"/>
<stop offset="0.78" stop-color="#165197"/>
<stop offset="1" stop-color="#165197"/>
</linearGradient>
<linearGradient id="paint5_linear_43_3952" x1="16.0615" y1="7.06847" x2="20.3326" y2="7.06847" gradientUnits="userSpaceOnUse">
<stop stop-color="#33BDF2" stop-opacity="0.698"/>
<stop offset="1" stop-color="#1DACD8"/>
</linearGradient>
<linearGradient id="paint6_linear_43_3952" x1="48.1391" y1="22.101" x2="48.1391" y2="-0.278243" gradientUnits="userSpaceOnUse">
<stop stop-color="#136AB4"/>
<stop offset="0.6" stop-color="#59CAF5" stop-opacity="0.549"/>
<stop offset="1" stop-color="#59CAF5" stop-opacity="0.235"/>
</linearGradient>
<linearGradient id="paint7_linear_43_3952" x1="0.905099" y1="12.4146" x2="16.748" y2="12.4146" gradientUnits="userSpaceOnUse">
<stop stop-color="#05A1E6" stop-opacity="0.247"/>
<stop offset="1" stop-color="#05A1E6"/>
</linearGradient>
<linearGradient id="paint8_linear_43_3952" x1="9.6808" y1="22.6647" x2="9.6808" y2="-0.249656" gradientUnits="userSpaceOnUse">
<stop stop-color="#318ED5"/>
<stop offset="1" stop-color="#38A7E4"/>
</linearGradient>
<linearGradient id="paint9_linear_43_3952" x1="11.0467" y1="22.7447" x2="11.0467" y2="0.470644" gradientUnits="userSpaceOnUse">
<stop stop-color="#05A1E6"/>
<stop offset="1" stop-color="#05A1E6" stop-opacity="0.549"/>
</linearGradient>
<linearGradient id="paint10_linear_43_3952" x1="12.1794" y1="23.8812" x2="12.1794" y2="5.05921" gradientUnits="userSpaceOnUse">
<stop stop-color="#1959A6"/>
<stop offset="0.5" stop-color="#05A1E6"/>
<stop offset="0.918" stop-color="#7EC5EA"/>
<stop offset="1" stop-color="#7EC5EA"/>
</linearGradient>
<linearGradient id="paint11_linear_43_3952" x1="12.867" y1="22.6788" x2="6.20787" y2="3.39234" gradientUnits="userSpaceOnUse">
<stop stop-color="#165096"/>
<stop offset="1" stop-color="#0D82CA"/>
</linearGradient>
<linearGradient id="paint12_linear_43_3952" x1="44.5076" y1="11.1382" x2="44.5076" y2="0.472676" gradientUnits="userSpaceOnUse">
<stop stop-color="#05A1E6"/>
<stop offset="0.874" stop-color="#0495D6"/>
<stop offset="1" stop-color="#0495D6"/>
</linearGradient>
<linearGradient id="paint13_linear_43_3952" x1="49.2601" y1="-0.513145" x2="38.9688" y2="21.1424" gradientUnits="userSpaceOnUse">
<stop stop-color="#38A7E4" stop-opacity="0.329"/>
<stop offset="0.962" stop-color="#0E88D3"/>
<stop offset="1" stop-color="#0E88D3"/>
</linearGradient>
<linearGradient id="paint14_linear_43_3952" x1="45.5845" y1="0.348854" x2="45.5845" y2="23.6161" gradientUnits="userSpaceOnUse">
<stop stop-color="#168CD4"/>
<stop offset="0.5" stop-color="#1C87CC"/>
<stop offset="1" stop-color="#154B8D"/>
</linearGradient>
<linearGradient id="paint15_linear_43_3952" x1="17.4521" y1="-0.129456" x2="17.5585" y2="2.31044" gradientUnits="userSpaceOnUse">
<stop stop-color="#97D6EE"/>
<stop offset="0.703" stop-color="#55C1EA"/>
<stop offset="1" stop-color="#55C1EA"/>
</linearGradient>
<linearGradient id="paint16_linear_43_3952" x1="20.392" y1="2.53893" x2="20.8711" y2="-0.0371667" gradientUnits="userSpaceOnUse">
<stop stop-color="#7ACCEC"/>
<stop offset="1" stop-color="#3FB7ED"/>
</linearGradient>
<linearGradient id="paint17_linear_43_3952" x1="42.5945" y1="1.63618" x2="42.5945" y2="24.3938" gradientUnits="userSpaceOnUse">
<stop stop-color="#1DA7E7"/>
<stop offset="1" stop-color="#37ABE7" stop-opacity="0"/>
</linearGradient>
<clipPath id="clip0_43_3952">
<rect width="55.936" height="24.2389" fill="white" transform="translate(0.905762 0.414307)"/>
</clipPath>
</defs>
</svg>
