<svg width="32" height="32" viewBox="0 0 32 32" fill="none" xmlns="http://www.w3.org/2000/svg">
<path d="M1.99998 28.15H2.00011H11.5001C12.6964 28.15 13.876 27.8695 14.9442 27.3309C16.0124 26.7923 16.9394 26.0107 17.6507 25.0489C18.3621 24.0871 18.8379 22.9719 19.0401 21.7928C19.2364 20.6481 19.1694 19.4742 18.8447 18.36C20.8935 16.7911 23.4445 14.6101 25.4948 12.1363C27.5694 9.63327 29.1501 6.80817 29.1501 4C29.1501 3.695 29.0289 3.40249 28.8133 3.18683C28.5976 2.97116 28.3051 2.85 28.0001 2.85C25.1919 2.85 22.3668 4.43101 19.8638 6.50576C17.39 8.55625 15.209 11.1072 13.6401 13.1554C12.5259 12.8308 11.352 12.7637 10.2073 12.96C9.02823 13.1622 7.913 13.638 6.95119 14.3494C5.98938 15.0607 5.2078 15.9877 4.66923 17.0559C4.13066 18.1241 3.8501 19.3037 3.85011 20.5C3.85011 24.2816 1.4631 25.974 1.35687 26.0473C1.15315 26.185 0.998929 26.3845 0.916874 26.6163C0.834747 26.8484 0.829241 27.1006 0.901166 27.336C0.973092 27.5714 1.11865 27.7776 1.31645 27.9241C1.51424 28.0706 1.75383 28.1498 1.99998 28.15ZM11.5001 25.85H4.6123C5.41205 24.6333 6.15011 22.8675 6.15011 20.5C6.15011 19.4419 6.46388 18.4075 7.05175 17.5277C7.63961 16.6479 8.47517 15.9622 9.45275 15.5572C10.4303 15.1523 11.506 15.0464 12.5438 15.2528C13.5816 15.4592 14.5349 15.9688 15.2831 16.717C16.0313 17.4652 16.5409 18.4185 16.7473 19.4563C16.9537 20.4941 16.8478 21.5698 16.4429 22.5474C16.0379 23.5249 15.3522 24.3605 14.4724 24.9484C13.5926 25.5362 12.5582 25.85 11.5001 25.85ZM19.1742 15.1586C18.753 15.5092 18.309 15.8662 17.8422 16.2297C17.2902 15.4131 16.5869 14.7097 15.7702 14.1577C16.1331 13.6904 16.4901 13.2464 16.8413 12.8258C17.7507 13.4594 18.5405 14.2492 19.1742 15.1586ZM26.6809 5.3174C26.2712 7.05696 24.9337 9.90031 20.9128 13.6335C20.2 12.6582 19.3407 11.7989 18.3654 11.0861C22.0984 7.06547 24.9419 5.73313 26.6809 5.3174Z" fill="#C63031" stroke="#C63031" stroke-width="0.3"/>
</svg>
