<svg width="48" height="47" viewBox="0 0 48 47" fill="none" xmlns="http://www.w3.org/2000/svg">
<g style="mix-blend-mode:luminosity">
<g style="mix-blend-mode:luminosity">
<path d="M45.7783 23.71C45.7783 20.9284 42.2787 18.2924 36.9134 16.6577C38.1516 11.2144 37.6013 6.88384 35.1766 5.49736C34.6177 5.17214 33.9642 5.01808 33.2506 5.01808V6.92665C33.6461 6.92665 33.9642 7.00367 34.2308 7.14917C35.4002 7.81673 35.9074 10.3586 35.512 13.628C35.4173 14.4324 35.2626 15.2798 35.0734 16.1442C33.3882 15.7334 31.5482 15.4167 29.6135 15.2114C28.4527 13.628 27.249 12.1902 26.0367 10.9321C28.8397 8.33881 31.4708 6.91809 33.2591 6.91809V5.00952C30.8946 5.00952 27.7993 6.68701 24.6695 9.59691C21.5398 6.70412 18.4444 5.04376 16.0799 5.04376V6.95232C17.8597 6.95232 20.4994 8.36448 23.3024 10.9406C22.0987 12.1987 20.8949 13.628 19.7513 15.2114C17.8081 15.4167 15.9681 15.7334 14.2828 16.1528C14.0851 15.2969 13.9389 14.4668 13.8357 13.6708C13.4316 10.4014 13.9304 7.85953 15.0911 7.1834C15.349 7.02934 15.6843 6.96088 16.0799 6.96088V5.05232C15.3577 5.05232 14.7041 5.20637 14.1367 5.5316C11.7206 6.91809 11.1789 11.2402 12.4256 16.6663C7.07751 18.3096 3.59521 20.937 3.59521 23.71C3.59521 26.4915 7.0947 29.1275 12.46 30.7622C11.2218 36.2055 11.7722 40.5361 14.1969 41.9226C14.7558 42.2478 15.4092 42.4019 16.1314 42.4019C18.4959 42.4019 21.5914 40.7243 24.7212 37.8145C27.8509 40.7073 30.9463 42.3677 33.3108 42.3677C34.033 42.3677 34.6865 42.2135 35.254 41.8884C37.6701 40.5019 38.2118 36.1798 36.965 30.7537C42.296 29.119 45.7783 26.4829 45.7783 23.71ZM34.5833 18.0014C34.2652 19.1054 33.8697 20.2437 33.4226 21.382C33.07 20.6974 32.7003 20.0126 32.2962 19.328C31.9006 18.6433 31.4794 17.9757 31.0581 17.3253C32.279 17.505 33.457 17.7275 34.5833 18.0014ZM30.6453 27.1163C29.9747 28.2717 29.2868 29.3672 28.5731 30.3857C27.292 30.4969 25.9937 30.5569 24.6868 30.5569C23.3884 30.5569 22.09 30.4969 20.8175 30.3942C20.1038 29.3758 19.4074 28.2888 18.7368 27.142C18.0832 26.0208 17.49 24.8825 16.9483 23.7356C17.4814 22.5888 18.0832 21.442 18.7282 20.3207C19.3989 19.1654 20.0867 18.0699 20.8003 17.0514C22.0814 16.9402 23.3798 16.8802 24.6868 16.8802C25.985 16.8802 27.2834 16.9402 28.556 17.0429C29.2696 18.0613 29.9661 19.1482 30.6367 20.2951C31.2902 21.4163 31.8835 22.5545 32.4251 23.7014C31.8835 24.8483 31.2902 25.9951 30.6453 27.1163ZM33.4226 26.0037C33.8868 27.1505 34.2824 28.2973 34.6092 29.41C33.4827 29.6839 32.2962 29.9149 31.0666 30.0946C31.4879 29.4356 31.9092 28.7595 32.3048 28.0663C32.7003 27.3815 33.07 26.6883 33.4226 26.0037ZM24.7039 35.1357C23.9043 34.314 23.1046 33.3982 22.3136 32.3969C23.0875 32.4312 23.8785 32.4568 24.6781 32.4568C25.4864 32.4568 26.286 32.4397 27.0684 32.3969C26.2946 33.3982 25.4949 34.314 24.7039 35.1357ZM18.3068 30.0946C17.0859 29.9149 15.9079 29.6924 14.7815 29.4186C15.0997 28.3145 15.4952 27.1762 15.9423 26.0379C16.2949 26.7226 16.6646 27.4073 17.0686 28.0919C17.4728 28.7766 17.8855 29.4442 18.3068 30.0946ZM24.6609 12.2843C25.4605 13.1059 26.2602 14.0217 27.0513 15.023C26.2774 14.9888 25.4864 14.9631 24.6868 14.9631C23.8785 14.9631 23.0789 14.9802 22.2964 15.023C23.0703 14.0217 23.8699 13.1059 24.6609 12.2843ZM18.2982 17.3253C17.8769 17.9843 17.4556 18.6605 17.0601 19.3537C16.6646 20.0384 16.2949 20.723 15.9423 21.4078C15.478 20.2609 15.0825 19.114 14.7558 18.0014C15.8822 17.7361 17.0686 17.505 18.2982 17.3253ZM10.5168 28.0406C7.47304 26.7483 5.50403 25.0537 5.50403 23.71C5.50403 22.3663 7.47304 20.6632 10.5168 19.3793C11.2562 19.0626 12.0645 18.7803 12.8985 18.5149C13.3886 20.1924 14.0335 21.9383 14.8332 23.7271C14.0421 25.5072 13.4059 27.2447 12.9243 28.9135C12.0731 28.6482 11.2648 28.3573 10.5168 28.0406ZM15.1427 40.2708C13.9733 39.6032 13.466 37.0613 13.8616 33.7919C13.9561 32.9875 14.1108 32.1401 14.3 31.2757C15.9853 31.6866 17.8254 32.0032 19.7599 32.2086C20.9207 33.7919 22.1244 35.2297 23.3368 36.4879C20.5338 39.0811 17.9027 40.5019 16.1143 40.5019C15.7274 40.4933 15.4006 40.4162 15.1427 40.2708ZM35.5377 33.7491C35.9418 37.0185 35.4432 39.5604 34.2824 40.2366C34.0244 40.3906 33.6891 40.4591 33.2935 40.4591C31.5138 40.4591 28.874 39.0469 26.0711 36.4708C27.2748 35.2127 28.4786 33.7834 29.6221 32.2001C31.5653 31.9947 33.4053 31.678 35.0906 31.2587C35.2884 32.1231 35.4432 32.9532 35.5377 33.7491ZM38.8481 28.0406C38.1086 28.3573 37.3003 28.6397 36.4663 28.9051C35.9762 27.2275 35.3314 25.4816 34.5317 23.6928C35.3228 21.9127 35.9591 20.1753 36.4405 18.5064C37.2918 18.7717 38.1 19.0626 38.8567 19.3793C41.9004 20.6716 43.8695 22.3663 43.8695 23.71C43.8608 25.0537 41.8918 26.7568 38.8481 28.0406Z" fill="#61DAFB"/>
<path d="M24.677 27.6209C26.8471 27.6209 28.6064 25.8697 28.6064 23.7096C28.6064 21.5495 26.8471 19.7983 24.677 19.7983C22.5068 19.7983 20.7476 21.5495 20.7476 23.7096C20.7476 25.8697 22.5068 27.6209 24.677 27.6209Z" fill="#61DAFB"/>
</g>
</g>
</svg>
