<svg width="38" height="32" viewBox="0 0 38 32" fill="none" xmlns="http://www.w3.org/2000/svg">
<mask id="path-1-outside-1_27_164" maskUnits="userSpaceOnUse" x="1.06152" y="5.0011" width="37" height="24" fill="black">
<rect fill="white" x="1.06152" y="5.0011" width="37" height="24"/>
<path d="M36.346 18.8C36.2243 18.8788 36.0858 18.9361 35.9385 18.9687C35.7911 19.0013 35.6378 19.0085 35.4872 18.99C35.3367 18.9714 35.1918 18.9274 35.0609 18.8605C34.93 18.7936 34.8157 18.7051 34.7244 18.6C34.0263 17.7898 33.1176 17.1325 32.0715 16.6809C31.0254 16.2293 29.8711 15.9961 28.7016 16C28.4738 16 28.2511 15.942 28.0613 15.8333C27.8715 15.7246 27.7231 15.5699 27.6345 15.3888C27.5744 15.2657 27.5434 15.1336 27.5434 15C27.5434 14.8665 27.5744 14.7343 27.6345 14.6113C27.7231 14.4301 27.8715 14.2755 28.0613 14.1668C28.2511 14.058 28.4738 14 28.7016 14C29.3514 14 29.9883 13.8426 30.5397 13.5457C31.0912 13.2488 31.5352 12.8244 31.8213 12.3206C32.1073 11.8168 32.224 11.2538 32.1581 10.6956C32.0921 10.1374 31.8462 9.60636 31.4482 9.1628C31.0502 8.71923 30.5161 8.38092 29.9066 8.18629C29.2971 7.99166 28.6365 7.94851 28 8.06175C27.3635 8.17499 26.7765 8.44007 26.3058 8.82688C25.835 9.2137 25.4993 9.70675 25.3369 10.25C25.2988 10.3772 25.2322 10.4967 25.1406 10.6017C25.0491 10.7067 24.9346 10.7951 24.8035 10.8618C24.6724 10.9285 24.5274 10.9723 24.3767 10.9907C24.226 11.0091 24.0726 11.0016 23.9253 10.9688C23.7779 10.9359 23.6395 10.8784 23.5179 10.7994C23.3963 10.7203 23.294 10.6214 23.2167 10.5083C23.1394 10.3951 23.0886 10.2699 23.0674 10.1398C23.0461 10.0097 23.0547 9.87724 23.0928 9.75002C23.3183 8.99666 23.7443 8.29914 24.337 7.71296C24.9297 7.12678 25.6726 6.66811 26.5068 6.37346C27.3409 6.0788 28.2432 5.9563 29.1418 6.01568C30.0404 6.07507 30.9105 6.31471 31.683 6.71553C32.4555 7.11636 33.1089 7.66731 33.5914 8.32454C34.0738 8.98178 34.3719 9.72715 34.462 10.5014C34.5521 11.2756 34.4316 12.0573 34.1102 12.7842C33.7888 13.5112 33.2753 14.1633 32.6106 14.6888C34.1856 15.2775 35.5547 16.2118 36.582 17.3988C36.6732 17.5041 36.7395 17.6239 36.7771 17.7514C36.8146 17.8789 36.8226 18.0115 36.8007 18.1417C36.7788 18.2718 36.7273 18.397 36.6493 18.51C36.5713 18.6229 36.4682 18.7215 36.346 18.8ZM28.5452 26.5C28.629 26.6138 28.6853 26.7411 28.7106 26.8742C28.736 27.0073 28.7299 27.1434 28.6927 27.2744C28.6556 27.4054 28.5881 27.5286 28.4944 27.6365C28.4007 27.7444 28.2826 27.8348 28.1474 27.9023C28.0121 27.9698 27.8625 28.0129 27.7074 28.0292C27.5523 28.0455 27.3951 28.0345 27.245 27.9969C27.095 27.9593 26.9553 27.8959 26.8344 27.8105C26.7135 27.7251 26.6139 27.6195 26.5414 27.5C25.8118 26.4334 24.7727 25.5494 23.5266 24.9353C22.2805 24.3212 20.8704 23.9982 19.4356 23.9982C18.0008 23.9982 16.5908 24.3212 15.3447 24.9353C14.0986 25.5494 13.0594 26.4334 12.3298 27.5C12.2574 27.6195 12.1577 27.7251 12.0368 27.8105C11.9159 27.8959 11.7762 27.9593 11.6262 27.9969C11.4762 28.0345 11.3189 28.0455 11.1638 28.0292C11.0088 28.0129 10.8591 27.9698 10.7239 27.9023C10.5886 27.8348 10.4706 27.7444 10.3769 27.6365C10.2831 27.5286 10.2157 27.4054 10.1785 27.2744C10.1413 27.1434 10.1353 27.0073 10.1606 26.8742C10.186 26.7411 10.2422 26.6138 10.326 26.5C11.4489 24.8342 13.1611 23.5234 15.2109 22.76C14.0575 21.9976 13.2098 20.9422 12.787 19.7423C12.3642 18.5424 12.3876 17.2583 12.8538 16.0704C13.32 14.8825 14.2056 13.8507 15.3862 13.1199C16.5668 12.389 17.9829 11.996 19.4356 11.996C20.8883 11.996 22.3045 12.389 23.485 13.1199C24.6656 13.8507 25.5512 14.8825 26.0175 16.0704C26.4837 17.2583 26.507 18.5424 26.0842 19.7423C25.6614 20.9422 24.8137 21.9976 23.6603 22.76C25.7101 23.5234 27.4223 24.8342 28.5452 26.5ZM19.4356 22C20.3519 22 21.2477 21.7654 22.0096 21.3259C22.7715 20.8864 23.3653 20.2617 23.7159 19.5308C24.0666 18.7998 24.1583 17.9956 23.9796 17.2197C23.8008 16.4437 23.3596 15.731 22.7116 15.1716C22.0637 14.6122 21.2382 14.2312 20.3395 14.0769C19.4408 13.9225 18.5092 14.0018 17.6627 14.3045C16.8161 14.6073 16.0925 15.1199 15.5834 15.7777C15.0744 16.4355 14.8026 17.2089 14.8026 18C14.8026 19.0609 15.2908 20.0783 16.1596 20.8284C17.0285 21.5786 18.2069 22 19.4356 22ZM11.3279 15C11.3279 14.7348 11.2059 14.4804 10.9887 14.2929C10.7715 14.1054 10.4769 14 10.1697 14C9.51979 14 8.88295 13.8426 8.33149 13.5457C7.78003 13.2488 7.33605 12.8244 7.04998 12.3206C6.76392 11.8168 6.64723 11.2538 6.71318 10.6956C6.77912 10.1374 7.02506 9.60636 7.42305 9.1628C7.82104 8.71923 8.35513 8.38092 8.96466 8.18629C9.57419 7.99166 10.2347 7.94851 10.8712 8.06175C11.5077 8.17499 12.0947 8.44007 12.5655 8.82688C13.0362 9.2137 13.3719 9.70675 13.5344 10.25C13.6112 10.5069 13.803 10.727 14.0678 10.8618C14.3325 10.9966 14.6484 11.0351 14.946 10.9688C15.2436 10.9025 15.4985 10.7368 15.6546 10.5083C15.8107 10.2797 15.8553 10.0069 15.7785 9.75002C15.553 8.99666 15.1269 8.29914 14.5342 7.71296C13.9416 7.12678 13.1986 6.66811 12.3645 6.37346C11.5304 6.0788 10.6281 5.9563 9.72948 6.01568C8.83086 6.07507 7.96071 6.31471 7.18824 6.71553C6.41578 7.11636 5.76233 7.66731 5.27988 8.32454C4.79744 8.98178 4.49932 9.72715 4.40924 10.5014C4.31917 11.2756 4.43962 12.0573 4.76102 12.7842C5.08242 13.5112 5.5959 14.1633 6.2606 14.6888C4.68724 15.2781 3.31969 16.2123 2.29361 17.3988C2.10911 17.6109 2.02978 17.8777 2.07309 18.1404C2.1164 18.403 2.27879 18.6401 2.52454 18.7994C2.77028 18.9587 3.07926 19.0272 3.3835 18.9898C3.68773 18.9524 3.9623 18.8122 4.1468 18.6C4.84491 17.7898 5.7536 17.1325 6.7997 16.6809C7.8458 16.2293 9.0001 15.9961 10.1697 16C10.4769 16 10.7715 15.8947 10.9887 15.7071C11.2059 15.5196 11.3279 15.2652 11.3279 15Z"/>
</mask>
<path d="M36.346 18.8C36.2243 18.8788 36.0858 18.9361 35.9385 18.9687C35.7911 19.0013 35.6378 19.0085 35.4872 18.99C35.3367 18.9714 35.1918 18.9274 35.0609 18.8605C34.93 18.7936 34.8157 18.7051 34.7244 18.6C34.0263 17.7898 33.1176 17.1325 32.0715 16.6809C31.0254 16.2293 29.8711 15.9961 28.7016 16C28.4738 16 28.2511 15.942 28.0613 15.8333C27.8715 15.7246 27.7231 15.5699 27.6345 15.3888C27.5744 15.2657 27.5434 15.1336 27.5434 15C27.5434 14.8665 27.5744 14.7343 27.6345 14.6113C27.7231 14.4301 27.8715 14.2755 28.0613 14.1668C28.2511 14.058 28.4738 14 28.7016 14C29.3514 14 29.9883 13.8426 30.5397 13.5457C31.0912 13.2488 31.5352 12.8244 31.8213 12.3206C32.1073 11.8168 32.224 11.2538 32.1581 10.6956C32.0921 10.1374 31.8462 9.60636 31.4482 9.1628C31.0502 8.71923 30.5161 8.38092 29.9066 8.18629C29.2971 7.99166 28.6365 7.94851 28 8.06175C27.3635 8.17499 26.7765 8.44007 26.3058 8.82688C25.835 9.2137 25.4993 9.70675 25.3369 10.25C25.2988 10.3772 25.2322 10.4967 25.1406 10.6017C25.0491 10.7067 24.9346 10.7951 24.8035 10.8618C24.6724 10.9285 24.5274 10.9723 24.3767 10.9907C24.226 11.0091 24.0726 11.0016 23.9253 10.9688C23.7779 10.9359 23.6395 10.8784 23.5179 10.7994C23.3963 10.7203 23.294 10.6214 23.2167 10.5083C23.1394 10.3951 23.0886 10.2699 23.0674 10.1398C23.0461 10.0097 23.0547 9.87724 23.0928 9.75002C23.3183 8.99666 23.7443 8.29914 24.337 7.71296C24.9297 7.12678 25.6726 6.66811 26.5068 6.37346C27.3409 6.0788 28.2432 5.9563 29.1418 6.01568C30.0404 6.07507 30.9105 6.31471 31.683 6.71553C32.4555 7.11636 33.1089 7.66731 33.5914 8.32454C34.0738 8.98178 34.3719 9.72715 34.462 10.5014C34.5521 11.2756 34.4316 12.0573 34.1102 12.7842C33.7888 13.5112 33.2753 14.1633 32.6106 14.6888C34.1856 15.2775 35.5547 16.2118 36.582 17.3988C36.6732 17.5041 36.7395 17.6239 36.7771 17.7514C36.8146 17.8789 36.8226 18.0115 36.8007 18.1417C36.7788 18.2718 36.7273 18.397 36.6493 18.51C36.5713 18.6229 36.4682 18.7215 36.346 18.8ZM28.5452 26.5C28.629 26.6138 28.6853 26.7411 28.7106 26.8742C28.736 27.0073 28.7299 27.1434 28.6927 27.2744C28.6556 27.4054 28.5881 27.5286 28.4944 27.6365C28.4007 27.7444 28.2826 27.8348 28.1474 27.9023C28.0121 27.9698 27.8625 28.0129 27.7074 28.0292C27.5523 28.0455 27.3951 28.0345 27.245 27.9969C27.095 27.9593 26.9553 27.8959 26.8344 27.8105C26.7135 27.7251 26.6139 27.6195 26.5414 27.5C25.8118 26.4334 24.7727 25.5494 23.5266 24.9353C22.2805 24.3212 20.8704 23.9982 19.4356 23.9982C18.0008 23.9982 16.5908 24.3212 15.3447 24.9353C14.0986 25.5494 13.0594 26.4334 12.3298 27.5C12.2574 27.6195 12.1577 27.7251 12.0368 27.8105C11.9159 27.8959 11.7762 27.9593 11.6262 27.9969C11.4762 28.0345 11.3189 28.0455 11.1638 28.0292C11.0088 28.0129 10.8591 27.9698 10.7239 27.9023C10.5886 27.8348 10.4706 27.7444 10.3769 27.6365C10.2831 27.5286 10.2157 27.4054 10.1785 27.2744C10.1413 27.1434 10.1353 27.0073 10.1606 26.8742C10.186 26.7411 10.2422 26.6138 10.326 26.5C11.4489 24.8342 13.1611 23.5234 15.2109 22.76C14.0575 21.9976 13.2098 20.9422 12.787 19.7423C12.3642 18.5424 12.3876 17.2583 12.8538 16.0704C13.32 14.8825 14.2056 13.8507 15.3862 13.1199C16.5668 12.389 17.9829 11.996 19.4356 11.996C20.8883 11.996 22.3045 12.389 23.485 13.1199C24.6656 13.8507 25.5512 14.8825 26.0175 16.0704C26.4837 17.2583 26.507 18.5424 26.0842 19.7423C25.6614 20.9422 24.8137 21.9976 23.6603 22.76C25.7101 23.5234 27.4223 24.8342 28.5452 26.5ZM19.4356 22C20.3519 22 21.2477 21.7654 22.0096 21.3259C22.7715 20.8864 23.3653 20.2617 23.7159 19.5308C24.0666 18.7998 24.1583 17.9956 23.9796 17.2197C23.8008 16.4437 23.3596 15.731 22.7116 15.1716C22.0637 14.6122 21.2382 14.2312 20.3395 14.0769C19.4408 13.9225 18.5092 14.0018 17.6627 14.3045C16.8161 14.6073 16.0925 15.1199 15.5834 15.7777C15.0744 16.4355 14.8026 17.2089 14.8026 18C14.8026 19.0609 15.2908 20.0783 16.1596 20.8284C17.0285 21.5786 18.2069 22 19.4356 22ZM11.3279 15C11.3279 14.7348 11.2059 14.4804 10.9887 14.2929C10.7715 14.1054 10.4769 14 10.1697 14C9.51979 14 8.88295 13.8426 8.33149 13.5457C7.78003 13.2488 7.33605 12.8244 7.04998 12.3206C6.76392 11.8168 6.64723 11.2538 6.71318 10.6956C6.77912 10.1374 7.02506 9.60636 7.42305 9.1628C7.82104 8.71923 8.35513 8.38092 8.96466 8.18629C9.57419 7.99166 10.2347 7.94851 10.8712 8.06175C11.5077 8.17499 12.0947 8.44007 12.5655 8.82688C13.0362 9.2137 13.3719 9.70675 13.5344 10.25C13.6112 10.5069 13.803 10.727 14.0678 10.8618C14.3325 10.9966 14.6484 11.0351 14.946 10.9688C15.2436 10.9025 15.4985 10.7368 15.6546 10.5083C15.8107 10.2797 15.8553 10.0069 15.7785 9.75002C15.553 8.99666 15.1269 8.29914 14.5342 7.71296C13.9416 7.12678 13.1986 6.66811 12.3645 6.37346C11.5304 6.0788 10.6281 5.9563 9.72948 6.01568C8.83086 6.07507 7.96071 6.31471 7.18824 6.71553C6.41578 7.11636 5.76233 7.66731 5.27988 8.32454C4.79744 8.98178 4.49932 9.72715 4.40924 10.5014C4.31917 11.2756 4.43962 12.0573 4.76102 12.7842C5.08242 13.5112 5.5959 14.1633 6.2606 14.6888C4.68724 15.2781 3.31969 16.2123 2.29361 17.3988C2.10911 17.6109 2.02978 17.8777 2.07309 18.1404C2.1164 18.403 2.27879 18.6401 2.52454 18.7994C2.77028 18.9587 3.07926 19.0272 3.3835 18.9898C3.68773 18.9524 3.9623 18.8122 4.1468 18.6C4.84491 17.7898 5.7536 17.1325 6.7997 16.6809C7.8458 16.2293 9.0001 15.9961 10.1697 16C10.4769 16 10.7715 15.8947 10.9887 15.7071C11.2059 15.5196 11.3279 15.2652 11.3279 15Z" fill="#C63031"/>
<path d="M36.346 18.8C36.2243 18.8788 36.0858 18.9361 35.9385 18.9687C35.7911 19.0013 35.6378 19.0085 35.4872 18.99C35.3367 18.9714 35.1918 18.9274 35.0609 18.8605C34.93 18.7936 34.8157 18.7051 34.7244 18.6C34.0263 17.7898 33.1176 17.1325 32.0715 16.6809C31.0254 16.2293 29.8711 15.9961 28.7016 16C28.4738 16 28.2511 15.942 28.0613 15.8333C27.8715 15.7246 27.7231 15.5699 27.6345 15.3888C27.5744 15.2657 27.5434 15.1336 27.5434 15C27.5434 14.8665 27.5744 14.7343 27.6345 14.6113C27.7231 14.4301 27.8715 14.2755 28.0613 14.1668C28.2511 14.058 28.4738 14 28.7016 14C29.3514 14 29.9883 13.8426 30.5397 13.5457C31.0912 13.2488 31.5352 12.8244 31.8213 12.3206C32.1073 11.8168 32.224 11.2538 32.1581 10.6956C32.0921 10.1374 31.8462 9.60636 31.4482 9.1628C31.0502 8.71923 30.5161 8.38092 29.9066 8.18629C29.2971 7.99166 28.6365 7.94851 28 8.06175C27.3635 8.17499 26.7765 8.44007 26.3058 8.82688C25.835 9.2137 25.4993 9.70675 25.3369 10.25C25.2988 10.3772 25.2322 10.4967 25.1406 10.6017C25.0491 10.7067 24.9346 10.7951 24.8035 10.8618C24.6724 10.9285 24.5274 10.9723 24.3767 10.9907C24.226 11.0091 24.0726 11.0016 23.9253 10.9688C23.7779 10.9359 23.6395 10.8784 23.5179 10.7994C23.3963 10.7203 23.294 10.6214 23.2167 10.5083C23.1394 10.3951 23.0886 10.2699 23.0674 10.1398C23.0461 10.0097 23.0547 9.87724 23.0928 9.75002C23.3183 8.99666 23.7443 8.29914 24.337 7.71296C24.9297 7.12678 25.6726 6.66811 26.5068 6.37346C27.3409 6.0788 28.2432 5.9563 29.1418 6.01568C30.0404 6.07507 30.9105 6.31471 31.683 6.71553C32.4555 7.11636 33.1089 7.66731 33.5914 8.32454C34.0738 8.98178 34.3719 9.72715 34.462 10.5014C34.5521 11.2756 34.4316 12.0573 34.1102 12.7842C33.7888 13.5112 33.2753 14.1633 32.6106 14.6888C34.1856 15.2775 35.5547 16.2118 36.582 17.3988C36.6732 17.5041 36.7395 17.6239 36.7771 17.7514C36.8146 17.8789 36.8226 18.0115 36.8007 18.1417C36.7788 18.2718 36.7273 18.397 36.6493 18.51C36.5713 18.6229 36.4682 18.7215 36.346 18.8ZM28.5452 26.5C28.629 26.6138 28.6853 26.7411 28.7106 26.8742C28.736 27.0073 28.7299 27.1434 28.6927 27.2744C28.6556 27.4054 28.5881 27.5286 28.4944 27.6365C28.4007 27.7444 28.2826 27.8348 28.1474 27.9023C28.0121 27.9698 27.8625 28.0129 27.7074 28.0292C27.5523 28.0455 27.3951 28.0345 27.245 27.9969C27.095 27.9593 26.9553 27.8959 26.8344 27.8105C26.7135 27.7251 26.6139 27.6195 26.5414 27.5C25.8118 26.4334 24.7727 25.5494 23.5266 24.9353C22.2805 24.3212 20.8704 23.9982 19.4356 23.9982C18.0008 23.9982 16.5908 24.3212 15.3447 24.9353C14.0986 25.5494 13.0594 26.4334 12.3298 27.5C12.2574 27.6195 12.1577 27.7251 12.0368 27.8105C11.9159 27.8959 11.7762 27.9593 11.6262 27.9969C11.4762 28.0345 11.3189 28.0455 11.1638 28.0292C11.0088 28.0129 10.8591 27.9698 10.7239 27.9023C10.5886 27.8348 10.4706 27.7444 10.3769 27.6365C10.2831 27.5286 10.2157 27.4054 10.1785 27.2744C10.1413 27.1434 10.1353 27.0073 10.1606 26.8742C10.186 26.7411 10.2422 26.6138 10.326 26.5C11.4489 24.8342 13.1611 23.5234 15.2109 22.76C14.0575 21.9976 13.2098 20.9422 12.787 19.7423C12.3642 18.5424 12.3876 17.2583 12.8538 16.0704C13.32 14.8825 14.2056 13.8507 15.3862 13.1199C16.5668 12.389 17.9829 11.996 19.4356 11.996C20.8883 11.996 22.3045 12.389 23.485 13.1199C24.6656 13.8507 25.5512 14.8825 26.0175 16.0704C26.4837 17.2583 26.507 18.5424 26.0842 19.7423C25.6614 20.9422 24.8137 21.9976 23.6603 22.76C25.7101 23.5234 27.4223 24.8342 28.5452 26.5ZM19.4356 22C20.3519 22 21.2477 21.7654 22.0096 21.3259C22.7715 20.8864 23.3653 20.2617 23.7159 19.5308C24.0666 18.7998 24.1583 17.9956 23.9796 17.2197C23.8008 16.4437 23.3596 15.731 22.7116 15.1716C22.0637 14.6122 21.2382 14.2312 20.3395 14.0769C19.4408 13.9225 18.5092 14.0018 17.6627 14.3045C16.8161 14.6073 16.0925 15.1199 15.5834 15.7777C15.0744 16.4355 14.8026 17.2089 14.8026 18C14.8026 19.0609 15.2908 20.0783 16.1596 20.8284C17.0285 21.5786 18.2069 22 19.4356 22ZM11.3279 15C11.3279 14.7348 11.2059 14.4804 10.9887 14.2929C10.7715 14.1054 10.4769 14 10.1697 14C9.51979 14 8.88295 13.8426 8.33149 13.5457C7.78003 13.2488 7.33605 12.8244 7.04998 12.3206C6.76392 11.8168 6.64723 11.2538 6.71318 10.6956C6.77912 10.1374 7.02506 9.60636 7.42305 9.1628C7.82104 8.71923 8.35513 8.38092 8.96466 8.18629C9.57419 7.99166 10.2347 7.94851 10.8712 8.06175C11.5077 8.17499 12.0947 8.44007 12.5655 8.82688C13.0362 9.2137 13.3719 9.70675 13.5344 10.25C13.6112 10.5069 13.803 10.727 14.0678 10.8618C14.3325 10.9966 14.6484 11.0351 14.946 10.9688C15.2436 10.9025 15.4985 10.7368 15.6546 10.5083C15.8107 10.2797 15.8553 10.0069 15.7785 9.75002C15.553 8.99666 15.1269 8.29914 14.5342 7.71296C13.9416 7.12678 13.1986 6.66811 12.3645 6.37346C11.5304 6.0788 10.6281 5.9563 9.72948 6.01568C8.83086 6.07507 7.96071 6.31471 7.18824 6.71553C6.41578 7.11636 5.76233 7.66731 5.27988 8.32454C4.79744 8.98178 4.49932 9.72715 4.40924 10.5014C4.31917 11.2756 4.43962 12.0573 4.76102 12.7842C5.08242 13.5112 5.5959 14.1633 6.2606 14.6888C4.68724 15.2781 3.31969 16.2123 2.29361 17.3988C2.10911 17.6109 2.02978 17.8777 2.07309 18.1404C2.1164 18.403 2.27879 18.6401 2.52454 18.7994C2.77028 18.9587 3.07926 19.0272 3.3835 18.9898C3.68773 18.9524 3.9623 18.8122 4.1468 18.6C4.84491 17.7898 5.7536 17.1325 6.7997 16.6809C7.8458 16.2293 9.0001 15.9961 10.1697 16C10.4769 16 10.7715 15.8947 10.9887 15.7071C11.2059 15.5196 11.3279 15.2652 11.3279 15Z" stroke="#C63031" stroke-width="0.6" mask="url(#path-1-outside-1_27_164)"/>
</svg>
